<?xml version="1.0" encoding="UTF-8" standalone="no"?>
<!-- Created with Inkscape (http://www.inkscape.org/) -->

<svg
   xmlns:dc="http://purl.org/dc/elements/1.1/"
   xmlns:cc="http://creativecommons.org/ns#"
   xmlns:rdf="http://www.w3.org/1999/02/22-rdf-syntax-ns#"
   xmlns:svg="http://www.w3.org/2000/svg"
   xmlns="http://www.w3.org/2000/svg"
   xmlns:sodipodi="http://sodipodi.sourceforge.net/DTD/sodipodi-0.dtd"
   xmlns:inkscape="http://www.inkscape.org/namespaces/inkscape"
   width="102.69408mm"
   height="128.7066mm"
   viewBox="0 0 102.69409 128.7066"
   version="1.1"
   id="svg8"
   inkscape:version="0.92.2 (unknown)"
   sodipodi:docname="logo.svg">
  <defs
     id="defs2" />
  <sodipodi:namedview
     id="base"
     pagecolor="#ffffff"
     bordercolor="#666666"
     borderopacity="1.0"
     inkscape:pageopacity="0.0"
     inkscape:pageshadow="2"
     inkscape:zoom="2"
     inkscape:cx="125.04986"
     inkscape:cy="251.5377"
     inkscape:document-units="mm"
     inkscape:current-layer="layer2"
     showgrid="false"
     inkscape:window-width="1859"
     inkscape:window-height="1176"
     inkscape:window-x="1981"
     inkscape:window-y="24"
     inkscape:window-maximized="1" />
  <metadata
     id="metadata5">
    <rdf:RDF>
      <cc:Work
         rdf:about="">
        <dc:format>image/svg+xml</dc:format>
        <dc:type
           rdf:resource="http://purl.org/dc/dcmitype/StillImage" />
        <dc:title />
      </cc:Work>
    </rdf:RDF>
  </metadata>
  <g
     inkscape:groupmode="layer"
     id="layer5"
     inkscape:label="Shield"
     style="display:inline"
     transform="translate(-0.23200168,-0.28185321)">
    <path
       style="display:inline;opacity:1;fill:#00a049;fill-opacity:1;fill-rule:evenodd;stroke:#00a048;stroke-width:0.35355338;stroke-opacity:1"
       d="m 367.61405,784.41069 c -1.68105,-0.97733 -11.07302,-4.23016 -25.89776,-8.96951 -8.92801,-2.85423 -20.13068,-6.46695 -24.89481,-8.02828 -65.69207,-21.52903 -109.18044,-44.35196 -136.42697,-71.5976 -5.7627,-5.76253 -5.78801,-5.79477 -5.57235,-7.09917 0.11914,-0.72069 0.21838,-29.33465 0.22052,-63.5866 l 0.004,-62.27625 3.27037,-0.2401 c 29.21939,-2.14525 51.1814,-17.79144 59.82348,-42.61949 3.58124,-10.28864 4.77822,-18.69047 4.78475,-33.58518 0.005,-12.24059 -0.98349,-19.42509 -3.92465,-28.51407 -1.73723,-5.36854 -5.58008,-13.0517 -8.71025,-17.41476 -10.724,-14.94789 -28.62345,-25.47935 -49.41007,-29.07128 -2.33345,-0.40323 -4.60061,-0.79884 -5.03813,-0.87915 l -0.7955,-0.14602 v -55.8547 -55.8547 c 89.09546,14.49569 193.74726,16 193.74726,16 0,0 103.9447,-0.62043 193.74726,-16 v 55.8547 55.8547 l -0.79549,0.15825 c -0.43753,0.087 -2.78424,0.51006 -5.21492,0.94005 -10.2062,1.80548 -19.83717,5.35668 -28.58585,10.5404 -14.96954,8.86963 -25.14932,21.96687 -29.89088,38.4574 -4.5066,15.67336 -4.3849,39.01025 0.28782,55.18905 5.29059,18.31815 16.6309,31.92569 33.18007,39.81364 7.52206,3.58531 17.26397,6.16905 26.24628,6.96102 2.52791,0.22289 4.7653,0.56879 4.7653,0.56879 l -0.12775,127.27031 -4.68432,5.32983 c -15.48564,15.49434 -34.77459,28.64179 -61.35529,41.8201 -23.47179,11.63696 -47.36993,20.97307 -83.20128,32.50358 -26.68784,8.58813 -37.09805,12.03955 -40.604,13.4619 -3.77858,1.53297 -3.98118,1.57448 -4.94673,1.01314 z"
       id="path1113"
       inkscape:connector-curvature="0"
       transform="matrix(0.26458333,0,0,0.26458333,-45.959715,-78.6868)"
       sodipodi:nodetypes="ccscccccsccscsccccccccscsscccccssccc" />
  </g>
  <g
     inkscape:groupmode="layer"
     id="layer4"
     inkscape:label="Shamrock"
     transform="translate(-46.191716,-78.968652)"
     style="display:inline">
    <path
       style="fill:#ffffff;fill-opacity:1;stroke-width:0.05113038"
       d="m 104.83406,148.62256 c -0.3893,-0.3104 -1.24045,-1.2147 -1.61372,-1.71447 -0.65575,-0.87799 -1.15683,-2.0842 -1.37,-3.29793 -0.30422,-1.73212 0.0486,-4.0647 0.94478,-6.24597 0.44839,-1.09134 1.04212,-2.5784 1.03171,-2.58394 -0.007,-0.004 -0.24043,0.0126 -0.52164,0.0346 -1.00804,0.079 -2.12946,-0.11317 -2.89298,-0.49579 -1.276904,-0.63989 -2.063904,-1.55442 -2.674599,-3.10805 -0.73806,-1.87761 -0.81665,-4.49934 -0.21056,-7.02386 0.22556,-0.93953 0.709395,-2.10562 1.081575,-2.60669 l 0.12138,-0.16339 -0.13072,-0.0923 c -0.0719,-0.0507 -0.17943,-0.12886 -0.23896,-0.17363 l -0.10826,-0.0814 0.17207,-0.30209 c 0.0947,-0.16614 0.32943,-0.53672 0.52176,-0.8235 l 0.3497,-0.5214 0.57314,0.36299 c 0.315214,0.19966 0.722694,0.43227 0.905474,0.51696 0.18278,0.0847 0.33906,0.15884 0.34727,0.16481 0.008,0.007 -0.14165,0.23806 -0.333,0.51576 -1.361994,1.97656 -1.931954,3.41389 -2.116234,5.33673 -0.20581,2.14753 0.40025,4.21568 1.586834,5.41478 0.73659,0.74438 1.56073,1.12857 2.50921,1.16975 1.06929,0.0464 1.83016,-0.21131 3.03123,-1.02674 0.24701,-0.16772 0.4656,-0.28845 0.48573,-0.26831 0.0822,0.0822 0.0246,1.48118 -0.0808,1.97103 -0.1938,0.89883 -0.26303,1.10663 -1.43608,4.31055 -0.2554,0.69755 -0.49695,1.38782 -0.53677,1.53391 -0.0398,0.14609 -0.13404,0.4727 -0.20933,0.72579 -0.28201,0.94794 -0.34859,1.3759 -0.35401,2.27531 -0.006,0.89022 0.0246,1.07966 0.26407,1.66174 0.13515,0.32866 0.5039,0.92793 0.63942,1.03915 0.0937,0.0769 0.0913,0.0834 0.31517,-0.86555 0.38212,-1.62014 0.24153,-3.27635 -0.34434,-4.05687 -0.066,-0.088 -0.0639,-0.13882 0.0186,-0.43638 0.14093,-0.50859 0.34754,-1.06027 0.54278,-1.44935 0.20864,-0.41579 0.20026,-0.41874 0.62795,0.22026 0.37502,0.56029 0.57095,0.95192 0.76293,1.52495 0.29011,0.86594 0.33809,1.20788 0.33491,2.38761 -0.005,1.57559 -0.17665,2.476 -0.82248,4.29495 -0.18439,0.5193 -0.8093,1.96031 -0.88246,2.03494 -0.0219,0.0225 -0.15281,-0.049 -0.29065,-0.15901 z m -3.16505,-10.04139 c -0.46468,-0.16123 -1.707784,-0.70543 -2.173034,-0.9513 -1.14628,-0.60578 -2.555595,-1.70774 -3.172775,-2.48082 -0.15319,-0.19189 -0.36585,-0.45648 -0.47257,-0.588 -0.397131,-0.48936 -1.023527,-1.64816 -1.270637,-2.3506 -0.825638,-2.34696 -0.84705,-4.82401 -0.06811,-7.8845 0.245684,-0.96531 1.018067,-2.99754 1.350237,-3.55259 0.0508,-0.0849 0.21464,-0.38445 0.36407,-0.66567 0.32973,-0.62053 1.15049,-1.86614 1.41537,-2.14803 0.10595,-0.11279 0.288985,-0.31197 0.406685,-0.44265 l 0.21398,-0.23756 0.45072,0.30834 c 0.35772,0.24471 0.83166,0.5766 0.9825,0.68801 0.0113,0.008 -0.10607,0.18233 -0.26071,0.38665 -0.87982,1.16233 -1.796165,2.79646 -2.330055,4.15515 -0.72101,1.83493 -1.02166,3.23744 -1.06865,4.98521 -0.0336,1.24786 0.0118,1.75533 0.23983,2.68435 0.43128,1.75699 1.19157,2.9874 2.606565,4.21828 0.8633,0.75095 2.001394,1.40631 3.195644,1.84013 0.33746,0.12259 0.63197,0.23842 0.65447,0.25742 0.0225,0.019 -0.0505,0.21107 -0.16209,0.42681 -0.17542,0.33897 -0.29529,0.62653 -0.53029,1.27206 -0.0546,0.14981 -0.1247,0.16481 -0.37112,0.0793 z m -21.577014,-3.24542 c -1.04416,-0.12965 -2.052714,-0.43067 -2.965563,-0.88512 -1.760257,-0.87628 -3.177567,-2.51625 -3.823087,-4.42364 -0.310661,-0.91796 -0.406093,-1.46555 -0.433373,-2.48676 -0.03294,-1.23291 0.09248,-2.07132 0.480804,-3.21428 0.399786,-1.17669 1.213774,-2.58022 2.112809,-3.64304 0.231933,-0.27419 0.440275,-0.49852 0.462981,-0.49852 0.02271,0 0.47453,0.18701 1.004053,0.41558 0.529523,0.22856 1.036962,0.44722 1.127644,0.48588 l 0.164875,0.0704 -0.241571,0.21717 c -0.132863,0.11943 -0.253074,0.2287 -0.267136,0.24281 -0.01406,0.0142 -0.111453,0.0994 -0.216427,0.1894 -0.177118,0.15196 -0.514355,0.52399 -1.051947,1.16042 -0.753906,0.89254 -1.413128,2.252 -1.626063,3.35329 -0.09771,0.50537 -0.09538,1.51532 0.0049,2.0929 0.32836,1.89254 1.702538,3.50687 3.678097,4.32094 1.086974,0.4479 2.501942,0.58349 3.532025,0.33846 1.60351,-0.38144 3.052484,-1.55109 4.513067,-3.64303 0.621658,-0.89042 0.734299,-1.07931 1.8535,-3.10847 0.317959,-0.5765 0.743666,-1.34729 0.94599,-1.71287 0.202323,-0.36558 0.58082,-1.05367 0.841104,-1.52907 0.429579,-0.78463 0.945683,-1.64805 1.653304,-2.76588 0.292479,-0.46206 0.994122,-1.35496 1.064708,-1.35496 0.09828,0 1.680837,0.82495 1.680837,0.87615 0,0.0297 -0.123018,0.19564 -0.27337,0.36869 -0.150353,0.17305 -0.537263,0.69429 -0.859796,1.15828 -0.553891,0.79684 -0.69629,1.03408 -1.256774,2.09367 -0.499496,0.9443 -1.107465,2.08598 -1.240289,2.32912 -0.07678,0.14061 -0.560429,1.04945 -1.0747,2.01965 -0.51426,0.9702 -1.008425,1.87904 -1.098118,2.01965 -1.095958,1.71789 -1.795683,2.6363 -2.546644,3.34259 -1.644437,1.54658 -3.282284,2.22129 -5.334252,2.1974 -0.36197,-0.005 -0.727155,-0.0162 -0.81152,-0.0267 z m 0.562435,-3.95851 c -1.742761,-0.2073 -3.20403,-1.25047 -3.792494,-2.70735 -0.368211,-0.9116 -0.352026,-2.25119 0.03985,-3.29857 0.0573,-0.15312 0.112798,-0.27841 0.123346,-0.27841 0.04578,0 2.036645,0.41005 2.047373,0.4217 0.0066,0.007 -0.03348,0.18547 -0.08894,0.39639 -0.161011,0.61234 -0.06818,1.35375 0.228292,1.82339 0.215388,0.3412 0.709638,0.7557 1.092221,0.91597 0.30541,0.12796 0.415921,0.14696 0.861647,0.14814 0.481048,9.4e-4 0.532484,-0.008 0.869217,-0.17505 0.492642,-0.24283 1.214578,-0.96719 1.684164,-1.68985 0.191875,-0.29527 0.391875,-0.59921 0.444435,-0.67541 0.05254,-0.0763 0.09557,-0.1519 0.09557,-0.16824 0,-0.0163 0.04301,-0.092 0.09561,-0.16825 0.199464,-0.28903 0.568011,-0.89804 0.55271,-0.91335 -0.0088,-0.008 -0.09497,0.007 -0.191534,0.0355 -0.54512,0.15995 -1.537404,0.31417 -2.307933,0.3587 -1.93824,0.11201 -4.127907,-0.19722 -6.12519,-0.86502 -0.509161,-0.17024 -0.509401,-0.171 -0.220512,-0.69076 0.233393,-0.41991 0.638894,-0.92147 0.93385,-1.15508 l 0.215989,-0.17106 0.340641,0.11046 c 1.564699,0.50746 4.456048,0.60893 6.604111,0.23176 0.947517,-0.16637 1.841288,-0.38652 2.684345,-0.6612 0.693012,-0.22578 1.935164,-0.7929 2.556548,-1.16722 0.166005,-0.10004 0.310258,-0.17338 0.32058,-0.16305 0.0099,0.01 -0.06669,0.13776 -0.171237,0.28322 -0.104534,0.14545 -0.65474,1.16583 -1.222771,2.26752 -2.191653,4.25076 -2.265387,4.38331 -3.147,5.65838 -0.3611,0.52224 -0.908252,1.11957 -1.364066,1.48912 -0.614841,0.49848 -1.194023,0.72144 -2.110656,0.8125 -0.544646,0.0541 -0.552003,0.0541 -1.048173,-0.006 z m 34.691959,-5.30818 c -1.59899,-0.30785 -2.83162,-0.76398 -4.83006,-1.78734 -0.96617,-0.49474 -1.55643,-0.85037 -3.28559,-1.97952 -1.15932,-0.75703 -2.26939,-1.47996 -2.46685,-1.60651 -0.50999,-0.32684 -2.4784,-1.60625 -3.50391,-2.27745 -0.47808,-0.31288 -0.96126,-0.62646 -1.07375,-0.69684 -0.415374,-0.25989 -2.107334,-1.10598 -2.441469,-1.22087 -0.18982,-0.0653 -0.34512,-0.13795 -0.34512,-0.16147 0,-0.0358 0.20214,-0.39182 0.812845,-1.43173 0.095,-0.1618 0.13771,-0.15759 0.72105,0.0712 0.65057,0.25505 1.926654,0.95276 2.837734,1.55152 0.88651,0.58263 3.37262,2.21313 4.75512,3.11859 0.72777,0.47666 1.34901,0.85077 2.8633,1.72432 0.36559,0.21088 1.08341,0.62611 1.59516,0.92271 0.68803,0.39877 1.18095,0.63923 1.89184,0.92285 1.40383,0.56011 2.0848,0.74696 3.11918,0.85584 1.50088,0.158 2.87773,-0.30117 3.9518,-1.31789 0.97324,-0.92127 1.65742,-2.18659 1.91417,-3.5401 0.12095,-0.63762 0.10893,-1.89979 -0.0235,-2.45761 -0.14629,-0.61648 -0.23733,-0.8814 -0.48624,-1.41491 -0.30494,-0.65363 -0.57739,-1.03552 -1.1583,-1.62353 -0.27574,-0.27912 -0.50135,-0.51507 -0.50135,-0.52436 0,-0.0807 1.10773,-1.65289 1.15659,-1.64166 0.16298,0.0374 1.12066,1.00971 1.53613,1.55955 0.71528,0.9466 1.10628,1.70801 1.43856,2.80126 0.28625,0.94179 0.39841,2.38763 0.2625,3.38368 -0.15626,1.14503 -0.5825,2.3308 -1.17712,3.27464 -1.12829,1.79092 -2.69781,2.99389 -4.49491,3.44512 -0.62813,0.15771 -2.3629,0.18634 -3.06783,0.0507 z m -42.557538,-3.64771 c -1.285181,-1.27207 -2.015106,-2.55635 -2.404709,-4.23104 -0.15504,-0.66644 -0.198703,-1.1915 -0.172204,-2.07078 0.02925,-0.97036 0.157288,-1.68592 0.448326,-2.50539 0.82044,-2.31012 2.773543,-4.28347 4.881126,-4.93173 1.413577,-0.43482 3.471514,-0.30968 5.317561,0.32331 1.581414,0.54225 3.618967,1.57053 5.32957,2.68964 1.19197,0.77981 3.851857,2.51565 6.418848,4.18892 0.793773,0.51741 1.661795,1.05483 1.928956,1.19426 0.267161,0.13943 0.761842,0.39714 1.099303,0.5727 0.337462,0.17555 0.757862,0.37166 0.934212,0.43577 0.17637,0.0641 0.33104,0.13339 0.34376,0.15395 0.0127,0.0205 -0.19447,0.35694 -0.46036,0.74753 -0.26589,0.39059 -0.49026,0.72938 -0.49859,0.75287 -0.0234,0.066 -0.61705,-0.14837 -1.239366,-0.44741 -0.641983,-0.30848 -1.110853,-0.57854 -2.198607,-1.26635 -0.421824,-0.26674 -1.18111,-0.745 -1.687308,-1.06283 -0.506188,-0.31783 -1.035388,-0.6516 -1.175999,-0.74172 -0.266701,-0.17093 -0.992816,-0.62937 -3.604692,-2.27582 -0.857706,-0.54066 -1.640004,-1.0354 -1.738428,-1.09939 -0.756309,-0.49178 -1.139589,-0.70499 -1.907712,-1.06125 -1.812105,-0.84042 -2.998841,-1.18248 -4.332493,-1.24876 -1.44154,-0.0717 -2.652588,0.34119 -3.6092,1.23032 -0.690752,0.64204 -1.302784,1.55325 -1.651994,2.45955 -0.146476,0.38015 -0.197421,0.56129 -0.366701,1.30383 -0.08426,0.36963 -0.08332,1.61265 0.0015,2.09094 0.245596,1.38341 0.908581,2.57341 1.963562,3.52442 0.134908,0.12162 0.238188,0.24076 0.229512,0.26475 -0.03738,0.10343 -1.093015,1.68181 -1.126505,1.68437 -0.02035,9.4e-4 -0.345003,-0.30205 -0.721461,-0.67466 z m 7.784622,0.40204 c -0.01172,-0.011 -0.205374,-0.0352 -0.430348,-0.0541 -0.467894,-0.0393 -1.059907,-0.12534 -1.093571,-0.159 -0.02905,-0.029 -0.108692,0.0238 0.848914,-0.56295 0.455993,-0.27939 0.829885,-0.52269 0.830868,-0.54065 9.37e-4,-0.018 -0.08449,-0.0479 -0.18995,-0.0663 -0.411766,-0.0724 -1.805079,-0.44117 -2.339215,-0.61915 -1.404153,-0.46786 -2.052279,-0.82461 -2.736022,-1.50601 -0.73314,-0.73061 -0.998811,-1.18019 -1.228778,-2.07936 -0.281593,-1.10101 0.05815,-2.45033 0.873273,-3.46828 1.154218,-1.44143 2.629663,-1.98567 4.291633,-1.58301 1.325304,0.32107 2.483437,0.93381 5.344581,2.82766 3.612041,2.39089 3.950204,2.611 4.191534,2.72825 0.127185,0.0617 0.231215,0.12501 0.231182,0.1405 -2.2e-5,0.0155 -0.465941,0.0256 -1.035387,0.0224 -1.08625,-0.007 -2.028588,0.0767 -3.259506,0.28605 -1.123781,0.1912 -2.394745,0.54883 -2.846237,0.8009 -0.21684,0.12105 -0.272398,0.13037 -0.597147,0.10014 -0.628067,-0.0584 -2.213747,-0.5232 -2.611564,-0.76557 l -0.200523,-0.12217 0.200523,-0.12488 c 0.443393,-0.27611 2.021679,-1.05897 2.50159,-1.24084 0.281107,-0.1065 0.751263,-0.2564 1.04479,-0.33304 0.51873,-0.13546 0.53019,-0.14156 0.409042,-0.21758 -0.06856,-0.043 -0.650952,-0.37995 -1.294221,-0.74874 -1.453385,-0.83323 -1.860483,-0.98868 -2.665199,-1.01767 -0.480394,-0.0173 -0.603455,-0.005 -0.843651,0.0873 -0.906183,0.34678 -1.440128,1.23605 -1.274758,2.12308 0.05879,0.31536 0.301928,0.81514 0.502681,1.03331 0.377334,0.41006 0.860521,0.71587 1.528122,0.96715 1.418484,0.53392 4.977482,1.0359 7.514034,1.05984 0.59745,0.006 1.085966,0.0218 1.085604,0.0359 -7.24e-4,0.0263 -0.121174,0.0975 -2.248556,1.32914 -0.688985,0.39886 -1.379247,0.80008 -1.533913,0.89157 -0.795074,0.47038 -1.225668,0.69301 -1.432638,0.7407 -0.214418,0.0495 -1.490467,0.0789 -1.537187,0.0355 z m 34.819316,-0.31386 c -1.00076,-0.16894 -1.79603,-0.48574 -3.36988,-1.34237 -0.18279,-0.0995 -1.64445,-1.05732 -3.24815,-2.12853 -1.60368,-1.07119 -3.07029,-2.02816 -3.25911,-2.12659 -0.18884,-0.0984 -0.34343,-0.19046 -0.34351,-0.20452 -1.1e-4,-0.014 0.55768,-0.0278 1.23947,-0.0306 1.51372,-0.007 2.43636,-0.11298 4.0007,-0.46312 0.84713,-0.18961 1.33791,-0.34174 1.7812,-0.5521 0.41722,-0.198 0.55747,-0.21102 1.10765,-0.10278 0.83898,0.16495 2.46754,0.74751 2.36713,0.84675 -0.10179,0.10058 -1.47283,0.84772 -1.93251,1.05305 -0.72623,0.32441 -1.07714,0.45213 -1.67451,0.6094 -0.28825,0.0759 -0.54169,0.15319 -0.56319,0.17178 -0.0477,0.0412 1.41227,0.90817 2.18657,1.29843 0.69871,0.35216 1.09834,0.4856 1.63785,0.5469 0.93368,0.10608 1.71258,-0.26855 2.11051,-1.01513 0.21953,-0.41188 0.27126,-0.68142 0.21163,-1.10257 -0.10574,-0.74627 -0.59996,-1.39312 -1.36472,-1.78599 -0.87205,-0.44801 -1.82653,-0.68991 -4.18031,-1.05942 -1.07053,-0.16807 -3.05487,-0.31978 -4.2739,-0.32677 l -0.89929,-0.006 0.49025,-0.28786 c 1.9211,-1.12801 4.51292,-2.59804 4.68294,-2.65611 0.22817,-0.0778 1.44273,-0.0976 2.04522,-0.0333 0.57763,0.0617 1.15057,0.15487 1.14858,0.18669 -7.6e-4,0.0162 -0.22534,0.16626 -0.49852,0.33343 -0.86017,0.52632 -1.19851,0.74972 -1.17346,0.77477 0.0134,0.0134 0.29763,0.0817 0.63174,0.15207 0.7221,0.15191 1.22092,0.2969 2.21809,0.64471 1.25437,0.43749 1.78861,0.74928 2.47847,1.44642 0.86931,0.87851 1.31598,1.97479 1.22787,3.01368 -0.12125,1.42988 -0.724,2.51038 -1.88335,3.3761 -0.57922,0.4325 -1.16923,0.68233 -1.87413,0.79355 -0.40022,0.063 -0.52413,0.0602 -1.02733,-0.0248 z m -19.835424,-5.59032 c -0.9075,-0.51356 -0.866431,-0.4382 -0.602846,-1.10647 0.316807,-0.80322 0.786581,-1.66035 1.946791,-3.55202 0.64731,-1.05541 1.280115,-2.0915 1.406255,-2.30241 0.12614,-0.21091 0.31601,-0.52152 0.42194,-0.69026 0.10596,-0.16873 0.4868,-0.78996 0.84637,-1.38052 0.35959,-0.59056 0.871944,-1.43036 1.138594,-1.86625 1.63882,-2.679 1.65833,-2.71399 2.10969,-3.78366 0.68109,-1.61407 0.94872,-2.62718 1.0025,-3.794799 0.0789,-1.712021 -0.52876,-3.115177 -1.80273,-4.163004 -1.25346,-1.030977 -2.808964,-1.572638 -4.394219,-1.530177 -1.74901,0.04684 -3.35108,0.77371 -4.342843,1.970386 -0.193362,0.23331 -0.332559,0.35861 -0.383477,0.345183 -0.07119,-0.01875 -1.545633,-0.964757 -1.659338,-1.064608 -0.05583,-0.04903 0.09719,-0.236426 0.701622,-0.858994 1.505596,-1.5508 3.4909,-2.453034 5.684036,-2.583127 3.055529,-0.181273 6.274729,1.649367 7.629829,4.338794 0.4837,0.959986 0.6462,1.720216 0.64544,3.019814 -7.3e-4,1.161958 -0.0881,1.715356 -0.47271,2.992162 -0.61076,2.02747 -1.40994,3.60443 -3.45113,6.80975 -0.81847,1.28526 -1.56865,2.46504 -1.66708,2.62174 -0.0984,0.15669 -0.671324,1.05763 -1.273104,2.00207 -0.60178,0.94445 -1.2249,1.96199 -1.384705,2.26121 -0.72244,1.35266 -0.96945,1.85368 -1.12532,2.28246 -0.092,0.25309 -0.17072,0.46472 -0.17493,0.47027 -0.005,0.006 -0.3636,-0.19135 -0.798635,-0.43754 z m 4.999554,-1.69748 c -0.44291,-0.22366 -0.805294,-0.42671 -0.805294,-0.45122 0,-0.0245 0.13413,-0.20469 0.298064,-0.40041 0.51558,-0.61559 1.43307,-1.99172 1.84624,-2.76917 0.21859,-0.41132 0.57662,-1.08146 0.79562,-1.48922 0.49832,-0.92782 0.51833,-0.96525 1.79651,-3.35884 1.10719,-2.07339 1.96415,-3.46051 2.56829,-4.15726 0.78314,-0.90314 0.97204,-1.10072 1.46036,-1.52746 1.6066,-1.403962 3.51337,-2.018084 5.57699,-1.796258 1.69785,0.182513 3.08643,0.693012 4.21679,1.550268 0.67491,0.51184 0.8607,0.69275 1.40125,1.36432 0.54167,0.67301 0.803,1.10023 1.09462,1.78958 0.47243,1.11675 0.65636,2.01646 0.67059,3.28028 0.0272,2.40682 -0.89244,4.66939 -2.79459,6.8761 l -0.27047,0.31376 -0.80415,-0.35658 c -0.44228,-0.19613 -0.94794,-0.41456 -1.1237,-0.4854 -0.17576,-0.0708 -0.31957,-0.14654 -0.31957,-0.16824 0,-0.0217 0.15196,-0.17285 0.33767,-0.3359 0.57976,-0.509 1.46077,-1.50863 1.86878,-2.12041 0.60137,-0.90168 0.84514,-1.45406 1.08766,-2.4647 0.17202,-0.71681 0.1867,-1.82674 0.0327,-2.46812 -0.31386,-1.30699 -0.87253,-2.2342 -1.8498,-3.07 -1.05584,-0.90302 -2.33595,-1.43289 -3.76505,-1.55845 -1.4335,-0.12594 -2.65271,0.3012 -4.01979,1.40832 -1.1192,0.90638 -2.10336,2.22389 -3.41743,4.57507 -0.0707,0.12655 -0.73774,1.3 -1.48226,2.60765 -0.74453,1.30767 -1.6152,2.83773 -1.93484,3.40018 -0.4147,0.72969 -0.72042,1.19469 -1.06732,1.62339 -0.26738,0.33042 -0.51009,0.59956 -0.53934,0.59808 -0.0293,-9.4e-4 -0.4156,-0.18569 -0.85852,-0.40936 z m -6.199542,-0.47368 c -0.606423,-0.5371 -1.901325,-1.35781 -3.31963,-2.10401 -0.761403,-0.4006 -2.074625,-1.09069 -2.918284,-1.53353 -0.843649,-0.44286 -1.694965,-0.892 -1.891826,-0.9981 -0.19685,-0.10606 -0.611007,-0.32511 -0.920347,-0.48669 -1.154647,-0.60316 -1.436857,-0.76626 -2.015027,-1.16462 -0.758545,-0.52263 -0.929019,-0.6598 -1.632232,-1.31332 -1.030117,-0.95734 -1.70693,-1.89565 -2.133315,-2.95756 -0.272008,-0.67743 -0.357112,-1.02489 -0.453297,-1.85072 -0.117926,-1.0125 0.05064,-2.574847 0.390239,-3.616662 0.208571,-0.639866 0.826725,-1.791865 1.228014,-2.288531 1.407688,-1.742252 3.205832,-2.747727 5.400881,-3.020033 2.069668,-0.256741 4.189528,0.254953 6.215351,1.500266 0.48335,0.297128 0.61421,0.394916 1.389993,1.038677 l 0.467741,0.388128 -0.457934,1.094652 c -0.25186,0.602067 -0.476121,1.113564 -0.498366,1.136687 -0.02227,0.02315 -0.187198,-0.122535 -0.366551,-0.323674 -0.47248,-0.52987 -1.445486,-1.378936 -1.996658,-1.742351 -2.15393,-1.42018 -4.499281,-1.664099 -6.395144,-0.665117 -0.534635,0.281717 -0.831269,0.497006 -1.30205,0.945013 -1.419766,1.351097 -2.168584,3.466825 -1.902951,5.376675 0.0926,0.66578 0.446821,1.55293 0.867953,2.17379 0.249004,0.3671 0.929772,1.14822 1.224839,1.4054 0.126545,0.1103 0.358025,0.31645 0.514391,0.45812 0.442841,0.40118 2.154761,1.5581 2.834642,1.91566 0.337462,0.17747 0.751619,0.3973 0.920355,0.48851 0.51527,0.27856 2.62596,1.40101 3.195647,1.69942 0.565102,0.29601 1.87162,1.03882 2.994629,1.70254 0.521895,0.30846 1.237337,0.80693 1.809415,1.26069 0.03971,0.0315 -0.835784,1.75288 -0.891375,1.75263 -0.02874,-1.1e-4 -0.190378,-0.12249 -0.359103,-0.27194 z m 10.475442,-1.35122 c 0.12197,-0.18981 0.45914,-0.81681 0.74926,-1.3933 1.65118,-3.28097 2.05532,-4.06499 2.34577,-4.55061 0.30029,-0.50206 0.40857,-0.67773 0.94556,-1.5339 0.28266,-0.4507 0.95631,-1.24522 1.42127,-1.67634 0.70233,-0.65122 1.24595,-0.89016 2.35677,-1.03591 0.3783,-0.0496 0.54853,-0.0451 1.07374,0.029 2.12317,0.2997 3.65151,1.6392 3.97486,3.48368 0.0847,0.48303 0.039,1.39748 -0.0987,1.97448 -0.11723,0.49118 -0.23281,0.80439 -0.29655,0.80356 -0.0785,-7.6e-4 -2.01853,-0.40051 -2.03762,-0.4196 -0.011,-0.011 0.0179,-0.13322 0.0631,-0.27252 0.0526,-0.16197 0.084,-0.44676 0.087,-0.79013 0.005,-0.50255 -0.007,-0.55904 -0.15921,-0.88393 -0.33436,-0.70854 -0.97624,-1.1935 -1.74848,-1.32104 -0.76861,-0.12692 -1.34385,0.11352 -2.10455,0.87969 -0.37237,0.37505 -0.59258,0.65787 -0.91714,1.17785 -0.2349,0.37637 -0.5113,0.81085 -0.6142,0.96553 -0.25283,0.37994 -0.46478,0.76721 -0.41909,0.76574 0.0205,-7.2e-4 0.20991,-0.0476 0.42082,-0.1042 1.75661,-0.47163 4.20948,-0.41276 6.72364,0.16136 0.66668,0.15225 1.73053,0.46712 1.85724,0.5497 0.16249,0.10586 -0.44301,1.07926 -0.97129,1.56143 l -0.36078,0.32927 -0.32053,-0.12065 c -0.66887,-0.25176 -2.36647,-0.47287 -3.70717,-0.48285 -1.49082,-0.011 -3.50699,0.27509 -4.88285,0.69308 -1.4627,0.44439 -2.38438,0.84163 -3.38064,1.45709 -0.0877,0.0541 -0.17351,0.0985 -0.19071,0.0985 -0.0172,0 0.0685,-0.15532 0.19048,-0.34513 z m -11.397355,-3.35692 c -0.235581,-0.18237 -0.511079,-0.32539 -3.692708,-1.91702 -2.718154,-1.35977 -3.315176,-1.68811 -4.28207,-2.35498 -1.419515,-0.97901 -2.108454,-1.83923 -2.356426,-2.9423 -0.06585,-0.29283 -0.0917,-0.61965 -0.09106,-1.15043 0.0015,-0.9309 0.132358,-1.46889 0.564252,-2.313243 0.255343,-0.499189 0.352362,-0.629928 0.805551,-1.085515 0.449546,-0.451924 0.577172,-0.548089 1.000978,-0.754285 0.726303,-0.353355 1.02025,-0.418445 1.866258,-0.413246 0.730261,0.0044 1.183359,0.07338 1.719952,0.261292 0.165522,0.05803 0.271604,0.124565 0.267742,0.168078 -0.01251,0.140667 -0.383378,2.041751 -0.397999,2.040007 -0.0022,-2.85e-4 -0.109778,-0.03247 -0.238269,-0.07141 -0.356033,-0.108045 -0.957924,-0.148532 -1.243272,-0.08358 -1.117611,0.254404 -1.945565,1.410062 -1.771645,2.472862 0.138073,0.84377 0.781253,1.61314 1.993099,2.38414 0.749326,0.47675 1.843441,1.12081 1.843299,1.0851 -4.4e-5,-0.0188 -0.06724,-0.2996 -0.149168,-0.62382 -0.08194,-0.32423 -0.178082,-0.83042 -0.2136,-1.12488 -0.07382,-0.61232 -0.09082,-2.18324 -0.0317,-2.93851 0.0951,-1.214471 0.440187,-2.953433 0.789604,-3.978444 0.129489,-0.379846 0.142499,-0.397747 0.266822,-0.367198 0.384233,0.09444 1.243984,0.71575 1.583377,1.144265 l 0.152623,0.192715 -0.120352,0.379473 c -0.06625,0.208696 -0.173958,0.690072 -0.239432,1.06972 -0.107058,0.620857 -0.119146,0.849616 -0.11987,2.275299 -7.13e-4,1.56403 0.02622,1.96039 0.210781,3.09341 0.298105,1.83017 1.002743,3.81858 1.87138,5.28089 0.11331,0.19076 0.196488,0.35636 0.18485,0.36801 -0.01163,0.0116 -0.08951,-0.0317 -0.173003,-0.0963 z m 3.169666,-0.79741 c 0.0456,-0.55621 -0.10552,-2.45253 -0.27797,-3.48783 -0.20786,-1.24781 -0.54938,-2.5234 -0.839711,-3.13627 l -0.226105,-0.47732 0.04892,-0.39392 c 0.04728,-0.38127 0.279623,-1.33957 0.438826,-1.810425 0.12819,-0.379111 0.38257,-0.920025 0.42138,-0.896037 0.0871,0.05386 0.92086,1.590282 1.19267,2.197732 0.27357,0.61143 0.650055,1.7332 0.650055,1.93692 0,0.0467 0.0172,0.0841 0.0383,0.0834 0.0492,-0.002 1.39501,-2.44605 1.53367,-2.78507 0.32265,-0.788813 0.35971,-1.738247 0.0898,-2.300859 -0.18431,-0.384178 -0.57243,-0.772338 -0.97155,-0.971668 -0.27492,-0.137288 -0.35458,-0.152875 -0.76695,-0.14999 -0.353505,0.0022 -0.516095,0.0283 -0.701395,0.111434 -0.45037,0.202072 -0.92589,0.633801 -1.22746,1.114441 -0.3688,0.587807 -0.779897,2.109492 -0.987124,3.653872 -0.259998,1.93766 -0.407158,3.96758 -0.373352,5.14977 0.01228,0.42796 0.01843,0.77308 0.01372,0.76695 -0.01679,-0.022 -0.627252,-1.04891 -1.070542,-1.80071 -0.248745,-0.42183 -0.780665,-1.31917 -1.182076,-1.99408 -0.468629,-0.78796 -0.751553,-1.31864 -0.790526,-1.48279 -0.08468,-0.35686 -0.07119,-1.66533 0.02512,-2.42406 0.07437,-0.585863 0.104754,-0.721275 0.14931,-0.665092 0.0088,0.01174 0.141589,0.216112 0.293991,0.454205 0.152404,0.238097 0.395883,0.616197 0.541047,0.840237 l 0.263947,0.40734 0.05166,-0.20111 c 0.02841,-0.1106 0.09061,-0.38518 0.138188,-0.61014 0.218053,-1.031319 0.596352,-2.268733 0.914409,-2.991131 0.397078,-0.901872 0.863295,-1.493245 1.626957,-2.063732 0.491981,-0.367517 0.887401,-0.558465 1.444801,-0.697662 0.39215,-0.09795 0.54695,-0.110766 1.048155,-0.08688 0.68493,0.03257 1.06736,0.133317 1.68738,0.444541 1.497594,0.751728 2.491954,2.216827 2.509494,3.697555 0.007,0.618829 -0.14656,1.316809 -0.48131,2.183099 -0.22362,0.57874 -0.93546,1.94492 -1.35868,2.60766 -0.22449,0.35153 -0.574674,0.90213 -0.778164,1.22359 -1.12968,1.78445 -2.993805,4.71393 -3.050475,4.79379 -0.0554,0.0781 -0.0614,0.0404 -0.0385,-0.23965 z"
       id="path3102"
       inkscape:connector-curvature="0"
       sodipodi:nodetypes="cccsccsssccccccsccsccsscccsscccccsccccsccccssccsscccccccssscsscccscsscssscccsccsscsssssscssccccccsccccccscccsccccssscssscccsccscscccccssscsccscscscccscccccsccscccscsscsscscccccccsccsccsccccsccccccscccccsscscsccccccccscsccsccccscscccscccsscccccsccssscccccccsssssscccsccscccssssssccsscsscscscscscccsscsssccccscssssscsscscscccsscccscsccscccsscssssccssccccccsscssccsccscccscccccscscccccsscssccccccccccssccccssssccscscsccscccscsscssccccscccscccsccccccccccsscccc" />
  </g>
  <g
     inkscape:groupmode="layer"
     id="layer2"
     inkscape:label="Text"
     style="display:inline"
     transform="translate(-46.191716,-78.968652)">
    <text
       xml:space="preserve"
       style="font-style:normal;font-variant:normal;font-weight:normal;font-stretch:normal;font-size:10.58333302px;line-height:1.25;font-family:FreeSerif;-inkscape-font-specification:FreeSerif;letter-spacing:0px;word-spacing:0px;fill:#ffffff;fill-opacity:1;stroke:none;stroke-width:0.26458332;stroke-opacity:1"
       x="59.451988"
       y="179.57611"
       id="text7412"><tspan
         sodipodi:role="line"
         x="59.451988"
         y="179.57611"
         id="tspan7410"
         style="font-size:31.75px;stroke-width:0.26458332"><tspan
           x="59.451988"
           y="179.57611"
           style="font-size:31.75px;line-height:1.25;letter-spacing:5.29166651px;fill:#ffffff;fill-opacity:1;stroke:none;stroke-width:0.26458332;stroke-opacity:1"
           id="tspan7408">IIGL</tspan></tspan></text>
    <path
       style="opacity:0;fill:#008848;fill-opacity:0;stroke-width:0.35355338"
       d="m 364.91216,783.06396 c -1.94455,-0.78245 -8.38806,-3.01719 -14.31892,-4.96615 -61.63426,-20.25388 -69.50185,-23.07293 -91.92388,-32.93746 -7.2369,-3.18386 -25.23169,-12.0759 -31.28947,-15.46156 -19.69995,-11.01019 -33.64786,-21.16102 -46.45025,-33.80498 l -5.79161,-5.71992 0.15639,-63.1475 c 0.11746,-47.42525 0.25899,-63.2501 0.56847,-63.55958 0.22664,-0.22664 2.36474,-0.62175 4.75133,-0.87802 32.36081,-3.47484 53.75842,-21.99534 60.55433,-52.41222 1.30191,-5.82702 1.68869,-11.2635 1.71258,-24.07151 0.0238,-12.77673 -0.21219,-15.36066 -2.07692,-22.73714 -1.44165,-5.70289 -2.5098,-8.56166 -5.30914,-14.20919 -3.1978,-6.4514 -6.22553,-10.76828 -11.11499,-15.84754 -11.2205,-11.65606 -23.92881,-18.15733 -42.96213,-21.97843 -2.52791,-0.50749 -4.95417,-0.99752 -5.39169,-1.08893 l -0.7955,-0.16622 v -55.50114 -55.50115 h 193.57048 193.57048 v 55.48406 c 0,52.53722 -0.0329,55.49368 -0.61872,55.66527 -0.34029,0.0997 -2.76655,0.58615 -5.39168,1.08108 -8.66429,1.63352 -15.75236,4.01018 -23.45495,7.86452 -12.2374,6.12353 -20.3257,13.20296 -27.19313,23.8013 -6.86724,10.59804 -9.97418,21.42327 -10.89411,37.95732 -1.27478,22.91202 3.52288,42.61728 13.64893,56.05972 3.18816,4.23232 9.23752,10.09505 13.52697,13.10964 9.79687,6.88515 21.67927,11.10789 35.15909,12.49475 2.47781,0.25492 4.61412,0.5725 4.74734,0.70572 0.37593,0.37591 0.77273,44.03172 0.79592,87.56224 l 0.0209,39.4212 -7.68632,7.30442 c -8.51357,8.0905 -9.8045,9.19833 -16.70197,14.33245 -22.47459,16.72894 -54.53656,32.82793 -93.51487,46.95578 -10.27469,3.72412 -22.29598,7.75039 -46.84582,15.6901 -10.20886,3.30166 -20.70939,6.82687 -23.33453,7.83375 -2.62513,1.00692 -5.09117,1.88861 -5.48008,1.95932 -0.3889,0.0707 -2.29809,-0.51159 -4.24264,-1.294 z m 35.07206,-100.92998 c 8.68996,-1.13876 19.52014,-4.53365 24.94362,-7.81891 l 2.03293,-1.23146 0.0171,-9.78551 c 0.009,-5.38204 0.14711,-13.29385 0.30594,-17.58183 0.32138,-8.67605 0.70423,-10.29163 2.79097,-11.77752 1.40665,-1.00163 3.74326,-1.81614 5.20998,-1.81614 2.00986,0 2.28257,-0.25796 2.28257,-2.15915 v -1.72994 h -19.09189 -19.09188 v 1.73968 c 0,1.95843 -0.14754,1.87339 4.05965,2.33987 4.2108,0.46687 6.98319,2.10136 8.03885,4.73936 0.20993,0.5246 0.48589,7.43077 0.65771,16.46016 l 0.29603,15.55635 -1.61895,1.64636 c -2.0555,2.09031 -4.09447,3.19499 -8.08229,4.3789 -3.90362,1.15888 -11.7235,1.5789 -16.47119,0.88469 -14.61421,-2.13687 -25.1879,-12.14682 -29.70696,-28.12315 -0.74143,-2.62119 -0.80926,-3.67035 -0.92584,-14.31891 l -0.12579,-11.49049 1.0661,-4.12523 c 4.13743,-16.00965 11.62574,-24.96786 24.07435,-28.79993 2.72144,-0.83774 9.76406,-1.25205 14.18928,-0.83474 7.89566,0.74458 13.2499,3.49557 17.77486,9.13264 2.89701,3.60904 5.22775,7.2657 7.41554,11.63417 2.11195,4.21704 2.0471,4.16406 4.58349,3.74501 l 1.36,-0.22469 -0.21311,-4.98633 c -0.11721,-2.74249 -0.38827,-9.52066 -0.60237,-15.06261 -0.2141,-5.54195 -0.53692,-10.35469 -0.71738,-10.69499 -0.22337,-0.42119 -0.74743,-0.61699 -1.64151,-0.6133 -1.56048,0.006 -1.70634,0.0976 -3.17515,1.98556 -1.30071,1.67184 -3.00712,2.60522 -4.76291,2.60522 -0.66798,0 -4.38277,-0.78815 -8.25507,-1.75143 -9.36196,-2.32891 -10.51988,-2.48578 -18.35427,-2.48646 -10.20222,-10e-4 -15.62997,1.03153 -22.4203,4.2646 -5.01638,2.38845 -9.15016,5.2085 -12.90186,8.80162 -8.29205,7.94156 -13.11351,17.66156 -14.91207,30.06254 -0.78173,5.39004 -0.52024,14.86809 0.54879,19.89137 1.97799,9.29446 5.76707,17.09215 11.04934,22.73893 6.21392,6.6427 17.45672,12.446 28.38305,14.65079 4.23559,0.85465 16.01734,0.93766 21.99059,0.1549 z m -156.87121,-2.76147 v -1.54043 l -3.62392,-0.57247 c -5.79586,-0.91557 -7.60597,-1.66853 -9.20663,-3.8298 -1.11251,-1.50214 -1.25639,-5.01247 -1.50467,-36.711 -0.22713,-28.99909 0.0225,-41.66114 0.87774,-44.52112 0.86017,-2.87648 3.80636,-4.39326 9.80588,-5.04835 l 3.68437,-0.40229 -0.10477,-1.79579 -0.10477,-1.79579 -22.0087,-0.0911 -22.0087,-0.0911 v 1.8973 1.8973 l 3.51095,0.39924 c 6.58214,0.74846 9.33579,2.48883 9.70456,6.13351 0.3334,3.29512 0.50722,42.60911 0.27098,61.28875 -0.25308,20.01144 -0.14456,19.1592 -2.63393,20.68655 -1.7238,1.05762 -2.52833,1.24967 -9.70351,2.31624 -1.09884,0.16334 -1.14905,0.23964 -1.14905,1.74578 v 1.57497 h 22.09709 22.09708 z m 67.88225,-0.0347 c 0,-1.50507 -0.051,-1.58278 -1.14905,-1.75104 -6.32772,-0.96962 -8.218,-1.34234 -9.08706,-1.79174 -1.39974,-0.72383 -3.14507,-2.92707 -3.57323,-4.51067 -0.23308,-0.86207 -0.31802,-14.53624 -0.24488,-39.4212 0.0897,-30.52749 0.20547,-38.38158 0.58225,-39.51136 1.03177,-3.09377 4.58242,-4.90523 10.50746,-5.36066 l 2.96451,-0.22773 v -1.89506 -1.89506 l -22.0087,0.0911 -22.00869,0.0911 -0.10507,1.80434 -0.10507,1.80434 3.52763,0.40113 c 5.70569,0.6488 7.89691,1.72669 9.45746,4.65225 0.62985,1.18076 0.66457,2.86285 0.75829,36.72978 0.10631,38.41912 -0.0444,43.48123 -1.34928,45.31373 -1.11787,1.56992 -3.74631,2.65144 -8.09117,3.32923 -2.02695,0.31622 -3.81682,0.6562 -3.97747,0.75548 -0.16066,0.0993 -0.2921,0.80755 -0.2921,1.57388 v 1.39335 h 22.09709 22.09708 v -1.57497 z m 229.23525,0.95626 c 3.70103,-12.69985 6.92046,-24.99651 6.62245,-25.29452 -0.16087,-0.16086 -1.07042,-0.2431 -2.0212,-0.18271 l -1.7287,0.10977 -1.77119,3.35876 c -4.39884,8.34163 -7.70641,11.47475 -14.52525,13.75927 -5.94528,1.99185 -8.66654,2.28852 -21.18022,2.30895 -6.22254,0.0103 -12.07244,-0.11108 -12.99979,-0.26937 -2.10143,-0.35875 -2.59919,-1.05914 -3.07051,-4.32038 -0.41856,-2.89631 -0.46051,-58.26945 -0.0529,-69.85181 0.2518,-7.15506 0.31979,-7.71004 1.07455,-8.77 1.60029,-2.2474 4.8744,-3.63536 9.67441,-4.10117 l 2.40392,-0.23329 -0.10582,-1.82615 -0.10583,-1.826 H 481.408 460.37157 l 0.0831,1.37164 c 0.0457,0.7544 0.24851,1.57092 0.45064,1.81447 0.20213,0.24356 1.55637,0.61965 3.00942,0.83576 4.58594,0.68207 7.97618,2.92377 8.55878,5.65923 0.14982,0.70348 0.27241,18.62085 0.27241,39.81637 v 38.53732 l -0.90399,1.75713 c -1.14779,2.23099 -2.82653,3.13771 -7.57957,4.09386 -1.92775,0.38778 -3.62914,0.9005 -3.78088,1.13936 -0.15173,0.23883 -0.27832,0.95134 -0.28129,1.58332 l -0.005,1.14905 h 39.92771 c 37.72199,0 39.93767,-0.0343 40.10801,-0.61872 z"
       id="path4711"
       inkscape:connector-curvature="0"
       transform="scale(0.26458333)" />
    <path
       style="opacity:0;fill:#004f48;fill-opacity:0;stroke-width:0.35355338"
       d="m 364.91216,783.06396 c -1.94455,-0.78245 -8.38806,-3.01719 -14.31892,-4.96615 -61.63426,-20.25388 -69.50185,-23.07293 -91.92388,-32.93746 -7.2369,-3.18386 -25.23169,-12.0759 -31.28947,-15.46156 -19.69995,-11.01019 -33.64786,-21.16102 -46.45025,-33.80498 l -5.79161,-5.71992 0.15639,-63.1475 c 0.11746,-47.42525 0.25899,-63.2501 0.56847,-63.55958 0.22664,-0.22664 2.36474,-0.62175 4.75133,-0.87802 32.36081,-3.47484 53.75842,-21.99534 60.55433,-52.41222 1.30191,-5.82702 1.68869,-11.2635 1.71258,-24.07151 0.0238,-12.77673 -0.21219,-15.36066 -2.07692,-22.73714 -1.44165,-5.70289 -2.5098,-8.56166 -5.30914,-14.20919 -3.1978,-6.4514 -6.22553,-10.76828 -11.11499,-15.84754 -11.2205,-11.65606 -23.92881,-18.15733 -42.96213,-21.97843 -2.52791,-0.50749 -4.95417,-0.99752 -5.39169,-1.08893 l -0.7955,-0.16622 v -55.50114 -55.50115 h 193.57048 193.57048 v 55.48406 c 0,52.53722 -0.0329,55.49368 -0.61872,55.66527 -0.34029,0.0997 -2.76655,0.58615 -5.39168,1.08108 -8.66429,1.63352 -15.75236,4.01018 -23.45495,7.86452 -12.2374,6.12353 -20.3257,13.20296 -27.19313,23.8013 -6.86724,10.59804 -9.97418,21.42327 -10.89411,37.95732 -1.27478,22.91202 3.52288,42.61728 13.64893,56.05972 3.18816,4.23232 9.23752,10.09505 13.52697,13.10964 9.79687,6.88515 21.67927,11.10789 35.15909,12.49475 2.47781,0.25492 4.61412,0.5725 4.74734,0.70572 0.37593,0.37591 0.77273,44.03172 0.79592,87.56224 l 0.0209,39.4212 -7.68632,7.30442 c -8.51357,8.0905 -9.8045,9.19833 -16.70197,14.33245 -22.47459,16.72894 -54.53656,32.82793 -93.51487,46.95578 -10.27469,3.72412 -22.29598,7.75039 -46.84582,15.6901 -10.20886,3.30166 -20.70939,6.82687 -23.33453,7.83375 -2.62513,1.00692 -5.09117,1.88861 -5.48008,1.95932 -0.3889,0.0707 -2.29809,-0.51159 -4.24264,-1.294 z m 35.07206,-100.92998 c 8.68996,-1.13876 19.52014,-4.53365 24.94362,-7.81891 l 2.03293,-1.23146 0.0171,-9.78551 c 0.009,-5.38204 0.14711,-13.29385 0.30594,-17.58183 0.32138,-8.67605 0.70423,-10.29163 2.79097,-11.77752 1.40665,-1.00163 3.74326,-1.81614 5.20998,-1.81614 2.00986,0 2.28257,-0.25796 2.28257,-2.15915 v -1.72994 h -19.09189 -19.09188 v 1.73968 c 0,1.95843 -0.14754,1.87339 4.05965,2.33987 4.2108,0.46687 6.98319,2.10136 8.03885,4.73936 0.20993,0.5246 0.48589,7.43077 0.65771,16.46016 l 0.29603,15.55635 -1.61895,1.64636 c -2.0555,2.09031 -4.09447,3.19499 -8.08229,4.3789 -3.90362,1.15888 -11.7235,1.5789 -16.47119,0.88469 -14.61421,-2.13687 -25.1879,-12.14682 -29.70696,-28.12315 -0.74143,-2.62119 -0.80926,-3.67035 -0.92584,-14.31891 l -0.12579,-11.49049 1.0661,-4.12523 c 4.13743,-16.00965 11.62574,-24.96786 24.07435,-28.79993 2.72144,-0.83774 9.76406,-1.25205 14.18928,-0.83474 7.89566,0.74458 13.2499,3.49557 17.77486,9.13264 2.89701,3.60904 5.22775,7.2657 7.41554,11.63417 2.11195,4.21704 2.0471,4.16406 4.58349,3.74501 l 1.36,-0.22469 -0.21311,-4.98633 c -0.11721,-2.74249 -0.38827,-9.52066 -0.60237,-15.06261 -0.2141,-5.54195 -0.53692,-10.35469 -0.71738,-10.69499 -0.22337,-0.42119 -0.74743,-0.61699 -1.64151,-0.6133 -1.56048,0.006 -1.70634,0.0976 -3.17515,1.98556 -1.30071,1.67184 -3.00712,2.60522 -4.76291,2.60522 -0.66798,0 -4.38277,-0.78815 -8.25507,-1.75143 -9.36196,-2.32891 -10.51988,-2.48578 -18.35427,-2.48646 -10.20222,-10e-4 -15.62997,1.03153 -22.4203,4.2646 -5.01638,2.38845 -9.15016,5.2085 -12.90186,8.80162 -8.29205,7.94156 -13.11351,17.66156 -14.91207,30.06254 -0.78173,5.39004 -0.52024,14.86809 0.54879,19.89137 1.97799,9.29446 5.76707,17.09215 11.04934,22.73893 6.21392,6.6427 17.45672,12.446 28.38305,14.65079 4.23559,0.85465 16.01734,0.93766 21.99059,0.1549 z m -156.87121,-2.76147 v -1.54043 l -3.62392,-0.57247 c -5.79586,-0.91557 -7.60597,-1.66853 -9.20663,-3.8298 -1.11251,-1.50214 -1.25639,-5.01247 -1.50467,-36.711 -0.22713,-28.99909 0.0225,-41.66114 0.87774,-44.52112 0.86017,-2.87648 3.80636,-4.39326 9.80588,-5.04835 l 3.68437,-0.40229 -0.10477,-1.79579 -0.10477,-1.79579 -22.0087,-0.0911 -22.0087,-0.0911 v 1.8973 1.8973 l 3.51095,0.39924 c 6.58214,0.74846 9.33579,2.48883 9.70456,6.13351 0.3334,3.29512 0.50722,42.60911 0.27098,61.28875 -0.25308,20.01144 -0.14456,19.1592 -2.63393,20.68655 -1.7238,1.05762 -2.52833,1.24967 -9.70351,2.31624 -1.09884,0.16334 -1.14905,0.23964 -1.14905,1.74578 v 1.57497 h 22.09709 22.09708 z m 67.88225,-0.0347 c 0,-1.50507 -0.051,-1.58278 -1.14905,-1.75104 -6.32772,-0.96962 -8.218,-1.34234 -9.08706,-1.79174 -1.39974,-0.72383 -3.14507,-2.92707 -3.57323,-4.51067 -0.23308,-0.86207 -0.31802,-14.53624 -0.24488,-39.4212 0.0897,-30.52749 0.20547,-38.38158 0.58225,-39.51136 1.03177,-3.09377 4.58242,-4.90523 10.50746,-5.36066 l 2.96451,-0.22773 v -1.89506 -1.89506 l -22.0087,0.0911 -22.00869,0.0911 -0.10507,1.80434 -0.10507,1.80434 3.52763,0.40113 c 5.70569,0.6488 7.89691,1.72669 9.45746,4.65225 0.62985,1.18076 0.66457,2.86285 0.75829,36.72978 0.10631,38.41912 -0.0444,43.48123 -1.34928,45.31373 -1.11787,1.56992 -3.74631,2.65144 -8.09117,3.32923 -2.02695,0.31622 -3.81682,0.6562 -3.97747,0.75548 -0.16066,0.0993 -0.2921,0.80755 -0.2921,1.57388 v 1.39335 h 22.09709 22.09708 v -1.57497 z m 229.23525,0.95626 c 3.70103,-12.69985 6.92046,-24.99651 6.62245,-25.29452 -0.16087,-0.16086 -1.07042,-0.2431 -2.0212,-0.18271 l -1.7287,0.10977 -1.77119,3.35876 c -4.39884,8.34163 -7.70641,11.47475 -14.52525,13.75927 -5.94528,1.99185 -8.66654,2.28852 -21.18022,2.30895 -6.22254,0.0103 -12.07244,-0.11108 -12.99979,-0.26937 -2.10143,-0.35875 -2.59919,-1.05914 -3.07051,-4.32038 -0.41856,-2.89631 -0.46051,-58.26945 -0.0529,-69.85181 0.2518,-7.15506 0.31979,-7.71004 1.07455,-8.77 1.60029,-2.2474 4.8744,-3.63536 9.67441,-4.10117 l 2.40392,-0.23329 -0.10582,-1.82615 -0.10583,-1.826 H 481.408 460.37157 l 0.0831,1.37164 c 0.0457,0.7544 0.24851,1.57092 0.45064,1.81447 0.20213,0.24356 1.55637,0.61965 3.00942,0.83576 4.58594,0.68207 7.97618,2.92377 8.55878,5.65923 0.14982,0.70348 0.27241,18.62085 0.27241,39.81637 v 38.53732 l -0.90399,1.75713 c -1.14779,2.23099 -2.82653,3.13771 -7.57957,4.09386 -1.92775,0.38778 -3.62914,0.9005 -3.78088,1.13936 -0.15173,0.23883 -0.27832,0.95134 -0.28129,1.58332 l -0.005,1.14905 h 39.92771 c 37.72199,0 39.93767,-0.0343 40.10801,-0.61872 z"
       id="path4719"
       inkscape:connector-curvature="0"
       transform="scale(0.26458333)" />
    <path
       style="opacity:0;fill:#000448;fill-opacity:0;stroke-width:0.35355338"
       d="m 364.91216,783.06396 c -1.94455,-0.78245 -8.38806,-3.01719 -14.31892,-4.96615 -61.63426,-20.25388 -69.50185,-23.07293 -91.92388,-32.93746 -7.2369,-3.18386 -25.23169,-12.0759 -31.28947,-15.46156 -19.69995,-11.01019 -33.64786,-21.16102 -46.45025,-33.80498 l -5.79161,-5.71992 0.15639,-63.1475 c 0.11746,-47.42525 0.25899,-63.2501 0.56847,-63.55958 0.22664,-0.22664 2.36474,-0.62175 4.75133,-0.87802 32.36081,-3.47484 53.75842,-21.99534 60.55433,-52.41222 1.30191,-5.82702 1.68869,-11.2635 1.71258,-24.07151 0.0238,-12.77673 -0.21219,-15.36066 -2.07692,-22.73714 -1.44165,-5.70289 -2.5098,-8.56166 -5.30914,-14.20919 -3.1978,-6.4514 -6.22553,-10.76828 -11.11499,-15.84754 -11.2205,-11.65606 -23.92881,-18.15733 -42.96213,-21.97843 -2.52791,-0.50749 -4.95417,-0.99752 -5.39169,-1.08893 l -0.7955,-0.16622 v -55.50114 -55.50115 h 193.57048 193.57048 v 55.48406 c 0,52.53722 -0.0329,55.49368 -0.61872,55.66527 -0.34029,0.0997 -2.76655,0.58615 -5.39168,1.08108 -8.66429,1.63352 -15.75236,4.01018 -23.45495,7.86452 -12.2374,6.12353 -20.3257,13.20296 -27.19313,23.8013 -6.86724,10.59804 -9.97418,21.42327 -10.89411,37.95732 -1.27478,22.91202 3.52288,42.61728 13.64893,56.05972 3.18816,4.23232 9.23752,10.09505 13.52697,13.10964 9.79687,6.88515 21.67927,11.10789 35.15909,12.49475 2.47781,0.25492 4.61412,0.5725 4.74734,0.70572 0.37593,0.37591 0.77273,44.03172 0.79592,87.56224 l 0.0209,39.4212 -7.68632,7.30442 c -8.51357,8.0905 -9.8045,9.19833 -16.70197,14.33245 -22.47459,16.72894 -54.53656,32.82793 -93.51487,46.95578 -10.27469,3.72412 -22.29598,7.75039 -46.84582,15.6901 -10.20886,3.30166 -20.70939,6.82687 -23.33453,7.83375 -2.62513,1.00692 -5.09117,1.88861 -5.48008,1.95932 -0.3889,0.0707 -2.29809,-0.51159 -4.24264,-1.294 z m 35.07206,-100.92998 c 8.68996,-1.13876 19.52014,-4.53365 24.94362,-7.81891 l 2.03293,-1.23146 0.0171,-9.78551 c 0.009,-5.38204 0.14711,-13.29385 0.30594,-17.58183 0.32138,-8.67605 0.70423,-10.29163 2.79097,-11.77752 1.40665,-1.00163 3.74326,-1.81614 5.20998,-1.81614 2.00986,0 2.28257,-0.25796 2.28257,-2.15915 v -1.72994 h -19.09189 -19.09188 v 1.73968 c 0,1.95843 -0.14754,1.87339 4.05965,2.33987 4.2108,0.46687 6.98319,2.10136 8.03885,4.73936 0.20993,0.5246 0.48589,7.43077 0.65771,16.46016 l 0.29603,15.55635 -1.61895,1.64636 c -2.0555,2.09031 -4.09447,3.19499 -8.08229,4.3789 -3.90362,1.15888 -11.7235,1.5789 -16.47119,0.88469 -14.61421,-2.13687 -25.1879,-12.14682 -29.70696,-28.12315 -0.74143,-2.62119 -0.80926,-3.67035 -0.92584,-14.31891 l -0.12579,-11.49049 1.0661,-4.12523 c 4.13743,-16.00965 11.62574,-24.96786 24.07435,-28.79993 2.72144,-0.83774 9.76406,-1.25205 14.18928,-0.83474 7.89566,0.74458 13.2499,3.49557 17.77486,9.13264 2.89701,3.60904 5.22775,7.2657 7.41554,11.63417 2.11195,4.21704 2.0471,4.16406 4.58349,3.74501 l 1.36,-0.22469 -0.21311,-4.98633 c -0.11721,-2.74249 -0.38827,-9.52066 -0.60237,-15.06261 -0.2141,-5.54195 -0.53692,-10.35469 -0.71738,-10.69499 -0.22337,-0.42119 -0.74743,-0.61699 -1.64151,-0.6133 -1.56048,0.006 -1.70634,0.0976 -3.17515,1.98556 -1.30071,1.67184 -3.00712,2.60522 -4.76291,2.60522 -0.66798,0 -4.38277,-0.78815 -8.25507,-1.75143 -9.36196,-2.32891 -10.51988,-2.48578 -18.35427,-2.48646 -10.20222,-10e-4 -15.62997,1.03153 -22.4203,4.2646 -5.01638,2.38845 -9.15016,5.2085 -12.90186,8.80162 -8.29205,7.94156 -13.11351,17.66156 -14.91207,30.06254 -0.78173,5.39004 -0.52024,14.86809 0.54879,19.89137 1.97799,9.29446 5.76707,17.09215 11.04934,22.73893 6.21392,6.6427 17.45672,12.446 28.38305,14.65079 4.23559,0.85465 16.01734,0.93766 21.99059,0.1549 z m -156.87121,-2.76147 v -1.54043 l -3.62392,-0.57247 c -5.79586,-0.91557 -7.60597,-1.66853 -9.20663,-3.8298 -1.11251,-1.50214 -1.25639,-5.01247 -1.50467,-36.711 -0.22713,-28.99909 0.0225,-41.66114 0.87774,-44.52112 0.86017,-2.87648 3.80636,-4.39326 9.80588,-5.04835 l 3.68437,-0.40229 -0.10477,-1.79579 -0.10477,-1.79579 -22.0087,-0.0911 -22.0087,-0.0911 v 1.8973 1.8973 l 3.51095,0.39924 c 6.58214,0.74846 9.33579,2.48883 9.70456,6.13351 0.3334,3.29512 0.50722,42.60911 0.27098,61.28875 -0.25308,20.01144 -0.14456,19.1592 -2.63393,20.68655 -1.7238,1.05762 -2.52833,1.24967 -9.70351,2.31624 -1.09884,0.16334 -1.14905,0.23964 -1.14905,1.74578 v 1.57497 h 22.09709 22.09708 z m 67.88225,-0.0347 c 0,-1.50507 -0.051,-1.58278 -1.14905,-1.75104 -6.32772,-0.96962 -8.218,-1.34234 -9.08706,-1.79174 -1.39974,-0.72383 -3.14507,-2.92707 -3.57323,-4.51067 -0.23308,-0.86207 -0.31802,-14.53624 -0.24488,-39.4212 0.0897,-30.52749 0.20547,-38.38158 0.58225,-39.51136 1.03177,-3.09377 4.58242,-4.90523 10.50746,-5.36066 l 2.96451,-0.22773 v -1.89506 -1.89506 l -22.0087,0.0911 -22.00869,0.0911 -0.10507,1.80434 -0.10507,1.80434 3.52763,0.40113 c 5.70569,0.6488 7.89691,1.72669 9.45746,4.65225 0.62985,1.18076 0.66457,2.86285 0.75829,36.72978 0.10631,38.41912 -0.0444,43.48123 -1.34928,45.31373 -1.11787,1.56992 -3.74631,2.65144 -8.09117,3.32923 -2.02695,0.31622 -3.81682,0.6562 -3.97747,0.75548 -0.16066,0.0993 -0.2921,0.80755 -0.2921,1.57388 v 1.39335 h 22.09709 22.09708 v -1.57497 z m 229.23525,0.95626 c 3.70103,-12.69985 6.92046,-24.99651 6.62245,-25.29452 -0.16087,-0.16086 -1.07042,-0.2431 -2.0212,-0.18271 l -1.7287,0.10977 -1.77119,3.35876 c -4.39884,8.34163 -7.70641,11.47475 -14.52525,13.75927 -5.94528,1.99185 -8.66654,2.28852 -21.18022,2.30895 -6.22254,0.0103 -12.07244,-0.11108 -12.99979,-0.26937 -2.10143,-0.35875 -2.59919,-1.05914 -3.07051,-4.32038 -0.41856,-2.89631 -0.46051,-58.26945 -0.0529,-69.85181 0.2518,-7.15506 0.31979,-7.71004 1.07455,-8.77 1.60029,-2.2474 4.8744,-3.63536 9.67441,-4.10117 l 2.40392,-0.23329 -0.10582,-1.82615 -0.10583,-1.826 H 481.408 460.37157 l 0.0831,1.37164 c 0.0457,0.7544 0.24851,1.57092 0.45064,1.81447 0.20213,0.24356 1.55637,0.61965 3.00942,0.83576 4.58594,0.68207 7.97618,2.92377 8.55878,5.65923 0.14982,0.70348 0.27241,18.62085 0.27241,39.81637 v 38.53732 l -0.90399,1.75713 c -1.14779,2.23099 -2.82653,3.13771 -7.57957,4.09386 -1.92775,0.38778 -3.62914,0.9005 -3.78088,1.13936 -0.15173,0.23883 -0.27832,0.95134 -0.28129,1.58332 l -0.005,1.14905 h 39.92771 c 37.72199,0 39.93767,-0.0343 40.10801,-0.61872 z"
       id="path4721"
       inkscape:connector-curvature="0"
       transform="scale(0.26458333)" />
    <path
       style="opacity:0;fill:#000448;fill-opacity:0;stroke-width:0.35355338"
       d="m 364.91216,783.06396 c -1.94455,-0.78245 -8.38806,-3.01719 -14.31892,-4.96615 -61.63426,-20.25388 -69.50185,-23.07293 -91.92388,-32.93746 -7.2369,-3.18386 -25.23169,-12.0759 -31.28947,-15.46156 -19.69995,-11.01019 -33.64786,-21.16102 -46.45025,-33.80498 l -5.79161,-5.71992 0.15639,-63.1475 c 0.11746,-47.42525 0.25899,-63.2501 0.56847,-63.55958 0.22664,-0.22664 2.36474,-0.62175 4.75133,-0.87802 32.36081,-3.47484 53.75842,-21.99534 60.55433,-52.41222 1.30191,-5.82702 1.68869,-11.2635 1.71258,-24.07151 0.0238,-12.77673 -0.21219,-15.36066 -2.07692,-22.73714 -1.44165,-5.70289 -2.5098,-8.56166 -5.30914,-14.20919 -3.1978,-6.4514 -6.22553,-10.76828 -11.11499,-15.84754 -11.2205,-11.65606 -23.92881,-18.15733 -42.96213,-21.97843 -2.52791,-0.50749 -4.95417,-0.99752 -5.39169,-1.08893 l -0.7955,-0.16622 v -55.50114 -55.50115 h 193.57048 193.57048 v 55.48406 c 0,52.53722 -0.0329,55.49368 -0.61872,55.66527 -0.34029,0.0997 -2.76655,0.58615 -5.39168,1.08108 -8.66429,1.63352 -15.75236,4.01018 -23.45495,7.86452 -12.2374,6.12353 -20.3257,13.20296 -27.19313,23.8013 -6.86724,10.59804 -9.97418,21.42327 -10.89411,37.95732 -1.27478,22.91202 3.52288,42.61728 13.64893,56.05972 3.18816,4.23232 9.23752,10.09505 13.52697,13.10964 9.79687,6.88515 21.67927,11.10789 35.15909,12.49475 2.47781,0.25492 4.61412,0.5725 4.74734,0.70572 0.37593,0.37591 0.77273,44.03172 0.79592,87.56224 l 0.0209,39.4212 -7.68632,7.30442 c -8.51357,8.0905 -9.8045,9.19833 -16.70197,14.33245 -22.47459,16.72894 -54.53656,32.82793 -93.51487,46.95578 -10.27469,3.72412 -22.29598,7.75039 -46.84582,15.6901 -10.20886,3.30166 -20.70939,6.82687 -23.33453,7.83375 -2.62513,1.00692 -5.09117,1.88861 -5.48008,1.95932 -0.3889,0.0707 -2.29809,-0.51159 -4.24264,-1.294 z m 35.07206,-100.92998 c 8.68996,-1.13876 19.52014,-4.53365 24.94362,-7.81891 l 2.03293,-1.23146 0.0171,-9.78551 c 0.009,-5.38204 0.14711,-13.29385 0.30594,-17.58183 0.32138,-8.67605 0.70423,-10.29163 2.79097,-11.77752 1.40665,-1.00163 3.74326,-1.81614 5.20998,-1.81614 2.00986,0 2.28257,-0.25796 2.28257,-2.15915 v -1.72994 h -19.09189 -19.09188 v 1.73968 c 0,1.95843 -0.14754,1.87339 4.05965,2.33987 4.2108,0.46687 6.98319,2.10136 8.03885,4.73936 0.20993,0.5246 0.48589,7.43077 0.65771,16.46016 l 0.29603,15.55635 -1.61895,1.64636 c -2.0555,2.09031 -4.09447,3.19499 -8.08229,4.3789 -3.90362,1.15888 -11.7235,1.5789 -16.47119,0.88469 -14.61421,-2.13687 -25.1879,-12.14682 -29.70696,-28.12315 -0.74143,-2.62119 -0.80926,-3.67035 -0.92584,-14.31891 l -0.12579,-11.49049 1.0661,-4.12523 c 4.13743,-16.00965 11.62574,-24.96786 24.07435,-28.79993 2.72144,-0.83774 9.76406,-1.25205 14.18928,-0.83474 7.89566,0.74458 13.2499,3.49557 17.77486,9.13264 2.89701,3.60904 5.22775,7.2657 7.41554,11.63417 2.11195,4.21704 2.0471,4.16406 4.58349,3.74501 l 1.36,-0.22469 -0.21311,-4.98633 c -0.11721,-2.74249 -0.38827,-9.52066 -0.60237,-15.06261 -0.2141,-5.54195 -0.53692,-10.35469 -0.71738,-10.69499 -0.22337,-0.42119 -0.74743,-0.61699 -1.64151,-0.6133 -1.56048,0.006 -1.70634,0.0976 -3.17515,1.98556 -1.30071,1.67184 -3.00712,2.60522 -4.76291,2.60522 -0.66798,0 -4.38277,-0.78815 -8.25507,-1.75143 -9.36196,-2.32891 -10.51988,-2.48578 -18.35427,-2.48646 -10.20222,-10e-4 -15.62997,1.03153 -22.4203,4.2646 -5.01638,2.38845 -9.15016,5.2085 -12.90186,8.80162 -8.29205,7.94156 -13.11351,17.66156 -14.91207,30.06254 -0.78173,5.39004 -0.52024,14.86809 0.54879,19.89137 1.97799,9.29446 5.76707,17.09215 11.04934,22.73893 6.21392,6.6427 17.45672,12.446 28.38305,14.65079 4.23559,0.85465 16.01734,0.93766 21.99059,0.1549 z m -156.87121,-2.76147 v -1.54043 l -3.62392,-0.57247 c -5.79586,-0.91557 -7.60597,-1.66853 -9.20663,-3.8298 -1.11251,-1.50214 -1.25639,-5.01247 -1.50467,-36.711 -0.22713,-28.99909 0.0225,-41.66114 0.87774,-44.52112 0.86017,-2.87648 3.80636,-4.39326 9.80588,-5.04835 l 3.68437,-0.40229 -0.10477,-1.79579 -0.10477,-1.79579 -22.0087,-0.0911 -22.0087,-0.0911 v 1.8973 1.8973 l 3.51095,0.39924 c 6.58214,0.74846 9.33579,2.48883 9.70456,6.13351 0.3334,3.29512 0.50722,42.60911 0.27098,61.28875 -0.25308,20.01144 -0.14456,19.1592 -2.63393,20.68655 -1.7238,1.05762 -2.52833,1.24967 -9.70351,2.31624 -1.09884,0.16334 -1.14905,0.23964 -1.14905,1.74578 v 1.57497 h 22.09709 22.09708 z m 67.88225,-0.0347 c 0,-1.50507 -0.051,-1.58278 -1.14905,-1.75104 -6.32772,-0.96962 -8.218,-1.34234 -9.08706,-1.79174 -1.39974,-0.72383 -3.14507,-2.92707 -3.57323,-4.51067 -0.23308,-0.86207 -0.31802,-14.53624 -0.24488,-39.4212 0.0897,-30.52749 0.20547,-38.38158 0.58225,-39.51136 1.03177,-3.09377 4.58242,-4.90523 10.50746,-5.36066 l 2.96451,-0.22773 v -1.89506 -1.89506 l -22.0087,0.0911 -22.00869,0.0911 -0.10507,1.80434 -0.10507,1.80434 3.52763,0.40113 c 5.70569,0.6488 7.89691,1.72669 9.45746,4.65225 0.62985,1.18076 0.66457,2.86285 0.75829,36.72978 0.10631,38.41912 -0.0444,43.48123 -1.34928,45.31373 -1.11787,1.56992 -3.74631,2.65144 -8.09117,3.32923 -2.02695,0.31622 -3.81682,0.6562 -3.97747,0.75548 -0.16066,0.0993 -0.2921,0.80755 -0.2921,1.57388 v 1.39335 h 22.09709 22.09708 v -1.57497 z m 229.23525,0.95626 c 3.70103,-12.69985 6.92046,-24.99651 6.62245,-25.29452 -0.16087,-0.16086 -1.07042,-0.2431 -2.0212,-0.18271 l -1.7287,0.10977 -1.77119,3.35876 c -4.39884,8.34163 -7.70641,11.47475 -14.52525,13.75927 -5.94528,1.99185 -8.66654,2.28852 -21.18022,2.30895 -6.22254,0.0103 -12.07244,-0.11108 -12.99979,-0.26937 -2.10143,-0.35875 -2.59919,-1.05914 -3.07051,-4.32038 -0.41856,-2.89631 -0.46051,-58.26945 -0.0529,-69.85181 0.2518,-7.15506 0.31979,-7.71004 1.07455,-8.77 1.60029,-2.2474 4.8744,-3.63536 9.67441,-4.10117 l 2.40392,-0.23329 -0.10582,-1.82615 -0.10583,-1.826 H 481.408 460.37157 l 0.0831,1.37164 c 0.0457,0.7544 0.24851,1.57092 0.45064,1.81447 0.20213,0.24356 1.55637,0.61965 3.00942,0.83576 4.58594,0.68207 7.97618,2.92377 8.55878,5.65923 0.14982,0.70348 0.27241,18.62085 0.27241,39.81637 v 38.53732 l -0.90399,1.75713 c -1.14779,2.23099 -2.82653,3.13771 -7.57957,4.09386 -1.92775,0.38778 -3.62914,0.9005 -3.78088,1.13936 -0.15173,0.23883 -0.27832,0.95134 -0.28129,1.58332 l -0.005,1.14905 h 39.92771 c 37.72199,0 39.93767,-0.0343 40.10801,-0.61872 z"
       id="path4723"
       inkscape:connector-curvature="0"
       transform="scale(0.26458333)" />
    <text
       xml:space="preserve"
       style="font-style:normal;font-weight:normal;font-size:10.58333302px;line-height:1.25;font-family:sans-serif;letter-spacing:0px;word-spacing:0px;fill:#000000;fill-opacity:1;stroke:none;stroke-width:0.26458332"
       x="117.10005"
       y="173.6763"
       id="text7416"><tspan
         sodipodi:role="line"
         id="tspan7414"
         x="117.10005"
         y="183.04007"
         style="stroke-width:0.26458332"></tspan></text>
  </g>
</svg>
