<?xml version="1.0" encoding="UTF-8" standalone="no"?>
<!-- Created with Inkscape (http://www.inkscape.org/) -->

<svg
   xmlns:dc="http://purl.org/dc/elements/1.1/"
   xmlns:cc="http://creativecommons.org/ns#"
   xmlns:rdf="http://www.w3.org/1999/02/22-rdf-syntax-ns#"
   xmlns:svg="http://www.w3.org/2000/svg"
   xmlns="http://www.w3.org/2000/svg"
   xmlns:sodipodi="http://sodipodi.sourceforge.net/DTD/sodipodi-0.dtd"
   xmlns:inkscape="http://www.inkscape.org/namespaces/inkscape"
   width="128.53023mm"
   height="128.53023mm"
   viewBox="0 0 128.53024 128.53023"
   version="1.1"
   id="svg8"
   inkscape:version="0.92.2 (unknown)"
   sodipodi:docname="logo.svg"
   inkscape:export-filename="/home/edarder/git/iigl/src/assets/img/favicon.png"
   inkscape:export-xdpi="3.1600001"
   inkscape:export-ydpi="3.1600001">
  <defs
     id="defs2" />
  <sodipodi:namedview
     id="base"
     pagecolor="#ffffff"
     bordercolor="#666666"
     borderopacity="1.0"
     inkscape:pageopacity="0.0"
     inkscape:pageshadow="2"
     inkscape:zoom="0.6412321"
     inkscape:cx="242.52781"
     inkscape:cy="262.5285"
     inkscape:document-units="mm"
     inkscape:current-layer="layer1"
     showgrid="false"
     inkscape:window-width="1184"
     inkscape:window-height="950"
     inkscape:window-x="1177"
     inkscape:window-y="152"
     inkscape:window-maximized="0"
     inkscape:snap-grids="false"
     inkscape:snap-to-guides="true">
    <inkscape:grid
       type="xygrid"
       id="grid7424"
       originx="-44.925227"
       originy="-22.888067" />
  </sodipodi:namedview>
  <metadata
     id="metadata5">
    <rdf:RDF>
      <cc:Work
         rdf:about="">
        <dc:format>image/svg+xml</dc:format>
        <dc:type
           rdf:resource="http://purl.org/dc/dcmitype/StillImage" />
        <dc:title />
      </cc:Work>
    </rdf:RDF>
  </metadata>
  <g
     inkscape:groupmode="layer"
     id="layer5"
     inkscape:label="Shield"
     style="display:inline"
     transform="translate(-0.27130365,-0.44353991)">
    <path
       style="display:inline;opacity:1;fill:#3d7915;fill-opacity:1;fill-rule:evenodd;stroke:#00a048;stroke-width:0.09354433;stroke-opacity:1"
       d="m 63.709533,128.92535 c -0.513199,-0.0363 -3.163596,-1.18939 -7.085975,-2.44334 -2.362203,-0.75518 -5.326243,-1.71105 -6.586752,-2.12415 -17.381027,-5.69622 -28.887325,-11.73479 -36.096306,-18.94353 -1.710695,-1.53811 -1.390777,-1.49262 -1.451583,-3.36856 0.02048,-2.662001 0.03516,-8.58413 0.03558,-15.333717 l 0.0011,-15.010704 c 0.02461,-1.745464 0.152304,-1.44507 1.598662,-1.5952 C 30.437197,67.059064 30.723218,32.802217 14.06913,30.165004 12.303531,29.885417 12.574353,29.8129 12.525649,28.59081 V 15.115539 2.1620895 C 12.533549,0.70841052 12.81672,0.38171625 14.422193,0.63725348 37.557789,4.193608 63.787948,4.5706498 63.787948,4.5706498 c 0,0 25.978,-0.1550591 49.251002,-3.8994397 1.58645,-0.15103739 1.96947,0.1544664 2.01134,1.5133955 V 15.115539 28.737151 c -0.0197,1.441149 0.12817,1.078566 -1.59025,1.447202 -16.559246,3.899216 -16.476233,37.119052 0.3274,39.941899 1.42159,0.132673 1.25251,0.08136 1.25948,1.484173 l -0.0311,30.981045 c 0.0385,1.76899 -0.38585,1.79634 -1.24076,2.76906 -4.09726,4.09955 -9.20081,7.57814 -16.233639,11.0649 -6.210244,3.07895 -12.533294,5.54913 -22.013672,8.59991 -7.061157,2.27227 -9.584015,3.25161 -10.511631,3.62794 -0.424667,0.13534 -1.002294,0.29098 -1.306597,0.27207 z"
       id="path1113"
       inkscape:connector-curvature="0"
       sodipodi:nodetypes="ccscccccsccccccccccccccssccc" />
  </g>
  <g
     inkscape:groupmode="layer"
     id="layer4"
     inkscape:label="Shamrock"
     transform="translate(-46.231019,-79.13034)"
     style="display:none">
    <path
       style="fill:#ffffff;fill-opacity:1;stroke-width:0.05113038"
       d="m 117.00495,148.62256 c -0.3893,-0.3104 -1.24045,-1.2147 -1.61372,-1.71447 -0.65575,-0.87799 -1.15683,-2.0842 -1.37,-3.29793 -0.30422,-1.73212 0.0486,-4.0647 0.94478,-6.24597 0.44839,-1.09134 1.04212,-2.5784 1.03171,-2.58394 -0.007,-0.004 -0.24043,0.0126 -0.52164,0.0346 -1.00804,0.079 -2.12946,-0.11317 -2.89298,-0.49579 -1.27691,-0.63989 -2.06392,-1.55442 -2.67461,-3.10805 -0.73807,-1.87761 -0.81666,-4.49934 -0.21056,-7.02386 0.22556,-0.93953 0.70939,-2.10562 1.08158,-2.60669 l 0.12138,-0.16339 -0.13072,-0.0923 c -0.0719,-0.0507 -0.17943,-0.12886 -0.23897,-0.17363 l -0.10826,-0.0814 0.17208,-0.30209 c 0.0947,-0.16614 0.32943,-0.53672 0.52176,-0.8235 l 0.3497,-0.5214 0.57314,0.36299 c 0.31522,0.19966 0.7227,0.43227 0.90548,0.51696 0.18278,0.0847 0.33906,0.15884 0.34727,0.16481 0.008,0.007 -0.14165,0.23806 -0.333,0.51576 -1.362,1.97656 -1.93196,3.41389 -2.11624,5.33673 -0.20581,2.14753 0.40025,4.21568 1.58684,5.41478 0.73659,0.74438 1.56073,1.12857 2.50921,1.16975 1.06929,0.0464 1.83016,-0.21131 3.03123,-1.02674 0.24701,-0.16772 0.4656,-0.28845 0.48573,-0.26831 0.0822,0.0822 0.0246,1.48118 -0.0808,1.97103 -0.1938,0.89883 -0.26303,1.10663 -1.43608,4.31055 -0.2554,0.69755 -0.49695,1.38782 -0.53677,1.53391 -0.0398,0.14609 -0.13404,0.4727 -0.20933,0.72579 -0.28201,0.94794 -0.34859,1.3759 -0.35401,2.27531 -0.006,0.89022 0.0246,1.07966 0.26407,1.66174 0.13515,0.32866 0.5039,0.92793 0.63942,1.03915 0.0937,0.0769 0.0913,0.0834 0.31517,-0.86555 0.38212,-1.62014 0.24153,-3.27635 -0.34434,-4.05687 -0.066,-0.088 -0.0639,-0.13882 0.0186,-0.43638 0.14093,-0.50859 0.34754,-1.06027 0.54278,-1.44935 0.20864,-0.41579 0.20026,-0.41874 0.62795,0.22026 0.37502,0.56029 0.57095,0.95192 0.76293,1.52495 0.29011,0.86594 0.33809,1.20788 0.33491,2.38761 -0.005,1.57559 -0.17665,2.476 -0.82248,4.29495 -0.18439,0.5193 -0.8093,1.96031 -0.88246,2.03494 -0.0219,0.0225 -0.15281,-0.049 -0.29065,-0.15901 z m -3.16505,-10.04139 c -0.46468,-0.16123 -1.70779,-0.70543 -2.17304,-0.9513 -1.14629,-0.60578 -2.55561,-1.70774 -3.17279,-2.48082 -0.15319,-0.19189 -0.36585,-0.45648 -0.47257,-0.588 -0.39714,-0.48936 -1.02354,-1.64816 -1.27064,-2.3506 -0.82564,-2.34696 -0.84705,-4.82401 -0.0681,-7.8845 0.24568,-0.96531 1.01806,-2.99754 1.35024,-3.55259 0.0508,-0.0849 0.21464,-0.38445 0.36407,-0.66567 0.32973,-0.62053 1.1505,-1.86614 1.41538,-2.14803 0.10595,-0.11279 0.28898,-0.31197 0.40668,-0.44265 l 0.21398,-0.23756 0.45073,0.30834 c 0.35772,0.24471 0.83166,0.5766 0.9825,0.68801 0.0113,0.008 -0.10607,0.18233 -0.26071,0.38665 -0.87982,1.16233 -1.79617,2.79646 -2.33007,4.15515 -0.72101,1.83493 -1.02166,3.23744 -1.06865,4.98521 -0.0336,1.24786 0.0118,1.75533 0.23983,2.68435 0.43128,1.75699 1.19158,2.9874 2.60658,4.21828 0.8633,0.75095 2.0014,1.40631 3.19565,1.84013 0.33746,0.12259 0.63197,0.23842 0.65447,0.25742 0.0225,0.019 -0.0505,0.21107 -0.16209,0.42681 -0.17542,0.33897 -0.29529,0.62653 -0.53029,1.27206 -0.0546,0.14981 -0.1247,0.16481 -0.37112,0.0793 z m -21.577065,-3.24542 c -1.04416,-0.12965 -2.052714,-0.43067 -2.965563,-0.88512 -1.760257,-0.87628 -3.177567,-2.51625 -3.823087,-4.42364 -0.310661,-0.91796 -0.406093,-1.46555 -0.433373,-2.48676 -0.03294,-1.23291 0.09248,-2.07132 0.480804,-3.21428 0.399786,-1.17669 1.213774,-2.58022 2.112809,-3.64304 0.231933,-0.27419 0.440275,-0.49852 0.462981,-0.49852 0.02271,0 0.47453,0.18701 1.004053,0.41558 0.529523,0.22856 1.036962,0.44722 1.127644,0.48588 l 0.164875,0.0704 -0.241571,0.21717 c -0.132863,0.11943 -0.253074,0.2287 -0.267136,0.24281 -0.01406,0.0142 -0.111453,0.0994 -0.216427,0.1894 -0.177118,0.15196 -0.514355,0.52399 -1.051947,1.16042 -0.753906,0.89254 -1.413128,2.252 -1.626063,3.35329 -0.09771,0.50537 -0.09538,1.51532 0.0049,2.0929 0.32836,1.89254 1.702538,3.50687 3.678097,4.32094 1.086974,0.4479 2.501942,0.58349 3.532025,0.33846 1.60351,-0.38144 3.052484,-1.55109 4.513063,-3.64303 0.621657,-0.89042 0.734307,-1.07931 1.853511,-3.10847 0.31795,-0.5765 0.74366,-1.34729 0.94599,-1.71287 0.20232,-0.36558 0.58082,-1.05367 0.84111,-1.52907 0.42958,-0.78463 0.94568,-1.64805 1.6533,-2.76588 0.29248,-0.46206 0.99413,-1.35496 1.06472,-1.35496 0.0983,0 1.68084,0.82495 1.68084,0.87615 0,0.0297 -0.12302,0.19564 -0.27337,0.36869 -0.15035,0.17305 -0.53726,0.69429 -0.8598,1.15828 -0.55389,0.79684 -0.69629,1.03408 -1.25678,2.09367 -0.4995,0.9443 -1.10747,2.08598 -1.24029,2.32912 -0.0768,0.14061 -0.56043,1.04945 -1.0747,2.01965 -0.51427,0.9702 -1.00844,1.87904 -1.09813,2.01965 -1.095957,1.71789 -1.795684,2.6363 -2.546645,3.34259 -1.644437,1.54658 -3.282284,2.22129 -5.334252,2.1974 -0.36197,-0.005 -0.727155,-0.0162 -0.81152,-0.0267 z m 0.562435,-3.95851 c -1.742761,-0.2073 -3.20403,-1.25047 -3.792494,-2.70735 -0.368211,-0.9116 -0.352026,-2.25119 0.03985,-3.29857 0.0573,-0.15312 0.112798,-0.27841 0.123346,-0.27841 0.04578,0 2.036645,0.41005 2.047373,0.4217 0.0066,0.007 -0.03348,0.18547 -0.08894,0.39639 -0.161011,0.61234 -0.06818,1.35375 0.228292,1.82339 0.215388,0.3412 0.709638,0.7557 1.092221,0.91597 0.30541,0.12796 0.415921,0.14696 0.861647,0.14814 0.481048,9.4e-4 0.532484,-0.008 0.869217,-0.17505 0.492642,-0.24283 1.214578,-0.96719 1.684164,-1.68985 0.191875,-0.29527 0.391875,-0.59921 0.444435,-0.67541 0.05254,-0.0763 0.09557,-0.1519 0.09557,-0.16824 0,-0.0163 0.04301,-0.092 0.09561,-0.16825 0.199464,-0.28903 0.568011,-0.89804 0.55271,-0.91335 -0.0088,-0.008 -0.09497,0.007 -0.191534,0.0355 -0.54512,0.15995 -1.537404,0.31417 -2.307933,0.3587 -1.93824,0.11201 -4.127907,-0.19722 -6.12519,-0.86502 -0.509161,-0.17024 -0.509401,-0.171 -0.220512,-0.69076 0.233393,-0.41991 0.638894,-0.92147 0.93385,-1.15508 l 0.215989,-0.17106 0.340641,0.11046 c 1.564699,0.50746 4.456048,0.60893 6.604111,0.23176 0.947517,-0.16637 1.841288,-0.38652 2.684343,-0.6612 0.693017,-0.22578 1.935164,-0.7929 2.556554,-1.16722 0.16601,-0.10004 0.31026,-0.17338 0.32058,-0.16305 0.01,0.01 -0.0667,0.13776 -0.17123,0.28322 -0.10454,0.14545 -0.65475,1.16583 -1.22278,2.26752 -2.191655,4.25076 -2.265389,4.38331 -3.147002,5.65838 -0.3611,0.52224 -0.908252,1.11957 -1.364066,1.48912 -0.614841,0.49848 -1.194023,0.72144 -2.110656,0.8125 -0.544646,0.0541 -0.552003,0.0541 -1.048173,-0.006 z m 34.69201,-5.30818 c -1.59899,-0.30785 -2.83162,-0.76398 -4.83006,-1.78734 -0.96617,-0.49474 -1.55643,-0.85037 -3.28559,-1.97952 -1.15932,-0.75703 -2.26939,-1.47996 -2.46685,-1.60651 -0.50999,-0.32684 -2.4784,-1.60625 -3.50391,-2.27745 -0.47808,-0.31288 -0.96126,-0.62646 -1.07375,-0.69684 -0.41538,-0.25989 -2.10735,-1.10598 -2.44148,-1.22087 -0.18982,-0.0653 -0.34512,-0.13795 -0.34512,-0.16147 0,-0.0358 0.20214,-0.39182 0.81284,-1.43173 0.095,-0.1618 0.13771,-0.15759 0.72106,0.0712 0.65057,0.25505 1.92666,0.95276 2.83774,1.55152 0.88651,0.58263 3.37262,2.21313 4.75512,3.11859 0.72777,0.47666 1.34901,0.85077 2.8633,1.72432 0.36559,0.21088 1.08341,0.62611 1.59516,0.92271 0.68803,0.39877 1.18095,0.63923 1.89184,0.92285 1.40383,0.56011 2.0848,0.74696 3.11918,0.85584 1.50088,0.158 2.87773,-0.30117 3.9518,-1.31789 0.97324,-0.92127 1.65742,-2.18659 1.91417,-3.5401 0.12095,-0.63762 0.10893,-1.89979 -0.0235,-2.45761 -0.14629,-0.61648 -0.23733,-0.8814 -0.48624,-1.41491 -0.30494,-0.65363 -0.57739,-1.03552 -1.1583,-1.62353 -0.27574,-0.27912 -0.50135,-0.51507 -0.50135,-0.52436 0,-0.0807 1.10773,-1.65289 1.15659,-1.64166 0.16298,0.0374 1.12066,1.00971 1.53613,1.55955 0.71528,0.9466 1.10628,1.70801 1.43856,2.80126 0.28625,0.94179 0.39841,2.38763 0.2625,3.38368 -0.15626,1.14503 -0.5825,2.3308 -1.17712,3.27464 -1.12829,1.79092 -2.69781,2.99389 -4.49491,3.44512 -0.62813,0.15771 -2.3629,0.18634 -3.06783,0.0507 z m -42.557589,-3.64771 c -1.285181,-1.27207 -2.015106,-2.55635 -2.404709,-4.23104 -0.15504,-0.66644 -0.198703,-1.1915 -0.172204,-2.07078 0.02925,-0.97036 0.157288,-1.68592 0.448326,-2.50539 0.82044,-2.31012 2.773543,-4.28347 4.881126,-4.93173 1.413577,-0.43482 3.471514,-0.30968 5.317561,0.32331 1.581414,0.54225 3.618967,1.57053 5.32957,2.68964 1.191972,0.77981 3.851869,2.51565 6.418869,4.18892 0.79377,0.51741 1.6618,1.05483 1.92896,1.19426 0.26716,0.13943 0.76184,0.39714 1.0993,0.5727 0.33747,0.17555 0.75787,0.37166 0.93422,0.43577 0.17637,0.0641 0.33104,0.13339 0.34376,0.15395 0.0127,0.0205 -0.19447,0.35694 -0.46036,0.74753 -0.26589,0.39059 -0.49026,0.72938 -0.49859,0.75287 -0.0234,0.066 -0.61706,-0.14837 -1.23938,-0.44741 -0.64197,-0.30848 -1.11085,-0.57854 -2.19861,-1.26635 -0.42182,-0.26674 -1.18111,-0.745 -1.68731,-1.06283 -0.50619,-0.31783 -1.03539,-0.6516 -1.176,-0.74172 -0.26671,-0.17093 -0.99282,-0.62937 -3.604702,-2.27582 -0.857706,-0.54066 -1.640004,-1.0354 -1.738428,-1.09939 -0.756309,-0.49178 -1.139589,-0.70499 -1.907712,-1.06125 -1.812105,-0.84042 -2.998841,-1.18248 -4.332493,-1.24876 -1.44154,-0.0717 -2.652588,0.34119 -3.6092,1.23032 -0.690752,0.64204 -1.302784,1.55325 -1.651994,2.45955 -0.146476,0.38015 -0.197421,0.56129 -0.366701,1.30383 -0.08426,0.36963 -0.08332,1.61265 0.0015,2.09094 0.245596,1.38341 0.908581,2.57341 1.963562,3.52442 0.134908,0.12162 0.238188,0.24076 0.229512,0.26475 -0.03738,0.10343 -1.093015,1.68181 -1.126505,1.68437 -0.02035,9.4e-4 -0.345003,-0.30205 -0.721461,-0.67466 z m 7.784622,0.40204 c -0.01172,-0.011 -0.205374,-0.0352 -0.430348,-0.0541 -0.467894,-0.0393 -1.059907,-0.12534 -1.093571,-0.159 -0.02905,-0.029 -0.108692,0.0238 0.848914,-0.56295 0.455993,-0.27939 0.829885,-0.52269 0.830868,-0.54065 9.37e-4,-0.018 -0.08449,-0.0479 -0.18995,-0.0663 -0.411766,-0.0724 -1.805079,-0.44117 -2.339215,-0.61915 -1.404153,-0.46786 -2.052279,-0.82461 -2.736022,-1.50601 -0.73314,-0.73061 -0.998811,-1.18019 -1.228778,-2.07936 -0.281593,-1.10101 0.05815,-2.45033 0.873273,-3.46828 1.154218,-1.44143 2.629663,-1.98567 4.291633,-1.58301 1.325304,0.32107 2.483437,0.93381 5.344581,2.82766 3.612042,2.39089 3.950202,2.611 4.191542,2.72825 0.12718,0.0617 0.23121,0.12501 0.23118,0.1405 -2e-5,0.0155 -0.46594,0.0256 -1.03539,0.0224 -1.086254,-0.007 -2.028591,0.0767 -3.259509,0.28605 -1.123781,0.1912 -2.394745,0.54883 -2.846237,0.8009 -0.21684,0.12105 -0.272398,0.13037 -0.597147,0.10014 -0.628067,-0.0584 -2.213747,-0.5232 -2.611564,-0.76557 l -0.200523,-0.12217 0.200523,-0.12488 c 0.443393,-0.27611 2.021679,-1.05897 2.50159,-1.24084 0.281107,-0.1065 0.751263,-0.2564 1.04479,-0.33304 0.51873,-0.13546 0.53019,-0.14156 0.409042,-0.21758 -0.06856,-0.043 -0.650952,-0.37995 -1.294221,-0.74874 -1.453385,-0.83323 -1.860483,-0.98868 -2.665199,-1.01767 -0.480394,-0.0173 -0.603455,-0.005 -0.843651,0.0873 -0.906183,0.34678 -1.440128,1.23605 -1.274758,2.12308 0.05879,0.31536 0.301928,0.81514 0.502681,1.03331 0.377334,0.41006 0.860521,0.71587 1.528122,0.96715 1.418484,0.53392 4.977482,1.0359 7.514034,1.05984 0.597453,0.006 1.08597,0.0218 1.0856,0.0359 -7.2e-4,0.0263 -0.121167,0.0975 -2.248552,1.32914 -0.688985,0.39886 -1.379247,0.80008 -1.533913,0.89157 -0.795074,0.47038 -1.225668,0.69301 -1.432638,0.7407 -0.214418,0.0495 -1.490467,0.0789 -1.537187,0.0355 z m 34.819367,-0.31386 c -1.00076,-0.16894 -1.79603,-0.48574 -3.36988,-1.34237 -0.18279,-0.0995 -1.64445,-1.05732 -3.24815,-2.12853 -1.60368,-1.07119 -3.07029,-2.02816 -3.25911,-2.12659 -0.18884,-0.0984 -0.34343,-0.19046 -0.34351,-0.20452 -1.1e-4,-0.014 0.55768,-0.0278 1.23947,-0.0306 1.51372,-0.007 2.43636,-0.11298 4.0007,-0.46312 0.84713,-0.18961 1.33791,-0.34174 1.7812,-0.5521 0.41722,-0.198 0.55747,-0.21102 1.10765,-0.10278 0.83898,0.16495 2.46754,0.74751 2.36713,0.84675 -0.10179,0.10058 -1.47283,0.84772 -1.93251,1.05305 -0.72623,0.32441 -1.07714,0.45213 -1.67451,0.6094 -0.28825,0.0759 -0.54169,0.15319 -0.56319,0.17178 -0.0477,0.0412 1.41227,0.90817 2.18657,1.29843 0.69871,0.35216 1.09834,0.4856 1.63785,0.5469 0.93368,0.10608 1.71258,-0.26855 2.11051,-1.01513 0.21953,-0.41188 0.27126,-0.68142 0.21163,-1.10257 -0.10574,-0.74627 -0.59996,-1.39312 -1.36472,-1.78599 -0.87205,-0.44801 -1.82653,-0.68991 -4.18031,-1.05942 -1.07053,-0.16807 -3.05487,-0.31978 -4.2739,-0.32677 l -0.89929,-0.006 0.49025,-0.28786 c 1.9211,-1.12801 4.51292,-2.59804 4.68294,-2.65611 0.22817,-0.0778 1.44273,-0.0976 2.04522,-0.0333 0.57763,0.0617 1.15057,0.15487 1.14858,0.18669 -7.6e-4,0.0162 -0.22534,0.16626 -0.49852,0.33343 -0.86017,0.52632 -1.19851,0.74972 -1.17346,0.77477 0.0134,0.0134 0.29763,0.0817 0.63174,0.15207 0.7221,0.15191 1.22092,0.2969 2.21809,0.64471 1.25437,0.43749 1.78861,0.74928 2.47847,1.44642 0.86931,0.87851 1.31598,1.97479 1.22787,3.01368 -0.12125,1.42988 -0.724,2.51038 -1.88335,3.3761 -0.57922,0.4325 -1.16923,0.68233 -1.87413,0.79355 -0.40022,0.063 -0.52413,0.0602 -1.02733,-0.0248 z m -19.83545,-5.59032 c -0.9075,-0.51356 -0.86643,-0.4382 -0.60285,-1.10647 0.31681,-0.80322 0.78658,-1.66035 1.9468,-3.55202 0.64732,-1.05541 1.28012,-2.0915 1.40626,-2.30241 0.12615,-0.21091 0.31602,-0.52152 0.42195,-0.69026 0.10596,-0.16873 0.4868,-0.78996 0.84637,-1.38052 0.35959,-0.59056 0.87195,-1.43036 1.1386,-1.86625 1.63882,-2.679 1.65833,-2.71399 2.10969,-3.78366 0.68109,-1.61407 0.94872,-2.62718 1.0025,-3.794799 0.0789,-1.712021 -0.52876,-3.115177 -1.80273,-4.163004 -1.25346,-1.030977 -2.80897,-1.572638 -4.39423,-1.530177 -1.74902,0.04684 -3.3511,0.77371 -4.34286,1.970386 -0.19337,0.23331 -0.33256,0.35861 -0.38348,0.345183 -0.0712,-0.01875 -1.54564,-0.964757 -1.65935,-1.064608 -0.0558,-0.04903 0.0972,-0.236426 0.70163,-0.858994 1.5056,-1.5508 3.49091,-2.453034 5.68406,-2.583127 3.05554,-0.181273 6.27474,1.649367 7.62984,4.338794 0.4837,0.959986 0.6462,1.720216 0.64544,3.019814 -7.3e-4,1.161958 -0.0881,1.715356 -0.47271,2.992162 -0.61076,2.02747 -1.40994,3.60443 -3.45113,6.80975 -0.81847,1.28526 -1.56865,2.46504 -1.66708,2.62174 -0.0984,0.15669 -0.67133,1.05763 -1.27311,2.00207 -0.60178,0.94445 -1.22491,1.96199 -1.38471,2.26121 -0.72245,1.35266 -0.96946,1.85368 -1.12533,2.28246 -0.092,0.25309 -0.17072,0.46472 -0.17493,0.47027 -0.005,0.006 -0.3636,-0.19135 -0.79864,-0.43754 z m 4.99958,-1.69748 c -0.44291,-0.22366 -0.8053,-0.42671 -0.8053,-0.45122 0,-0.0245 0.13413,-0.20469 0.29807,-0.40041 0.51558,-0.61559 1.43307,-1.99172 1.84624,-2.76917 0.21859,-0.41132 0.57662,-1.08146 0.79562,-1.48922 0.49832,-0.92782 0.51833,-0.96525 1.79651,-3.35884 1.10719,-2.07339 1.96415,-3.46051 2.56829,-4.15726 0.78314,-0.90314 0.97204,-1.10072 1.46036,-1.52746 1.6066,-1.403962 3.51337,-2.018084 5.57699,-1.796258 1.69785,0.182513 3.08643,0.693012 4.21679,1.550268 0.67491,0.51184 0.8607,0.69275 1.40125,1.36432 0.54167,0.67301 0.803,1.10023 1.09462,1.78958 0.47243,1.11675 0.65636,2.01646 0.67059,3.28028 0.0272,2.40682 -0.89244,4.66939 -2.79459,6.8761 l -0.27047,0.31376 -0.80415,-0.35658 c -0.44228,-0.19613 -0.94794,-0.41456 -1.1237,-0.4854 -0.17576,-0.0708 -0.31957,-0.14654 -0.31957,-0.16824 0,-0.0217 0.15196,-0.17285 0.33767,-0.3359 0.57976,-0.509 1.46077,-1.50863 1.86878,-2.12041 0.60137,-0.90168 0.84514,-1.45406 1.08766,-2.4647 0.17202,-0.71681 0.1867,-1.82674 0.0327,-2.46812 -0.31386,-1.30699 -0.87253,-2.2342 -1.8498,-3.07 -1.05584,-0.90302 -2.33595,-1.43289 -3.76505,-1.55845 -1.4335,-0.12594 -2.65271,0.3012 -4.01979,1.40832 -1.1192,0.90638 -2.10336,2.22389 -3.41743,4.57507 -0.0707,0.12655 -0.73774,1.3 -1.48226,2.60765 -0.74453,1.30767 -1.6152,2.83773 -1.93484,3.40018 -0.4147,0.72969 -0.72042,1.19469 -1.06732,1.62339 -0.26738,0.33042 -0.51009,0.59956 -0.53934,0.59808 -0.0293,-9.4e-4 -0.4156,-0.18569 -0.85852,-0.40936 z m -6.19957,-0.47368 c -0.60642,-0.5371 -1.90133,-1.35781 -3.31964,-2.10401 -0.7614,-0.4006 -2.07463,-1.09069 -2.9183,-1.53353 -0.843644,-0.44286 -1.694961,-0.892 -1.891823,-0.9981 -0.19685,-0.10606 -0.611007,-0.32511 -0.920347,-0.48669 -1.154647,-0.60316 -1.436857,-0.76626 -2.015027,-1.16462 -0.758545,-0.52263 -0.929019,-0.6598 -1.632232,-1.31332 -1.030117,-0.95734 -1.70693,-1.89565 -2.133315,-2.95756 -0.272008,-0.67743 -0.357112,-1.02489 -0.453297,-1.85072 -0.117926,-1.0125 0.05064,-2.574847 0.390239,-3.616662 0.208571,-0.639866 0.826725,-1.791865 1.228014,-2.288531 1.407688,-1.742252 3.205832,-2.747727 5.400881,-3.020033 2.069667,-0.256741 4.189537,0.254953 6.215367,1.500266 0.48335,0.297128 0.61421,0.394916 1.39,1.038677 l 0.46774,0.388128 -0.45793,1.094652 c -0.25187,0.602067 -0.47613,1.113564 -0.49837,1.136687 -0.0223,0.02315 -0.1872,-0.122535 -0.36656,-0.323674 -0.47248,-0.52987 -1.44549,-1.378936 -1.99666,-1.742351 -2.15394,-1.42018 -4.499291,-1.664099 -6.395155,-0.665117 -0.534635,0.281717 -0.831269,0.497006 -1.30205,0.945013 -1.419766,1.351097 -2.168584,3.466825 -1.902951,5.376675 0.0926,0.66578 0.446821,1.55293 0.867953,2.17379 0.249004,0.3671 0.929772,1.14822 1.224839,1.4054 0.126545,0.1103 0.358025,0.31645 0.514391,0.45812 0.442841,0.40118 2.154761,1.5581 2.834642,1.91566 0.337457,0.17747 0.751614,0.3973 0.920354,0.48851 0.515267,0.27856 2.625977,1.40101 3.195657,1.69942 0.5651,0.29601 1.87163,1.03882 2.99464,1.70254 0.5219,0.30846 1.23734,0.80693 1.80942,1.26069 0.0397,0.0315 -0.83579,1.75288 -0.89138,1.75263 -0.0287,-1.1e-4 -0.19037,-0.12249 -0.3591,-0.27194 z m 10.47547,-1.35122 c 0.12197,-0.18981 0.45914,-0.81681 0.74926,-1.3933 1.65118,-3.28097 2.05532,-4.06499 2.34577,-4.55061 0.30029,-0.50206 0.40857,-0.67773 0.94556,-1.5339 0.28266,-0.4507 0.95631,-1.24522 1.42127,-1.67634 0.70233,-0.65122 1.24595,-0.89016 2.35677,-1.03591 0.3783,-0.0496 0.54853,-0.0451 1.07374,0.029 2.12317,0.2997 3.65151,1.6392 3.97486,3.48368 0.0847,0.48303 0.039,1.39748 -0.0987,1.97448 -0.11723,0.49118 -0.23281,0.80439 -0.29655,0.80356 -0.0785,-7.6e-4 -2.01853,-0.40051 -2.03762,-0.4196 -0.011,-0.011 0.0179,-0.13322 0.0631,-0.27252 0.0526,-0.16197 0.084,-0.44676 0.087,-0.79013 0.005,-0.50255 -0.007,-0.55904 -0.15921,-0.88393 -0.33436,-0.70854 -0.97624,-1.1935 -1.74848,-1.32104 -0.76861,-0.12692 -1.34385,0.11352 -2.10455,0.87969 -0.37237,0.37505 -0.59258,0.65787 -0.91714,1.17785 -0.2349,0.37637 -0.5113,0.81085 -0.6142,0.96553 -0.25283,0.37994 -0.46478,0.76721 -0.41909,0.76574 0.0205,-7.2e-4 0.20991,-0.0476 0.42082,-0.1042 1.75661,-0.47163 4.20948,-0.41276 6.72364,0.16136 0.66668,0.15225 1.73053,0.46712 1.85724,0.5497 0.16249,0.10586 -0.44301,1.07926 -0.97129,1.56143 l -0.36078,0.32927 -0.32053,-0.12065 c -0.66887,-0.25176 -2.36647,-0.47287 -3.70717,-0.48285 -1.49082,-0.011 -3.50699,0.27509 -4.88285,0.69308 -1.4627,0.44439 -2.38438,0.84163 -3.38064,1.45709 -0.0877,0.0541 -0.17351,0.0985 -0.19071,0.0985 -0.0172,0 0.0685,-0.15532 0.19048,-0.34513 z m -11.39739,-3.35692 c -0.23558,-0.18237 -0.51108,-0.32539 -3.69272,-1.91702 -2.718154,-1.35977 -3.315181,-1.68811 -4.282074,-2.35498 -1.419515,-0.97901 -2.108454,-1.83923 -2.356426,-2.9423 -0.06585,-0.29283 -0.0917,-0.61965 -0.09106,-1.15043 0.0015,-0.9309 0.132358,-1.46889 0.564252,-2.313243 0.255343,-0.499189 0.352362,-0.629928 0.805551,-1.085515 0.449546,-0.451924 0.577172,-0.548089 1.000978,-0.754285 0.726303,-0.353355 1.020248,-0.418445 1.866255,-0.413246 0.730264,0.0044 1.183364,0.07338 1.719964,0.261292 0.16552,0.05803 0.2716,0.124565 0.26774,0.168078 -0.0125,0.140667 -0.38338,2.041751 -0.398,2.040007 -0.002,-2.85e-4 -0.10978,-0.03247 -0.23827,-0.07141 -0.35604,-0.108045 -0.957927,-0.148532 -1.243277,-0.08358 -1.117611,0.254404 -1.945565,1.410062 -1.771645,2.472862 0.138073,0.84377 0.781251,1.61314 1.993095,2.38414 0.749327,0.47675 1.843457,1.12081 1.843307,1.0851 -4e-5,-0.0188 -0.0672,-0.2996 -0.14917,-0.62382 -0.0819,-0.32423 -0.17808,-0.83042 -0.2136,-1.12488 -0.0738,-0.61232 -0.0908,-2.18324 -0.0317,-2.93851 0.0951,-1.214471 0.44019,-2.953433 0.78961,-3.978444 0.12949,-0.379846 0.1425,-0.397747 0.26683,-0.367198 0.38423,0.09444 1.24398,0.71575 1.58337,1.144265 l 0.15263,0.192715 -0.12036,0.379473 c -0.0663,0.208696 -0.17396,0.690072 -0.23943,1.06972 -0.10706,0.620857 -0.11915,0.849616 -0.11987,2.275299 -7.1e-4,1.56403 0.0262,1.96039 0.21078,3.09341 0.29811,1.83017 1.00275,3.81858 1.87139,5.28089 0.11331,0.19076 0.19649,0.35636 0.18485,0.36801 -0.0116,0.0116 -0.0895,-0.0317 -0.173,-0.0963 z m 3.16968,-0.79741 c 0.0456,-0.55621 -0.10552,-2.45253 -0.27797,-3.48783 -0.20786,-1.24781 -0.54938,-2.5234 -0.83972,-3.13627 l -0.2261,-0.47732 0.0489,-0.39392 c 0.0473,-0.38127 0.27962,-1.33957 0.43882,-1.810425 0.1282,-0.379111 0.38258,-0.920025 0.42139,-0.896037 0.0871,0.05386 0.92086,1.590282 1.19268,2.197732 0.27357,0.61143 0.65005,1.7332 0.65005,1.93692 0,0.0467 0.0172,0.0841 0.0383,0.0834 0.0492,-0.002 1.39502,-2.44605 1.53368,-2.78507 0.32265,-0.788813 0.35971,-1.738247 0.0898,-2.300859 -0.18431,-0.384178 -0.57243,-0.772338 -0.97155,-0.971668 -0.27492,-0.137288 -0.35459,-0.152875 -0.76696,-0.14999 -0.3535,0.0022 -0.51609,0.0283 -0.7014,0.111434 -0.45037,0.202072 -0.92589,0.633801 -1.22746,1.114441 -0.36881,0.587807 -0.77991,2.109492 -0.98713,3.653872 -0.26,1.93766 -0.40716,3.96758 -0.37335,5.14977 0.0123,0.42796 0.0184,0.77308 0.0137,0.76695 -0.0168,-0.022 -0.62725,-1.04891 -1.07055,-1.80071 -0.24874,-0.42183 -0.78067,-1.31917 -1.18208,-1.99408 -0.46863,-0.78796 -0.75156,-1.31864 -0.79053,-1.48279 -0.0847,-0.35686 -0.0712,-1.66533 0.0251,-2.42406 0.0744,-0.585863 0.10476,-0.721275 0.14931,-0.665092 0.009,0.01174 0.14159,0.216112 0.294,0.454205 0.1524,0.238097 0.39588,0.616197 0.54105,0.840237 l 0.26394,0.40734 0.0517,-0.20111 c 0.0284,-0.1106 0.0906,-0.38518 0.13819,-0.61014 0.21806,-1.031319 0.59636,-2.268733 0.91442,-2.991131 0.39707,-0.901872 0.86329,-1.493245 1.62695,-2.063732 0.49199,-0.367517 0.88741,-0.558465 1.44481,-0.697662 0.39216,-0.09795 0.54696,-0.110766 1.04816,-0.08688 0.68494,0.03257 1.06737,0.133317 1.68739,0.444541 1.4976,0.751728 2.49196,2.216827 2.5095,3.697555 0.007,0.618829 -0.14656,1.316809 -0.48131,2.183099 -0.22362,0.57874 -0.93546,1.94492 -1.35868,2.60766 -0.22449,0.35153 -0.57468,0.90213 -0.77817,1.22359 -1.12968,1.78445 -2.99382,4.71393 -3.05049,4.79379 -0.0554,0.0781 -0.0614,0.0404 -0.0385,-0.23965 z"
       id="path3102"
       inkscape:connector-curvature="0"
       sodipodi:nodetypes="cccsccsssccccccsccsccsscccsscccccsccccsccccssccsscccccccssscsscccscsscssscccsccsscsssssscssccccccsccccccscccsccccssscssscccsccscscccccssscsccscscscccscccccsccscccscsscsscscccccccsccsccsccccsccccccscccccsscscsccccccccscsccsccccscscccscccsscccccsccssscccccccsssssscccsccscccssssssccsscsscscscscscccsscsssccccscssssscsscscscccsscccscsccscccsscssssccssccccccsscssccsccscccscccccscscccccsscssccccccccccssccccssssccscscsccscccscsscssccccscccscccsccccccccccsscccc" />
  </g>
  <g
     inkscape:groupmode="layer"
     id="layer1"
     inkscape:label="new shamrock">
    <path
       style="display:inline;fill:#ffffff;fill-opacity:1;stroke-width:0.24095759"
       d="m 62.534921,69.090403 c -0.332499,-0.332491 -0.739489,-1.086542 -0.904434,-1.675662 -0.295254,-1.054536 -0.286893,-1.086324 0.539784,-2.052107 1.264062,-1.476779 1.889854,-3.660677 2.038262,-7.113178 0.12824,-2.983206 -0.382195,-7.937232 -0.945087,-9.172648 -0.397195,-0.871743 -0.782314,-0.585745 -0.858281,0.637376 -0.140416,2.260806 -0.820584,6.596492 -1.382082,8.809966 -1.225062,4.829346 -3.293849,7.851669 -6.380206,9.320967 -1.357985,0.64648 -1.833243,0.745746 -3.614373,0.754939 -1.764122,0.0091 -2.240125,-0.0824 -3.40525,-0.654588 -2.434685,-1.195663 -4.149006,-3.023184 -5.900029,-6.289629 -0.52783,-0.98464 -1.290365,-1.860885 -2.516258,-2.891488 -3.011135,-2.531464 -4.497148,-5.301039 -4.743032,-8.839923 -0.215871,-3.106842 0.857912,-5.691746 3.129627,-7.533884 2.426346,-1.967527 5.216063,-2.802483 9.98477,-2.988424 3.008772,-0.117324 7.819498,0.175409 9.350987,0.568998 0.265056,0.0681 -0.168667,-0.272571 -0.96383,-0.757076 -8.787153,-5.354228 -12.696915,-10.418703 -12.354615,-16.003445 0.314316,-5.128227 4.798869,-8.694949 10.932445,-8.694949 1.677951,0 2.198036,-0.105929 3.503497,-0.713584 4.766514,-2.218672 9.072099,-1.934147 11.952311,0.789841 2.566899,2.427663 3.44591,5.632818 2.596229,9.466679 -0.789083,3.560425 -2.116202,6.381889 -5.350804,11.375812 -0.971268,1.499549 -1.629346,2.643726 -1.462394,2.542625 0.166953,-0.101107 1.442074,-0.933101 2.833609,-1.848879 9.09804,-5.987512 16.451557,-7.080763 20.781458,-3.089596 2.059627,1.898495 3.252532,5.112257 2.981212,8.031566 -0.159119,1.712081 -1.104404,5.013299 -1.863339,6.507371 -0.297077,0.584837 -0.454111,1.400771 -0.454111,2.359491 0,3.198067 -1.445885,7.592494 -3.061652,9.305183 -1.599697,1.695647 -4.119203,2.742138 -6.601892,2.742138 -1.476422,0 -3.920533,-0.774815 -5.25352,-1.665437 -2.265908,-1.513956 -4.974673,-4.529094 -7.391027,-8.227 -0.827422,-1.266249 -1.695368,-2.458989 -1.928773,-2.650531 -0.389107,-0.319316 -0.410889,-0.298189 -0.262043,0.254135 1.310002,4.861196 1.635288,11.991872 0.696047,15.258201 -0.851369,2.960734 -1.867942,4.741275 -2.706961,4.741275 -0.226438,0 -0.683754,-0.272037 -1.016245,-0.604535 z"
       id="path3913"
       inkscape:connector-curvature="0" />
  </g>
  <g
     inkscape:groupmode="layer"
     id="layer2"
     inkscape:label="Text"
     style="display:inline"
     transform="translate(-46.231019,-79.13034)">
    <text
       xml:space="preserve"
       style="font-style:normal;font-variant:normal;font-weight:normal;font-stretch:normal;font-size:10.58333302px;line-height:1.25;font-family:FreeSerif;-inkscape-font-specification:FreeSerif;letter-spacing:0px;word-spacing:0px;fill:#ffffff;fill-opacity:1;stroke:none;stroke-width:0.26458332;stroke-opacity:1"
       x="72.636971"
       y="178.75087"
       id="text7412"><tspan
         sodipodi:role="line"
         x="72.636971"
         y="178.75087"
         id="tspan7410"
         style="font-style:normal;font-variant:normal;font-weight:normal;font-stretch:normal;font-size:28.22222137px;font-family:'Russo One';-inkscape-font-specification:'Russo One';stroke-width:0.26458332"><tspan
           x="72.636971"
           y="178.75087"
           style="font-style:normal;font-variant:normal;font-weight:normal;font-stretch:normal;font-size:28.22222137px;line-height:1.25;font-family:'Russo One';-inkscape-font-specification:'Russo One';letter-spacing:5.29166651px;fill:#ffffff;fill-opacity:1;stroke:none;stroke-width:0.26458332;stroke-opacity:1"
           id="tspan7408">IIGL</tspan></tspan></text>
    <path
       style="opacity:0;fill:#008848;fill-opacity:0;stroke-width:0.09354433"
       d="m 108.72054,207.18567 c -0.5145,-0.20702 -2.21934,-0.7983 -3.78856,-1.31396 -16.307412,-5.35884 -18.389045,-6.10471 -24.321541,-8.7147 -1.914763,-0.8424 -6.675884,-3.19509 -8.278672,-4.09087 -5.212278,-2.91312 -8.902663,-5.59886 -12.289962,-8.94424 l -1.532363,-1.51339 0.04138,-16.70778 c 0.03108,-12.54793 0.06852,-16.73492 0.150408,-16.81681 0.05996,-0.06 0.625671,-0.1645 1.257122,-0.2323 8.562131,-0.91939 14.223582,-5.8196 16.021667,-13.8674 0.344463,-1.54174 0.446799,-2.98014 0.45312,-6.36892 0.0063,-3.38051 -0.05614,-4.06418 -0.549519,-6.01587 -0.381436,-1.50889 -0.664051,-2.26528 -1.40471,-3.75952 -0.846084,-1.70693 -1.647171,-2.8491 -2.940841,-4.19299 -2.968757,-3.084 -6.331164,-4.80413 -11.367063,-5.81513 -0.668843,-0.13427 -1.310791,-0.26393 -1.426551,-0.28811 l -0.210476,-0.044 V 93.815023 79.130344 h 51.215561 51.21553 v 14.680157 c 0,13.900469 -0.009,14.682699 -0.1637,14.728099 -0.09,0.0264 -0.73199,0.15509 -1.42655,0.28604 -2.29243,0.4322 -4.16781,1.06103 -6.20579,2.08082 -3.23781,1.62018 -5.37784,3.49328 -7.19485,6.29743 -1.81696,2.80406 -2.639,5.66824 -2.8824,10.04287 -0.33729,6.06214 0.9321,11.27582 3.61128,14.83247 0.84353,1.1198 2.44409,2.67098 3.57901,3.46859 2.59209,1.8217 5.73597,2.93896 9.30251,3.3059 0.65559,0.0675 1.22082,0.15148 1.25607,0.18673 0.0995,0.0995 0.20445,11.65005 0.21058,23.1675 l 0.006,10.4302 -2.03367,1.93263 c -2.25255,2.14061 -2.59411,2.43372 -4.41906,3.79212 -5.9464,4.4262 -14.42947,8.68573 -24.74248,12.42372 -2.71851,0.98534 -5.89914,2.05062 -12.39462,4.15134 -2.70109,0.87356 -5.47936,1.80627 -6.17393,2.07268 -0.69457,0.26641 -1.34705,0.49969 -1.44995,0.5184 -0.10289,0.0187 -0.60804,-0.13536 -1.12253,-0.34237 z m 9.2795,-26.70439 c 2.29922,-0.3013 5.16471,-1.19953 6.59967,-2.06875 l 0.53788,-0.32583 0.005,-2.58908 c 0.002,-1.424 0.0389,-3.51733 0.081,-4.65186 0.085,-2.29554 0.18633,-2.72299 0.73844,-3.11613 0.37218,-0.26502 0.99041,-0.48052 1.37848,-0.48052 0.53177,0 0.60393,-0.0683 0.60393,-0.57128 v -0.45771 h -5.0514 -5.05139 v 0.46029 c 0,0.51816 -0.039,0.49566 1.07411,0.61909 1.11411,0.12352 1.84764,0.55598 2.12695,1.25395 0.0555,0.1388 0.12856,1.96606 0.17402,4.35509 l 0.0783,4.11595 -0.42834,0.4356 c -0.54385,0.55306 -1.08333,0.84534 -2.13844,1.15858 -1.03284,0.30662 -3.10185,0.41775 -4.358,0.23408 -3.86669,-0.56538 -6.66433,-3.21385 -7.85999,-7.44092 -0.19617,-0.69352 -0.21412,-0.97111 -0.24497,-3.78855 l -0.0333,-3.04019 0.28208,-1.09147 c 1.09469,-4.23588 3.07598,-6.60607 6.36969,-7.61998 0.72005,-0.22165 2.58341,-0.33127 3.75425,-0.22085 2.08906,0.197 3.5057,0.92486 4.70293,2.41634 0.7665,0.95489 1.38317,1.92238 1.96203,3.07821 0.55878,1.11576 0.54162,1.10174 1.21271,0.99086 l 0.35983,-0.0594 -0.0564,-1.3193 c -0.031,-0.72562 -0.10273,-2.51901 -0.15938,-3.98532 -0.0566,-1.46631 -0.14206,-2.73968 -0.1898,-2.82972 -0.0591,-0.11144 -0.19776,-0.16324 -0.43432,-0.16227 -0.41288,0.002 -0.45147,0.0258 -0.84009,0.52535 -0.34415,0.44234 -0.79564,0.6893 -1.26019,0.6893 -0.17674,0 -1.15961,-0.20853 -2.18415,-0.4634 -2.47702,-0.61619 -2.78339,-0.6577 -4.85624,-0.65788 -2.69933,-2.6e-4 -4.13543,0.27293 -5.93205,1.12835 -1.32726,0.63194 -2.42099,1.37808 -3.41363,2.32876 -2.19395,2.1012 -3.46963,4.67295 -3.94549,7.95404 -0.20684,1.42612 -0.13765,3.93385 0.1452,5.26293 0.52334,2.45916 1.52587,4.5223 2.92347,6.01634 1.64411,1.75755 4.61878,3.29301 7.50972,3.87636 1.12066,0.22612 4.23792,0.24809 5.81834,0.041 z m -41.505552,-0.73064 v -0.40757 L 75.53566,179.1916 c -1.533488,-0.24224 -2.012413,-0.44146 -2.435921,-1.0133 -0.294352,-0.39744 -0.33242,-1.32621 -0.398111,-9.71312 -0.06009,-7.67267 0.006,-11.02284 0.232236,-11.77954 0.227586,-0.76107 1.007099,-1.16239 2.594472,-1.33571 l 0.974823,-0.10644 -0.02772,-0.47514 -0.02772,-0.47513 -5.823135,-0.0241 -5.823135,-0.0241 v 0.50199 0.502 l 0.928939,0.10563 c 1.741524,0.19803 2.470094,0.6585 2.567664,1.62282 0.08821,0.87184 0.134202,11.27366 0.0717,16.21599 -0.06696,5.29469 -0.03825,5.0692 -0.696894,5.47331 -0.456089,0.27983 -0.668954,0.33064 -2.567387,0.61284 -0.290735,0.0432 -0.304019,0.0634 -0.304019,0.4619 v 0.41672 h 5.846521 5.846519 z m 17.960512,-0.009 c 0,-0.39822 -0.01349,-0.41878 -0.304019,-0.4633 -1.67421,-0.25654 -2.174346,-0.35516 -2.404285,-0.47406 -0.370348,-0.19151 -0.832133,-0.77445 -0.945417,-1.19345 -0.06167,-0.22809 -0.08414,-3.84605 -0.06479,-10.43019 0.02373,-8.07707 0.05436,-10.15513 0.154053,-10.45405 0.27299,-0.81856 1.212432,-1.29784 2.780099,-1.41834 l 0.78436,-0.0602 v -0.5014 -0.50141 l -5.823135,0.0241 -5.823132,0.0241 -0.0278,0.4774 -0.0278,0.4774 0.933352,0.10613 c 1.509631,0.17166 2.089391,0.45685 2.502286,1.23091 0.166648,0.31241 0.175835,0.75746 0.200631,9.71809 0.02813,10.16505 -0.01175,11.5044 -0.356997,11.98925 -0.29577,0.41538 -0.991211,0.70153 -2.140788,0.88086 -0.536298,0.0837 -1.009867,0.17362 -1.052373,0.19989 -0.04251,0.0263 -0.07728,0.21366 -0.07728,0.41642 v 0.36866 h 5.846521 5.846519 v -0.41671 z m 60.65187,0.25301 c 0.97923,-3.36017 1.83104,-6.61366 1.75219,-6.69251 -0.0426,-0.0426 -0.28321,-0.0643 -0.53477,-0.0483 l -0.45739,0.029 -0.46862,0.88868 c -1.16386,2.20705 -2.03899,3.03602 -3.84314,3.64047 -1.57303,0.52701 -2.29303,0.6055 -5.60394,0.61091 -1.64638,0.003 -3.19416,-0.0294 -3.43952,-0.0713 -0.55601,-0.0949 -0.68771,-0.28023 -0.81241,-1.1431 -0.11074,-0.76632 -0.12184,-15.41713 -0.014,-18.48163 0.0666,-1.89311 0.0846,-2.03995 0.28431,-2.32039 0.42341,-0.59463 1.28969,-0.96186 2.55969,-1.0851 l 0.63604,-0.0617 -0.028,-0.48317 -0.028,-0.48313 h -5.56589 -5.56589 l 0.022,0.36292 c 0.0121,0.1996 0.0658,0.41564 0.11923,0.48007 0.0535,0.0644 0.41179,0.16395 0.79624,0.22113 1.21336,0.18047 2.11037,0.77358 2.26451,1.49734 0.0396,0.18613 0.0721,4.92677 0.0721,10.53475 v 10.19633 l -0.23918,0.46491 c -0.30369,0.59028 -0.74786,0.83018 -2.00543,1.08317 -0.51005,0.1026 -0.96021,0.23825 -1.00036,0.30145 -0.0401,0.0632 -0.0736,0.25171 -0.0744,0.41892 l -0.001,0.30402 h 10.56421 c 9.98061,0 10.56684,-0.009 10.61191,-0.1637 z"
       id="path4711"
       inkscape:connector-curvature="0" />
    <path
       style="opacity:0;fill:#004f48;fill-opacity:0;stroke-width:0.09354433"
       d="m 108.72054,207.18567 c -0.5145,-0.20702 -2.21934,-0.7983 -3.78856,-1.31396 -16.307412,-5.35884 -18.389045,-6.10471 -24.321541,-8.7147 -1.914763,-0.8424 -6.675884,-3.19509 -8.278672,-4.09087 -5.212278,-2.91312 -8.902663,-5.59886 -12.289962,-8.94424 l -1.532363,-1.51339 0.04138,-16.70778 c 0.03108,-12.54793 0.06852,-16.73492 0.150408,-16.81681 0.05996,-0.06 0.625671,-0.1645 1.257122,-0.2323 8.562131,-0.91939 14.223582,-5.8196 16.021667,-13.8674 0.344463,-1.54174 0.446799,-2.98014 0.45312,-6.36892 0.0063,-3.38051 -0.05614,-4.06418 -0.549519,-6.01587 -0.381436,-1.50889 -0.664051,-2.26528 -1.40471,-3.75952 -0.846084,-1.70693 -1.647171,-2.8491 -2.940841,-4.19299 -2.968757,-3.084 -6.331164,-4.80413 -11.367063,-5.81513 -0.668843,-0.13427 -1.310791,-0.26393 -1.426551,-0.28811 l -0.210476,-0.044 V 93.815023 79.130344 h 51.215561 51.21553 v 14.680157 c 0,13.900469 -0.009,14.682699 -0.1637,14.728099 -0.09,0.0264 -0.73199,0.15509 -1.42655,0.28604 -2.29243,0.4322 -4.16781,1.06103 -6.20579,2.08082 -3.23781,1.62018 -5.37784,3.49328 -7.19485,6.29743 -1.81696,2.80406 -2.639,5.66824 -2.8824,10.04287 -0.33729,6.06214 0.9321,11.27582 3.61128,14.83247 0.84353,1.1198 2.44409,2.67098 3.57901,3.46859 2.59209,1.8217 5.73597,2.93896 9.30251,3.3059 0.65559,0.0675 1.22082,0.15148 1.25607,0.18673 0.0995,0.0995 0.20445,11.65005 0.21058,23.1675 l 0.006,10.4302 -2.03367,1.93263 c -2.25255,2.14061 -2.59411,2.43372 -4.41906,3.79212 -5.9464,4.4262 -14.42947,8.68573 -24.74248,12.42372 -2.71851,0.98534 -5.89914,2.05062 -12.39462,4.15134 -2.70109,0.87356 -5.47936,1.80627 -6.17393,2.07268 -0.69457,0.26641 -1.34705,0.49969 -1.44995,0.5184 -0.10289,0.0187 -0.60804,-0.13536 -1.12253,-0.34237 z m 9.2795,-26.70439 c 2.29922,-0.3013 5.16471,-1.19953 6.59967,-2.06875 l 0.53788,-0.32583 0.005,-2.58908 c 0.002,-1.424 0.0389,-3.51733 0.081,-4.65186 0.085,-2.29554 0.18633,-2.72299 0.73844,-3.11613 0.37218,-0.26502 0.99041,-0.48052 1.37848,-0.48052 0.53177,0 0.60393,-0.0683 0.60393,-0.57128 v -0.45771 h -5.0514 -5.05139 v 0.46029 c 0,0.51816 -0.039,0.49566 1.07411,0.61909 1.11411,0.12352 1.84764,0.55598 2.12695,1.25395 0.0555,0.1388 0.12856,1.96606 0.17402,4.35509 l 0.0783,4.11595 -0.42834,0.4356 c -0.54385,0.55306 -1.08333,0.84534 -2.13844,1.15858 -1.03284,0.30662 -3.10185,0.41775 -4.358,0.23408 -3.86669,-0.56538 -6.66433,-3.21385 -7.85999,-7.44092 -0.19617,-0.69352 -0.21412,-0.97111 -0.24497,-3.78855 l -0.0333,-3.04019 0.28208,-1.09147 c 1.09469,-4.23588 3.07598,-6.60607 6.36969,-7.61998 0.72005,-0.22165 2.58341,-0.33127 3.75425,-0.22085 2.08906,0.197 3.5057,0.92486 4.70293,2.41634 0.7665,0.95489 1.38317,1.92238 1.96203,3.07821 0.55878,1.11576 0.54162,1.10174 1.21271,0.99086 l 0.35983,-0.0594 -0.0564,-1.3193 c -0.031,-0.72562 -0.10273,-2.51901 -0.15938,-3.98532 -0.0566,-1.46631 -0.14206,-2.73968 -0.1898,-2.82972 -0.0591,-0.11144 -0.19776,-0.16324 -0.43432,-0.16227 -0.41288,0.002 -0.45147,0.0258 -0.84009,0.52535 -0.34415,0.44234 -0.79564,0.6893 -1.26019,0.6893 -0.17674,0 -1.15961,-0.20853 -2.18415,-0.4634 -2.47702,-0.61619 -2.78339,-0.6577 -4.85624,-0.65788 -2.69933,-2.6e-4 -4.13543,0.27293 -5.93205,1.12835 -1.32726,0.63194 -2.42099,1.37808 -3.41363,2.32876 -2.19395,2.1012 -3.46963,4.67295 -3.94549,7.95404 -0.20684,1.42612 -0.13765,3.93385 0.1452,5.26293 0.52334,2.45916 1.52587,4.5223 2.92347,6.01634 1.64411,1.75755 4.61878,3.29301 7.50972,3.87636 1.12066,0.22612 4.23792,0.24809 5.81834,0.041 z m -41.505552,-0.73064 v -0.40757 L 75.53566,179.1916 c -1.533488,-0.24224 -2.012413,-0.44146 -2.435921,-1.0133 -0.294352,-0.39744 -0.33242,-1.32621 -0.398111,-9.71312 -0.06009,-7.67267 0.006,-11.02284 0.232236,-11.77954 0.227586,-0.76107 1.007099,-1.16239 2.594472,-1.33571 l 0.974823,-0.10644 -0.02772,-0.47514 -0.02772,-0.47513 -5.823135,-0.0241 -5.823135,-0.0241 v 0.50199 0.502 l 0.928939,0.10563 c 1.741524,0.19803 2.470094,0.6585 2.567664,1.62282 0.08821,0.87184 0.134202,11.27366 0.0717,16.21599 -0.06696,5.29469 -0.03825,5.0692 -0.696894,5.47331 -0.456089,0.27983 -0.668954,0.33064 -2.567387,0.61284 -0.290735,0.0432 -0.304019,0.0634 -0.304019,0.4619 v 0.41672 h 5.846521 5.846519 z m 17.960512,-0.009 c 0,-0.39822 -0.01349,-0.41878 -0.304019,-0.4633 -1.67421,-0.25654 -2.174346,-0.35516 -2.404285,-0.47406 -0.370348,-0.19151 -0.832133,-0.77445 -0.945417,-1.19345 -0.06167,-0.22809 -0.08414,-3.84605 -0.06479,-10.43019 0.02373,-8.07707 0.05436,-10.15513 0.154053,-10.45405 0.27299,-0.81856 1.212432,-1.29784 2.780099,-1.41834 l 0.78436,-0.0602 v -0.5014 -0.50141 l -5.823135,0.0241 -5.823132,0.0241 -0.0278,0.4774 -0.0278,0.4774 0.933352,0.10613 c 1.509631,0.17166 2.089391,0.45685 2.502286,1.23091 0.166648,0.31241 0.175835,0.75746 0.200631,9.71809 0.02813,10.16505 -0.01175,11.5044 -0.356997,11.98925 -0.29577,0.41538 -0.991211,0.70153 -2.140788,0.88086 -0.536298,0.0837 -1.009867,0.17362 -1.052373,0.19989 -0.04251,0.0263 -0.07728,0.21366 -0.07728,0.41642 v 0.36866 h 5.846521 5.846519 v -0.41671 z m 60.65187,0.25301 c 0.97923,-3.36017 1.83104,-6.61366 1.75219,-6.69251 -0.0426,-0.0426 -0.28321,-0.0643 -0.53477,-0.0483 l -0.45739,0.029 -0.46862,0.88868 c -1.16386,2.20705 -2.03899,3.03602 -3.84314,3.64047 -1.57303,0.52701 -2.29303,0.6055 -5.60394,0.61091 -1.64638,0.003 -3.19416,-0.0294 -3.43952,-0.0713 -0.55601,-0.0949 -0.68771,-0.28023 -0.81241,-1.1431 -0.11074,-0.76632 -0.12184,-15.41713 -0.014,-18.48163 0.0666,-1.89311 0.0846,-2.03995 0.28431,-2.32039 0.42341,-0.59463 1.28969,-0.96186 2.55969,-1.0851 l 0.63604,-0.0617 -0.028,-0.48317 -0.028,-0.48313 h -5.56589 -5.56589 l 0.022,0.36292 c 0.0121,0.1996 0.0658,0.41564 0.11923,0.48007 0.0535,0.0644 0.41179,0.16395 0.79624,0.22113 1.21336,0.18047 2.11037,0.77358 2.26451,1.49734 0.0396,0.18613 0.0721,4.92677 0.0721,10.53475 v 10.19633 l -0.23918,0.46491 c -0.30369,0.59028 -0.74786,0.83018 -2.00543,1.08317 -0.51005,0.1026 -0.96021,0.23825 -1.00036,0.30145 -0.0401,0.0632 -0.0736,0.25171 -0.0744,0.41892 l -0.001,0.30402 h 10.56421 c 9.98061,0 10.56684,-0.009 10.61191,-0.1637 z"
       id="path4719"
       inkscape:connector-curvature="0" />
    <path
       style="opacity:0;fill:#000448;fill-opacity:0;stroke-width:0.09354433"
       d="m 108.72054,207.18567 c -0.5145,-0.20702 -2.21934,-0.7983 -3.78856,-1.31396 -16.307412,-5.35884 -18.389045,-6.10471 -24.321541,-8.7147 -1.914763,-0.8424 -6.675884,-3.19509 -8.278672,-4.09087 -5.212278,-2.91312 -8.902663,-5.59886 -12.289962,-8.94424 l -1.532363,-1.51339 0.04138,-16.70778 c 0.03108,-12.54793 0.06852,-16.73492 0.150408,-16.81681 0.05996,-0.06 0.625671,-0.1645 1.257122,-0.2323 8.562131,-0.91939 14.223582,-5.8196 16.021667,-13.8674 0.344463,-1.54174 0.446799,-2.98014 0.45312,-6.36892 0.0063,-3.38051 -0.05614,-4.06418 -0.549519,-6.01587 -0.381436,-1.50889 -0.664051,-2.26528 -1.40471,-3.75952 -0.846084,-1.70693 -1.647171,-2.8491 -2.940841,-4.19299 -2.968757,-3.084 -6.331164,-4.80413 -11.367063,-5.81513 -0.668843,-0.13427 -1.310791,-0.26393 -1.426551,-0.28811 l -0.210476,-0.044 V 93.815023 79.130344 h 51.215561 51.21553 v 14.680157 c 0,13.900469 -0.009,14.682699 -0.1637,14.728099 -0.09,0.0264 -0.73199,0.15509 -1.42655,0.28604 -2.29243,0.4322 -4.16781,1.06103 -6.20579,2.08082 -3.23781,1.62018 -5.37784,3.49328 -7.19485,6.29743 -1.81696,2.80406 -2.639,5.66824 -2.8824,10.04287 -0.33729,6.06214 0.9321,11.27582 3.61128,14.83247 0.84353,1.1198 2.44409,2.67098 3.57901,3.46859 2.59209,1.8217 5.73597,2.93896 9.30251,3.3059 0.65559,0.0675 1.22082,0.15148 1.25607,0.18673 0.0995,0.0995 0.20445,11.65005 0.21058,23.1675 l 0.006,10.4302 -2.03367,1.93263 c -2.25255,2.14061 -2.59411,2.43372 -4.41906,3.79212 -5.9464,4.4262 -14.42947,8.68573 -24.74248,12.42372 -2.71851,0.98534 -5.89914,2.05062 -12.39462,4.15134 -2.70109,0.87356 -5.47936,1.80627 -6.17393,2.07268 -0.69457,0.26641 -1.34705,0.49969 -1.44995,0.5184 -0.10289,0.0187 -0.60804,-0.13536 -1.12253,-0.34237 z m 9.2795,-26.70439 c 2.29922,-0.3013 5.16471,-1.19953 6.59967,-2.06875 l 0.53788,-0.32583 0.005,-2.58908 c 0.002,-1.424 0.0389,-3.51733 0.081,-4.65186 0.085,-2.29554 0.18633,-2.72299 0.73844,-3.11613 0.37218,-0.26502 0.99041,-0.48052 1.37848,-0.48052 0.53177,0 0.60393,-0.0683 0.60393,-0.57128 v -0.45771 h -5.0514 -5.05139 v 0.46029 c 0,0.51816 -0.039,0.49566 1.07411,0.61909 1.11411,0.12352 1.84764,0.55598 2.12695,1.25395 0.0555,0.1388 0.12856,1.96606 0.17402,4.35509 l 0.0783,4.11595 -0.42834,0.4356 c -0.54385,0.55306 -1.08333,0.84534 -2.13844,1.15858 -1.03284,0.30662 -3.10185,0.41775 -4.358,0.23408 -3.86669,-0.56538 -6.66433,-3.21385 -7.85999,-7.44092 -0.19617,-0.69352 -0.21412,-0.97111 -0.24497,-3.78855 l -0.0333,-3.04019 0.28208,-1.09147 c 1.09469,-4.23588 3.07598,-6.60607 6.36969,-7.61998 0.72005,-0.22165 2.58341,-0.33127 3.75425,-0.22085 2.08906,0.197 3.5057,0.92486 4.70293,2.41634 0.7665,0.95489 1.38317,1.92238 1.96203,3.07821 0.55878,1.11576 0.54162,1.10174 1.21271,0.99086 l 0.35983,-0.0594 -0.0564,-1.3193 c -0.031,-0.72562 -0.10273,-2.51901 -0.15938,-3.98532 -0.0566,-1.46631 -0.14206,-2.73968 -0.1898,-2.82972 -0.0591,-0.11144 -0.19776,-0.16324 -0.43432,-0.16227 -0.41288,0.002 -0.45147,0.0258 -0.84009,0.52535 -0.34415,0.44234 -0.79564,0.6893 -1.26019,0.6893 -0.17674,0 -1.15961,-0.20853 -2.18415,-0.4634 -2.47702,-0.61619 -2.78339,-0.6577 -4.85624,-0.65788 -2.69933,-2.6e-4 -4.13543,0.27293 -5.93205,1.12835 -1.32726,0.63194 -2.42099,1.37808 -3.41363,2.32876 -2.19395,2.1012 -3.46963,4.67295 -3.94549,7.95404 -0.20684,1.42612 -0.13765,3.93385 0.1452,5.26293 0.52334,2.45916 1.52587,4.5223 2.92347,6.01634 1.64411,1.75755 4.61878,3.29301 7.50972,3.87636 1.12066,0.22612 4.23792,0.24809 5.81834,0.041 z m -41.505552,-0.73064 v -0.40757 L 75.53566,179.1916 c -1.533488,-0.24224 -2.012413,-0.44146 -2.435921,-1.0133 -0.294352,-0.39744 -0.33242,-1.32621 -0.398111,-9.71312 -0.06009,-7.67267 0.006,-11.02284 0.232236,-11.77954 0.227586,-0.76107 1.007099,-1.16239 2.594472,-1.33571 l 0.974823,-0.10644 -0.02772,-0.47514 -0.02772,-0.47513 -5.823135,-0.0241 -5.823135,-0.0241 v 0.50199 0.502 l 0.928939,0.10563 c 1.741524,0.19803 2.470094,0.6585 2.567664,1.62282 0.08821,0.87184 0.134202,11.27366 0.0717,16.21599 -0.06696,5.29469 -0.03825,5.0692 -0.696894,5.47331 -0.456089,0.27983 -0.668954,0.33064 -2.567387,0.61284 -0.290735,0.0432 -0.304019,0.0634 -0.304019,0.4619 v 0.41672 h 5.846521 5.846519 z m 17.960512,-0.009 c 0,-0.39822 -0.01349,-0.41878 -0.304019,-0.4633 -1.67421,-0.25654 -2.174346,-0.35516 -2.404285,-0.47406 -0.370348,-0.19151 -0.832133,-0.77445 -0.945417,-1.19345 -0.06167,-0.22809 -0.08414,-3.84605 -0.06479,-10.43019 0.02373,-8.07707 0.05436,-10.15513 0.154053,-10.45405 0.27299,-0.81856 1.212432,-1.29784 2.780099,-1.41834 l 0.78436,-0.0602 v -0.5014 -0.50141 l -5.823135,0.0241 -5.823132,0.0241 -0.0278,0.4774 -0.0278,0.4774 0.933352,0.10613 c 1.509631,0.17166 2.089391,0.45685 2.502286,1.23091 0.166648,0.31241 0.175835,0.75746 0.200631,9.71809 0.02813,10.16505 -0.01175,11.5044 -0.356997,11.98925 -0.29577,0.41538 -0.991211,0.70153 -2.140788,0.88086 -0.536298,0.0837 -1.009867,0.17362 -1.052373,0.19989 -0.04251,0.0263 -0.07728,0.21366 -0.07728,0.41642 v 0.36866 h 5.846521 5.846519 v -0.41671 z m 60.65187,0.25301 c 0.97923,-3.36017 1.83104,-6.61366 1.75219,-6.69251 -0.0426,-0.0426 -0.28321,-0.0643 -0.53477,-0.0483 l -0.45739,0.029 -0.46862,0.88868 c -1.16386,2.20705 -2.03899,3.03602 -3.84314,3.64047 -1.57303,0.52701 -2.29303,0.6055 -5.60394,0.61091 -1.64638,0.003 -3.19416,-0.0294 -3.43952,-0.0713 -0.55601,-0.0949 -0.68771,-0.28023 -0.81241,-1.1431 -0.11074,-0.76632 -0.12184,-15.41713 -0.014,-18.48163 0.0666,-1.89311 0.0846,-2.03995 0.28431,-2.32039 0.42341,-0.59463 1.28969,-0.96186 2.55969,-1.0851 l 0.63604,-0.0617 -0.028,-0.48317 -0.028,-0.48313 h -5.56589 -5.56589 l 0.022,0.36292 c 0.0121,0.1996 0.0658,0.41564 0.11923,0.48007 0.0535,0.0644 0.41179,0.16395 0.79624,0.22113 1.21336,0.18047 2.11037,0.77358 2.26451,1.49734 0.0396,0.18613 0.0721,4.92677 0.0721,10.53475 v 10.19633 l -0.23918,0.46491 c -0.30369,0.59028 -0.74786,0.83018 -2.00543,1.08317 -0.51005,0.1026 -0.96021,0.23825 -1.00036,0.30145 -0.0401,0.0632 -0.0736,0.25171 -0.0744,0.41892 l -0.001,0.30402 h 10.56421 c 9.98061,0 10.56684,-0.009 10.61191,-0.1637 z"
       id="path4721"
       inkscape:connector-curvature="0" />
    <path
       style="opacity:0;fill:#000448;fill-opacity:0;stroke-width:0.09354433"
       d="m 108.72054,207.18567 c -0.5145,-0.20702 -2.21934,-0.7983 -3.78856,-1.31396 -16.307412,-5.35884 -18.389045,-6.10471 -24.321541,-8.7147 -1.914763,-0.8424 -6.675884,-3.19509 -8.278672,-4.09087 -5.212278,-2.91312 -8.902663,-5.59886 -12.289962,-8.94424 l -1.532363,-1.51339 0.04138,-16.70778 c 0.03108,-12.54793 0.06852,-16.73492 0.150408,-16.81681 0.05996,-0.06 0.625671,-0.1645 1.257122,-0.2323 8.562131,-0.91939 14.223582,-5.8196 16.021667,-13.8674 0.344463,-1.54174 0.446799,-2.98014 0.45312,-6.36892 0.0063,-3.38051 -0.05614,-4.06418 -0.549519,-6.01587 -0.381436,-1.50889 -0.664051,-2.26528 -1.40471,-3.75952 -0.846084,-1.70693 -1.647171,-2.8491 -2.940841,-4.19299 -2.968757,-3.084 -6.331164,-4.80413 -11.367063,-5.81513 -0.668843,-0.13427 -1.310791,-0.26393 -1.426551,-0.28811 l -0.210476,-0.044 V 93.815023 79.130344 h 51.215561 51.21553 v 14.680157 c 0,13.900469 -0.009,14.682699 -0.1637,14.728099 -0.09,0.0264 -0.73199,0.15509 -1.42655,0.28604 -2.29243,0.4322 -4.16781,1.06103 -6.20579,2.08082 -3.23781,1.62018 -5.37784,3.49328 -7.19485,6.29743 -1.81696,2.80406 -2.639,5.66824 -2.8824,10.04287 -0.33729,6.06214 0.9321,11.27582 3.61128,14.83247 0.84353,1.1198 2.44409,2.67098 3.57901,3.46859 2.59209,1.8217 5.73597,2.93896 9.30251,3.3059 0.65559,0.0675 1.22082,0.15148 1.25607,0.18673 0.0995,0.0995 0.20445,11.65005 0.21058,23.1675 l 0.006,10.4302 -2.03367,1.93263 c -2.25255,2.14061 -2.59411,2.43372 -4.41906,3.79212 -5.9464,4.4262 -14.42947,8.68573 -24.74248,12.42372 -2.71851,0.98534 -5.89914,2.05062 -12.39462,4.15134 -2.70109,0.87356 -5.47936,1.80627 -6.17393,2.07268 -0.69457,0.26641 -1.34705,0.49969 -1.44995,0.5184 -0.10289,0.0187 -0.60804,-0.13536 -1.12253,-0.34237 z m 9.2795,-26.70439 c 2.29922,-0.3013 5.16471,-1.19953 6.59967,-2.06875 l 0.53788,-0.32583 0.005,-2.58908 c 0.002,-1.424 0.0389,-3.51733 0.081,-4.65186 0.085,-2.29554 0.18633,-2.72299 0.73844,-3.11613 0.37218,-0.26502 0.99041,-0.48052 1.37848,-0.48052 0.53177,0 0.60393,-0.0683 0.60393,-0.57128 v -0.45771 h -5.0514 -5.05139 v 0.46029 c 0,0.51816 -0.039,0.49566 1.07411,0.61909 1.11411,0.12352 1.84764,0.55598 2.12695,1.25395 0.0555,0.1388 0.12856,1.96606 0.17402,4.35509 l 0.0783,4.11595 -0.42834,0.4356 c -0.54385,0.55306 -1.08333,0.84534 -2.13844,1.15858 -1.03284,0.30662 -3.10185,0.41775 -4.358,0.23408 -3.86669,-0.56538 -6.66433,-3.21385 -7.85999,-7.44092 -0.19617,-0.69352 -0.21412,-0.97111 -0.24497,-3.78855 l -0.0333,-3.04019 0.28208,-1.09147 c 1.09469,-4.23588 3.07598,-6.60607 6.36969,-7.61998 0.72005,-0.22165 2.58341,-0.33127 3.75425,-0.22085 2.08906,0.197 3.5057,0.92486 4.70293,2.41634 0.7665,0.95489 1.38317,1.92238 1.96203,3.07821 0.55878,1.11576 0.54162,1.10174 1.21271,0.99086 l 0.35983,-0.0594 -0.0564,-1.3193 c -0.031,-0.72562 -0.10273,-2.51901 -0.15938,-3.98532 -0.0566,-1.46631 -0.14206,-2.73968 -0.1898,-2.82972 -0.0591,-0.11144 -0.19776,-0.16324 -0.43432,-0.16227 -0.41288,0.002 -0.45147,0.0258 -0.84009,0.52535 -0.34415,0.44234 -0.79564,0.6893 -1.26019,0.6893 -0.17674,0 -1.15961,-0.20853 -2.18415,-0.4634 -2.47702,-0.61619 -2.78339,-0.6577 -4.85624,-0.65788 -2.69933,-2.6e-4 -4.13543,0.27293 -5.93205,1.12835 -1.32726,0.63194 -2.42099,1.37808 -3.41363,2.32876 -2.19395,2.1012 -3.46963,4.67295 -3.94549,7.95404 -0.20684,1.42612 -0.13765,3.93385 0.1452,5.26293 0.52334,2.45916 1.52587,4.5223 2.92347,6.01634 1.64411,1.75755 4.61878,3.29301 7.50972,3.87636 1.12066,0.22612 4.23792,0.24809 5.81834,0.041 z m -41.505552,-0.73064 v -0.40757 L 75.53566,179.1916 c -1.533488,-0.24224 -2.012413,-0.44146 -2.435921,-1.0133 -0.294352,-0.39744 -0.33242,-1.32621 -0.398111,-9.71312 -0.06009,-7.67267 0.006,-11.02284 0.232236,-11.77954 0.227586,-0.76107 1.007099,-1.16239 2.594472,-1.33571 l 0.974823,-0.10644 -0.02772,-0.47514 -0.02772,-0.47513 -5.823135,-0.0241 -5.823135,-0.0241 v 0.50199 0.502 l 0.928939,0.10563 c 1.741524,0.19803 2.470094,0.6585 2.567664,1.62282 0.08821,0.87184 0.134202,11.27366 0.0717,16.21599 -0.06696,5.29469 -0.03825,5.0692 -0.696894,5.47331 -0.456089,0.27983 -0.668954,0.33064 -2.567387,0.61284 -0.290735,0.0432 -0.304019,0.0634 -0.304019,0.4619 v 0.41672 h 5.846521 5.846519 z m 17.960512,-0.009 c 0,-0.39822 -0.01349,-0.41878 -0.304019,-0.4633 -1.67421,-0.25654 -2.174346,-0.35516 -2.404285,-0.47406 -0.370348,-0.19151 -0.832133,-0.77445 -0.945417,-1.19345 -0.06167,-0.22809 -0.08414,-3.84605 -0.06479,-10.43019 0.02373,-8.07707 0.05436,-10.15513 0.154053,-10.45405 0.27299,-0.81856 1.212432,-1.29784 2.780099,-1.41834 l 0.78436,-0.0602 v -0.5014 -0.50141 l -5.823135,0.0241 -5.823132,0.0241 -0.0278,0.4774 -0.0278,0.4774 0.933352,0.10613 c 1.509631,0.17166 2.089391,0.45685 2.502286,1.23091 0.166648,0.31241 0.175835,0.75746 0.200631,9.71809 0.02813,10.16505 -0.01175,11.5044 -0.356997,11.98925 -0.29577,0.41538 -0.991211,0.70153 -2.140788,0.88086 -0.536298,0.0837 -1.009867,0.17362 -1.052373,0.19989 -0.04251,0.0263 -0.07728,0.21366 -0.07728,0.41642 v 0.36866 h 5.846521 5.846519 v -0.41671 z m 60.65187,0.25301 c 0.97923,-3.36017 1.83104,-6.61366 1.75219,-6.69251 -0.0426,-0.0426 -0.28321,-0.0643 -0.53477,-0.0483 l -0.45739,0.029 -0.46862,0.88868 c -1.16386,2.20705 -2.03899,3.03602 -3.84314,3.64047 -1.57303,0.52701 -2.29303,0.6055 -5.60394,0.61091 -1.64638,0.003 -3.19416,-0.0294 -3.43952,-0.0713 -0.55601,-0.0949 -0.68771,-0.28023 -0.81241,-1.1431 -0.11074,-0.76632 -0.12184,-15.41713 -0.014,-18.48163 0.0666,-1.89311 0.0846,-2.03995 0.28431,-2.32039 0.42341,-0.59463 1.28969,-0.96186 2.55969,-1.0851 l 0.63604,-0.0617 -0.028,-0.48317 -0.028,-0.48313 h -5.56589 -5.56589 l 0.022,0.36292 c 0.0121,0.1996 0.0658,0.41564 0.11923,0.48007 0.0535,0.0644 0.41179,0.16395 0.79624,0.22113 1.21336,0.18047 2.11037,0.77358 2.26451,1.49734 0.0396,0.18613 0.0721,4.92677 0.0721,10.53475 v 10.19633 l -0.23918,0.46491 c -0.30369,0.59028 -0.74786,0.83018 -2.00543,1.08317 -0.51005,0.1026 -0.96021,0.23825 -1.00036,0.30145 -0.0401,0.0632 -0.0736,0.25171 -0.0744,0.41892 l -0.001,0.30402 h 10.56421 c 9.98061,0 10.56684,-0.009 10.61191,-0.1637 z"
       id="path4723"
       inkscape:connector-curvature="0" />
    <text
       xml:space="preserve"
       style="font-style:normal;font-weight:normal;font-size:10.58333302px;line-height:1.25;font-family:sans-serif;letter-spacing:0px;word-spacing:0px;fill:#000000;fill-opacity:1;stroke:none;stroke-width:0.26458332"
       x="117.10005"
       y="173.6763"
       id="text7416"><tspan
         sodipodi:role="line"
         id="tspan7414"
         x="117.10005"
         y="183.04007"
         style="stroke-width:0.26458332" /></text>
    <flowRoot
       xml:space="preserve"
       id="flowRoot3886"
       style="fill:black;fill-opacity:1;stroke:none;font-family:sans-serif;font-style:italic;font-weight:normal;font-size:40px;line-height:1.25;letter-spacing:0px;word-spacing:0px;-inkscape-font-specification:'sans-serif Italic';font-stretch:normal;font-variant:normal;"><flowRegion
         id="flowRegion3888"
         style="-inkscape-font-specification:'sans-serif Italic';font-family:sans-serif;font-weight:normal;font-style:italic;font-stretch:normal;font-variant:normal;"><rect
           id="rect3890"
           width="1987.1219"
           height="734.41913"
           x="-13.232777"
           y="-226.58095"
           style="-inkscape-font-specification:'sans-serif Italic';font-family:sans-serif;font-weight:normal;font-style:italic;font-stretch:normal;font-variant:normal;" /></flowRegion><flowPara
         id="flowPara3892"></flowPara></flowRoot>    <flowRoot
       xml:space="preserve"
       id="flowRoot3894"
       style="fill:black;fill-opacity:1;stroke:none;font-family:sans-serif;font-style:normal;font-weight:normal;font-size:40px;line-height:1.25;letter-spacing:0px;word-spacing:0px"><flowRegion
         id="flowRegion3896"><rect
           id="rect3898"
           width="2052.2991"
           height="9035.7295"
           x="527.11023"
           y="-19.493721" /></flowRegion><flowPara
         id="flowPara3900"></flowPara></flowRoot>  </g>
</svg>
