<?xml version="1.0" encoding="UTF-8" standalone="no"?>
<!-- Created with Inkscape (http://www.inkscape.org/) -->

<svg
   xmlns:dc="http://purl.org/dc/elements/1.1/"
   xmlns:cc="http://creativecommons.org/ns#"
   xmlns:rdf="http://www.w3.org/1999/02/22-rdf-syntax-ns#"
   xmlns:svg="http://www.w3.org/2000/svg"
   xmlns="http://www.w3.org/2000/svg"
   xmlns:sodipodi="http://sodipodi.sourceforge.net/DTD/sodipodi-0.dtd"
   xmlns:inkscape="http://www.inkscape.org/namespaces/inkscape"
   width="113.52046mm"
   height="137.27679mm"
   viewBox="0 0 113.52047 137.2768"
   version="1.1"
   id="svg8"
   inkscape:version="0.92.2 (unknown)"
   sodipodi:docname="logo_alternatives.svg"
   inkscape:export-filename="/home/edarder/git/iigl/src/assets/img/favicon.png"
   inkscape:export-xdpi="51.909611"
   inkscape:export-ydpi="51.909611">
  <defs
     id="defs2">
    <inkscape:path-effect
       effect="powerstroke"
       id="path-effect4904"
       is_visible="true"
       offset_points="0,0.13229166"
       sort_points="true"
       interpolator_type="CubicBezierJohan"
       interpolator_beta="0.2"
       start_linecap_type="zerowidth"
       linejoin_type="extrp_arc"
       miter_limit="4"
       end_linecap_type="zerowidth" />
    <inkscape:path-effect
       effect="powerstroke"
       id="path-effect4900"
       is_visible="true"
       offset_points="0,0.13229166"
       sort_points="true"
       interpolator_type="CubicBezierJohan"
       interpolator_beta="0.2"
       start_linecap_type="zerowidth"
       linejoin_type="extrp_arc"
       miter_limit="4"
       end_linecap_type="zerowidth" />
    <inkscape:path-effect
       effect="powerstroke"
       id="path-effect4896"
       is_visible="true"
       offset_points="0,0.13229166"
       sort_points="true"
       interpolator_type="CubicBezierJohan"
       interpolator_beta="0.2"
       start_linecap_type="zerowidth"
       linejoin_type="extrp_arc"
       miter_limit="4"
       end_linecap_type="zerowidth" />
  </defs>
  <sodipodi:namedview
     id="base"
     pagecolor="#ffffff"
     bordercolor="#666666"
     borderopacity="1.0"
     inkscape:pageopacity="0.0"
     inkscape:pageshadow="2"
     inkscape:zoom="0.90683916"
     inkscape:cx="34.670454"
     inkscape:cy="229.58507"
     inkscape:document-units="mm"
     inkscape:current-layer="layer2"
     showgrid="false"
     inkscape:window-width="1920"
     inkscape:window-height="1056"
     inkscape:window-x="0"
     inkscape:window-y="72"
     inkscape:window-maximized="1"
     inkscape:snap-grids="false"
     inkscape:snap-to-guides="true">
    <inkscape:grid
       type="xygrid"
       id="grid7424"
       originx="-63.225232"
       originy="-15.458517" />
  </sodipodi:namedview>
  <metadata
     id="metadata5">
    <rdf:RDF>
      <cc:Work
         rdf:about="">
        <dc:format>image/svg+xml</dc:format>
        <dc:type
           rdf:resource="http://purl.org/dc/dcmitype/StillImage" />
        <dc:title></dc:title>
      </cc:Work>
    </rdf:RDF>
  </metadata>
  <g
     inkscape:groupmode="layer"
     id="layer5"
     inkscape:label="Shield"
     style="display:inline"
     transform="translate(-18.571295,0.87344841)">
    <path
       style="display:inline;opacity:1;fill:#3d7915;fill-opacity:1;fill-rule:evenodd;stroke:#00a048;stroke-width:0.09354433;stroke-opacity:1"
       d="m 362.99685,129.26718 c -0.5132,-0.0363 -3.1636,-1.18939 -7.08598,-2.44334 -2.3622,-0.75518 -5.32624,-1.71105 -6.58675,-2.12415 -17.38103,-5.69622 -28.88732,-11.73479 -36.0963,-18.94353 -1.7107,-1.53811 -1.39078,-1.49262 -1.45159,-3.36856 0.0205,-2.662004 0.0352,-8.584137 0.0356,-15.333724 l 0.001,-15.010704 c 0.0246,-1.745464 0.15231,-1.44507 1.59866,-1.5952 16.31294,-3.047085 16.59896,-37.303932 -0.0551,-39.941145 -1.7656,-0.279587 -1.49478,-0.352104 -1.54349,-1.574194 V 15.457362 2.5039127 c 0.008,-1.453679 0.29108,-1.78037319 1.89655,-1.52483599 23.13559,3.55635449 49.36575,3.93339649 49.36575,3.93339649 0,0 25.978,-0.155059 49.25101,-3.8994399 1.58645,-0.15103739 1.96947,0.1544664 2.01134,1.5133955 V 15.457362 29.078974 c -0.0197,1.441149 0.12817,1.078566 -1.59025,1.447202 -16.55925,3.899216 -16.47624,37.119052 0.3274,39.941899 1.42159,0.132673 1.25251,0.08136 1.25948,1.484173 l -0.0311,30.981052 c 0.0385,1.76899 -0.38585,1.79634 -1.24076,2.76906 -4.09726,4.09955 -9.20081,7.57814 -16.23364,11.0649 -6.21025,3.07895 -12.5333,5.54913 -22.01368,8.59991 -7.06115,2.27227 -9.58401,3.25161 -10.51163,3.62794 -0.42466,0.13534 -1.00229,0.29098 -1.30659,0.27207 z"
       id="path1113"
       inkscape:connector-curvature="0"
       sodipodi:nodetypes="ccscccccsccccccccccccccssccc" />
    <path
       transform="translate(0.27130361,0.44353993)"
       style="display:inline;fill:#3d7915;fill-opacity:1;stroke-width:0.11835986"
       d="m 74.393523,135.68106 c -0.34545,-0.14612 -0.68899,-0.3266 -0.76342,-0.40104 -0.0744,-0.0744 -0.19126,-0.13545 -0.25962,-0.13558 -0.15269,0 -1.52179,-0.71086 -1.60377,-0.83233 -0.0326,-0.0482 -0.2456,-0.1725 -0.47344,-0.27615 -0.48847,-0.22223 -0.76529,-0.39346 -1.22133,-0.75543 -0.18453,-0.14648 -0.417,-0.26632 -0.51661,-0.26632 -0.0996,0 -0.44868,-0.21304 -0.77573,-0.47343 -0.32703,-0.2604 -0.66587,-0.47345 -0.75297,-0.47345 -0.0871,0 -0.46629,-0.2012 -0.84265,-0.44712 -0.90171,-0.58921 -1.10109,-0.71039 -1.45362,-0.88347 -0.16275,-0.0799 -0.3655,-0.23928 -0.45057,-0.35421 -0.0851,-0.11492 -0.22435,-0.20895 -0.30952,-0.20895 -0.0852,0 -0.29029,-0.10652 -0.45581,-0.23672 -0.16551,-0.1302 -0.38005,-0.23672 -0.47674,-0.23672 -0.0967,0 -0.2035,-0.0722 -0.23736,-0.16043 -0.0339,-0.0883 -0.35891,-0.32827 -0.72232,-0.53336 -0.36341,-0.20509 -0.75419,-0.44987 -0.86839,-0.54395 -0.24503,-0.20187 -1.13064,-0.83004 -2.0422,-1.44858 -0.35804,-0.24293 -0.69358,-0.5102 -0.74564,-0.59391 -0.052,-0.0837 -0.15571,-0.1522 -0.23035,-0.1522 -0.1831,0 -1.0574,-0.60021 -1.24997,-0.85812 -0.0851,-0.11391 -0.20162,-0.20713 -0.25901,-0.20713 -0.0574,0 -0.28073,-0.16327 -0.49632,-0.36283 -0.40813,-0.3778 -1.35885,-1.05748 -1.47916,-1.05748 -0.0381,0 -0.18596,-0.11984 -0.3286,-0.26631 -0.14263,-0.14647 -0.68136,-0.61098 -1.19717,-1.03225 -0.51581,-0.42128 -1.0477,-0.87401 -1.18198,-1.00606 -0.36813,-0.36208 -1.13495,-1.03424 -1.50402,-1.31839 -0.48693,-0.37489 -2.57215,-2.30889 -2.8573,-2.65006 -0.13601,-0.16275 -0.72839,-0.77527 -1.3164,-1.36114 -1.32443,-1.31963 -3.25102,-3.36247 -3.25102,-3.44718 0,-0.0346 -0.19974,-0.26214 -0.44385,-0.50553 -0.24412,-0.24339 -0.6569,-0.69907 -0.9173,-1.01262 -0.26038,-0.31355 -0.53695,-0.63598 -0.61458,-0.71653 -0.23508,-0.2439 -1.33835,-1.72341 -1.33835,-1.79476 0,-0.0366 -0.20355,-0.26017 -0.45233,-0.49675 -0.40322,-0.38348 -0.6345,-0.67689 -1.02717,-1.30314 -0.0651,-0.10381 -0.42462,-0.57518 -0.79893,-1.04746 -0.37431,-0.47229 -0.68056,-0.90869 -0.68056,-0.96978 0,-0.0611 -0.0682,-0.18146 -0.15142,-0.26748 -0.20519,-0.21195 -1.26891,-1.7486 -1.26891,-1.83307 0,-0.0371 -0.16163,-0.26093 -0.35919,-0.49736 -0.55206,-0.6607 -0.56236,-0.67563 -0.75833,-1.09833 -0.10117,-0.21824 -0.28907,-0.55658 -0.41757,-0.75188 -0.1285,-0.19529 -0.34316,-0.541494 -0.47702,-0.769338 -0.13387,-0.227844 -0.3351,-0.552788 -0.44719,-0.72211 -0.22129,-0.334282 -0.48021,-0.739791 -0.71033,-1.112466 -0.0804,-0.130198 -0.20472,-0.369873 -0.2763,-0.532615 -0.15432,-0.350869 -0.10036,-0.252755 -1.20432,-2.189663 -0.48233,-0.846268 -1.01914,-1.831615 -1.19289,-2.189657 -0.17376,-0.358042 -0.36504,-0.730875 -0.42508,-0.828521 -0.15161,-0.246571 -1.18845,-2.474957 -1.18845,-2.554233 0,-0.128335 -0.73816,-1.591697 -0.83223,-1.649831 -0.053,-0.03277 -0.13043,-0.214401 -0.17199,-0.403594 -0.0416,-0.189194 -0.1788,-0.463045 -0.305,-0.608547 -0.1262,-0.145512 -0.22945,-0.407946 -0.22945,-0.583189 0,-0.175243 -0.10653,-0.415027 -0.23672,-0.532854 -0.14248,-0.128943 -0.23672,-0.364543 -0.23672,-0.5918 0,-0.227253 -0.0942,-0.462857 -0.23673,-0.591799 -0.13019,-0.117824 -0.23671,-0.353908 -0.23671,-0.524628 0,-0.17072 -0.077,-0.420331 -0.17112,-0.554696 -0.0941,-0.134361 -0.23572,-0.505731 -0.31469,-0.825263 -0.079,-0.319534 -0.24166,-0.707992 -0.36151,-0.863242 -0.11985,-0.155246 -0.21792,-0.428351 -0.21792,-0.606894 0,-0.178545 -0.0753,-0.38709 -0.16725,-0.463434 -0.092,-0.07634 -0.20314,-0.399759 -0.24701,-0.718696 -0.0439,-0.318941 -0.15241,-0.640187 -0.24121,-0.713884 -0.0888,-0.0737 -0.19736,-0.382631 -0.24125,-0.686524 -0.0439,-0.30389 -0.15057,-0.685685 -0.23707,-0.84843 -0.0865,-0.162745 -0.20962,-0.535579 -0.2736,-0.828517 -0.11293,-0.517076 -0.36248,-1.345658 -0.62384,-2.071299 -0.0703,-0.195295 -0.18052,-0.62139 -0.24486,-0.946879 -0.0644,-0.32549 -0.21414,-0.831478 -0.33289,-1.124419 -0.11875,-0.29294 -0.24731,-0.762732 -0.28569,-1.043981 -0.0384,-0.281249 -0.14212,-0.627452 -0.23052,-0.769339 -0.0884,-0.141888 -0.19385,-0.600157 -0.23433,-1.018377 -0.0414,-0.427828 -0.15417,-0.849421 -0.2578,-0.963941 -0.10132,-0.111949 -0.210351,-0.462174 -0.242301,-0.778279 -0.0319,-0.316105 -0.13308,-0.814415 -0.22474,-1.107356 -0.0916,-0.292941 -0.2015,-0.878822 -0.2441,-1.301958 -0.0426,-0.423137 -0.14634,-0.879635 -0.23053,-1.014443 -0.0842,-0.134806 -0.1917,-0.560902 -0.23891,-0.946878 -0.0472,-0.385976 -0.18539,-0.956742 -0.30707,-1.268367 -0.13435,-0.344109 -0.22123,-0.865341 -0.22123,-1.327411 0,-0.418452 -0.0819,-1.002178 -0.18209,-1.297169 -0.10015,-0.294992 -0.25513,-1.082466 -0.344391,-1.749944 -0.0893,-0.667479 -0.21593,-1.426645 -0.28147,-1.687037 -0.0655,-0.260392 -0.15708,-1.112582 -0.2034,-1.893757 -0.0463,-0.781175 -0.13582,-1.553474 -0.19886,-1.716218 -0.36176,-0.933713 -0.68592,-16.64906 -0.45654,-22.133292 0.0694,-1.659998 0.16056,-6.799774 0.20252,-11.421726 0.0612,-6.742404 0.10818,-8.466726 0.23764,-8.72316 0.0888,-0.17579 0.16136,-0.429303 0.16136,-0.563369 0,-0.1340673 0.11306,-0.3364463 0.25123,-0.4497273 0.13818,-0.113287 0.348611,-0.306408 0.467621,-0.429164 0.20595,-0.212447 0.52265,-0.224659 6.584041,-0.253881 4.09268,-0.01974 6.68482,-0.07982 7.25537,-0.168183 0.48823,-0.07562 2.13935,-0.185134 3.66916,-0.24338 1.52979,-0.05823 2.9945,-0.167091 3.25489,-0.241879 0.26039,-0.07479 1.08595,-0.208249 1.83458,-0.296578 0.74862,-0.08833 1.60082,-0.211105 1.89376,-0.272831 0.29294,-0.06172 1.06523,-0.149187 1.71621,-0.194365 0.65098,-0.04514 1.34339,-0.160018 1.53868,-0.255204 0.1953,-0.09519 0.76677,-0.220606 1.26995,-0.278694 0.50318,-0.0581 1.02735,-0.165828 1.16484,-0.239405 0.13748,-0.07358 0.75107,-0.181192 1.36354,-0.239135 0.61247,-0.05797 1.26005,-0.179225 1.43908,-0.269508 0.17903,-0.09028 0.62227,-0.197531 0.98499,-0.23832 0.36272,-0.04079 0.81545,-0.149272 1.00607,-0.241063 0.1906,-0.09178 0.70278,-0.202847 1.13816,-0.246801 0.43539,-0.04395 0.85085,-0.151286 0.92325,-0.238523 0.0724,-0.08724 0.40859,-0.195615 0.74707,-0.240839 0.33849,-0.0452 0.69922,-0.156103 0.80163,-0.246406 0.10241,-0.0903 0.4486,-0.197945 0.76934,-0.239221 0.32073,-0.04126 0.74922,-0.174705 0.9522,-0.296506 0.20297,-0.121802 0.55123,-0.221462 0.7739,-0.221462 0.22267,0 0.61379,-0.106522 0.86916,-0.23672 0.25538,-0.130191 0.61793,-0.236714 0.80568,-0.236714 0.18776,0 0.48276,-0.09876 0.65555,-0.219461 0.17279,-0.120703 0.47396,-0.255697 0.66925,-0.299986 0.19529,-0.04428 0.51487,-0.15611 0.71016,-0.248486 0.19529,-0.09237 0.55761,-0.199991 0.80515,-0.239161 0.24754,-0.03915 0.47904,-0.146714 0.51445,-0.238997 0.0354,-0.09228 0.25898,-0.201847 0.49682,-0.243478 0.23783,-0.04159 0.55185,-0.150563 0.69783,-0.242077 0.14598,-0.09152 0.50397,-0.199096 0.79555,-0.239063 0.37691,-0.05165 0.58323,-0.153675 0.71379,-0.352935 0.101,-0.154155 0.28284,-0.28027297 0.4041,-0.28027297 0.12126,0 0.37302,-0.07957 0.55948,-0.176817 0.18646,-0.09724 0.45886,-0.177132 0.60534,-0.177534 0.14647,-3.35e-4 0.36986,-0.104285 0.49642,-0.230844 0.12657,-0.126572 0.4176,-0.265297 0.64676,-0.308284 0.22916,-0.04297 0.47616,-0.149878 0.5489,-0.237523 0.0727,-0.08765 0.36906,-0.194865 0.65849,-0.238267 0.3369,-0.05053 0.56913,-0.15907 0.64546,-0.301704 0.0803,-0.149931 0.24862,-0.22279 0.51488,-0.22279 0.2176,0 0.58684,-0.07989 0.82055,-0.17754103 0.5306,-0.221691 1.17507,-0.227462 1.5924,-0.01428 0.17579,0.08981 0.50603,0.20226103 0.73388,0.24989303 0.22783,0.04764 0.50086,0.162854 0.6067,0.256033 0.10585,0.09318 0.39879,0.200991 0.65098,0.239563 0.25219,0.03856 0.53843,0.136889 0.63607,0.218487 0.0976,0.08159 0.35606,0.186338 0.57426,0.232759 0.2182,0.04639 0.49782,0.185502 0.62139,0.309074 0.12357,0.123565 0.32616,0.224666 0.4502,0.224666 0.12405,0 0.43031,0.100331 0.68058,0.222961 0.25026,0.122631 0.58818,0.28202397 0.75093,0.35421897 0.16274,0.0722 0.37579,0.180995 0.47344,0.24178 0.19022,0.118426 1.11075,0.431922 1.75446,0.597513 0.21632,0.05567 0.48613,0.185166 0.59957,0.287827 0.11343,0.102654 0.38916,0.222205 0.61273,0.265672 0.22357,0.04349 0.59212,0.177251 0.819,0.297308 0.22688,0.120052 0.53805,0.218277 0.69149,0.218277 0.15344,0 0.41441,0.106523 0.57993,0.236721 0.16711,0.131447 0.48016,0.23672 0.70395,0.23672 0.22166,0 0.61181,0.106523 0.86702,0.236714 0.2552,0.130197 0.61873,0.23672 0.80784,0.23672 0.18911,0 0.47085,0.09841 0.62611,0.218685 0.15524,0.120281 0.54217,0.253361 0.85984,0.295742 0.31767,0.04237 0.75004,0.183654 0.96085,0.313937 0.2108,0.130283 0.55274,0.236878 0.75985,0.236878 0.20712,0 0.53356,0.08118 0.72544,0.180402 0.19187,0.09922 0.73516,0.22945 1.20731,0.289393 0.47215,0.05994 1.05647,0.191819 1.2985,0.293039 0.24203,0.101226 0.62837,0.184041 0.85854,0.184041 0.23017,0 0.61723,0.106529 0.86015,0.236727 0.27564,0.147733 0.6678,0.236714 1.04323,0.236714 0.330853,0 0.99741,0.105272 1.481247,0.233937 0.48384,0.128664 1.13072,0.235187 1.43753,0.23672 0.30681,0.002 0.8128,0.102272 1.12443,0.22387 0.31335,0.122275 1.06916,0.258066 1.69102,0.303816 0.61843,0.04547 1.41736,0.154017 1.77539,0.241155 0.35804,0.08713 1.13924,0.193747 1.73598,0.236918 0.59673,0.04316 1.36903,0.157596 1.71622,0.254276 0.39573,0.110201 1.62486,0.216224 3.29434,0.284175 1.46471,0.05961 3.06257,0.168124 3.5508,0.241122 0.50871,0.07606 3.59112,0.166032 7.21996,0.210736 l 6.33225,0.07801 0.5918,0.362911 c 0.66759,0.409385 0.65041,0.356186 0.89564,2.7736283 0.19982,1.970024 0.21089,38.316238 0.0121,39.768909 -0.0846,0.61843 -0.21998,1.896716 -0.3008,2.840636 -0.0808,0.94392 -0.20397,1.822741 -0.27371,1.952938 -0.0697,0.130196 -0.1867,0.752902 -0.25989,1.383792 -0.0732,0.630891 -0.18464,1.282647 -0.24764,1.448348 -0.063,0.165702 -0.17194,0.76802 -0.24209,1.338484 -0.0701,0.570465 -0.20488,1.299871 -0.29942,1.620901 -0.0945,0.321031 -0.17423,0.800388 -0.17708,1.065238 -0.003,0.264852 -0.0876,0.694595 -0.18841,0.954987 -0.10076,0.260392 -0.23519,0.816679 -0.29873,1.236193 -0.0636,0.419514 -0.18749,0.935012 -0.27546,1.14555 -0.088,0.210539 -0.19724,0.69286 -0.24283,1.071825 -0.0456,0.378964 -0.15109,0.76892 -0.23441,0.866566 -0.0833,0.09765 -0.20498,0.550374 -0.27033,1.006059 -0.0653,0.455686 -0.2015,1.041567 -0.30258,1.301958 -0.10109,0.260392 -0.18612,0.682294 -0.18898,0.93756 -0.003,0.255265 -0.0846,0.551909 -0.18175,0.659207 -0.0971,0.107299 -0.22915,0.472444 -0.29344,0.811434 -0.0643,0.338991 -0.17831,0.731117 -0.25339,0.871391 -0.0751,0.140274 -0.20496,0.52499 -0.28863,0.854924 -0.0837,0.329933 -0.23409,0.812927 -0.33422,1.07332 -0.10013,0.260391 -0.1844,0.595151 -0.18725,0.743912 -0.003,0.148761 -0.0791,0.388438 -0.16945,0.532619 -0.0903,0.144178 -0.20143,0.473352 -0.24687,0.731495 -0.0455,0.25814 -0.15337,0.606187 -0.23985,0.773428 -0.0865,0.167244 -0.19616,0.515287 -0.24373,0.77343 -0.0476,0.258143 -0.18528,0.596372 -0.30604,0.751622 -0.12077,0.155246 -0.21957,0.417366 -0.21957,0.58248 0,0.165113 -0.0718,0.384294 -0.15957,0.487067 -0.15049,0.176202 -0.2963,0.546576 -0.73755,1.873488 -0.10284,0.309214 -0.26262,0.703581 -0.35508,0.876367 -0.0925,0.172791 -0.16812,0.39424 -0.16812,0.492111 0,0.09787 -0.14025,0.462484 -0.31167,0.810256 -0.29207,0.5925 -0.42948,0.891455 -1.025,2.230166 -0.13033,0.292939 -0.28268,0.612515 -0.33859,0.710161 -0.0559,0.09765 -0.1341,0.257434 -0.17379,0.355081 -0.41315,1.016688 -1.81655,3.79756 -2.02021,4.003098 -0.0852,0.08602 -0.15498,0.264041 -0.15498,0.395594 0,0.131546 -0.10652,0.374609 -0.23672,0.540122 -0.13019,0.165518 -0.23672,0.378564 -0.23672,0.47344 0,0.09488 -0.10652,0.307922 -0.23671,0.473441 -0.1302,0.165519 -0.23672,0.393758 -0.23672,0.507209 0,0.113445 -0.0881,0.279359 -0.19588,0.368701 -0.10773,0.08934 -0.2683,0.322234 -0.35684,0.517527 -0.20265,0.446996 -0.38236,0.737224 -0.71965,1.162151 -0.14647,0.184528 -0.26631,0.403062 -0.26631,0.48562 0,0.08257 -0.10653,0.246518 -0.23672,0.364345 -0.13019,0.117828 -0.23672,0.283504 -0.23672,0.368168 0,0.08466 -0.13414,0.356035 -0.29806,0.60304 -0.16394,0.247011 -0.34927,0.529002 -0.41184,0.626648 -0.0626,0.09765 -0.35454,0.541228 -0.64881,0.985738 -0.29428,0.4445 -0.53505,0.87566 -0.53505,0.95813 0,0.0825 -0.10728,0.24701 -0.23839,0.36567 -0.13111,0.11865 -0.42066,0.48642 -0.64345,0.81727 -1.03226,1.53298 -1.98309,2.87649 -2.22665,3.14627 -0.14695,0.16274 -0.42557,0.53558 -0.61916,0.82852 -0.19357,0.29294 -0.45934,0.64947 -0.59059,0.79229 -0.13125,0.14282 -0.33183,0.36034 -0.44575,0.48337 -0.11392,0.12303 -0.20713,0.2623 -0.20713,0.30947 0,0.0838 -1.86638,2.42658 -2.23864,2.81006 -0.10327,0.10639 -0.40081,0.44853 -0.6612,0.76032 -0.67807,0.81192 -2.19139,2.42153 -3.46204,3.6823 -0.60215,0.59748 -1.09483,1.11144 -1.09483,1.14214 0,0.1162 -1.03521,1.14587 -1.15205,1.14587 -0.0673,0 -0.30542,0.19974 -0.52916,0.44385 -0.49417,0.53922 -2.767677,2.63351 -2.858847,2.63351 -0.0359,0 -0.19162,0.11983 -0.34611,0.26631 -0.7167,0.67951 -1.7497,1.51768 -2.02516,1.64318 -0.16724,0.0762 -0.33533,0.23699 -0.37351,0.35732 -0.0382,0.1203 -0.14309,0.21875 -0.23312,0.21875 -0.09,0 -0.20627,0.0666 -0.25833,0.14795 -0.0521,0.0814 -0.36096,0.33035 -0.68645,0.55331 -0.32549,0.22294 -0.67786,0.48925 -0.78305,0.5918 -0.10518,0.10253 -0.31233,0.26633 -0.46032,0.36397 -0.14798,0.0977 -0.41581,0.29738 -0.59517,0.44385 -0.17936,0.14647 -0.38171,0.26631 -0.44967,0.26631 -0.068,0 -0.29995,0.16371 -0.51553,0.36379 -0.21559,0.2001 -0.5943,0.46882 -0.84159,0.59715 -0.2473,0.12835 -0.47935,0.31084 -0.5157,0.40555 -0.0363,0.0947 -0.11127,0.17219 -0.16651,0.17219 -0.11781,0 -0.91935,0.51207 -1.17619,0.75143 -0.0976,0.091 -0.29246,0.20086 -0.43292,0.24413 -0.14045,0.0433 -0.28525,0.15656 -0.32177,0.25173 -0.0365,0.0952 -0.1536,0.17303 -0.26016,0.17303 -0.10657,0 -0.35201,0.13315 -0.54542,0.2959 -0.19341,0.16275 -0.42746,0.2959 -0.52011,0.2959 -0.0926,0 -0.16846,0.056 -0.16846,0.1244 0,0.0684 -0.17734,0.1985 -0.39409,0.28907 -0.21675,0.0906 -0.46296,0.24762 -0.54711,0.34903 -0.0842,0.10141 -0.20031,0.18438 -0.25811,0.18438 -0.0578,0 -0.35753,0.1766 -0.66607,0.39245 -0.54727,0.38286 -2.61255,1.59999 -3.38459,1.99467 -0.21244,0.10859 -0.45618,0.28169 -0.54163,0.38467 -0.0855,0.10296 -0.22495,0.18721 -0.30997,0.18721 -0.085,0 -0.23053,0.0759 -0.32334,0.16874 -0.0928,0.0928 -0.34961,0.25153 -0.57067,0.3527 -0.40427,0.18504 -0.62386,0.31048 -1.17354,0.67036 -0.164,0.10737 -0.43031,0.23588 -0.5918,0.28554 -0.16148,0.0497 -0.36403,0.14676 -0.4501,0.21576 -0.20213,0.16204 -1.46434,0.67687 -1.61891,0.66032 -0.0651,-0.007 -0.401,-0.13223 -0.74644,-0.27837 z"
       id="path4734"
       inkscape:connector-curvature="0" />
    <path
       style="display:inline;fill:#3d7915;fill-opacity:1;stroke-width:0.15660617"
       d="m 501.6139,127.81827 c 0,-0.0717 -0.24189,-0.21541 -0.53757,-0.31945 -0.29564,-0.10403 -0.61199,-0.26225 -0.70295,-0.35161 -0.091,-0.0893 -0.72263,-0.49608 -1.40368,-0.90384 -0.68105,-0.40774 -1.42461,-0.89149 -1.65235,-1.07498 -0.22775,-0.1835 -0.47046,-0.33362 -0.53938,-0.33362 -0.12905,0 -2.12883,-1.28612 -2.27646,-1.46407 -0.0753,-0.0907 -0.28213,-0.22418 -1.40762,-0.90834 -0.5659,-0.34401 -2.05641,-1.42021 -3.01545,-2.17728 -0.4768,-0.37636 -1.03503,-0.78691 -1.24054,-0.91232 -0.20551,-0.12541 -1.04356,-0.77202 -1.86231,-1.43689 -0.81875,-0.66488 -1.71194,-1.36639 -1.98485,-1.55891 -0.78183,-0.55151 -6.34847,-5.59125 -7.44514,-6.74046 -0.54478,-0.57086 -1.33552,-1.37155 -1.75721,-1.7793 -0.4217,-0.40776 -1.23454,-1.27518 -1.8063,-1.92758 -0.57177,-0.65242 -1.31057,-1.48647 -1.64179,-1.85346 -0.76746,-0.85029 -3.31735,-3.9377 -3.73506,-4.522403 -0.17477,-0.24466 -0.37859,-0.51155 -0.45293,-0.59311 -0.0744,-0.0815 -0.29822,-0.37561 -0.49751,-0.65348 -0.1993,-0.27786 -0.54843,-0.75847 -0.77586,-1.068 -0.58006,-0.78946 -3.04436,-4.39955 -3.43017,-5.02506 -0.17606,-0.28543 -0.56951,-0.91931 -0.87433,-1.40862 -0.30483,-0.48931 -0.76669,-1.256635 -1.02636,-1.70517 -0.60301,-1.041579 -0.6956,-1.196656 -0.9295,-1.556895 -0.1059,-0.163101 -0.2358,-0.396637 -0.28866,-0.518963 -0.0529,-0.122328 -0.37691,-0.756209 -0.72006,-1.408621 -0.34315,-0.652412 -0.86199,-1.653272 -1.15298,-2.224137 -0.29098,-0.570859 -0.59916,-1.153789 -0.68483,-1.2954 -0.0857,-0.141606 -0.15578,-0.323276 -0.15578,-0.403703 0,-0.08043 -0.18059,-0.49836 -0.40133,-0.928736 -0.71945,-1.402781 -1.41812,-2.995907 -1.41812,-3.233656 0,-0.12795 -0.0802,-0.304546 -0.17826,-0.392438 -0.0981,-0.0879 -0.24067,-0.38481 -0.31694,-0.659826 -0.22932,-0.826899 -1.51147,-4.048161 -1.6715,-4.199502 -0.0819,-0.07747 -0.14897,-0.357115 -0.14897,-0.621423 0,-0.264306 -0.0745,-0.521796 -0.16539,-0.572197 -0.091,-0.0504 -0.16587,-0.23783 -0.16643,-0.416507 -4.7e-4,-0.178684 -0.11221,-0.515989 -0.24811,-0.749581 -0.1359,-0.233585 -0.24755,-0.600571 -0.2481,-0.815517 -4.7e-4,-0.214941 -0.1122,-0.581926 -0.24811,-0.815512 -0.1359,-0.233591 -0.24709,-0.604501 -0.24709,-0.824247 0,-0.219746 -0.10929,-0.529057 -0.24285,-0.687361 -0.13356,-0.1583 -0.24522,-0.538942 -0.24811,-0.845868 -0.003,-0.306923 -0.0758,-0.673906 -0.16219,-0.815517 -0.0864,-0.141606 -0.20226,-0.572852 -0.25766,-0.958321 -0.0554,-0.385471 -0.17087,-0.739711 -0.25659,-0.787201 -0.0857,-0.04749 -0.15629,-0.365984 -0.15686,-0.707763 -4.7e-4,-0.341783 -0.11222,-0.812541 -0.2481,-1.046128 -0.13591,-0.23359 -0.24972,-0.73402 -0.25295,-1.112069 -0.003,-0.378048 -0.11224,-0.85417 -0.24225,-1.058049 -0.13001,-0.203879 -0.23902,-0.725376 -0.24225,-1.158885 -0.003,-0.433507 -0.0921,-0.932571 -0.1974,-1.109032 -0.10534,-0.17646 -0.21018,-0.765564 -0.23297,-1.30912 -0.0228,-0.543556 -0.12267,-1.124372 -0.22196,-1.290701 -0.0993,-0.166328 -0.18143,-0.757189 -0.18251,-1.313025 -8.1e-4,-0.555835 -0.11185,-1.37759 -0.24615,-1.826124 -0.14247,-0.475821 -0.245,-1.475823 -0.24614,-2.400729 -8.1e-4,-0.894856 -0.074,-1.625122 -0.16736,-1.676853 -0.10901,-0.06038 -0.16395,-7.028133 -0.16115,-20.433725 0.004,-20.3420865 0.004,-20.3420865 0.63312,-20.6015695 0.34586,-0.142714 0.85584,-0.259482 1.13331,-0.259482 0.27745,0 0.59503,-0.09781 0.7057,-0.217373 0.1116,-0.120532 0.44721,-0.209084 0.75337,-0.198766 0.30365,0.01028 0.74661,-0.09565 0.98437,-0.235302 0.25417,-0.149293 0.5688,-0.215061 0.76364,-0.159626 0.18998,0.05405 0.50187,-0.0058 0.73096,-0.140429 0.21978,-0.12909 0.64413,-0.236831 0.94298,-0.239425 0.29886,-0.0026 0.68788,-0.102684 0.86446,-0.222414 0.17659,-0.119734 0.60719,-0.217698 0.95689,-0.217698 0.34971,0 0.8092,-0.101832 1.0211,-0.2263 0.21191,-0.124465 0.60005,-0.212111 0.86256,-0.19477 0.26251,0.01734 0.82803,-0.0891 1.25672,-0.236537 0.42868,-0.147436 0.8986,-0.227071 1.04426,-0.176967 0.14565,0.0501 0.47971,-0.0085 0.74234,-0.130266 0.26264,-0.121751 0.74412,-0.221365 1.06997,-0.221365 0.32584,0 0.85964,-0.100088 1.18623,-0.222414 0.3266,-0.122327 0.90106,-0.224777 1.27658,-0.227667 0.37553,-0.0029 0.86886,-0.100617 1.09628,-0.217159 0.22743,-0.116548 0.80918,-0.214269 1.29276,-0.21716 0.4836,-0.0029 1.03551,-0.08022 1.22649,-0.171843 0.19097,-0.09162 0.67838,-0.160631 1.08311,-0.153348 0.40473,0.0073 0.99699,-0.08456 1.31613,-0.2041 0.31914,-0.119538 1.03638,-0.22027 1.59385,-0.22385 0.55746,-0.0036 1.3113,-0.102664 1.67519,-0.220181 0.36389,-0.11752 1.01154,-0.214677 1.43922,-0.215905 0.42768,-0.0012 1.2063,-0.102331 1.73025,-0.22466896 0.52395,-0.122339 1.48516,-0.215261 2.13602,-0.206489 0.65085,0.0087 1.34127,-0.05982 1.53425,-0.15240104 0.193,-0.09259 1.26371,-0.196569 2.37934,-0.231065 1.11565,-0.03449 2.28845,-0.1327157 2.60627,-0.2182669 0.3178,-0.085546 1.59735,-0.1555472 2.84346,-0.1555472 1.33201,0 2.30778,-0.061106 2.36787,-0.1482765 0.0665,-0.096494 4.02331,-0.1482744 11.33022,-0.1482744 7.30691,0 11.2637,0.051779 11.33021,0.1482744 0.0602,0.087322 1.0457,0.1482765 2.39738,0.1482765 1.26231,0 2.50407,0.071213 2.75943,0.1582477 0.25537,0.087032 1.42101,0.1881794 2.59031,0.2247624 1.16931,0.03658 2.27782,0.139348 2.46336,0.228365 0.18554,0.08902 0.87591,0.15459404 1.53414,0.14572304 0.68813,-0.0092 1.49593,0.07849 1.90063,0.206491 0.38712,0.12243896 1.16921,0.22261596 1.73799,0.22261596 0.56877,0 1.30134,0.100088 1.62793,0.222414 0.32659,0.122328 1.04769,0.222414 1.60242,0.222414 0.55475,0 1.15692,0.07115 1.33817,0.158107 0.18126,0.08696 0.8024,0.181522 1.38034,0.210136 0.57795,0.02862 1.22278,0.134537 1.43298,0.235379 0.21019,0.100846 0.70298,0.172473 1.0951,0.159179 0.39209,-0.01329 0.93016,0.07653 1.19566,0.199615 0.26552,0.123084 0.81231,0.22379 1.2151,0.22379 0.40278,0 0.99954,0.100087 1.32613,0.222412 0.32661,0.122327 0.86041,0.222414 1.18625,0.222414 0.32584,0 0.80063,0.09652 1.05509,0.214474 0.25447,0.117959 0.60804,0.180394 0.78572,0.138741 0.17768,-0.04165 0.69149,0.05013 1.14182,0.203955 0.45033,0.153828 0.94404,0.254174 1.09714,0.222991 0.15309,-0.03118 0.50294,0.04743 0.77745,0.174676 0.2745,0.127254 0.78192,0.233491 1.12758,0.236084 0.34566,0.0026 0.77296,0.102684 0.94955,0.222414 0.1766,0.119734 0.53385,0.217699 0.79389,0.217699 0.26005,0 0.69914,0.104913 0.97574,0.233141 0.27661,0.128229 0.61258,0.195424 0.74659,0.149324 0.13402,-0.0461 0.48054,0.02599 0.77005,0.160203 0.28952,0.134211 0.76159,0.236092 1.04907,0.226404 0.28746,-0.0097 0.61323,0.08021 0.72391,0.199759 0.11068,0.119556 0.39604,0.217373 0.63412,0.217373 0.23808,0 0.74971,0.116768 1.13696,0.259482 0.70409,0.259483 0.70409,0.259483 0.70471,20.4620435 4.1e-4,13.369897 -0.0554,20.202562 -0.16479,20.202562 -0.10017,0 -0.16541,0.640118 -0.16541,1.623798 0,0.965015 -0.10067,1.970233 -0.24811,2.477702 -0.13645,0.469647 -0.2481,1.269247 -0.2481,1.776889 0,0.507643 -0.0802,1.110823 -0.17828,1.340398 -0.0981,0.229577 -0.18097,0.784394 -0.18427,1.232927 -0.003,0.448534 -0.10916,1.04052 -0.23524,1.315521 -0.12608,0.275002 -0.22923,0.817329 -0.22923,1.205166 0,0.387839 -0.11166,0.944702 -0.24811,1.237473 -0.13646,0.292771 -0.2481,0.827085 -0.2481,1.187364 0,0.36028 -0.1112,0.846172 -0.24709,1.07976 -0.13591,0.23359 -0.24755,0.694941 -0.24811,1.025224 -4.7e-4,0.330286 -0.0715,0.663906 -0.15782,0.741377 -0.0863,0.07747 -0.2306,0.507848 -0.32078,0.956381 -0.0902,0.448532 -0.28639,1.215861 -0.436,1.705168 -0.1496,0.489311 -0.32648,1.15655 -0.39305,1.482758 -0.0666,0.326206 -0.2092,0.738848 -0.31693,0.916975 -0.10774,0.178131 -0.1959,0.487442 -0.1959,0.68736 0,0.199921 -0.11118,0.554607 -0.24708,0.788194 -0.13591,0.23359 -0.24755,0.570901 -0.24811,0.74958 -4.7e-4,0.178677 -0.0755,0.366106 -0.16642,0.416509 -0.091,0.05039 -0.16777,0.304555 -0.17066,0.564786 -0.003,0.260225 -0.11454,0.602663 -0.24811,0.760964 -0.13356,0.158301 -0.24522,0.458563 -0.24811,0.667241 -0.003,0.208681 -0.11455,0.508941 -0.2481,0.667242 -0.13357,0.158301 -0.24285,0.437942 -0.24285,0.621419 0,0.18348 -0.066,0.370162 -0.14666,0.414852 -0.0807,0.04469 -0.1974,0.323736 -0.25942,0.620109 -0.062,0.296367 -0.17447,0.647409 -0.24988,0.780085 -0.0754,0.132674 -0.24802,0.508124 -0.38354,0.834329 -0.44787,1.077879 -0.88715,2.076011 -1.43569,3.262066 -0.0755,0.163104 -0.30292,0.663533 -0.50554,1.112069 -1.27729,2.827512 -4.43855,8.600035 -5.9384,10.8436 -0.14346,0.21459 -0.66015,1.01528 -1.14822,1.77931 -0.48807,0.76403 -1.06491,1.60154 -1.28188,1.86115 -0.21698,0.2596 -0.3945,0.51427 -0.3945,0.56592 0,0.0517 -0.18609,0.31262 -0.41351,0.57992 -0.22743,0.2673 -0.41351,0.54213 -0.41351,0.61072 0,0.0687 -0.13753,0.26248 -0.30561,0.43084 -0.16807,0.16836 -0.81364,0.97334 -1.43461,1.788859 -0.62095,0.815524 -1.19054,1.505004 -1.26574,1.532184 -0.0753,0.0272 -0.13674,0.11002 -0.13674,0.18406 0,0.21798 -1.37014,1.82116 -3.64675,4.26695 -0.50467,0.54217 -1.02631,1.12773 -1.15923,1.30126 -0.13292,0.17351 -0.6504,0.71124 -1.14999,1.19493 -0.49957,0.4837 -1.3905,1.37595 -1.97984,1.98279 -1.28385,1.32197 -5.54239,5.15169 -6.7026,6.02767 -0.4548,0.3434 -1.34795,1.06757 -1.98475,1.60928 -0.63681,0.54175 -1.34391,1.09454 -1.57134,1.22848 -0.47538,0.27994 -1.38946,0.98168 -1.91229,1.46807 -0.19724,0.18349 -0.41418,0.33361 -0.48209,0.33361 -0.1595,0 -1.78238,1.19788 -1.95572,1.44356 -0.0728,0.10315 -0.21086,0.18749 -0.30693,0.18749 -0.15291,0 -0.63683,0.30855 -1.45688,0.92895 -0.13313,0.10075 -0.36389,0.24983 -0.51282,0.33138 -0.14893,0.0815 -0.71834,0.44854 -1.26539,0.81552 -0.54704,0.36698 -1.16243,0.76732 -1.36752,0.88966 -0.20509,0.12231 -0.66119,0.4059 -1.01355,0.63017 -0.35236,0.22426 -0.70486,0.40775 -0.78334,0.40775 -0.0785,0 -0.33978,0.16375 -0.58065,0.36385 -0.24089,0.20014 -0.69835,0.47463 -1.01659,0.61002 -0.31824,0.13537 -0.57861,0.30525 -0.57861,0.3775 0,0.0722 -0.52102,0.1314 -1.15783,0.1314 -0.63682,0 -1.15784,-0.0586 -1.15784,-0.13029 z"
       id="path5322"
       inkscape:connector-curvature="0"
       sodipodi:nodetypes="sssscsccccsscscccscsccccscccscssccscccccsccccccccsccccccccccsccccsccscccccsccscscscscccscsscscscscccssscscccscsscsccccscccccssssscscccscsccsscccsccccsccscccccccccssssccsccsccccsscscsccssscsss" />
    <path
       transform="translate(0.27130361,0.44353993)"
       style="display:inline;opacity:1;fill:#3d7915;fill-opacity:1;fill-rule:evenodd;stroke:#00a048;stroke-width:0.09354433;stroke-opacity:1"
       d="m 227.23161,129.20637 c -0.5132,-0.0363 -3.1636,-1.18939 -7.08598,-2.44334 -2.3622,-0.75518 -5.32624,-1.71105 -6.58675,-2.12415 -17.38103,-5.69622 -28.88732,-11.73479 -36.0963,-18.94353 -1.7107,-1.53811 -1.39078,-1.49262 -1.45159,-3.36856 0.0205,-2.661999 0.0352,-8.584139 0.0356,-15.333719 l 0.001,-15.01071 c 0.0246,-1.74546 0.15231,-1.44507 1.59866,-1.5952 16.31294,-3.04708 16.59896,-37.303931 -0.0551,-39.941144 -1.7656,-0.279586 -1.49478,-0.352103 -1.54349,-1.574192 V 15.396553 2.4431031 c 0.008,-1.453679 0.29108,-1.780373 1.89655,-1.524836 23.13559,3.556355 49.36575,3.933397 49.36575,3.933397 0,0 25.978,-0.155059 49.25101,-3.89944 1.58645,-0.151037 1.96947,0.154466 2.01134,1.513396 V 15.396553 29.018166 c -0.0197,1.441149 0.12817,1.078566 -1.59025,1.447202 -16.55925,3.899215 -16.47624,37.119053 0.3274,39.941893 1.42159,0.13268 1.25251,0.0814 1.25948,1.48418 l -0.0311,30.981049 c 0.0385,1.76899 -0.38585,1.79634 -1.24076,2.76906 -4.09726,4.09955 -9.20081,7.57814 -16.23364,11.0649 -6.21025,3.07895 -12.5333,5.54913 -22.01368,8.59991 -7.06115,2.27227 -9.58401,3.25161 -10.51163,3.62794 -0.42466,0.13534 -1.00229,0.29099 -1.30659,0.27207 z"
       id="path1113-3"
       inkscape:connector-curvature="0"
       sodipodi:nodetypes="ccscccccsccccccccccccccssccc" />
  </g>
  <g
     inkscape:groupmode="layer"
     id="layer4"
     inkscape:label="Shamrock"
     transform="translate(-64.53101,-77.813351)"
     style="display:inline">
    <path
       style="display:inline;fill:#ffffff;fill-opacity:1;stroke-width:0.24095759"
       d="m 408.05326,148.56256 c -0.3325,-0.33249 -0.73949,-1.08654 -0.90444,-1.67566 -0.29525,-1.05453 -0.28689,-1.08632 0.53979,-2.0521 1.26406,-1.47678 1.88985,-3.66068 2.03826,-7.11318 0.12824,-2.98321 -0.3822,-7.93723 -0.94509,-9.17265 -0.39719,-0.87174 -0.78231,-0.58575 -0.85828,0.63738 -0.14042,2.2608 -0.82058,6.59649 -1.38208,8.80996 -1.22506,4.82935 -3.29385,7.85167 -6.38021,9.32097 -1.35798,0.64648 -1.83324,0.74574 -3.61437,0.75494 -1.76412,0.009 -2.24013,-0.0824 -3.40525,-0.65459 -2.43469,-1.19566 -4.14901,-3.02318 -5.90003,-6.28963 -0.52783,-0.98464 -1.29036,-1.86088 -2.51626,-2.89149 -3.01113,-2.53146 -4.49715,-5.30104 -4.74303,-8.83992 -0.21587,-3.10684 0.85791,-5.69175 3.12963,-7.53388 2.42634,-1.96753 5.21606,-2.80249 9.98477,-2.98843 3.00877,-0.11732 7.8195,0.17541 9.35098,0.569 0.26506,0.0681 -0.16866,-0.27257 -0.96383,-0.75708 -8.78715,-5.35422 -12.69691,-10.4187 -12.35461,-16.00344 0.31432,-5.128228 4.79887,-8.69495 10.93244,-8.69495 1.67796,0 2.19804,-0.105929 3.5035,-0.713584 4.76652,-2.218672 9.0721,-1.934147 11.95231,0.789841 2.5669,2.427663 3.44591,5.632818 2.59623,9.466683 -0.78908,3.56042 -2.1162,6.38188 -5.3508,11.37581 -0.97127,1.49955 -1.62935,2.64372 -1.4624,2.54262 0.16696,-0.1011 1.44208,-0.9331 2.83361,-1.84888 9.09804,-5.98751 16.45156,-7.08076 20.78146,-3.08959 2.05963,1.89849 3.25253,5.11225 2.98121,8.03156 -0.15912,1.71208 -1.1044,5.0133 -1.86334,6.50737 -0.29707,0.58484 -0.45411,1.40078 -0.45411,2.3595 0,3.19806 -1.44588,7.59249 -3.06165,9.30518 -1.5997,1.69565 -4.1192,2.74214 -6.60189,2.74214 -1.47642,0 -3.92053,-0.77482 -5.25352,-1.66544 -2.26591,-1.51396 -4.97467,-4.52909 -7.39103,-8.227 -0.82742,-1.26625 -1.69537,-2.45899 -1.92877,-2.65053 -0.38911,-0.31932 -0.41089,-0.29819 -0.26204,0.25413 1.31,4.8612 1.63528,11.99188 0.69604,15.2582 -0.85137,2.96074 -1.86794,4.74128 -2.70696,4.74128 -0.22644,0 -0.68375,-0.27204 -1.01624,-0.60454 z"
       id="path3913"
       inkscape:connector-curvature="0" />
    <path
       transform="translate(46.231019,79.130339)"
       style="display:inline;fill:#ffffff;fill-opacity:1;stroke-width:0.21009138"
       d="m 73.274223,66.866227 c -0.28991,-0.289899 -0.64476,-0.947357 -0.78858,-1.461012 -0.25743,-0.919452 -0.25014,-0.947168 0.47063,-1.789236 1.10215,-1.287606 1.64778,-3.191751 1.77718,-6.201992 0.11181,-2.601063 -0.33325,-6.920489 -0.82403,-7.99765 -0.34631,-0.760076 -0.6821,-0.510713 -0.74834,0.555729 -0.12243,1.971201 -0.71547,5.751493 -1.20503,7.681426 -1.06814,4.210717 -2.87192,6.845885 -5.56292,8.126969 -1.18403,0.563667 -1.59841,0.650217 -3.15138,0.658232 -1.53814,0.0079 -1.95317,-0.07184 -2.96904,-0.570736 -2.12281,-1.042501 -3.61753,-2.635921 -5.14425,-5.48394 -0.46022,-0.858509 -1.12508,-1.622508 -2.19393,-2.521092 -2.62541,-2.207189 -3.92108,-4.621988 -4.13546,-7.707548 -0.18822,-2.70886 0.74801,-4.962644 2.72873,-6.568807 2.11553,-1.71549 4.54789,-2.44349 8.70574,-2.605612 2.62335,-0.102295 6.81783,0.152938 8.15314,0.496109 0.23111,0.05938 -0.14706,-0.237655 -0.84037,-0.660096 -7.66153,-4.668362 -11.07046,-9.084087 -10.772,-13.953434 0.27404,-4.471311 4.18414,-7.581144 9.53201,-7.581144 1.46301,0 1.91648,-0.09236 3.05471,-0.622175 4.15593,-1.934465 7.90998,-1.686387 10.42124,0.688664 2.23809,2.116684 3.0045,4.911266 2.26366,8.254016 -0.688,3.104342 -1.84512,5.564382 -4.66537,9.918593 -0.84686,1.30746 -1.42064,2.30507 -1.27507,2.21692 0.14556,-0.08816 1.25735,-0.813573 2.47063,-1.612042 7.9326,-5.220522 14.34414,-6.173731 18.11939,-2.693825 1.79579,1.655302 2.83589,4.457388 2.599323,7.002738 -0.13873,1.492768 -0.962933,4.371105 -1.624643,5.67379 -0.25903,0.509922 -0.39594,1.221334 -0.39594,2.057245 0,2.7884 -1.26068,6.61991 -2.66946,8.113208 -1.39478,1.478437 -3.59154,2.390873 -5.7562,2.390873 -1.28731,0 -3.41833,-0.675562 -4.58056,-1.452096 -1.97565,-1.320022 -4.33743,-3.948927 -6.44425,-7.173138 -0.72143,-1.104045 -1.4782,-2.143997 -1.6817,-2.311003 -0.33926,-0.278414 -0.35825,-0.25999 -0.22848,0.221581 1.1422,4.238485 1.42581,10.455736 0.60689,13.303655 -0.74231,2.58147 -1.62866,4.133927 -2.36021,4.133927 -0.19743,0 -0.59616,-0.23719 -0.88606,-0.527097 z"
       id="path3913-6"
       inkscape:connector-curvature="0" />
    <path
       style="display:inline;fill:#ffffff;fill-opacity:1;stroke-width:0.21009138"
       d="m 548.53549,139.61554 c -0.28991,-0.2899 -0.64476,-0.94736 -0.78858,-1.46101 -0.25743,-0.91945 -0.25014,-0.94717 0.47063,-1.78924 1.10215,-1.2876 1.64778,-3.19175 1.77718,-6.20199 0.11181,-2.60106 -0.33325,-6.92049 -0.82403,-7.99765 -0.34631,-0.76008 -0.6821,-0.51071 -0.74834,0.55573 -0.12243,1.9712 -0.71547,5.75149 -1.20503,7.68142 -1.06814,4.21072 -2.87192,6.84589 -5.56292,8.12698 -1.18403,0.56366 -1.59841,0.65021 -3.15138,0.65823 -1.53814,0.008 -1.95317,-0.0718 -2.96904,-0.57074 -2.12281,-1.0425 -3.61753,-2.63592 -5.14425,-5.48394 -0.46022,-0.85851 -1.12508,-1.62251 -2.19393,-2.52109 -2.62541,-2.20719 -3.92108,-4.62199 -4.13546,-7.70755 -0.18822,-2.70886 0.74801,-4.96264 2.72873,-6.56881 2.11553,-1.71549 4.54789,-2.44349 8.70574,-2.60561 2.62335,-0.10229 6.81783,0.15294 8.15314,0.49611 0.23111,0.0594 -0.14706,-0.23765 -0.84037,-0.6601 -7.66153,-4.66836 -11.07046,-9.08408 -10.772,-13.953429 0.27404,-4.471311 4.18414,-7.581143 9.53201,-7.581143 1.46301,0 1.91648,-0.09236 3.05471,-0.622175 4.15593,-1.934465 7.90998,-1.686387 10.42124,0.688664 2.23809,2.116683 3.0045,4.911265 2.26366,8.254013 -0.688,3.10434 -1.84512,5.56438 -4.66537,9.91859 -0.84686,1.30746 -1.42064,2.30507 -1.27507,2.21692 0.14556,-0.0882 1.25735,-0.81357 2.47063,-1.61204 7.9326,-5.22052 14.34414,-6.17373 18.11939,-2.69382 1.79579,1.6553 2.83589,4.45739 2.59932,7.00274 -0.13873,1.49276 -0.96293,4.3711 -1.62464,5.67378 -0.25903,0.50993 -0.39594,1.22134 -0.39594,2.05725 0,2.7884 -1.26068,6.61991 -2.66946,8.11321 -1.39478,1.47844 -3.59154,2.39087 -5.7562,2.39087 -1.28731,0 -3.41833,-0.67556 -4.58056,-1.45209 -1.97565,-1.32003 -4.33743,-3.94893 -6.44425,-7.17314 -0.72143,-1.10405 -1.4782,-2.144 -1.6817,-2.31101 -0.33926,-0.27841 -0.35825,-0.25999 -0.22848,0.22158 1.1422,4.23849 1.42581,10.45574 0.60689,13.30366 -0.74231,2.58147 -1.62866,4.13393 -2.36021,4.13393 -0.19743,0 -0.59616,-0.23719 -0.88606,-0.5271 z"
       id="path3913-6-3"
       inkscape:connector-curvature="0" />
    <path
       style="display:inline;fill:#ffffff;fill-opacity:1;stroke-width:0.21009138"
       d="m 708.10175,142.97006 c -0.28991,-0.2899 -0.64476,-0.94736 -0.78858,-1.46101 -0.25743,-0.91945 -0.25014,-0.94717 0.47063,-1.78924 1.10215,-1.2876 1.64778,-3.19175 1.77718,-6.20199 0.11181,-2.60106 -0.33325,-6.92049 -0.82403,-7.99765 -0.34631,-0.76008 -0.6821,-0.51071 -0.74834,0.55573 -0.12243,1.9712 -0.71547,5.75149 -1.20503,7.68142 -1.06814,4.21072 -2.87192,6.84589 -5.56292,8.12698 -1.18403,0.56366 -1.59841,0.65021 -3.15138,0.65823 -1.53814,0.008 -1.95317,-0.0718 -2.96904,-0.57074 -2.12281,-1.0425 -3.61753,-2.63592 -5.14425,-5.48394 -0.46022,-0.85851 -1.12508,-1.62251 -2.19393,-2.52109 -2.62541,-2.20719 -3.92108,-4.62199 -4.13546,-7.70755 -0.18822,-2.70886 0.74801,-4.96264 2.72873,-6.56881 2.11553,-1.71549 4.54789,-2.44349 8.70574,-2.60561 2.62335,-0.10229 6.81783,0.15294 8.15314,0.49611 0.23111,0.0594 -0.14706,-0.23765 -0.84037,-0.6601 -7.66153,-4.66836 -11.07046,-9.08408 -10.772,-13.95343 0.27404,-4.471311 4.18414,-7.581143 9.53201,-7.581143 1.46301,0 1.91648,-0.09236 3.05471,-0.622176 4.15593,-1.934465 7.90998,-1.686388 10.42124,0.688665 2.23809,2.116683 3.0045,4.911264 2.26366,8.254014 -0.688,3.10434 -1.84512,5.56438 -4.66537,9.91859 -0.84686,1.30746 -1.42064,2.30507 -1.27507,2.21692 0.14556,-0.0882 1.25735,-0.81357 2.47063,-1.61204 7.9326,-5.22052 14.34414,-6.17373 18.11939,-2.69382 1.79579,1.6553 2.83589,4.45739 2.59932,7.00273 -0.13873,1.49277 -0.96293,4.37111 -1.62464,5.67379 -0.25903,0.50993 -0.39594,1.22134 -0.39594,2.05725 0,2.7884 -1.26068,6.61991 -2.66946,8.11321 -1.39478,1.47844 -3.59154,2.39087 -5.7562,2.39087 -1.28731,0 -3.41833,-0.67556 -4.58056,-1.45209 -1.97565,-1.32003 -4.33743,-3.94893 -6.44425,-7.17314 -0.72143,-1.10405 -1.4782,-2.144 -1.6817,-2.31101 -0.33926,-0.27841 -0.35825,-0.25999 -0.22848,0.22158 1.1422,4.23849 1.42581,10.45574 0.60689,13.30366 -0.74231,2.58147 -1.62866,4.13393 -2.36021,4.13393 -0.19743,0 -0.59616,-0.23719 -0.88606,-0.5271 z"
       id="path3913-6-3-4"
       inkscape:connector-curvature="0" />
    <path
       transform="translate(46.231019,79.130339)"
       style="display:inline;fill:#ffffff;fill-opacity:1;stroke-width:0.05113038"
       d="m 234.37776,72.418969 c -0.3893,-0.3104 -1.24045,-1.2147 -1.61372,-1.71447 -0.65575,-0.87799 -1.15683,-2.0842 -1.37,-3.29793 -0.30422,-1.73212 0.0486,-4.0647 0.94478,-6.24597 0.44839,-1.09134 1.04212,-2.5784 1.03171,-2.58394 -0.007,-0.004 -0.24043,0.0126 -0.52164,0.0346 -1.00804,0.079 -2.12946,-0.11317 -2.89298,-0.49579 -1.27691,-0.63989 -2.06392,-1.55442 -2.67461,-3.10805 -0.73807,-1.87761 -0.81666,-4.49934 -0.21056,-7.02386 0.22556,-0.93953 0.70939,-2.10562 1.08158,-2.60669 l 0.12138,-0.16339 -0.13072,-0.0923 c -0.0719,-0.0507 -0.17943,-0.12886 -0.23897,-0.17363 l -0.10826,-0.0814 0.17208,-0.30209 c 0.0947,-0.16614 0.32943,-0.53672 0.52176,-0.8235 l 0.3497,-0.5214 0.57314,0.36299 c 0.31522,0.19966 0.7227,0.43227 0.90548,0.51696 0.18278,0.0847 0.33906,0.15884 0.34727,0.16481 0.008,0.007 -0.14165,0.23806 -0.333,0.51576 -1.362,1.97656 -1.93196,3.41389 -2.11624,5.33673 -0.20581,2.14753 0.40025,4.21568 1.58684,5.41478 0.73659,0.74438 1.56073,1.12857 2.50921,1.16975 1.06929,0.0464 1.83016,-0.21131 3.03123,-1.02674 0.24701,-0.16772 0.4656,-0.28845 0.48573,-0.26831 0.0822,0.0822 0.0246,1.48118 -0.0808,1.97103 -0.1938,0.89883 -0.26303,1.10663 -1.43608,4.31055 -0.2554,0.69755 -0.49695,1.38782 -0.53677,1.53391 -0.0398,0.14609 -0.13404,0.4727 -0.20933,0.72579 -0.28201,0.94794 -0.34859,1.3759 -0.35401,2.27531 -0.006,0.89022 0.0246,1.07966 0.26407,1.66174 0.13515,0.32866 0.5039,0.92793 0.63942,1.03915 0.0937,0.0769 0.0913,0.0834 0.31517,-0.86555 0.38212,-1.62014 0.24153,-3.27635 -0.34434,-4.05687 -0.066,-0.088 -0.0639,-0.13882 0.0186,-0.43638 0.14093,-0.50859 0.34754,-1.06027 0.54278,-1.44935 0.20864,-0.41579 0.20026,-0.41874 0.62795,0.22026 0.37502,0.56029 0.57095,0.95192 0.76293,1.52495 0.29011,0.86594 0.33809,1.20788 0.33491,2.38761 -0.005,1.57559 -0.17665,2.476 -0.82248,4.29495 -0.18439,0.5193 -0.8093,1.96031 -0.88246,2.03494 -0.0219,0.0225 -0.15281,-0.049 -0.29065,-0.15901 z m -3.16505,-10.04139 c -0.46468,-0.16123 -1.70779,-0.70543 -2.17304,-0.9513 -1.14629,-0.60578 -2.55561,-1.70774 -3.17279,-2.48082 -0.15319,-0.19189 -0.36585,-0.45648 -0.47257,-0.588 -0.39714,-0.48936 -1.02354,-1.64816 -1.27064,-2.3506 -0.82564,-2.34696 -0.84705,-4.82401 -0.0681,-7.8845 0.24568,-0.96531 1.01806,-2.99754 1.35024,-3.55259 0.0508,-0.0849 0.21464,-0.38445 0.36407,-0.66567 0.32973,-0.62053 1.1505,-1.86614 1.41538,-2.14803 0.10595,-0.11279 0.28898,-0.31197 0.40668,-0.44265 l 0.21398,-0.23756 0.45073,0.30834 c 0.35772,0.24471 0.83166,0.5766 0.9825,0.68801 0.0113,0.008 -0.10607,0.18233 -0.26071,0.38665 -0.87982,1.16233 -1.79617,2.79646 -2.33007,4.15515 -0.72101,1.83493 -1.02166,3.23744 -1.06865,4.98521 -0.0336,1.24786 0.0118,1.75533 0.23983,2.68435 0.43128,1.75699 1.19158,2.9874 2.60658,4.21828 0.8633,0.75095 2.0014,1.40631 3.19565,1.84013 0.33746,0.12259 0.63197,0.23842 0.65447,0.25742 0.0225,0.019 -0.0505,0.21107 -0.16209,0.42681 -0.17542,0.33897 -0.29529,0.62653 -0.53029,1.27206 -0.0546,0.14981 -0.1247,0.16481 -0.37112,0.0793 z m -21.57707,-3.24542 c -1.04416,-0.12965 -2.05271,-0.43067 -2.96556,-0.88512 -1.76026,-0.87628 -3.17757,-2.51625 -3.82309,-4.42364 -0.31066,-0.91796 -0.40609,-1.46555 -0.43337,-2.48676 -0.0329,-1.23291 0.0925,-2.07132 0.4808,-3.21428 0.39979,-1.17669 1.21378,-2.58022 2.11281,-3.64304 0.23194,-0.27419 0.44028,-0.49852 0.46298,-0.49852 0.0227,0 0.47453,0.18701 1.00406,0.41558 0.52952,0.22856 1.03696,0.44722 1.12764,0.48588 l 0.16488,0.0704 -0.24157,0.21717 c -0.13287,0.11943 -0.25308,0.2287 -0.26714,0.24281 -0.0141,0.0142 -0.11145,0.0994 -0.21643,0.1894 -0.17712,0.15196 -0.51435,0.52399 -1.05194,1.16042 -0.75391,0.89254 -1.41313,2.252 -1.62607,3.35329 -0.0977,0.50537 -0.0954,1.51532 0.005,2.0929 0.32836,1.89254 1.70254,3.50687 3.6781,4.32094 1.08697,0.4479 2.50194,0.58349 3.53202,0.33846 1.60351,-0.38144 3.05249,-1.55109 4.51307,-3.64303 0.62165,-0.89042 0.7343,-1.07931 1.85351,-3.10847 0.31795,-0.5765 0.74366,-1.34729 0.94599,-1.71287 0.20232,-0.36558 0.58082,-1.05367 0.84111,-1.52907 0.42958,-0.78463 0.94568,-1.64805 1.6533,-2.76588 0.29248,-0.46206 0.99413,-1.35496 1.06472,-1.35496 0.0983,0 1.68084,0.82495 1.68084,0.87615 0,0.0297 -0.12302,0.19564 -0.27337,0.36869 -0.15035,0.17305 -0.53726,0.69429 -0.8598,1.15828 -0.55389,0.79684 -0.69629,1.03408 -1.25678,2.09367 -0.4995,0.9443 -1.10747,2.08598 -1.24029,2.32912 -0.0768,0.14061 -0.56043,1.04945 -1.0747,2.01965 -0.51427,0.9702 -1.00844,1.87904 -1.09813,2.01965 -1.09596,1.71789 -1.79569,2.6363 -2.54665,3.34259 -1.64443,1.54658 -3.28228,2.22129 -5.33425,2.1974 -0.36197,-0.005 -0.72715,-0.0162 -0.81152,-0.0267 z m 0.56244,-3.95851 c -1.74276,-0.2073 -3.20403,-1.25047 -3.7925,-2.70735 -0.36821,-0.9116 -0.35202,-2.25119 0.0399,-3.29857 0.0573,-0.15312 0.1128,-0.27841 0.12335,-0.27841 0.0458,0 2.03665,0.41005 2.04737,0.4217 0.007,0.007 -0.0335,0.18547 -0.0889,0.39639 -0.16101,0.61234 -0.0682,1.35375 0.2283,1.82339 0.21538,0.3412 0.70963,0.7557 1.09222,0.91597 0.30541,0.12796 0.41592,0.14696 0.86164,0.14814 0.48105,9.4e-4 0.53249,-0.008 0.86922,-0.17505 0.49264,-0.24283 1.21458,-0.96719 1.68416,-1.68985 0.19188,-0.29527 0.39188,-0.59921 0.44444,-0.67541 0.0525,-0.0763 0.0956,-0.1519 0.0956,-0.16824 0,-0.0163 0.043,-0.092 0.0956,-0.16825 0.19946,-0.28903 0.56801,-0.89804 0.55271,-0.91335 -0.009,-0.008 -0.095,0.007 -0.19153,0.0355 -0.54512,0.15995 -1.53741,0.31417 -2.30794,0.3587 -1.93824,0.11201 -4.1279,-0.19722 -6.12519,-0.86502 -0.50916,-0.17024 -0.5094,-0.171 -0.22051,-0.69076 0.23339,-0.41991 0.63889,-0.92147 0.93385,-1.15508 l 0.21599,-0.17106 0.34064,0.11046 c 1.5647,0.50746 4.45605,0.60893 6.60411,0.23176 0.94752,-0.16637 1.84129,-0.38652 2.68434,-0.6612 0.69302,-0.22578 1.93517,-0.7929 2.55656,-1.16722 0.16601,-0.10004 0.31026,-0.17338 0.32058,-0.16305 0.01,0.01 -0.0667,0.13776 -0.17123,0.28322 -0.10454,0.14545 -0.65475,1.16583 -1.22278,2.26752 -2.19166,4.25076 -2.26539,4.38331 -3.147,5.65838 -0.3611,0.52224 -0.90826,1.11957 -1.36407,1.48912 -0.61484,0.49848 -1.19402,0.72144 -2.11066,0.8125 -0.54464,0.0541 -0.552,0.0541 -1.04817,-0.006 z m 34.69201,-5.30818 c -1.59899,-0.30785 -2.83162,-0.76398 -4.83006,-1.78734 -0.96617,-0.49474 -1.55643,-0.85037 -3.28559,-1.97952 -1.15932,-0.75703 -2.26939,-1.47996 -2.46685,-1.60651 -0.50999,-0.32684 -2.4784,-1.60625 -3.50391,-2.27745 -0.47808,-0.31288 -0.96126,-0.62646 -1.07375,-0.69684 -0.41538,-0.25989 -2.10735,-1.10598 -2.44148,-1.22087 -0.18982,-0.0653 -0.34512,-0.13795 -0.34512,-0.16147 0,-0.0358 0.20214,-0.39182 0.81284,-1.43173 0.095,-0.1618 0.13771,-0.15759 0.72106,0.0712 0.65057,0.25505 1.92666,0.95276 2.83774,1.55152 0.88651,0.58263 3.37262,2.21313 4.75512,3.11859 0.72777,0.47666 1.34901,0.85077 2.8633,1.72432 0.36559,0.21088 1.08341,0.62611 1.59516,0.92271 0.68803,0.39877 1.18095,0.63923 1.89184,0.92285 1.40383,0.56011 2.0848,0.74696 3.11918,0.85584 1.50088,0.158 2.87773,-0.30117 3.9518,-1.31789 0.97324,-0.92127 1.65742,-2.18659 1.91417,-3.5401 0.12095,-0.63762 0.10893,-1.89979 -0.0235,-2.45761 -0.14629,-0.61648 -0.23733,-0.8814 -0.48624,-1.41491 -0.30494,-0.65363 -0.57739,-1.03552 -1.1583,-1.62353 -0.27574,-0.27912 -0.50135,-0.51507 -0.50135,-0.52436 0,-0.0807 1.10773,-1.65289 1.15659,-1.64166 0.16298,0.0374 1.12066,1.00971 1.53613,1.55955 0.71528,0.9466 1.10628,1.70801 1.43856,2.80126 0.28625,0.94179 0.39841,2.38763 0.2625,3.38368 -0.15626,1.14503 -0.5825,2.3308 -1.17712,3.27464 -1.12829,1.79092 -2.69781,2.99389 -4.49491,3.44512 -0.62813,0.15771 -2.3629,0.18634 -3.06783,0.0507 z m -42.55759,-3.64771 c -1.28518,-1.27207 -2.01511,-2.55635 -2.40471,-4.23104 -0.15504,-0.66644 -0.1987,-1.1915 -0.1722,-2.07078 0.0292,-0.97036 0.15728,-1.68592 0.44832,-2.50539 0.82044,-2.31012 2.77355,-4.28347 4.88113,-4.93173 1.41358,-0.43482 3.47151,-0.30968 5.31756,0.32331 1.58141,0.54225 3.61897,1.57053 5.32957,2.68964 1.19197,0.77981 3.85187,2.51565 6.41887,4.18892 0.79377,0.51741 1.6618,1.05483 1.92896,1.19426 0.26716,0.13943 0.76184,0.39714 1.0993,0.5727 0.33747,0.17555 0.75787,0.37166 0.93422,0.43577 0.17637,0.0641 0.33104,0.13339 0.34376,0.15395 0.0127,0.0205 -0.19447,0.35694 -0.46036,0.74753 -0.26589,0.39059 -0.49026,0.72938 -0.49859,0.75287 -0.0234,0.066 -0.61706,-0.14837 -1.23938,-0.44741 -0.64197,-0.30848 -1.11085,-0.57854 -2.19861,-1.26635 -0.42182,-0.26674 -1.18111,-0.745 -1.68731,-1.06283 -0.50619,-0.31783 -1.03539,-0.6516 -1.176,-0.74172 -0.26671,-0.17093 -0.99282,-0.62937 -3.6047,-2.27582 -0.85771,-0.54066 -1.64001,-1.0354 -1.73843,-1.09939 -0.75631,-0.49178 -1.13959,-0.70499 -1.90771,-1.06125 -1.81211,-0.84042 -2.99884,-1.18248 -4.3325,-1.24876 -1.44154,-0.0717 -2.65258,0.34119 -3.6092,1.23032 -0.69075,0.64204 -1.30278,1.55325 -1.65199,2.45955 -0.14648,0.38015 -0.19742,0.56129 -0.3667,1.30383 -0.0843,0.36963 -0.0833,1.61265 10e-4,2.09094 0.24559,1.38341 0.90858,2.57341 1.96356,3.52442 0.13491,0.12162 0.23819,0.24076 0.22951,0.26475 -0.0374,0.10343 -1.09301,1.68181 -1.1265,1.68437 -0.0204,9.4e-4 -0.34501,-0.30205 -0.72146,-0.67466 z m 7.78462,0.40204 c -0.0117,-0.011 -0.20537,-0.0352 -0.43035,-0.0541 -0.46789,-0.0393 -1.0599,-0.12534 -1.09357,-0.159 -0.0291,-0.029 -0.10869,0.0238 0.84892,-0.56295 0.45599,-0.27939 0.82988,-0.52269 0.83086,-0.54065 9.4e-4,-0.018 -0.0845,-0.0479 -0.18995,-0.0663 -0.41176,-0.0724 -1.80507,-0.44117 -2.33921,-0.61915 -1.40415,-0.46786 -2.05228,-0.82461 -2.73602,-1.50601 -0.73314,-0.73061 -0.99881,-1.18019 -1.22878,-2.07936 -0.28159,-1.10101 0.0582,-2.45033 0.87327,-3.46828 1.15422,-1.44143 2.62967,-1.98567 4.29164,-1.58301 1.3253,0.32107 2.48343,0.93381 5.34458,2.82766 3.61204,2.39089 3.9502,2.611 4.19154,2.72825 0.12718,0.0617 0.23121,0.12501 0.23118,0.1405 -2e-5,0.0155 -0.46594,0.0256 -1.03539,0.0224 -1.08626,-0.007 -2.02859,0.0767 -3.25951,0.28605 -1.12378,0.1912 -2.39475,0.54883 -2.84624,0.8009 -0.21684,0.12105 -0.2724,0.13037 -0.59714,0.10014 -0.62807,-0.0584 -2.21375,-0.5232 -2.61157,-0.76557 l -0.20052,-0.12217 0.20052,-0.12488 c 0.44339,-0.27611 2.02168,-1.05897 2.50159,-1.24084 0.28111,-0.1065 0.75126,-0.2564 1.04479,-0.33304 0.51873,-0.13546 0.53019,-0.14156 0.40904,-0.21758 -0.0686,-0.043 -0.65095,-0.37995 -1.29422,-0.74874 -1.45338,-0.83323 -1.86048,-0.98868 -2.6652,-1.01767 -0.48039,-0.0173 -0.60345,-0.005 -0.84365,0.0873 -0.90618,0.34678 -1.44013,1.23605 -1.27476,2.12308 0.0588,0.31536 0.30193,0.81514 0.50269,1.03331 0.37733,0.41006 0.86052,0.71587 1.52812,0.96715 1.41848,0.53392 4.97748,1.0359 7.51403,1.05984 0.59745,0.006 1.08597,0.0218 1.0856,0.0359 -7.2e-4,0.0263 -0.12117,0.0975 -2.24855,1.32914 -0.68899,0.39886 -1.37925,0.80008 -1.53391,0.89157 -0.79508,0.47038 -1.22567,0.69301 -1.43264,0.7407 -0.21442,0.0495 -1.49047,0.0789 -1.53719,0.0355 z m 34.81937,-0.31386 c -1.00076,-0.16894 -1.79603,-0.48574 -3.36988,-1.34237 -0.18279,-0.0995 -1.64445,-1.05732 -3.24815,-2.12853 -1.60368,-1.07119 -3.07029,-2.02816 -3.25911,-2.12659 -0.18884,-0.0984 -0.34343,-0.19046 -0.34351,-0.20452 -1.1e-4,-0.014 0.55768,-0.0278 1.23947,-0.0306 1.51372,-0.007 2.43636,-0.11298 4.0007,-0.46312 0.84713,-0.18961 1.33791,-0.34174 1.7812,-0.5521 0.41722,-0.198 0.55747,-0.21102 1.10765,-0.10278 0.83898,0.16495 2.46754,0.74751 2.36713,0.84675 -0.10179,0.10058 -1.47283,0.84772 -1.93251,1.05305 -0.72623,0.32441 -1.07714,0.45213 -1.67451,0.6094 -0.28825,0.0759 -0.54169,0.15319 -0.56319,0.17178 -0.0477,0.0412 1.41227,0.90817 2.18657,1.29843 0.69871,0.35216 1.09834,0.4856 1.63785,0.5469 0.93368,0.10608 1.71258,-0.26855 2.11051,-1.01513 0.21953,-0.41188 0.27126,-0.68142 0.21163,-1.10257 -0.10574,-0.74627 -0.59996,-1.39312 -1.36472,-1.78599 -0.87205,-0.44801 -1.82653,-0.68991 -4.18031,-1.05942 -1.07053,-0.16807 -3.05487,-0.31978 -4.2739,-0.32677 l -0.89929,-0.006 0.49025,-0.28786 c 1.9211,-1.12801 4.51292,-2.59804 4.68294,-2.65611 0.22817,-0.0778 1.44273,-0.0976 2.04522,-0.0333 0.57763,0.0617 1.15057,0.15487 1.14858,0.18669 -7.6e-4,0.0162 -0.22534,0.16626 -0.49852,0.33343 -0.86017,0.52632 -1.19851,0.74972 -1.17346,0.77477 0.0134,0.0134 0.29763,0.0817 0.63174,0.15207 0.7221,0.15191 1.22092,0.2969 2.21809,0.64471 1.25437,0.43749 1.78861,0.74928 2.47847,1.44642 0.86931,0.87851 1.31598,1.97479 1.22787,3.01368 -0.12125,1.42988 -0.724,2.51038 -1.88335,3.3761 -0.57922,0.4325 -1.16923,0.68233 -1.87413,0.79355 -0.40022,0.063 -0.52413,0.0602 -1.02733,-0.0248 z m -19.83545,-5.59032 c -0.9075,-0.51356 -0.86643,-0.4382 -0.60285,-1.10647 0.31681,-0.80322 0.78658,-1.66035 1.9468,-3.55202 0.64732,-1.05541 1.28012,-2.0915 1.40626,-2.30241 0.12615,-0.21091 0.31602,-0.52152 0.42195,-0.69026 0.10596,-0.16873 0.4868,-0.78996 0.84637,-1.38052 0.35959,-0.59056 0.87195,-1.43036 1.1386,-1.86625 1.63882,-2.679 1.65833,-2.71399 2.10969,-3.78366 0.68109,-1.61407 0.94872,-2.62718 1.0025,-3.7948 0.0789,-1.71202 -0.52876,-3.11517 -1.80273,-4.163 -1.25346,-1.03098 -2.80897,-1.57264 -4.39423,-1.53018 -1.74902,0.0468 -3.3511,0.77371 -4.34286,1.97039 -0.19337,0.23331 -0.33256,0.35861 -0.38348,0.34518 -0.0712,-0.0188 -1.54564,-0.96476 -1.65935,-1.06461 -0.0558,-0.049 0.0972,-0.23642 0.70163,-0.85899 1.5056,-1.5508 3.49091,-2.45303 5.68406,-2.58313 3.05554,-0.18127 6.27474,1.64937 7.62984,4.3388 0.4837,0.95998 0.6462,1.72021 0.64544,3.01981 -7.3e-4,1.16196 -0.0881,1.71536 -0.47271,2.99216 -0.61076,2.02747 -1.40994,3.60443 -3.45113,6.80975 -0.81847,1.28526 -1.56865,2.46504 -1.66708,2.62174 -0.0984,0.15669 -0.67133,1.05763 -1.27311,2.00207 -0.60178,0.94445 -1.22491,1.96199 -1.38471,2.26121 -0.72245,1.35266 -0.96946,1.85368 -1.12533,2.28246 -0.092,0.25309 -0.17072,0.46472 -0.17493,0.47027 -0.005,0.006 -0.3636,-0.19135 -0.79864,-0.43754 z m 4.99958,-1.69748 c -0.44291,-0.22366 -0.8053,-0.42671 -0.8053,-0.45122 0,-0.0245 0.13413,-0.20469 0.29807,-0.40041 0.51558,-0.61559 1.43307,-1.99172 1.84624,-2.76917 0.21859,-0.41132 0.57662,-1.08146 0.79562,-1.48922 0.49832,-0.92782 0.51833,-0.96525 1.79651,-3.35884 1.10719,-2.07339 1.96415,-3.46051 2.56829,-4.15726 0.78314,-0.90314 0.97204,-1.10072 1.46036,-1.52746 1.6066,-1.40396 3.51337,-2.01808 5.57699,-1.79626 1.69785,0.18252 3.08643,0.69302 4.21679,1.55027 0.67491,0.51184 0.8607,0.69275 1.40125,1.36432 0.54167,0.67301 0.803,1.10023 1.09462,1.78958 0.47243,1.11675 0.65636,2.01646 0.67059,3.28028 0.0272,2.40682 -0.89244,4.66939 -2.79459,6.8761 l -0.27047,0.31376 -0.80415,-0.35658 c -0.44228,-0.19613 -0.94794,-0.41456 -1.1237,-0.4854 -0.17576,-0.0708 -0.31957,-0.14654 -0.31957,-0.16824 0,-0.0217 0.15196,-0.17285 0.33767,-0.3359 0.57976,-0.509 1.46077,-1.50863 1.86878,-2.12041 0.60137,-0.90168 0.84514,-1.45406 1.08766,-2.4647 0.17202,-0.71681 0.1867,-1.82674 0.0327,-2.46812 -0.31386,-1.30699 -0.87253,-2.2342 -1.8498,-3.07 -1.05584,-0.90302 -2.33595,-1.43289 -3.76505,-1.55845 -1.4335,-0.12594 -2.65271,0.3012 -4.01979,1.40832 -1.1192,0.90638 -2.10336,2.22389 -3.41743,4.57507 -0.0707,0.12655 -0.73774,1.3 -1.48226,2.60765 -0.74453,1.30767 -1.6152,2.83773 -1.93484,3.40018 -0.4147,0.72969 -0.72042,1.19469 -1.06732,1.62339 -0.26738,0.33042 -0.51009,0.59956 -0.53934,0.59808 -0.0293,-9.4e-4 -0.4156,-0.18569 -0.85852,-0.40936 z m -6.19957,-0.47368 c -0.60642,-0.5371 -1.90133,-1.35781 -3.31964,-2.10401 -0.7614,-0.4006 -2.07463,-1.09069 -2.9183,-1.53353 -0.84365,-0.44286 -1.69496,-0.892 -1.89182,-0.9981 -0.19685,-0.10606 -0.61101,-0.32511 -0.92035,-0.48669 -1.15465,-0.60316 -1.43686,-0.76626 -2.01503,-1.16462 -0.75854,-0.52263 -0.92902,-0.6598 -1.63223,-1.31332 -1.03012,-0.95734 -1.70693,-1.89565 -2.13332,-2.95756 -0.272,-0.67743 -0.35711,-1.02489 -0.45329,-1.85072 -0.11793,-1.0125 0.0506,-2.57484 0.39024,-3.61666 0.20857,-0.63987 0.82672,-1.79186 1.22801,-2.28853 1.40769,-1.74225 3.20583,-2.74773 5.40088,-3.02003 2.06967,-0.25674 4.18954,0.25495 6.21537,1.50026 0.48335,0.29713 0.61421,0.39492 1.39,1.03868 l 0.46774,0.38813 -0.45793,1.09465 c -0.25187,0.60207 -0.47613,1.11356 -0.49837,1.13669 -0.0223,0.0232 -0.1872,-0.12254 -0.36656,-0.32368 -0.47248,-0.52987 -1.44549,-1.37893 -1.99666,-1.74235 -2.15394,-1.42018 -4.49929,-1.6641 -6.39516,-0.66512 -0.53463,0.28172 -0.83127,0.49701 -1.30205,0.94502 -1.41976,1.35109 -2.16858,3.46682 -1.90295,5.37667 0.0926,0.66578 0.44682,1.55293 0.86796,2.17379 0.249,0.3671 0.92977,1.14822 1.22483,1.4054 0.12655,0.1103 0.35803,0.31645 0.5144,0.45812 0.44284,0.40118 2.15476,1.5581 2.83464,1.91566 0.33745,0.17747 0.75161,0.3973 0.92035,0.48851 0.51527,0.27856 2.62598,1.40101 3.19566,1.69942 0.5651,0.29601 1.87163,1.03882 2.99464,1.70254 0.5219,0.30846 1.23734,0.80693 1.80942,1.26069 0.0397,0.0315 -0.83579,1.75288 -0.89138,1.75263 -0.0287,-1.1e-4 -0.19037,-0.12249 -0.3591,-0.27194 z m 10.47547,-1.35122 c 0.12197,-0.18981 0.45914,-0.81681 0.74926,-1.3933 1.65118,-3.28097 2.05532,-4.06499 2.34577,-4.55061 0.30029,-0.50206 0.40857,-0.67773 0.94556,-1.5339 0.28266,-0.4507 0.95631,-1.24522 1.42127,-1.67634 0.70233,-0.65122 1.24595,-0.89016 2.35677,-1.03591 0.3783,-0.0496 0.54853,-0.0451 1.07374,0.029 2.12317,0.2997 3.65151,1.6392 3.97486,3.48368 0.0847,0.48303 0.039,1.39748 -0.0987,1.97448 -0.11723,0.49118 -0.23281,0.80439 -0.29655,0.80356 -0.0785,-7.6e-4 -2.01853,-0.40051 -2.03762,-0.4196 -0.011,-0.011 0.0179,-0.13322 0.0631,-0.27252 0.0526,-0.16197 0.084,-0.44676 0.087,-0.79013 0.005,-0.50255 -0.007,-0.55904 -0.15921,-0.88393 -0.33436,-0.70854 -0.97624,-1.1935 -1.74848,-1.32104 -0.76861,-0.12692 -1.34385,0.11352 -2.10455,0.87969 -0.37237,0.37505 -0.59258,0.65787 -0.91714,1.17785 -0.2349,0.37637 -0.5113,0.81085 -0.6142,0.96553 -0.25283,0.37994 -0.46478,0.76721 -0.41909,0.76574 0.0205,-7.2e-4 0.20991,-0.0476 0.42082,-0.1042 1.75661,-0.47163 4.20948,-0.41276 6.72364,0.16136 0.66668,0.15225 1.73053,0.46712 1.85724,0.5497 0.16249,0.10586 -0.44301,1.07926 -0.97129,1.56143 l -0.36078,0.32927 -0.32053,-0.12065 c -0.66887,-0.25176 -2.36647,-0.47287 -3.70717,-0.48285 -1.49082,-0.011 -3.50699,0.27509 -4.88285,0.69308 -1.4627,0.44439 -2.38438,0.84163 -3.38064,1.45709 -0.0877,0.0541 -0.17351,0.0985 -0.19071,0.0985 -0.0172,0 0.0685,-0.15532 0.19048,-0.34513 z m -11.39739,-3.35692 c -0.23558,-0.18237 -0.51108,-0.32539 -3.69272,-1.91702 -2.71816,-1.35977 -3.31518,-1.68811 -4.28208,-2.35498 -1.41951,-0.97901 -2.10845,-1.83923 -2.35642,-2.9423 -0.0659,-0.29283 -0.0917,-0.61965 -0.0911,-1.15043 0.002,-0.9309 0.13236,-1.46889 0.56425,-2.31324 0.25534,-0.49919 0.35236,-0.62993 0.80555,-1.08552 0.44955,-0.45192 0.57717,-0.54808 1.00098,-0.75428 0.7263,-0.35336 1.02025,-0.41845 1.86625,-0.41325 0.73027,0.004 1.18337,0.0734 1.71997,0.2613 0.16552,0.058 0.2716,0.12456 0.26774,0.16807 -0.0125,0.14067 -0.38338,2.04175 -0.398,2.04001 -0.002,-2.8e-4 -0.10978,-0.0325 -0.23827,-0.0714 -0.35604,-0.10804 -0.95793,-0.14853 -1.24328,-0.0836 -1.11761,0.2544 -1.94556,1.41006 -1.77164,2.47286 0.13807,0.84377 0.78125,1.61314 1.99309,2.38414 0.74933,0.47675 1.84346,1.12081 1.84331,1.0851 -4e-5,-0.0188 -0.0672,-0.2996 -0.14917,-0.62382 -0.0819,-0.32423 -0.17808,-0.83042 -0.2136,-1.12488 -0.0738,-0.61232 -0.0908,-2.18324 -0.0317,-2.93851 0.0951,-1.21447 0.44019,-2.95343 0.78961,-3.97844 0.12949,-0.37985 0.1425,-0.39775 0.26683,-0.3672 0.38423,0.0944 1.24398,0.71575 1.58337,1.14427 l 0.15263,0.19271 -0.12036,0.37947 c -0.0663,0.2087 -0.17396,0.69008 -0.23943,1.06972 -0.10706,0.62086 -0.11915,0.84962 -0.11987,2.2753 -7.1e-4,1.56403 0.0262,1.96039 0.21078,3.09341 0.29811,1.83017 1.00275,3.81858 1.87139,5.28089 0.11331,0.19076 0.19649,0.35636 0.18485,0.36801 -0.0116,0.0116 -0.0895,-0.0317 -0.173,-0.0963 z m 3.16968,-0.79741 c 0.0456,-0.55621 -0.10552,-2.45253 -0.27797,-3.48783 -0.20786,-1.24781 -0.54938,-2.5234 -0.83972,-3.13627 l -0.2261,-0.47732 0.0489,-0.39392 c 0.0473,-0.38127 0.27962,-1.33957 0.43882,-1.81042 0.1282,-0.37911 0.38258,-0.92003 0.42139,-0.89604 0.0871,0.0539 0.92086,1.59028 1.19268,2.19773 0.27357,0.61143 0.65005,1.7332 0.65005,1.93692 0,0.0467 0.0172,0.0841 0.0383,0.0834 0.0492,-0.002 1.39502,-2.44605 1.53368,-2.78507 0.32265,-0.78881 0.35971,-1.73824 0.0898,-2.30086 -0.18431,-0.38417 -0.57243,-0.77233 -0.97155,-0.97166 -0.27492,-0.13729 -0.35459,-0.15288 -0.76696,-0.14999 -0.3535,0.002 -0.51609,0.0283 -0.7014,0.11143 -0.45037,0.20207 -0.92589,0.6338 -1.22746,1.11444 -0.36881,0.58781 -0.77991,2.10949 -0.98713,3.65387 -0.26,1.93766 -0.40716,3.96758 -0.37335,5.14977 0.0123,0.42796 0.0184,0.77308 0.0137,0.76695 -0.0168,-0.022 -0.62725,-1.04891 -1.07055,-1.80071 -0.24874,-0.42183 -0.78067,-1.31917 -1.18208,-1.99408 -0.46863,-0.78796 -0.75156,-1.31864 -0.79053,-1.48279 -0.0847,-0.35686 -0.0712,-1.66533 0.0251,-2.42406 0.0744,-0.58586 0.10476,-0.72127 0.14931,-0.66509 0.009,0.0117 0.14159,0.21611 0.294,0.45421 0.1524,0.23809 0.39588,0.61619 0.54105,0.84023 l 0.26394,0.40734 0.0517,-0.20111 c 0.0284,-0.1106 0.0906,-0.38518 0.13819,-0.61014 0.21806,-1.03132 0.59636,-2.26873 0.91442,-2.99113 0.39707,-0.90187 0.86329,-1.49324 1.62695,-2.06373 0.49199,-0.36752 0.88741,-0.55847 1.44481,-0.69766 0.39216,-0.0979 0.54696,-0.11077 1.04816,-0.0869 0.68494,0.0326 1.06737,0.13331 1.68739,0.44454 1.4976,0.75173 2.49196,2.21683 2.5095,3.69755 0.007,0.61883 -0.14656,1.31681 -0.48131,2.1831 -0.22362,0.57874 -0.93546,1.94492 -1.35868,2.60766 -0.22449,0.35153 -0.57468,0.90213 -0.77817,1.22359 -1.12968,1.78445 -2.99382,4.71393 -3.05049,4.79379 -0.0554,0.0781 -0.0614,0.0404 -0.0385,-0.23965 z"
       id="path3102"
       inkscape:connector-curvature="0"
       sodipodi:nodetypes="cccsccsssccccccsccsccsscccsscccccsccccsccccssccsscccccccssscsscccscsscssscccsccsscsssssscssccccccsccccccscccsccccssscssscccsccscscccccssscsccscscscccscccccsccscccscsscsscscccccccsccsccsccccsccccccscccccsscscsccccccccscsccsccccscscccscccsscccccsccssscccccccsssssscccsccscccssssssccsscsscscscscscccsscsssccccscssssscsscscscccsscccscsccscccsscssssccssccccccsscssccsccscccscccccscscccccsscssccccccccccssccccssssccscscsccscccscsscssccccscccscccsccccccccccsscccc" />
  </g>
  <g
     inkscape:groupmode="layer"
     id="layer2"
     inkscape:label="Text"
     style="display:inline"
     transform="translate(-64.53101,-77.813351)">
    <path
       style="opacity:0;fill:#008848;fill-opacity:0;stroke-width:0.09354433"
       d="m 408.00786,207.5275 c -0.5145,-0.20702 -2.21934,-0.7983 -3.78856,-1.31396 -16.30742,-5.35884 -18.38905,-6.10471 -24.32155,-8.7147 -1.91476,-0.8424 -6.67588,-3.19509 -8.27867,-4.09087 -5.21228,-2.91312 -8.90266,-5.59886 -12.28996,-8.94424 l -1.53236,-1.51339 0.0414,-16.70778 c 0.0311,-12.54793 0.0685,-16.73492 0.15041,-16.81681 0.06,-0.06 0.62567,-0.1645 1.25712,-0.2323 8.56213,-0.91939 14.22358,-5.8196 16.02166,-13.8674 0.34447,-1.54174 0.4468,-2.98014 0.45312,-6.36892 0.006,-3.38051 -0.0561,-4.06418 -0.54951,-6.01587 -0.38144,-1.50889 -0.66406,-2.26528 -1.40471,-3.75952 -0.84609,-1.70693 -1.64718,-2.8491 -2.94085,-4.19299 -2.96875,-3.084 -6.33116,-4.80413 -11.36706,-5.81513 -0.66884,-0.13427 -1.31079,-0.26393 -1.42655,-0.28811 l -0.21048,-0.044 V 94.156846 79.472167 h 51.21557 51.21553 v 14.680157 c 0,13.900476 -0.009,14.682706 -0.1637,14.728106 -0.09,0.0264 -0.73199,0.15509 -1.42655,0.28604 -2.29243,0.4322 -4.16781,1.06103 -6.20579,2.08082 -3.23781,1.62018 -5.37784,3.49328 -7.19485,6.29743 -1.81696,2.80406 -2.639,5.66824 -2.8824,10.04287 -0.33729,6.06214 0.9321,11.27582 3.61128,14.83247 0.84353,1.1198 2.44409,2.67098 3.57901,3.46859 2.59209,1.8217 5.73597,2.93896 9.30251,3.3059 0.65559,0.0675 1.22082,0.15148 1.25607,0.18673 0.0995,0.0995 0.20445,11.65005 0.21058,23.1675 l 0.006,10.4302 -2.03367,1.93263 c -2.25255,2.14061 -2.59411,2.43372 -4.41906,3.79212 -5.9464,4.4262 -14.42947,8.68573 -24.74248,12.42372 -2.71851,0.98534 -5.89914,2.05062 -12.39462,4.15134 -2.70109,0.87356 -5.47936,1.80627 -6.17393,2.07268 -0.69457,0.26641 -1.34705,0.49969 -1.44995,0.5184 -0.10289,0.0187 -0.60804,-0.13536 -1.12253,-0.34237 z m 9.2795,-26.70439 c 2.29922,-0.3013 5.16471,-1.19953 6.59967,-2.06875 l 0.53788,-0.32583 0.005,-2.58908 c 0.002,-1.424 0.0389,-3.51733 0.081,-4.65186 0.085,-2.29554 0.18633,-2.72299 0.73844,-3.11613 0.37218,-0.26502 0.99041,-0.48052 1.37848,-0.48052 0.53177,0 0.60393,-0.0683 0.60393,-0.57128 v -0.45771 h -5.0514 -5.05139 v 0.46029 c 0,0.51816 -0.039,0.49566 1.07411,0.61909 1.11411,0.12352 1.84764,0.55598 2.12695,1.25395 0.0555,0.1388 0.12856,1.96606 0.17402,4.35509 l 0.0783,4.11595 -0.42834,0.4356 c -0.54385,0.55306 -1.08333,0.84534 -2.13844,1.15858 -1.03284,0.30662 -3.10185,0.41775 -4.358,0.23408 -3.86669,-0.56538 -6.66433,-3.21385 -7.85999,-7.44092 -0.19617,-0.69352 -0.21412,-0.97111 -0.24497,-3.78855 l -0.0333,-3.04019 0.28208,-1.09147 c 1.09469,-4.23588 3.07598,-6.60607 6.36969,-7.61998 0.72005,-0.22165 2.58341,-0.33127 3.75425,-0.22085 2.08906,0.197 3.5057,0.92486 4.70293,2.41634 0.7665,0.95489 1.38317,1.92238 1.96203,3.07821 0.55878,1.11576 0.54162,1.10174 1.21271,0.99086 l 0.35983,-0.0594 -0.0564,-1.3193 c -0.031,-0.72562 -0.10273,-2.51901 -0.15938,-3.98532 -0.0566,-1.46631 -0.14206,-2.73968 -0.1898,-2.82972 -0.0591,-0.11144 -0.19776,-0.16324 -0.43432,-0.16227 -0.41288,0.002 -0.45147,0.0258 -0.84009,0.52535 -0.34415,0.44234 -0.79564,0.6893 -1.26019,0.6893 -0.17674,0 -1.15961,-0.20853 -2.18415,-0.4634 -2.47702,-0.61619 -2.78339,-0.6577 -4.85624,-0.65788 -2.69933,-2.6e-4 -4.13543,0.27293 -5.93205,1.12835 -1.32726,0.63194 -2.42099,1.37808 -3.41363,2.32876 -2.19395,2.1012 -3.46963,4.67295 -3.94549,7.95404 -0.20684,1.42612 -0.13765,3.93385 0.1452,5.26293 0.52334,2.45916 1.52587,4.5223 2.92347,6.01634 1.64411,1.75755 4.61878,3.29301 7.50972,3.87636 1.12066,0.22612 4.23792,0.24809 5.81834,0.041 z m -41.50556,-0.73064 v -0.40757 l -0.95882,-0.15147 c -1.53349,-0.24224 -2.01242,-0.44146 -2.43593,-1.0133 -0.29435,-0.39744 -0.33242,-1.32621 -0.39811,-9.71312 -0.0601,-7.67267 0.006,-11.02284 0.23224,-11.77954 0.22759,-0.76107 1.0071,-1.16239 2.59447,-1.33571 l 0.97482,-0.10644 -0.0277,-0.47514 -0.0277,-0.47513 -5.82313,-0.0241 -5.82314,-0.0241 v 0.50199 0.502 l 0.92894,0.10563 c 1.74153,0.19803 2.4701,0.6585 2.56767,1.62282 0.0882,0.87184 0.1342,11.27366 0.0717,16.21599 -0.067,5.29469 -0.0383,5.0692 -0.6969,5.47331 -0.45609,0.27983 -0.66895,0.33064 -2.56738,0.61284 -0.29074,0.0432 -0.30402,0.0634 -0.30402,0.4619 v 0.41672 h 5.84652 5.84652 z m 17.96052,-0.009 c 0,-0.39822 -0.0135,-0.41878 -0.30402,-0.4633 -1.67421,-0.25654 -2.17435,-0.35516 -2.40429,-0.47406 -0.37035,-0.19151 -0.83213,-0.77445 -0.94542,-1.19345 -0.0617,-0.22809 -0.0841,-3.84605 -0.0648,-10.43019 0.0237,-8.07707 0.0544,-10.15513 0.15406,-10.45405 0.27299,-0.81856 1.21243,-1.29784 2.7801,-1.41834 l 0.78436,-0.0602 v -0.5014 -0.50141 l -5.82314,0.0241 -5.82313,0.0241 -0.0278,0.4774 -0.0278,0.4774 0.93335,0.10613 c 1.50963,0.17166 2.08939,0.45685 2.50229,1.23091 0.16665,0.31241 0.17583,0.75746 0.20063,9.71809 0.0281,10.16505 -0.0118,11.5044 -0.357,11.98925 -0.29577,0.41538 -0.99121,0.70153 -2.14079,0.88086 -0.53629,0.0837 -1.00986,0.17362 -1.05237,0.19989 -0.0425,0.0263 -0.0773,0.21366 -0.0773,0.41642 v 0.36866 h 5.84652 5.84652 v -0.41671 z m 60.65187,0.25301 c 0.97923,-3.36017 1.83104,-6.61366 1.75219,-6.69251 -0.0426,-0.0426 -0.28321,-0.0643 -0.53477,-0.0483 l -0.45739,0.029 -0.46862,0.88868 c -1.16386,2.20705 -2.03899,3.03602 -3.84314,3.64047 -1.57303,0.52701 -2.29303,0.6055 -5.60394,0.61091 -1.64638,0.003 -3.19416,-0.0294 -3.43952,-0.0713 -0.55601,-0.0949 -0.68771,-0.28023 -0.81241,-1.1431 -0.11074,-0.76632 -0.12184,-15.41713 -0.014,-18.48163 0.0666,-1.89311 0.0846,-2.03995 0.28431,-2.32039 0.42341,-0.59463 1.28969,-0.96186 2.55969,-1.0851 l 0.63604,-0.0617 -0.028,-0.48317 -0.028,-0.48313 h -5.56589 -5.56589 l 0.022,0.36292 c 0.0121,0.1996 0.0658,0.41564 0.11923,0.48007 0.0535,0.0644 0.41179,0.16395 0.79624,0.22113 1.21336,0.18047 2.11037,0.77358 2.26451,1.49734 0.0396,0.18613 0.0721,4.92677 0.0721,10.53475 v 10.19633 l -0.23918,0.46491 c -0.30369,0.59028 -0.74786,0.83018 -2.00543,1.08317 -0.51005,0.1026 -0.96021,0.23825 -1.00036,0.30145 -0.0401,0.0632 -0.0736,0.25171 -0.0744,0.41892 l -10e-4,0.30402 h 10.56421 c 9.98061,0 10.56684,-0.009 10.61191,-0.1637 z"
       id="path4711"
       inkscape:connector-curvature="0" />
    <path
       style="opacity:0;fill:#004f48;fill-opacity:0;stroke-width:0.09354433"
       d="m 408.00786,207.5275 c -0.5145,-0.20702 -2.21934,-0.7983 -3.78856,-1.31396 -16.30742,-5.35884 -18.38905,-6.10471 -24.32155,-8.7147 -1.91476,-0.8424 -6.67588,-3.19509 -8.27867,-4.09087 -5.21228,-2.91312 -8.90266,-5.59886 -12.28996,-8.94424 l -1.53236,-1.51339 0.0414,-16.70778 c 0.0311,-12.54793 0.0685,-16.73492 0.15041,-16.81681 0.06,-0.06 0.62567,-0.1645 1.25712,-0.2323 8.56213,-0.91939 14.22358,-5.8196 16.02166,-13.8674 0.34447,-1.54174 0.4468,-2.98014 0.45312,-6.36892 0.006,-3.38051 -0.0561,-4.06418 -0.54951,-6.01587 -0.38144,-1.50889 -0.66406,-2.26528 -1.40471,-3.75952 -0.84609,-1.70693 -1.64718,-2.8491 -2.94085,-4.19299 -2.96875,-3.084 -6.33116,-4.80413 -11.36706,-5.81513 -0.66884,-0.13427 -1.31079,-0.26393 -1.42655,-0.28811 l -0.21048,-0.044 V 94.156846 79.472167 h 51.21557 51.21553 v 14.680157 c 0,13.900476 -0.009,14.682706 -0.1637,14.728106 -0.09,0.0264 -0.73199,0.15509 -1.42655,0.28604 -2.29243,0.4322 -4.16781,1.06103 -6.20579,2.08082 -3.23781,1.62018 -5.37784,3.49328 -7.19485,6.29743 -1.81696,2.80406 -2.639,5.66824 -2.8824,10.04287 -0.33729,6.06214 0.9321,11.27582 3.61128,14.83247 0.84353,1.1198 2.44409,2.67098 3.57901,3.46859 2.59209,1.8217 5.73597,2.93896 9.30251,3.3059 0.65559,0.0675 1.22082,0.15148 1.25607,0.18673 0.0995,0.0995 0.20445,11.65005 0.21058,23.1675 l 0.006,10.4302 -2.03367,1.93263 c -2.25255,2.14061 -2.59411,2.43372 -4.41906,3.79212 -5.9464,4.4262 -14.42947,8.68573 -24.74248,12.42372 -2.71851,0.98534 -5.89914,2.05062 -12.39462,4.15134 -2.70109,0.87356 -5.47936,1.80627 -6.17393,2.07268 -0.69457,0.26641 -1.34705,0.49969 -1.44995,0.5184 -0.10289,0.0187 -0.60804,-0.13536 -1.12253,-0.34237 z m 9.2795,-26.70439 c 2.29922,-0.3013 5.16471,-1.19953 6.59967,-2.06875 l 0.53788,-0.32583 0.005,-2.58908 c 0.002,-1.424 0.0389,-3.51733 0.081,-4.65186 0.085,-2.29554 0.18633,-2.72299 0.73844,-3.11613 0.37218,-0.26502 0.99041,-0.48052 1.37848,-0.48052 0.53177,0 0.60393,-0.0683 0.60393,-0.57128 v -0.45771 h -5.0514 -5.05139 v 0.46029 c 0,0.51816 -0.039,0.49566 1.07411,0.61909 1.11411,0.12352 1.84764,0.55598 2.12695,1.25395 0.0555,0.1388 0.12856,1.96606 0.17402,4.35509 l 0.0783,4.11595 -0.42834,0.4356 c -0.54385,0.55306 -1.08333,0.84534 -2.13844,1.15858 -1.03284,0.30662 -3.10185,0.41775 -4.358,0.23408 -3.86669,-0.56538 -6.66433,-3.21385 -7.85999,-7.44092 -0.19617,-0.69352 -0.21412,-0.97111 -0.24497,-3.78855 l -0.0333,-3.04019 0.28208,-1.09147 c 1.09469,-4.23588 3.07598,-6.60607 6.36969,-7.61998 0.72005,-0.22165 2.58341,-0.33127 3.75425,-0.22085 2.08906,0.197 3.5057,0.92486 4.70293,2.41634 0.7665,0.95489 1.38317,1.92238 1.96203,3.07821 0.55878,1.11576 0.54162,1.10174 1.21271,0.99086 l 0.35983,-0.0594 -0.0564,-1.3193 c -0.031,-0.72562 -0.10273,-2.51901 -0.15938,-3.98532 -0.0566,-1.46631 -0.14206,-2.73968 -0.1898,-2.82972 -0.0591,-0.11144 -0.19776,-0.16324 -0.43432,-0.16227 -0.41288,0.002 -0.45147,0.0258 -0.84009,0.52535 -0.34415,0.44234 -0.79564,0.6893 -1.26019,0.6893 -0.17674,0 -1.15961,-0.20853 -2.18415,-0.4634 -2.47702,-0.61619 -2.78339,-0.6577 -4.85624,-0.65788 -2.69933,-2.6e-4 -4.13543,0.27293 -5.93205,1.12835 -1.32726,0.63194 -2.42099,1.37808 -3.41363,2.32876 -2.19395,2.1012 -3.46963,4.67295 -3.94549,7.95404 -0.20684,1.42612 -0.13765,3.93385 0.1452,5.26293 0.52334,2.45916 1.52587,4.5223 2.92347,6.01634 1.64411,1.75755 4.61878,3.29301 7.50972,3.87636 1.12066,0.22612 4.23792,0.24809 5.81834,0.041 z m -41.50556,-0.73064 v -0.40757 l -0.95882,-0.15147 c -1.53349,-0.24224 -2.01242,-0.44146 -2.43593,-1.0133 -0.29435,-0.39744 -0.33242,-1.32621 -0.39811,-9.71312 -0.0601,-7.67267 0.006,-11.02284 0.23224,-11.77954 0.22759,-0.76107 1.0071,-1.16239 2.59447,-1.33571 l 0.97482,-0.10644 -0.0277,-0.47514 -0.0277,-0.47513 -5.82313,-0.0241 -5.82314,-0.0241 v 0.50199 0.502 l 0.92894,0.10563 c 1.74153,0.19803 2.4701,0.6585 2.56767,1.62282 0.0882,0.87184 0.1342,11.27366 0.0717,16.21599 -0.067,5.29469 -0.0383,5.0692 -0.6969,5.47331 -0.45609,0.27983 -0.66895,0.33064 -2.56738,0.61284 -0.29074,0.0432 -0.30402,0.0634 -0.30402,0.4619 v 0.41672 h 5.84652 5.84652 z m 17.96052,-0.009 c 0,-0.39822 -0.0135,-0.41878 -0.30402,-0.4633 -1.67421,-0.25654 -2.17435,-0.35516 -2.40429,-0.47406 -0.37035,-0.19151 -0.83213,-0.77445 -0.94542,-1.19345 -0.0617,-0.22809 -0.0841,-3.84605 -0.0648,-10.43019 0.0237,-8.07707 0.0544,-10.15513 0.15406,-10.45405 0.27299,-0.81856 1.21243,-1.29784 2.7801,-1.41834 l 0.78436,-0.0602 v -0.5014 -0.50141 l -5.82314,0.0241 -5.82313,0.0241 -0.0278,0.4774 -0.0278,0.4774 0.93335,0.10613 c 1.50963,0.17166 2.08939,0.45685 2.50229,1.23091 0.16665,0.31241 0.17583,0.75746 0.20063,9.71809 0.0281,10.16505 -0.0118,11.5044 -0.357,11.98925 -0.29577,0.41538 -0.99121,0.70153 -2.14079,0.88086 -0.53629,0.0837 -1.00986,0.17362 -1.05237,0.19989 -0.0425,0.0263 -0.0773,0.21366 -0.0773,0.41642 v 0.36866 h 5.84652 5.84652 v -0.41671 z m 60.65187,0.25301 c 0.97923,-3.36017 1.83104,-6.61366 1.75219,-6.69251 -0.0426,-0.0426 -0.28321,-0.0643 -0.53477,-0.0483 l -0.45739,0.029 -0.46862,0.88868 c -1.16386,2.20705 -2.03899,3.03602 -3.84314,3.64047 -1.57303,0.52701 -2.29303,0.6055 -5.60394,0.61091 -1.64638,0.003 -3.19416,-0.0294 -3.43952,-0.0713 -0.55601,-0.0949 -0.68771,-0.28023 -0.81241,-1.1431 -0.11074,-0.76632 -0.12184,-15.41713 -0.014,-18.48163 0.0666,-1.89311 0.0846,-2.03995 0.28431,-2.32039 0.42341,-0.59463 1.28969,-0.96186 2.55969,-1.0851 l 0.63604,-0.0617 -0.028,-0.48317 -0.028,-0.48313 h -5.56589 -5.56589 l 0.022,0.36292 c 0.0121,0.1996 0.0658,0.41564 0.11923,0.48007 0.0535,0.0644 0.41179,0.16395 0.79624,0.22113 1.21336,0.18047 2.11037,0.77358 2.26451,1.49734 0.0396,0.18613 0.0721,4.92677 0.0721,10.53475 v 10.19633 l -0.23918,0.46491 c -0.30369,0.59028 -0.74786,0.83018 -2.00543,1.08317 -0.51005,0.1026 -0.96021,0.23825 -1.00036,0.30145 -0.0401,0.0632 -0.0736,0.25171 -0.0744,0.41892 l -10e-4,0.30402 h 10.56421 c 9.98061,0 10.56684,-0.009 10.61191,-0.1637 z"
       id="path4719"
       inkscape:connector-curvature="0" />
    <path
       style="opacity:0;fill:#000448;fill-opacity:0;stroke-width:0.09354433"
       d="m 408.00786,207.5275 c -0.5145,-0.20702 -2.21934,-0.7983 -3.78856,-1.31396 -16.30742,-5.35884 -18.38905,-6.10471 -24.32155,-8.7147 -1.91476,-0.8424 -6.67588,-3.19509 -8.27867,-4.09087 -5.21228,-2.91312 -8.90266,-5.59886 -12.28996,-8.94424 l -1.53236,-1.51339 0.0414,-16.70778 c 0.0311,-12.54793 0.0685,-16.73492 0.15041,-16.81681 0.06,-0.06 0.62567,-0.1645 1.25712,-0.2323 8.56213,-0.91939 14.22358,-5.8196 16.02166,-13.8674 0.34447,-1.54174 0.4468,-2.98014 0.45312,-6.36892 0.006,-3.38051 -0.0561,-4.06418 -0.54951,-6.01587 -0.38144,-1.50889 -0.66406,-2.26528 -1.40471,-3.75952 -0.84609,-1.70693 -1.64718,-2.8491 -2.94085,-4.19299 -2.96875,-3.084 -6.33116,-4.80413 -11.36706,-5.81513 -0.66884,-0.13427 -1.31079,-0.26393 -1.42655,-0.28811 l -0.21048,-0.044 V 94.156846 79.472167 h 51.21557 51.21553 v 14.680157 c 0,13.900476 -0.009,14.682706 -0.1637,14.728106 -0.09,0.0264 -0.73199,0.15509 -1.42655,0.28604 -2.29243,0.4322 -4.16781,1.06103 -6.20579,2.08082 -3.23781,1.62018 -5.37784,3.49328 -7.19485,6.29743 -1.81696,2.80406 -2.639,5.66824 -2.8824,10.04287 -0.33729,6.06214 0.9321,11.27582 3.61128,14.83247 0.84353,1.1198 2.44409,2.67098 3.57901,3.46859 2.59209,1.8217 5.73597,2.93896 9.30251,3.3059 0.65559,0.0675 1.22082,0.15148 1.25607,0.18673 0.0995,0.0995 0.20445,11.65005 0.21058,23.1675 l 0.006,10.4302 -2.03367,1.93263 c -2.25255,2.14061 -2.59411,2.43372 -4.41906,3.79212 -5.9464,4.4262 -14.42947,8.68573 -24.74248,12.42372 -2.71851,0.98534 -5.89914,2.05062 -12.39462,4.15134 -2.70109,0.87356 -5.47936,1.80627 -6.17393,2.07268 -0.69457,0.26641 -1.34705,0.49969 -1.44995,0.5184 -0.10289,0.0187 -0.60804,-0.13536 -1.12253,-0.34237 z m 9.2795,-26.70439 c 2.29922,-0.3013 5.16471,-1.19953 6.59967,-2.06875 l 0.53788,-0.32583 0.005,-2.58908 c 0.002,-1.424 0.0389,-3.51733 0.081,-4.65186 0.085,-2.29554 0.18633,-2.72299 0.73844,-3.11613 0.37218,-0.26502 0.99041,-0.48052 1.37848,-0.48052 0.53177,0 0.60393,-0.0683 0.60393,-0.57128 v -0.45771 h -5.0514 -5.05139 v 0.46029 c 0,0.51816 -0.039,0.49566 1.07411,0.61909 1.11411,0.12352 1.84764,0.55598 2.12695,1.25395 0.0555,0.1388 0.12856,1.96606 0.17402,4.35509 l 0.0783,4.11595 -0.42834,0.4356 c -0.54385,0.55306 -1.08333,0.84534 -2.13844,1.15858 -1.03284,0.30662 -3.10185,0.41775 -4.358,0.23408 -3.86669,-0.56538 -6.66433,-3.21385 -7.85999,-7.44092 -0.19617,-0.69352 -0.21412,-0.97111 -0.24497,-3.78855 l -0.0333,-3.04019 0.28208,-1.09147 c 1.09469,-4.23588 3.07598,-6.60607 6.36969,-7.61998 0.72005,-0.22165 2.58341,-0.33127 3.75425,-0.22085 2.08906,0.197 3.5057,0.92486 4.70293,2.41634 0.7665,0.95489 1.38317,1.92238 1.96203,3.07821 0.55878,1.11576 0.54162,1.10174 1.21271,0.99086 l 0.35983,-0.0594 -0.0564,-1.3193 c -0.031,-0.72562 -0.10273,-2.51901 -0.15938,-3.98532 -0.0566,-1.46631 -0.14206,-2.73968 -0.1898,-2.82972 -0.0591,-0.11144 -0.19776,-0.16324 -0.43432,-0.16227 -0.41288,0.002 -0.45147,0.0258 -0.84009,0.52535 -0.34415,0.44234 -0.79564,0.6893 -1.26019,0.6893 -0.17674,0 -1.15961,-0.20853 -2.18415,-0.4634 -2.47702,-0.61619 -2.78339,-0.6577 -4.85624,-0.65788 -2.69933,-2.6e-4 -4.13543,0.27293 -5.93205,1.12835 -1.32726,0.63194 -2.42099,1.37808 -3.41363,2.32876 -2.19395,2.1012 -3.46963,4.67295 -3.94549,7.95404 -0.20684,1.42612 -0.13765,3.93385 0.1452,5.26293 0.52334,2.45916 1.52587,4.5223 2.92347,6.01634 1.64411,1.75755 4.61878,3.29301 7.50972,3.87636 1.12066,0.22612 4.23792,0.24809 5.81834,0.041 z m -41.50556,-0.73064 v -0.40757 l -0.95882,-0.15147 c -1.53349,-0.24224 -2.01242,-0.44146 -2.43593,-1.0133 -0.29435,-0.39744 -0.33242,-1.32621 -0.39811,-9.71312 -0.0601,-7.67267 0.006,-11.02284 0.23224,-11.77954 0.22759,-0.76107 1.0071,-1.16239 2.59447,-1.33571 l 0.97482,-0.10644 -0.0277,-0.47514 -0.0277,-0.47513 -5.82313,-0.0241 -5.82314,-0.0241 v 0.50199 0.502 l 0.92894,0.10563 c 1.74153,0.19803 2.4701,0.6585 2.56767,1.62282 0.0882,0.87184 0.1342,11.27366 0.0717,16.21599 -0.067,5.29469 -0.0383,5.0692 -0.6969,5.47331 -0.45609,0.27983 -0.66895,0.33064 -2.56738,0.61284 -0.29074,0.0432 -0.30402,0.0634 -0.30402,0.4619 v 0.41672 h 5.84652 5.84652 z m 17.96052,-0.009 c 0,-0.39822 -0.0135,-0.41878 -0.30402,-0.4633 -1.67421,-0.25654 -2.17435,-0.35516 -2.40429,-0.47406 -0.37035,-0.19151 -0.83213,-0.77445 -0.94542,-1.19345 -0.0617,-0.22809 -0.0841,-3.84605 -0.0648,-10.43019 0.0237,-8.07707 0.0544,-10.15513 0.15406,-10.45405 0.27299,-0.81856 1.21243,-1.29784 2.7801,-1.41834 l 0.78436,-0.0602 v -0.5014 -0.50141 l -5.82314,0.0241 -5.82313,0.0241 -0.0278,0.4774 -0.0278,0.4774 0.93335,0.10613 c 1.50963,0.17166 2.08939,0.45685 2.50229,1.23091 0.16665,0.31241 0.17583,0.75746 0.20063,9.71809 0.0281,10.16505 -0.0118,11.5044 -0.357,11.98925 -0.29577,0.41538 -0.99121,0.70153 -2.14079,0.88086 -0.53629,0.0837 -1.00986,0.17362 -1.05237,0.19989 -0.0425,0.0263 -0.0773,0.21366 -0.0773,0.41642 v 0.36866 h 5.84652 5.84652 v -0.41671 z m 60.65187,0.25301 c 0.97923,-3.36017 1.83104,-6.61366 1.75219,-6.69251 -0.0426,-0.0426 -0.28321,-0.0643 -0.53477,-0.0483 l -0.45739,0.029 -0.46862,0.88868 c -1.16386,2.20705 -2.03899,3.03602 -3.84314,3.64047 -1.57303,0.52701 -2.29303,0.6055 -5.60394,0.61091 -1.64638,0.003 -3.19416,-0.0294 -3.43952,-0.0713 -0.55601,-0.0949 -0.68771,-0.28023 -0.81241,-1.1431 -0.11074,-0.76632 -0.12184,-15.41713 -0.014,-18.48163 0.0666,-1.89311 0.0846,-2.03995 0.28431,-2.32039 0.42341,-0.59463 1.28969,-0.96186 2.55969,-1.0851 l 0.63604,-0.0617 -0.028,-0.48317 -0.028,-0.48313 h -5.56589 -5.56589 l 0.022,0.36292 c 0.0121,0.1996 0.0658,0.41564 0.11923,0.48007 0.0535,0.0644 0.41179,0.16395 0.79624,0.22113 1.21336,0.18047 2.11037,0.77358 2.26451,1.49734 0.0396,0.18613 0.0721,4.92677 0.0721,10.53475 v 10.19633 l -0.23918,0.46491 c -0.30369,0.59028 -0.74786,0.83018 -2.00543,1.08317 -0.51005,0.1026 -0.96021,0.23825 -1.00036,0.30145 -0.0401,0.0632 -0.0736,0.25171 -0.0744,0.41892 l -10e-4,0.30402 h 10.56421 c 9.98061,0 10.56684,-0.009 10.61191,-0.1637 z"
       id="path4721"
       inkscape:connector-curvature="0" />
    <path
       style="opacity:0;fill:#000448;fill-opacity:0;stroke-width:0.09354433"
       d="m 408.00786,207.5275 c -0.5145,-0.20702 -2.21934,-0.7983 -3.78856,-1.31396 -16.30742,-5.35884 -18.38905,-6.10471 -24.32155,-8.7147 -1.91476,-0.8424 -6.67588,-3.19509 -8.27867,-4.09087 -5.21228,-2.91312 -8.90266,-5.59886 -12.28996,-8.94424 l -1.53236,-1.51339 0.0414,-16.70778 c 0.0311,-12.54793 0.0685,-16.73492 0.15041,-16.81681 0.06,-0.06 0.62567,-0.1645 1.25712,-0.2323 8.56213,-0.91939 14.22358,-5.8196 16.02166,-13.8674 0.34447,-1.54174 0.4468,-2.98014 0.45312,-6.36892 0.006,-3.38051 -0.0561,-4.06418 -0.54951,-6.01587 -0.38144,-1.50889 -0.66406,-2.26528 -1.40471,-3.75952 -0.84609,-1.70693 -1.64718,-2.8491 -2.94085,-4.19299 -2.96875,-3.084 -6.33116,-4.80413 -11.36706,-5.81513 -0.66884,-0.13427 -1.31079,-0.26393 -1.42655,-0.28811 l -0.21048,-0.044 V 94.156846 79.472167 h 51.21557 51.21553 v 14.680157 c 0,13.900476 -0.009,14.682706 -0.1637,14.728106 -0.09,0.0264 -0.73199,0.15509 -1.42655,0.28604 -2.29243,0.4322 -4.16781,1.06103 -6.20579,2.08082 -3.23781,1.62018 -5.37784,3.49328 -7.19485,6.29743 -1.81696,2.80406 -2.639,5.66824 -2.8824,10.04287 -0.33729,6.06214 0.9321,11.27582 3.61128,14.83247 0.84353,1.1198 2.44409,2.67098 3.57901,3.46859 2.59209,1.8217 5.73597,2.93896 9.30251,3.3059 0.65559,0.0675 1.22082,0.15148 1.25607,0.18673 0.0995,0.0995 0.20445,11.65005 0.21058,23.1675 l 0.006,10.4302 -2.03367,1.93263 c -2.25255,2.14061 -2.59411,2.43372 -4.41906,3.79212 -5.9464,4.4262 -14.42947,8.68573 -24.74248,12.42372 -2.71851,0.98534 -5.89914,2.05062 -12.39462,4.15134 -2.70109,0.87356 -5.47936,1.80627 -6.17393,2.07268 -0.69457,0.26641 -1.34705,0.49969 -1.44995,0.5184 -0.10289,0.0187 -0.60804,-0.13536 -1.12253,-0.34237 z m 9.2795,-26.70439 c 2.29922,-0.3013 5.16471,-1.19953 6.59967,-2.06875 l 0.53788,-0.32583 0.005,-2.58908 c 0.002,-1.424 0.0389,-3.51733 0.081,-4.65186 0.085,-2.29554 0.18633,-2.72299 0.73844,-3.11613 0.37218,-0.26502 0.99041,-0.48052 1.37848,-0.48052 0.53177,0 0.60393,-0.0683 0.60393,-0.57128 v -0.45771 h -5.0514 -5.05139 v 0.46029 c 0,0.51816 -0.039,0.49566 1.07411,0.61909 1.11411,0.12352 1.84764,0.55598 2.12695,1.25395 0.0555,0.1388 0.12856,1.96606 0.17402,4.35509 l 0.0783,4.11595 -0.42834,0.4356 c -0.54385,0.55306 -1.08333,0.84534 -2.13844,1.15858 -1.03284,0.30662 -3.10185,0.41775 -4.358,0.23408 -3.86669,-0.56538 -6.66433,-3.21385 -7.85999,-7.44092 -0.19617,-0.69352 -0.21412,-0.97111 -0.24497,-3.78855 l -0.0333,-3.04019 0.28208,-1.09147 c 1.09469,-4.23588 3.07598,-6.60607 6.36969,-7.61998 0.72005,-0.22165 2.58341,-0.33127 3.75425,-0.22085 2.08906,0.197 3.5057,0.92486 4.70293,2.41634 0.7665,0.95489 1.38317,1.92238 1.96203,3.07821 0.55878,1.11576 0.54162,1.10174 1.21271,0.99086 l 0.35983,-0.0594 -0.0564,-1.3193 c -0.031,-0.72562 -0.10273,-2.51901 -0.15938,-3.98532 -0.0566,-1.46631 -0.14206,-2.73968 -0.1898,-2.82972 -0.0591,-0.11144 -0.19776,-0.16324 -0.43432,-0.16227 -0.41288,0.002 -0.45147,0.0258 -0.84009,0.52535 -0.34415,0.44234 -0.79564,0.6893 -1.26019,0.6893 -0.17674,0 -1.15961,-0.20853 -2.18415,-0.4634 -2.47702,-0.61619 -2.78339,-0.6577 -4.85624,-0.65788 -2.69933,-2.6e-4 -4.13543,0.27293 -5.93205,1.12835 -1.32726,0.63194 -2.42099,1.37808 -3.41363,2.32876 -2.19395,2.1012 -3.46963,4.67295 -3.94549,7.95404 -0.20684,1.42612 -0.13765,3.93385 0.1452,5.26293 0.52334,2.45916 1.52587,4.5223 2.92347,6.01634 1.64411,1.75755 4.61878,3.29301 7.50972,3.87636 1.12066,0.22612 4.23792,0.24809 5.81834,0.041 z m -41.50556,-0.73064 v -0.40757 l -0.95882,-0.15147 c -1.53349,-0.24224 -2.01242,-0.44146 -2.43593,-1.0133 -0.29435,-0.39744 -0.33242,-1.32621 -0.39811,-9.71312 -0.0601,-7.67267 0.006,-11.02284 0.23224,-11.77954 0.22759,-0.76107 1.0071,-1.16239 2.59447,-1.33571 l 0.97482,-0.10644 -0.0277,-0.47514 -0.0277,-0.47513 -5.82313,-0.0241 -5.82314,-0.0241 v 0.50199 0.502 l 0.92894,0.10563 c 1.74153,0.19803 2.4701,0.6585 2.56767,1.62282 0.0882,0.87184 0.1342,11.27366 0.0717,16.21599 -0.067,5.29469 -0.0383,5.0692 -0.6969,5.47331 -0.45609,0.27983 -0.66895,0.33064 -2.56738,0.61284 -0.29074,0.0432 -0.30402,0.0634 -0.30402,0.4619 v 0.41672 h 5.84652 5.84652 z m 17.96052,-0.009 c 0,-0.39822 -0.0135,-0.41878 -0.30402,-0.4633 -1.67421,-0.25654 -2.17435,-0.35516 -2.40429,-0.47406 -0.37035,-0.19151 -0.83213,-0.77445 -0.94542,-1.19345 -0.0617,-0.22809 -0.0841,-3.84605 -0.0648,-10.43019 0.0237,-8.07707 0.0544,-10.15513 0.15406,-10.45405 0.27299,-0.81856 1.21243,-1.29784 2.7801,-1.41834 l 0.78436,-0.0602 v -0.5014 -0.50141 l -5.82314,0.0241 -5.82313,0.0241 -0.0278,0.4774 -0.0278,0.4774 0.93335,0.10613 c 1.50963,0.17166 2.08939,0.45685 2.50229,1.23091 0.16665,0.31241 0.17583,0.75746 0.20063,9.71809 0.0281,10.16505 -0.0118,11.5044 -0.357,11.98925 -0.29577,0.41538 -0.99121,0.70153 -2.14079,0.88086 -0.53629,0.0837 -1.00986,0.17362 -1.05237,0.19989 -0.0425,0.0263 -0.0773,0.21366 -0.0773,0.41642 v 0.36866 h 5.84652 5.84652 v -0.41671 z m 60.65187,0.25301 c 0.97923,-3.36017 1.83104,-6.61366 1.75219,-6.69251 -0.0426,-0.0426 -0.28321,-0.0643 -0.53477,-0.0483 l -0.45739,0.029 -0.46862,0.88868 c -1.16386,2.20705 -2.03899,3.03602 -3.84314,3.64047 -1.57303,0.52701 -2.29303,0.6055 -5.60394,0.61091 -1.64638,0.003 -3.19416,-0.0294 -3.43952,-0.0713 -0.55601,-0.0949 -0.68771,-0.28023 -0.81241,-1.1431 -0.11074,-0.76632 -0.12184,-15.41713 -0.014,-18.48163 0.0666,-1.89311 0.0846,-2.03995 0.28431,-2.32039 0.42341,-0.59463 1.28969,-0.96186 2.55969,-1.0851 l 0.63604,-0.0617 -0.028,-0.48317 -0.028,-0.48313 h -5.56589 -5.56589 l 0.022,0.36292 c 0.0121,0.1996 0.0658,0.41564 0.11923,0.48007 0.0535,0.0644 0.41179,0.16395 0.79624,0.22113 1.21336,0.18047 2.11037,0.77358 2.26451,1.49734 0.0396,0.18613 0.0721,4.92677 0.0721,10.53475 v 10.19633 l -0.23918,0.46491 c -0.30369,0.59028 -0.74786,0.83018 -2.00543,1.08317 -0.51005,0.1026 -0.96021,0.23825 -1.00036,0.30145 -0.0401,0.0632 -0.0736,0.25171 -0.0744,0.41892 l -10e-4,0.30402 h 10.56421 c 9.98061,0 10.56684,-0.009 10.61191,-0.1637 z"
       id="path4723"
       inkscape:connector-curvature="0" />
    <text
       xml:space="preserve"
       style="font-style:normal;font-weight:normal;font-size:10.58333302px;line-height:1.25;font-family:sans-serif;letter-spacing:0px;word-spacing:0px;fill:#000000;fill-opacity:1;stroke:none;stroke-width:0.26458332"
       x="117.10005"
       y="173.6763"
       id="text7416"><tspan
         sodipodi:role="line"
         id="tspan7414"
         x="117.10005"
         y="183.04007"
         style="stroke-width:0.26458332" /></text>
    <flowRoot
       xml:space="preserve"
       id="flowRoot3886"
       style="font-style:italic;font-variant:normal;font-weight:normal;font-stretch:normal;font-size:40px;line-height:1.25;font-family:sans-serif;-inkscape-font-specification:'sans-serif Italic';letter-spacing:0px;word-spacing:0px;fill:#000000;fill-opacity:1;stroke:none"
       transform="matrix(0.26458333,0,0,0.26458333,46.231019,79.13034)"><flowRegion
         id="flowRegion3888"
         style="font-style:italic;font-variant:normal;font-weight:normal;font-stretch:normal;font-family:sans-serif;-inkscape-font-specification:'sans-serif Italic'"><rect
           id="rect3890"
           width="1987.1219"
           height="734.41913"
           x="-13.232777"
           y="-226.58095"
           style="font-style:italic;font-variant:normal;font-weight:normal;font-stretch:normal;font-family:sans-serif;-inkscape-font-specification:'sans-serif Italic'" /></flowRegion><flowPara
         id="flowPara3892" /></flowRoot>    <flowRoot
       xml:space="preserve"
       id="flowRoot3894"
       style="font-style:normal;font-weight:normal;font-size:40px;line-height:1.25;font-family:sans-serif;letter-spacing:0px;word-spacing:0px;fill:#000000;fill-opacity:1;stroke:none"
       transform="matrix(0.26458333,0,0,0.26458333,46.231019,79.13034)"><flowRegion
         id="flowRegion3896"><rect
           id="rect3898"
           width="2052.2991"
           height="9035.7295"
           x="527.11023"
           y="-19.493721" /></flowRegion><flowPara
         id="flowPara3900" /></flowRoot>    <text
       xml:space="preserve"
       style="font-style:normal;font-variant:normal;font-weight:normal;font-stretch:normal;font-size:10.58333302px;line-height:1.25;font-family:FreeSerif;-inkscape-font-specification:FreeSerif;letter-spacing:0px;word-spacing:0px;display:inline;fill:#ffffff;fill-opacity:1;stroke:none;stroke-width:0.26458332;stroke-opacity:1"
       x="371.92413"
       y="179.09268"
       id="text7412"><tspan
         sodipodi:role="line"
         x="371.92413"
         y="179.09268"
         id="tspan7410"
         style="font-style:normal;font-variant:normal;font-weight:normal;font-stretch:normal;font-size:28.22222137px;font-family:'Russo One';-inkscape-font-specification:'Russo One';stroke-width:0.26458332"><tspan
           x="371.92413"
           y="179.09268"
           style="font-style:normal;font-variant:normal;font-weight:normal;font-stretch:normal;font-size:28.22222137px;line-height:1.25;font-family:'Russo One';-inkscape-font-specification:'Russo One';letter-spacing:5.29166651px;fill:#ffffff;fill-opacity:1;stroke:none;stroke-width:0.26458332;stroke-opacity:1"
           id="tspan7408">IIGL</tspan></tspan></text>
    <text
       xml:space="preserve"
       style="font-style:normal;font-variant:normal;font-weight:normal;font-stretch:normal;font-size:9.49367523px;line-height:1.25;font-family:FreeSerif;-inkscape-font-specification:FreeSerif;letter-spacing:0px;word-spacing:0px;fill:#ffffff;fill-opacity:1;stroke:none;stroke-width:0.23734188;stroke-opacity:1"
       x="89.055191"
       y="175.38855"
       id="text7412-5"><tspan
         sodipodi:role="line"
         x="89.055191"
         y="175.38855"
         id="tspan7410-6"
         style="font-style:normal;font-variant:normal;font-weight:normal;font-stretch:normal;font-size:25.31646729px;font-family:Rachana;-inkscape-font-specification:Rachana;stroke-width:0.23734188"><tspan
           x="89.055191"
           y="175.38855"
           style="font-style:normal;font-variant:normal;font-weight:normal;font-stretch:normal;font-size:25.31646729px;line-height:1.25;font-family:sans-serif;-inkscape-font-specification:sans-serif;letter-spacing:4.74683762px;fill:#ffffff;fill-opacity:1;stroke:none;stroke-width:0.23734188;stroke-opacity:1;"
           id="tspan7408-4">IIGL</tspan></tspan></text>
    <text
       xml:space="preserve"
       style="font-style:normal;font-variant:normal;font-weight:normal;font-stretch:normal;font-size:9.49367523px;line-height:1.25;font-family:FreeSerif;-inkscape-font-specification:FreeSerif;letter-spacing:0px;word-spacing:0px;display:inline;fill:#ffffff;fill-opacity:1;stroke:none;stroke-width:0.23734188;stroke-opacity:1"
       x="515.43506"
       y="167.71883"
       id="text7412-5-7"><tspan
         sodipodi:role="line"
         x="515.43506"
         y="167.71883"
         id="tspan7410-6-9"
         style="font-style:normal;font-variant:normal;font-weight:normal;font-stretch:normal;font-size:25.31646729px;font-family:'Russo One';-inkscape-font-specification:'Russo One';stroke-width:0.23734188"><tspan
           x="515.43506"
           y="167.71883"
           style="font-style:normal;font-variant:normal;font-weight:normal;font-stretch:normal;font-size:25.31646729px;line-height:1.25;font-family:'Russo One';-inkscape-font-specification:'Russo One';letter-spacing:4.74683762px;fill:#ffffff;fill-opacity:1;stroke:none;stroke-width:0.23734188;stroke-opacity:1"
           id="tspan7408-4-7">IIGL</tspan></tspan></text>
    <text
       xml:space="preserve"
       style="font-style:normal;font-variant:normal;font-weight:normal;font-stretch:normal;font-size:9.49367523px;line-height:1.25;font-family:FreeSerif;-inkscape-font-specification:FreeSerif;letter-spacing:0px;word-spacing:0px;display:inline;fill:#ffffff;fill-opacity:1;stroke:none;stroke-width:0.23734188;stroke-opacity:1"
       x="674.76825"
       y="171.84499"
       id="text7412-5-7-9"><tspan
         sodipodi:role="line"
         x="674.76825"
         y="171.84499"
         id="tspan7410-6-9-1"
         style="font-style:normal;font-variant:normal;font-weight:normal;font-stretch:normal;font-size:25.31646729px;font-family:'Russo One';-inkscape-font-specification:'Russo One';stroke-width:0.23734188"><tspan
           x="674.76825"
           y="171.84499"
           style="font-style:normal;font-variant:normal;font-weight:normal;font-stretch:normal;font-size:25.31646729px;line-height:1.25;font-family:'Russo One';-inkscape-font-specification:'Russo One';letter-spacing:4.74683762px;fill:#ffffff;fill-opacity:1;stroke:none;stroke-width:0.23734188;stroke-opacity:1"
           id="tspan7408-4-7-7">IIGL</tspan></tspan></text>
    <text
       transform="translate(46.231019,79.130339)"
       xml:space="preserve"
       style="font-style:normal;font-variant:normal;font-weight:normal;font-stretch:normal;font-size:10.58333302px;line-height:1.25;font-family:FreeSerif;-inkscape-font-specification:FreeSerif;letter-spacing:0px;word-spacing:0px;display:inline;fill:#ffffff;fill-opacity:1;stroke:none;stroke-width:0.26458332;stroke-opacity:1"
       x="190.19919"
       y="100.34508"
       id="text7412-2"><tspan
         sodipodi:role="line"
         x="190.19919"
         y="100.34508"
         id="tspan7410-9"
         style="font-style:normal;font-variant:normal;font-weight:normal;font-stretch:normal;font-size:28.22222137px;font-family:'Russo One';-inkscape-font-specification:'Russo One';stroke-width:0.26458332"><tspan
           x="190.19919"
           y="100.34508"
           style="font-style:normal;font-variant:normal;font-weight:normal;font-stretch:normal;font-size:28.22222137px;line-height:1.25;font-family:'Russo One';-inkscape-font-specification:'Russo One';letter-spacing:5.29166651px;fill:#ffffff;fill-opacity:1;stroke:none;stroke-width:0.26458332;stroke-opacity:1"
           id="tspan7408-1">IIGL</tspan></tspan></text>
  </g>
</svg>
