<?xml version="1.0" encoding="UTF-8" standalone="no"?>
<!-- Created with Inkscape (http://www.inkscape.org/) -->

<svg
   xmlns:dc="http://purl.org/dc/elements/1.1/"
   xmlns:cc="http://creativecommons.org/ns#"
   xmlns:rdf="http://www.w3.org/1999/02/22-rdf-syntax-ns#"
   xmlns:svg="http://www.w3.org/2000/svg"
   xmlns="http://www.w3.org/2000/svg"
   xmlns:sodipodi="http://sodipodi.sourceforge.net/DTD/sodipodi-0.dtd"
   xmlns:inkscape="http://www.inkscape.org/namespaces/inkscape"
   width="85mm"
   height="55mm"
   viewBox="0 0 85.000006 55.000002"
   version="1.1"
   id="svg8"
   inkscape:version="0.92.2 (unknown)"
   sodipodi:docname="business_card_front.svg"
   inkscape:export-filename="/home/edarder/git/iigl/src/assets/img/business_card_front.png"
   inkscape:export-xdpi="597.59003"
   inkscape:export-ydpi="597.59003">
  <defs
     id="defs9013">
    <style
       id="style9008"
       type="text/css">
      @import url('https://fonts.googleapis.com/css?family=Russo+One');
    </style>
  </defs>
  <sodipodi:namedview
     id="base"
     pagecolor="#ffffff"
     bordercolor="#666666"
     borderopacity="1.0"
     inkscape:pageopacity="0.0"
     inkscape:pageshadow="2"
     inkscape:zoom="2.8284271"
     inkscape:cx="150.86467"
     inkscape:cy="85.261177"
     inkscape:document-units="mm"
     inkscape:current-layer="layer3"
     showgrid="true"
     inkscape:window-width="1859"
     inkscape:window-height="1176"
     inkscape:window-x="1981"
     inkscape:window-y="24"
     inkscape:window-maximized="1"
     inkscape:snap-grids="true"
     inkscape:snap-to-guides="true"
     units="mm"
     inkscape:snap-object-midpoints="false"
     inkscape:snap-others="true"
     inkscape:snap-page="true"
     inkscape:pagecheckerboard="true">
    <inkscape:grid
       type="xygrid"
       id="grid7424"
       originx="0"
       originy="0"
       dotted="false"
       enabled="true"
       visible="true"
       snapvisiblegridlinesonly="true"
       units="mm"
       spacingx="1"
       spacingy="1" />
  </sodipodi:namedview>
  <metadata
     id="metadata5">
    <rdf:RDF>
      <cc:Work
         rdf:about="">
        <dc:format>image/svg+xml</dc:format>
        <dc:type
           rdf:resource="http://purl.org/dc/dcmitype/StillImage" />
        <dc:title />
      </cc:Work>
    </rdf:RDF>
  </metadata>
  <g
     inkscape:groupmode="layer"
     id="layer1"
     inkscape:label="Background"
     style="display:inline">
    <rect
       transform="translate(-64.53101,-160.09015)"
       style="display:inline;opacity:1;fill:#000000;fill-opacity:0.96341463;fill-rule:evenodd;stroke:none;stroke-width:0.26458332;stroke-opacity:1"
       id="rect990"
       width="85"
       height="54.999996"
       x="64.531013"
       y="160.09015" />
  </g>
  <g
     inkscape:groupmode="layer"
     id="layer3"
     inkscape:label="Outside text">
    <text
       xml:space="preserve"
       style="font-style:normal;font-weight:normal;font-size:0.84572953px;line-height:1.25;font-family:sans-serif;letter-spacing:0px;word-spacing:0px;display:inline;fill:#ffffff;fill-opacity:1;stroke:none;stroke-width:0.02114324"
       x="9.9378757"
       y="35.648777"
       id="text969"><tspan
         sodipodi:role="line"
         id="tspan967"
         x="9.9378757"
         y="35.648777"
         style="font-style:normal;font-variant:normal;font-weight:normal;font-stretch:normal;font-size:4.05950212px;font-family:sans-serif, 'Russo One';-inkscape-font-specification:'sans-serif, Russo One';fill:#ffffff;fill-opacity:1;stroke-width:0.02114324">Irish Interfirms Gaming League</tspan></text>
    <text
       xml:space="preserve"
       style="font-style:normal;font-weight:normal;font-size:0.59298682px;line-height:1.25;font-family:sans-serif;letter-spacing:0px;word-spacing:0px;display:inline;fill:#3d7915;fill-opacity:1;stroke:none;stroke-width:0.01482467"
       x="10.946445"
       y="39.755669"
       id="text969-3"><tspan
         sodipodi:role="line"
         id="tspan967-6"
         x="10.946445"
         y="39.755669"
         style="font-style:normal;font-variant:normal;font-weight:bold;font-stretch:normal;font-size:2.84633732px;font-family:Play;-inkscape-font-specification:'Play Bold';fill:#3d7915;fill-opacity:1;stroke-width:0.01482467">Like inter-company GAA, but with 16GB of RAM</tspan></text>
  </g>
  <g
     inkscape:groupmode="layer"
     id="layer5"
     inkscape:label="Shield"
     style="display:inline"
     transform="translate(-18.571295,-81.403346)">
    <path
       style="display:inline;fill:#3d7915;fill-opacity:1;stroke-width:0.01715801"
       d="m 59.550127,111.12092 c -3.773309,-2.36932 -6.205539,-6.49244 -6.593338,-10.9212 -0.09325,-1.145802 -0.136126,-2.307434 -0.09501,-3.457325 0.04706,-1.027424 -0.0064,-1.882857 0.06381,-2.920287 0.02278,-0.09573 0.03876,-0.185267 0.127601,-0.209071 0.04145,-0.01111 0.07576,-0.03257 0.954455,-0.03681 1.00457,0.01434 1.945939,-0.115959 2.844784,-0.205453 1.399223,-0.145106 2.688864,-0.693728 3.938847,-1.194507 0.06293,-0.02522 0.126465,-0.03768 0.193591,-0.05803 0.07978,-0.02417 0.170344,-0.033 0.230842,-0.0021 0.067,0.02151 0.13054,0.04908 0.194336,0.07332 1.259328,0.512652 2.328184,0.895785 3.536047,1.103739 1.474796,0.265902 2.703994,0.285206 4.122857,0.300636 0.225145,0.0025 0.200438,0.305186 0.215626,0.45467 0.02896,0.28558 0.120967,3.847078 0.0017,5.765068 -0.296138,4.76483 -2.348808,8.32921 -6.105258,10.9562 -0.684954,0.479 -1.425077,0.95356 -2.090606,1.22406 -0.549217,-0.24678 -1.102044,-0.59653 -1.54034,-0.87291 z"
       id="path4734"
       inkscape:connector-curvature="0"
       sodipodi:nodetypes="ccccsccsscccscsscc" />
  </g>
  <g
     inkscape:groupmode="layer"
     id="layer4"
     inkscape:label="Shamrock"
     transform="translate(-64.53101,-160.09015)"
     style="display:inline">
    <path
       style="display:inline;fill:#ffffff;fill-opacity:1;stroke-width:0.03045585"
       d="m 106.8732,180.66474 c -0.042,-0.042 -0.0935,-0.13733 -0.11431,-0.21179 -0.0373,-0.1333 -0.0363,-0.13732 0.0683,-0.25938 0.15978,-0.18666 0.23887,-0.46269 0.25763,-0.89907 0.0162,-0.37706 -0.0483,-1.00323 -0.11946,-1.15938 -0.0502,-0.11019 -0.0989,-0.074 -0.10848,0.0805 -0.0177,0.28576 -0.10371,0.83377 -0.17468,1.11355 -0.15485,0.6104 -0.41634,0.9924 -0.80643,1.17812 -0.17165,0.0817 -0.23172,0.0942 -0.45684,0.0954 -0.22298,0.002 -0.28315,-0.0104 -0.43042,-0.0827 -0.30772,-0.15113 -0.52441,-0.38212 -0.74572,-0.79498 -0.0667,-0.12445 -0.1631,-0.23521 -0.31805,-0.36547 -0.38058,-0.31997 -0.56842,-0.67003 -0.5995,-1.11732 -0.0273,-0.39269 0.10845,-0.71941 0.39558,-0.95225 0.30668,-0.24869 0.65928,-0.35422 1.26202,-0.37773 0.38029,-0.0148 0.98835,0.0222 1.18191,0.0719 0.0335,0.008 -0.0213,-0.0344 -0.12181,-0.0957 -1.11066,-0.67674 -1.60483,-1.31688 -1.56157,-2.02276 0.0397,-0.64818 0.60656,-1.099 1.38181,-1.099 0.21209,0 0.27782,-0.0134 0.44283,-0.0902 0.60246,-0.28042 1.14666,-0.24446 1.51071,0.0998 0.32444,0.30684 0.43555,0.71196 0.32815,1.19655 -0.0997,0.45001 -0.26747,0.80663 -0.67632,1.43784 -0.12276,0.18953 -0.20593,0.33415 -0.18484,0.32138 0.0211,-0.0127 0.18228,-0.11794 0.35816,-0.23369 1.14995,-0.7568 2.0794,-0.89498 2.62668,-0.39051 0.26032,0.23996 0.4111,0.64616 0.37681,1.01514 -0.0201,0.21641 -0.1396,0.63366 -0.23552,0.8225 -0.0375,0.0739 -0.0574,0.17706 -0.0574,0.29824 0,0.40421 -0.18275,0.95964 -0.38698,1.17612 -0.20219,0.21432 -0.52064,0.34659 -0.83444,0.34659 -0.18662,0 -0.49554,-0.0979 -0.66402,-0.2105 -0.28639,-0.19135 -0.62878,-0.57246 -0.93419,-1.03986 -0.10458,-0.16004 -0.21429,-0.3108 -0.24379,-0.33501 -0.0492,-0.0404 -0.052,-0.0376 -0.0332,0.0322 0.16558,0.61444 0.20669,1.51573 0.088,1.92857 -0.10761,0.37422 -0.2361,0.59928 -0.34216,0.59928 -0.0286,0 -0.0864,-0.0344 -0.12844,-0.0765 z"
       id="path3913-6"
       inkscape:connector-curvature="0" />
  </g>
  <g
     inkscape:groupmode="layer"
     id="layer2"
     inkscape:label="Text"
     style="display:inline"
     transform="translate(-64.53101,-160.09015)">
    <text
       xml:space="preserve"
       style="font-style:normal;font-variant:normal;font-weight:normal;font-stretch:normal;font-size:3.6699965px;line-height:1.25;font-family:'Russo One';letter-spacing:0.68812436px;word-spacing:0px;fill:#ffffff;fill-opacity:1;stroke:none;stroke-width:0.03440622;stroke-opacity:1"
       x="102.45902"
       y="184.92558"
       id="text7412-5">IIGL</text>
  </g>
</svg>
