<?xml version="1.0" encoding="UTF-8" standalone="no"?>
<!-- Created with Inkscape (http://www.inkscape.org/) -->

<svg
   xmlns:dc="http://purl.org/dc/elements/1.1/"
   xmlns:cc="http://creativecommons.org/ns#"
   xmlns:rdf="http://www.w3.org/1999/02/22-rdf-syntax-ns#"
   xmlns:svg="http://www.w3.org/2000/svg"
   xmlns="http://www.w3.org/2000/svg"
   xmlns:sodipodi="http://sodipodi.sourceforge.net/DTD/sodipodi-0.dtd"
   xmlns:inkscape="http://www.inkscape.org/namespaces/inkscape"
   width="23.401876mm"
   height="28.221138mm"
   viewBox="0 0 23.401878 28.221139"
   version="1.1"
   id="svg8"
   inkscape:version="0.92.2 (unknown)"
   sodipodi:docname="logo.svg"
   inkscape:export-filename="/home/edarder/Downloads/logo.png"
   inkscape:export-xdpi="241.89999"
   inkscape:export-ydpi="241.89999">
  <defs
     id="defs9013">
    <style
       id="style9008"
       type="text/css">
      @import url('https://fonts.googleapis.com/css?family=Russo+One');
    </style>
  </defs>
  <sodipodi:namedview
     id="base"
     pagecolor="#ffffff"
     bordercolor="#666666"
     borderopacity="1.0"
     inkscape:pageopacity="0.0"
     inkscape:pageshadow="2"
     inkscape:zoom="7.254713"
     inkscape:cx="21.40256"
     inkscape:cy="58.645864"
     inkscape:document-units="mm"
     inkscape:current-layer="layer2"
     showgrid="true"
     inkscape:window-width="1859"
     inkscape:window-height="1176"
     inkscape:window-x="1981"
     inkscape:window-y="24"
     inkscape:window-maximized="1"
     inkscape:snap-grids="false"
     inkscape:snap-to-guides="false"
     units="mm"
     inkscape:snap-object-midpoints="false"
     inkscape:snap-others="true"
     inkscape:snap-page="false">
    <inkscape:grid
       type="xygrid"
       id="grid7424"
       originx="-30.832361"
       originy="-10.794197"
       dotted="false"
       enabled="true"
       visible="true"
       snapvisiblegridlinesonly="true"
       units="mm"
       spacingx="1"
       spacingy="1" />
  </sodipodi:namedview>
  <metadata
     id="metadata5">
    <rdf:RDF>
      <cc:Work
         rdf:about="">
        <dc:format>image/svg+xml</dc:format>
        <dc:type
           rdf:resource="http://purl.org/dc/dcmitype/StillImage" />
        <dc:title />
      </cc:Work>
    </rdf:RDF>
  </metadata>
  <g
     inkscape:groupmode="layer"
     id="layer5"
     inkscape:label="Shield"
     style="display:inline"
     transform="translate(-49.403654,-97.388012)">
    <path
       style="display:inline;fill:#3d7915;fill-opacity:1;stroke-width:0.02433565"
       d="m 58.912078,124.37108 c -5.351782,-3.36047 -8.801476,-9.20839 -9.351502,-15.48979 -0.132254,-1.62513 -0.19307,-3.27271 -0.13476,-4.90364 0.06675,-1.45723 -0.009,-2.67052 0.0905,-4.14194 0.03231,-0.135773 0.05498,-0.262768 0.18098,-0.29653 0.05878,-0.01575 0.10746,-0.0462 1.353727,-0.0522 1.424808,0.02033 2.759977,-0.164467 4.034831,-0.2914 1.984554,-0.205806 3.813685,-0.983931 5.586569,-1.6942 0.08925,-0.03576 0.179367,-0.05345 0.274574,-0.0823 0.113161,-0.03429 0.241603,-0.0468 0.327409,-0.003 0.09502,0.0305 0.185148,0.06961 0.275633,0.104 1.786136,0.727106 3.302122,1.270513 5.015266,1.56546 2.09174,0.377135 3.835145,0.404515 5.847553,0.4264 0.31933,0.0035 0.284287,0.432854 0.305828,0.64487 0.04108,0.40505 0.171572,5.45644 0.0025,8.17679 -0.42002,6.75807 -3.331374,11.8135 -8.659244,15.53943 -0.971488,0.67939 -2.021224,1.35247 -2.965161,1.73612 -0.778967,-0.35002 -1.563057,-0.84608 -2.184703,-1.23807 z"
       id="path4734"
       inkscape:connector-curvature="0"
       sodipodi:nodetypes="ccccsccsscccscsscc" />
  </g>
  <g
     inkscape:groupmode="layer"
     id="layer4"
     inkscape:label="Shamrock"
     transform="translate(-95.363369,-176.07482)"
     style="display:inline">
    <path
       style="display:inline;fill:#ffffff;fill-opacity:1;stroke-width:0.04319632"
       d="m 106.6728,190.09015 c -0.0596,-0.0596 -0.13256,-0.19478 -0.16213,-0.30039 -0.0529,-0.18905 -0.0514,-0.19475 0.0968,-0.36788 0.22661,-0.26474 0.33879,-0.65625 0.3654,-1.27518 0.023,-0.53479 -0.0685,-1.4229 -0.16943,-1.64437 -0.0712,-0.15628 -0.14024,-0.10501 -0.15386,0.11426 -0.0252,0.40529 -0.14711,1.18255 -0.24777,1.57936 -0.21961,0.86575 -0.59049,1.40756 -1.14377,1.67096 -0.24345,0.1159 -0.32865,0.13369 -0.64795,0.13534 -0.31625,0.002 -0.40159,-0.0148 -0.61046,-0.11735 -0.43646,-0.21435 -0.74379,-0.54196 -1.05769,-1.12754 -0.0946,-0.17651 -0.23133,-0.3336 -0.45109,-0.51835 -0.5398,-0.45382 -0.8062,-0.95032 -0.85028,-1.58473 -0.0387,-0.55696 0.1538,-1.02036 0.56105,-1.3506 0.43497,-0.35271 0.93508,-0.50239 1.78996,-0.53573 0.53938,-0.021 1.40179,0.0315 1.67634,0.10201 0.0475,0.0122 -0.0302,-0.0489 -0.17278,-0.13572 -1.57527,-0.95985 -2.27617,-1.86776 -2.2148,-2.86893 0.0563,-0.91934 0.86029,-1.55874 1.95985,-1.55874 0.3008,0 0.39404,-0.019 0.62807,-0.12793 0.85449,-0.39774 1.62635,-0.34673 2.14268,0.1416 0.46017,0.4352 0.61775,1.00979 0.46543,1.69709 -0.14146,0.63827 -0.37937,1.14407 -0.95924,2.03933 -0.17412,0.26882 -0.29209,0.47394 -0.26216,0.45582 0.0299,-0.0181 0.25852,-0.16728 0.50798,-0.33145 1.631,-1.07338 2.94926,-1.26937 3.72548,-0.55387 0.36922,0.34034 0.58308,0.91647 0.53444,1.43981 -0.0285,0.30693 -0.19799,0.89873 -0.33404,1.16657 -0.0533,0.10485 -0.0814,0.25112 -0.0814,0.42299 0,0.57331 -0.25921,1.3611 -0.54886,1.66813 -0.28678,0.30398 -0.73845,0.49158 -1.18352,0.49158 -0.26468,0 -0.70283,-0.1389 -0.9418,-0.29856 -0.4062,-0.2714 -0.8918,-0.81193 -1.32498,-1.47485 -0.14833,-0.227 -0.30393,-0.44082 -0.34577,-0.47516 -0.0698,-0.0572 -0.0737,-0.0534 -0.047,0.0456 0.23484,0.87147 0.29316,2.14978 0.12478,2.73533 -0.15262,0.53077 -0.33486,0.84997 -0.48528,0.84997 -0.0406,0 -0.12257,-0.0488 -0.18218,-0.10838 z"
       id="path3913-6"
       inkscape:connector-curvature="0" />
  </g>
  <g
     inkscape:groupmode="layer"
     id="layer2"
     inkscape:label="Text"
     style="display:inline"
     transform="translate(-95.363369,-176.07482)">
    <text
       xml:space="preserve"
       style="font-style:normal;font-variant:normal;font-weight:normal;font-stretch:normal;font-size:5.20525074px;line-height:1.25;font-family:'Russo One';letter-spacing:0.97598451px;word-spacing:0px;fill:#ffffff;fill-opacity:1;stroke:none;stroke-width:0.04879922;stroke-opacity:1"
       x="100.41208"
       y="196.13336"
       id="text7412-5">IIGL</text>
  </g>
</svg>
