<?xml version="1.0" encoding="UTF-8" standalone="no"?>
<!-- Created with Inkscape (http://www.inkscape.org/) -->

<svg
   xmlns:dc="http://purl.org/dc/elements/1.1/"
   xmlns:cc="http://creativecommons.org/ns#"
   xmlns:rdf="http://www.w3.org/1999/02/22-rdf-syntax-ns#"
   xmlns:svg="http://www.w3.org/2000/svg"
   xmlns="http://www.w3.org/2000/svg"
   xmlns:sodipodi="http://sodipodi.sourceforge.net/DTD/sodipodi-0.dtd"
   xmlns:inkscape="http://www.inkscape.org/namespaces/inkscape"
   width="405.63904mm"
   height="170.33408mm"
   viewBox="0 0 405.63906 170.33408"
   version="1.1"
   id="svg8"
   inkscape:version="0.92.1 r15371"
   sodipodi:docname="logo_full_title_varients.svg"
   inkscape:export-filename="C:\cygwin64\home\Dara\git\iigl\src\assets\img\logo\logo.png"
   inkscape:export-xdpi="447.5"
   inkscape:export-ydpi="447.5">
  <defs
     id="defs9013">
    <style
       id="style9008"
       type="text/css">
      @import url('https://fonts.googleapis.com/css?family=Russo+One');
    </style>
  </defs>
  <sodipodi:namedview
     id="base"
     pagecolor="#ffffff"
     bordercolor="#666666"
     borderopacity="1.0"
     inkscape:pageopacity="0.0"
     inkscape:pageshadow="2"
     inkscape:zoom="0.22670978"
     inkscape:cx="1091.5552"
     inkscape:cy="-166.6473"
     inkscape:document-units="mm"
     inkscape:current-layer="layer2"
     showgrid="false"
     inkscape:window-width="3440"
     inkscape:window-height="1377"
     inkscape:window-x="-8"
     inkscape:window-y="-8"
     inkscape:window-maximized="1"
     inkscape:snap-grids="false"
     inkscape:snap-to-guides="true"
     showguides="false">
    <inkscape:grid
       type="xygrid"
       id="grid7424"
       originx="85.381008"
       originy="217.44941" />
  </sodipodi:namedview>
  <metadata
     id="metadata5">
    <rdf:RDF>
      <cc:Work
         rdf:about="">
        <dc:format>image/svg+xml</dc:format>
        <dc:type
           rdf:resource="http://purl.org/dc/dcmitype/StillImage" />
        <dc:title></dc:title>
      </cc:Work>
    </rdf:RDF>
  </metadata>
  <g
     inkscape:groupmode="layer"
     id="layer5"
     inkscape:label="Shield"
     style="display:inline"
     transform="translate(130.03494,-198.97719)">
    <path
       style="display:inline;fill:#3d7915;fill-opacity:1;stroke-width:0.11835986"
       d="m -118.43998,121.27038 c -0.34545,-0.14612 -0.68899,-0.3266 -0.76342,-0.40104 -0.0744,-0.0744 -0.19126,-0.13545 -0.25962,-0.13558 -0.15269,0 -1.52179,-0.71086 -1.60377,-0.83233 -0.0326,-0.0482 -0.2456,-0.1725 -0.47344,-0.27615 -0.48847,-0.22223 -0.76529,-0.39346 -1.22133,-0.75543 -0.18453,-0.14648 -0.417,-0.26632 -0.51661,-0.26632 -0.0996,0 -0.44868,-0.21304 -0.77573,-0.47343 -0.32703,-0.2604 -0.66587,-0.47345 -0.75297,-0.47345 -0.0871,0 -0.46629,-0.2012 -0.84265,-0.44712 -0.90171,-0.58921 -1.10109,-0.71039 -1.45362,-0.88347 -0.16275,-0.0799 -0.3655,-0.23928 -0.45057,-0.35421 -0.0851,-0.11492 -0.22435,-0.20895 -0.30952,-0.20895 -0.0852,0 -0.29029,-0.10652 -0.45581,-0.23672 -0.16551,-0.1302 -0.38005,-0.23672 -0.47674,-0.23672 -0.0967,0 -0.2035,-0.0722 -0.23736,-0.16043 -0.0339,-0.0883 -0.35891,-0.32827 -0.72232,-0.53336 -0.36341,-0.20509 -0.75419,-0.44987 -0.86839,-0.54395 -0.24503,-0.20187 -1.13064,-0.83004 -2.0422,-1.44858 -0.35804,-0.24293 -0.69358,-0.5102 -0.74564,-0.59391 -0.052,-0.0837 -0.15571,-0.1522 -0.23035,-0.1522 -0.1831,0 -1.0574,-0.60021 -1.24997,-0.85812 -0.0851,-0.11391 -0.20162,-0.20713 -0.25901,-0.20713 -0.0574,0 -0.28073,-0.16327 -0.49632,-0.36283 -0.40813,-0.3778 -1.35885,-1.05748 -1.47916,-1.05748 -0.0381,0 -0.18596,-0.11984 -0.3286,-0.26631 -0.14263,-0.14647 -0.68136,-0.61098 -1.19717,-1.03225 -0.51581,-0.42128 -1.0477,-0.87401 -1.18198,-1.00606 -0.36813,-0.36208 -1.13495,-1.03424 -1.50402,-1.31839 -0.48693,-0.37489 -2.57215,-2.30889 -2.8573,-2.65006 -0.13601,-0.16275 -0.72839,-0.77527 -1.3164,-1.36114 -1.32443,-1.31963 -3.25102,-3.36247 -3.25102,-3.44718 0,-0.0346 -0.19974,-0.26214 -0.44385,-0.50553 -0.24412,-0.24339 -0.6569,-0.69907 -0.9173,-1.01262 -0.26038,-0.31355 -0.53695,-0.63598 -0.61458,-0.71653 -0.23508,-0.2439 -1.33835,-1.72341 -1.33835,-1.79476 0,-0.0366 -0.20355,-0.26017 -0.45233,-0.49675 -0.40322,-0.38348 -0.6345,-0.67689 -1.02717,-1.30314 -0.0651,-0.10381 -0.42462,-0.57518 -0.79893,-1.04746 -0.37431,-0.47229 -0.68056,-0.90869 -0.68056,-0.96978 0,-0.0611 -0.0682,-0.18146 -0.15142,-0.26748 -0.20519,-0.21195 -1.26891,-1.7486 -1.26891,-1.83307 0,-0.0371 -0.16163,-0.26093 -0.35919,-0.49736 -0.55206,-0.6607 -0.56236,-0.67563 -0.75833,-1.09833 -0.10117,-0.21824 -0.28907,-0.55658 -0.41757,-0.75188 -0.1285,-0.19529 -0.34316,-0.54149 -0.47702,-0.76933 -0.13387,-0.22785 -0.3351,-0.55279 -0.44719,-0.72211 -0.22129,-0.33429 -0.48021,-0.73979 -0.71033,-1.11247 -0.0804,-0.1302 -0.20472,-0.36987 -0.2763,-0.53261 -0.15432,-0.35087 -0.10036,-0.25276 -1.20432,-2.18967 -0.48233,-0.84627 -1.01914,-1.83161 -1.19289,-2.18965 -0.17376,-0.35805 -0.36504,-0.73088 -0.42508,-0.82853 -0.15161,-0.24657 -1.18845,-2.47495 -1.18845,-2.55423 0,-0.12833 -0.73816,-1.5917 -0.83223,-1.64983 -0.053,-0.0328 -0.13043,-0.2144 -0.17199,-0.40359 -0.0416,-0.1892 -0.1788,-0.46305 -0.305,-0.60855 -0.1262,-0.14551 -0.22945,-0.40795 -0.22945,-0.58319 0,-0.17524 -0.10653,-0.41503 -0.23672,-0.53285 -0.14248,-0.12895 -0.23672,-0.36455 -0.23672,-0.5918 0,-0.22726 -0.0942,-0.46286 -0.23673,-0.5918 -0.13019,-0.11783 -0.23671,-0.35391 -0.23671,-0.52463 0,-0.17072 -0.077,-0.42033 -0.17112,-0.5547 -0.0941,-0.13436 -0.23572,-0.505728 -0.31469,-0.82526 -0.079,-0.319534 -0.24166,-0.707992 -0.36151,-0.863242 -0.11985,-0.155246 -0.21792,-0.428351 -0.21792,-0.606894 0,-0.178545 -0.0753,-0.38709 -0.16725,-0.463434 -0.092,-0.07634 -0.20314,-0.399759 -0.24701,-0.718696 -0.0439,-0.318941 -0.15241,-0.640187 -0.24121,-0.713884 -0.0888,-0.0737 -0.19736,-0.382631 -0.24125,-0.686524 -0.0439,-0.30389 -0.15057,-0.685685 -0.23707,-0.84843 -0.0865,-0.162745 -0.20962,-0.535579 -0.2736,-0.828517 -0.11293,-0.517076 -0.36248,-1.345658 -0.62384,-2.071299 -0.0703,-0.195295 -0.18052,-0.62139 -0.24486,-0.946879 -0.0644,-0.32549 -0.21414,-0.831478 -0.33289,-1.124419 -0.11875,-0.29294 -0.24731,-0.762732 -0.28569,-1.043981 -0.0384,-0.281249 -0.14212,-0.627452 -0.23052,-0.769339 -0.0884,-0.141888 -0.19385,-0.600157 -0.23433,-1.018377 -0.0414,-0.427828 -0.15417,-0.849421 -0.2578,-0.963941 -0.10132,-0.111949 -0.21035,-0.462174 -0.2423,-0.778279 -0.0319,-0.316105 -0.13308,-0.814415 -0.22474,-1.107356 -0.0916,-0.292941 -0.2015,-0.878822 -0.2441,-1.301958 -0.0426,-0.423137 -0.14634,-0.879635 -0.23053,-1.014443 -0.0842,-0.134806 -0.1917,-0.560902 -0.23891,-0.946878 -0.0472,-0.385976 -0.18539,-0.956742 -0.30707,-1.268367 -0.13435,-0.344109 -0.22123,-0.865341 -0.22123,-1.327411 0,-0.418452 -0.0819,-1.002178 -0.18209,-1.297169 -0.10015,-0.294992 -0.25513,-1.082466 -0.34439,-1.749944 -0.0893,-0.667479 -0.21593,-1.426645 -0.28147,-1.687037 -0.0655,-0.260392 -0.15708,-1.112582 -0.2034,-1.893757 -0.0463,-0.781175 -0.13582,-1.553474 -0.19886,-1.716218 -0.36176,-0.933713 -0.68592,-16.64906 -0.45654,-22.133289 0.0694,-1.66 0.16056,-6.79978 0.20252,-11.42173 0.0612,-6.7424 0.10818,-8.46672 0.23764,-8.72316 0.0888,-0.17579 0.16136,-0.4293 0.16136,-0.56337 0,-0.13406 0.11306,-0.33644 0.25123,-0.44972 0.13818,-0.11329 0.34861,-0.30641 0.46762,-0.42917 0.20595,-0.21245 0.52265,-0.22466 6.58404,-0.25388 4.09268,-0.0197 6.68482,-0.0798 7.25537,-0.16818 0.48823,-0.0756 2.13935,-0.18514 3.66916,-0.24338 1.52979,-0.0582 2.9945,-0.16709 3.25489,-0.24188 0.26039,-0.0748 1.08595,-0.20825 1.83458,-0.29658 0.74862,-0.0883 1.60082,-0.2111 1.89376,-0.27283 0.29294,-0.0617 1.06523,-0.14919 1.71621,-0.19437 0.65098,-0.0451 1.34339,-0.16001 1.53868,-0.2552 0.1953,-0.0952 0.76677,-0.22061 1.26995,-0.27869 0.50318,-0.0581 1.02735,-0.16583 1.16484,-0.23941 0.13748,-0.0736 0.75107,-0.18119 1.36354,-0.23913 0.61247,-0.058 1.26005,-0.17923 1.43908,-0.26951 0.17903,-0.0903 0.62227,-0.19753 0.98499,-0.23832 0.36272,-0.0408 0.81545,-0.14927 1.00607,-0.24106 0.1906,-0.0918 0.70278,-0.20285 1.13816,-0.24681 0.43539,-0.0439 0.85085,-0.15128 0.92325,-0.23852 0.0724,-0.0872 0.40859,-0.19561 0.74707,-0.24084 0.33849,-0.0452 0.69922,-0.1561 0.80163,-0.2464 0.10241,-0.0903 0.4486,-0.19795 0.76934,-0.23922 0.32073,-0.0413 0.74922,-0.17471 0.9522,-0.29651 0.20297,-0.1218 0.55123,-0.22146 0.7739,-0.22146 0.22267,0 0.61379,-0.10652 0.86916,-0.23672 0.25538,-0.13019 0.61793,-0.23672 0.80568,-0.23672 0.18776,0 0.48276,-0.0988 0.65555,-0.21946 0.17279,-0.1207 0.47396,-0.25569 0.66925,-0.29998 0.19529,-0.0443 0.51487,-0.15611 0.71016,-0.24849 0.19529,-0.0924 0.55761,-0.19999 0.80515,-0.23916 0.24754,-0.0392 0.47904,-0.14671 0.51445,-0.239 0.0354,-0.0923 0.25898,-0.20184 0.49682,-0.24348 0.23783,-0.0416 0.55185,-0.15056 0.69783,-0.24207 0.14598,-0.0915 0.50397,-0.1991 0.79555,-0.23907 0.37691,-0.0516 0.58323,-0.15367 0.71379,-0.35293 0.101,-0.15416 0.28284,-0.28027 0.4041,-0.28027 0.12126,0 0.37302,-0.0796 0.55948,-0.17682 0.18646,-0.0972 0.45886,-0.17713 0.60534,-0.17753 0.14647,-3.4e-4 0.36986,-0.10429 0.49642,-0.23085 0.12657,-0.12657 0.4176,-0.2653 0.64676,-0.30828 0.22916,-0.043 0.47616,-0.14988 0.5489,-0.23753 0.0727,-0.0876 0.36906,-0.19486 0.65849,-0.23826 0.3369,-0.0505 0.56913,-0.15907 0.64546,-0.30171 0.0803,-0.14993 0.24862,-0.22279 0.51488,-0.22279 0.2176,0 0.58684,-0.0799 0.82055,-0.17754 0.5306,-0.22169 1.17507,-0.22746 1.5924,-0.0143 0.17579,0.0898 0.50603,0.20226 0.73388,0.2499 0.22783,0.0476 0.50086,0.16285 0.6067,0.25603 0.10585,0.0932 0.39879,0.20099 0.65098,0.23956 0.25219,0.0386 0.53843,0.13689 0.63607,0.21849 0.0976,0.0816 0.35606,0.18634 0.57426,0.23276 0.2182,0.0464 0.49782,0.1855 0.62139,0.30907 0.12357,0.12357 0.32616,0.22467 0.4502,0.22467 0.12405,0 0.43031,0.10033 0.68058,0.22296 0.25026,0.12263 0.58818,0.28202 0.75093,0.35422 0.16274,0.0722 0.37579,0.18099 0.47344,0.24178 0.19022,0.11842 1.11075,0.43192 1.75446,0.59751 0.21632,0.0557 0.48613,0.18517 0.59957,0.28783 0.11343,0.10265 0.38916,0.2222 0.61273,0.26567 0.22357,0.0435 0.59212,0.17725 0.819,0.29731 0.22688,0.12005 0.53805,0.21827 0.69149,0.21827 0.15344,0 0.41441,0.10653 0.57993,0.23673 0.16711,0.13144 0.48016,0.23672 0.70395,0.23672 0.22166,0 0.61181,0.10652 0.86702,0.23671 0.2552,0.1302 0.61873,0.23672 0.80784,0.23672 0.18911,0 0.47085,0.0984 0.62611,0.21868 0.15524,0.12029 0.54217,0.25337 0.85984,0.29575 0.31767,0.0424 0.75004,0.18365 0.96085,0.31393 0.2108,0.13029 0.55274,0.23688 0.75985,0.23688 0.207122,0 0.533562,0.0812 0.725442,0.1804 0.19187,0.0992 0.73516,0.22945 1.20731,0.2894 0.47215,0.0599 1.056469,0.19182 1.298499,0.29304 0.24203,0.10122 0.62837,0.18404 0.85854,0.18404 0.23017,0 0.61723,0.10653 0.86015,0.23672 0.27564,0.14774 0.6678,0.23672 1.04323,0.23672 0.330853,0 0.99741,0.10527 1.481247,0.23393 0.48384,0.12867 1.13072,0.23519 1.43753,0.23672 0.30681,0.002 0.8128,0.10228 1.12443,0.22387 0.31335,0.12228 1.06916,0.25807 1.69102,0.30382 0.61843,0.0455 1.41736,0.15402 1.77539,0.24116 0.35804,0.0871 1.13924,0.19374 1.73598,0.23691 0.59673,0.0432 1.36903,0.1576 1.71622,0.25428 0.39573,0.1102 1.62486,0.21622 3.29434,0.28417 1.46471,0.0596 3.06257,0.16813 3.5508,0.24113 0.50871,0.0761 3.59112,0.16603 7.219961,0.21073 l 6.33225,0.078 0.5918,0.36291 c 0.66759,0.40939 0.65041,0.35619 0.89564,2.77363 0.19982,1.97002996 0.21089,38.316239 0.0121,39.76891 -0.0846,0.61843 -0.21998,1.896716 -0.3008,2.840636 -0.0808,0.94392 -0.20397,1.822741 -0.27371,1.952938 -0.0697,0.130196 -0.1867,0.752902 -0.25989,1.383792 -0.0732,0.630891 -0.18464,1.282647 -0.24764,1.448348 -0.063,0.165702 -0.17194,0.76802 -0.24209,1.338484 -0.0701,0.570465 -0.20488,1.299871 -0.29942,1.620901 -0.0945,0.321031 -0.17423,0.800388 -0.17708,1.065238 -0.003,0.264852 -0.0876,0.694595 -0.18841,0.954987 -0.10076,0.260392 -0.23519,0.816679 -0.29873,1.236193 -0.0636,0.419514 -0.18749,0.935012 -0.27546,1.14555 -0.088,0.210539 -0.19724,0.69286 -0.24283,1.071825 -0.0456,0.378964 -0.15109,0.76892 -0.23441,0.866566 -0.0833,0.09765 -0.20498,0.550374 -0.27033,1.006059 -0.0653,0.455686 -0.2015,1.041567 -0.30258,1.301958 -0.10109,0.260392 -0.18612,0.682294 -0.18898,0.93756 -0.003,0.255265 -0.0846,0.551909 -0.18175,0.659207 -0.0971,0.107299 -0.22915,0.472444 -0.29344,0.811434 -0.0643,0.338991 -0.17831,0.731117 -0.25339,0.871391 -0.0751,0.140274 -0.20496,0.52499 -0.28863,0.854924 -0.0837,0.329933 -0.23409,0.812927 -0.33422,1.07332 -0.10013,0.260391 -0.1844,0.595151 -0.18725,0.743912 -0.003,0.148761 -0.0791,0.388438 -0.16945,0.532619 -0.0903,0.144178 -0.20143,0.473352 -0.24687,0.731495 -0.0455,0.25814 -0.15337,0.606187 -0.23985,0.773428 -0.0865,0.167244 -0.19616,0.515287 -0.24373,0.77343 -0.0476,0.258143 -0.18528,0.596372 -0.30604,0.751622 -0.12077,0.155246 -0.21957,0.417366 -0.21957,0.58248 0,0.165113 -0.0718,0.384294 -0.15957,0.487067 -0.15049,0.176202 -0.2963,0.546576 -0.73755,1.873488 -0.10284,0.30921 -0.26262,0.70358 -0.35508,0.87637 -0.0925,0.17279 -0.16812,0.39424 -0.16812,0.49211 0,0.0979 -0.14025,0.46248 -0.31167,0.81025 -0.29207,0.5925 -0.42948,0.89146 -1.025,2.23017 -0.13033,0.29294 -0.28268,0.61252 -0.33859,0.71016 -0.0559,0.0977 -0.134101,0.25744 -0.173791,0.35508 -0.41315,1.01669 -1.81655,3.79756 -2.02021,4.0031 -0.0852,0.086 -0.15498,0.26404 -0.15498,0.39559 0,0.13155 -0.10652,0.37461 -0.23672,0.54013 -0.13019,0.16551 -0.23672,0.37856 -0.23672,0.47344 0,0.0949 -0.10652,0.30792 -0.23671,0.47344 -0.1302,0.16552 -0.23672,0.39376 -0.23672,0.50721 0,0.11344 -0.0881,0.27936 -0.19588,0.3687 -0.10773,0.0893 -0.2683,0.32223 -0.35684,0.51752 -0.20265,0.447 -0.38236,0.73723 -0.71965,1.16216 -0.14647,0.18452 -0.26631,0.40306 -0.26631,0.48562 0,0.0826 -0.10653,0.24651 -0.23672,0.36434 -0.13019,0.11783 -0.23672,0.2835 -0.23672,0.36817 0,0.0847 -0.13414,0.35603 -0.29806,0.60304 -0.16394,0.24701 -0.34927,0.529 -0.41184,0.62665 -0.0626,0.0977 -0.35454,0.54122 -0.64881,0.98573 -0.29428,0.4445 -0.53505,0.87566 -0.53505,0.95813 0,0.0825 -0.10728,0.24701 -0.23839,0.36567 -0.13111,0.11865 -0.42066,0.48642 -0.64345,0.81727 -1.03226,1.53298 -1.98309,2.87649 -2.22665,3.14627 -0.14695,0.16274 -0.42557,0.53558 -0.61916,0.82852 -0.19357,0.29294 -0.45934,0.64947 -0.59059,0.79229 -0.13125,0.14282 -0.33183,0.36034 -0.44575,0.48337 -0.11392,0.12303 -0.20713,0.2623 -0.20713,0.30947 0,0.0838 -1.86638,2.42658 -2.23864,2.81006 -0.10327,0.10639 -0.40081,0.44853 -0.6612,0.76032 -0.67807,0.81192 -2.19139,2.42153 -3.46204,3.6823 -0.60215,0.59748 -1.09483,1.11144 -1.09483,1.14214 0,0.1162 -1.03521,1.14587 -1.15205,1.14587 -0.0673,0 -0.30542,0.19974 -0.52916,0.44385 -0.49417,0.53922 -2.767677,2.63351 -2.858847,2.63351 -0.0359,0 -0.19162,0.11983 -0.34611,0.26631 -0.7167,0.67951 -1.7497,1.51768 -2.025159,1.64318 -0.16724,0.0762 -0.33533,0.23699 -0.37351,0.35732 -0.0382,0.1203 -0.14309,0.21875 -0.23312,0.21875 -0.09,0 -0.20627,0.0666 -0.25833,0.14795 -0.0521,0.0814 -0.36096,0.33035 -0.68645,0.55331 -0.32549,0.22294 -0.67786,0.48925 -0.78305,0.5918 -0.10518,0.10253 -0.312332,0.26633 -0.460322,0.36397 -0.14798,0.0977 -0.41581,0.29738 -0.59517,0.44385 -0.17936,0.14647 -0.38171,0.26631 -0.44967,0.26631 -0.068,0 -0.29995,0.16371 -0.51553,0.36379 -0.21559,0.2001 -0.5943,0.46882 -0.84159,0.59715 -0.2473,0.12835 -0.47935,0.31084 -0.5157,0.40555 -0.0363,0.0947 -0.11127,0.17219 -0.16651,0.17219 -0.11781,0 -0.91935,0.51207 -1.17619,0.75143 -0.0976,0.091 -0.29246,0.20086 -0.43292,0.24413 -0.14045,0.0433 -0.28525,0.15656 -0.32177,0.25173 -0.0365,0.0952 -0.1536,0.17303 -0.26016,0.17303 -0.10657,0 -0.35201,0.13315 -0.54542,0.2959 -0.19341,0.16275 -0.42746,0.2959 -0.52011,0.2959 -0.0926,0 -0.16846,0.056 -0.16846,0.1244 0,0.0684 -0.17734,0.1985 -0.39409,0.28907 -0.21675,0.0906 -0.46296,0.24762 -0.54711,0.34903 -0.0842,0.10141 -0.20031,0.18438 -0.25811,0.18438 -0.0578,0 -0.35753,0.1766 -0.66607,0.39245 -0.54727,0.38286 -2.61255,1.59999 -3.38459,1.99467 -0.21244,0.10859 -0.45618,0.28169 -0.54163,0.38467 -0.0855,0.10296 -0.22495,0.18721 -0.30997,0.18721 -0.085,0 -0.23053,0.0759 -0.32334,0.16874 -0.0928,0.0928 -0.34961,0.25153 -0.57067,0.3527 -0.40427,0.18504 -0.62386,0.31048 -1.17354,0.67036 -0.164,0.10737 -0.43031,0.23588 -0.5918,0.28554 -0.16148,0.0497 -0.36403,0.14676 -0.4501,0.21576 -0.20213,0.16204 -1.46434,0.67687 -1.61891,0.66032 -0.0651,-0.007 -0.401,-0.13223 -0.74644,-0.27837 z"
       id="path4734"
       inkscape:connector-curvature="0" />
  </g>
  <g
     inkscape:groupmode="layer"
     id="layer4"
     inkscape:label="Shamrock"
     transform="translate(84.075228,-277.66398)"
     style="display:inline">
    <path
       style="display:inline;fill:#ffffff;fill-opacity:1;stroke-width:0.21009138"
       d="m -73.599564,131.14235 c -0.28991,-0.2899 -0.64476,-0.94736 -0.78858,-1.46101 -0.25743,-0.91945 -0.25014,-0.94717 0.47063,-1.78924 1.10215,-1.2876 1.64778,-3.19175 1.77718,-6.20199 0.11181,-2.60106 -0.33325,-6.92049 -0.82403,-7.99765 -0.34631,-0.76008 -0.6821,-0.51071 -0.74834,0.55573 -0.12243,1.9712 -0.71547,5.75149 -1.20503,7.68143 -1.06814,4.21071 -2.87192,6.84588 -5.56292,8.12696 -1.18403,0.56367 -1.59841,0.65022 -3.15138,0.65824 -1.53814,0.008 -1.95317,-0.0718 -2.96904,-0.57074 -2.12281,-1.0425 -3.61753,-2.63592 -5.14425,-5.48394 -0.46022,-0.85851 -1.12508,-1.62251 -2.19393,-2.52109 -2.62541,-2.20719 -3.921084,-4.62199 -4.135464,-7.70755 -0.18822,-2.70886 0.748014,-4.96264 2.728734,-6.56881 2.11553,-1.71549 4.54789,-2.44349 8.70574,-2.60561 2.62335,-0.10229 6.81783,0.15294 8.15314,0.49611 0.23111,0.0594 -0.14706,-0.23765 -0.84037,-0.6601 -7.66153,-4.66836 -11.07046,-9.08408 -10.772,-13.95343 0.27404,-4.47131 4.18414,-7.58114 9.53201,-7.58114 1.46301,0 1.91648,-0.0924 3.05471,-0.62218 4.15593,-1.93446 7.909981,-1.68639 10.421241,0.68867 2.23809,2.11668 3.0045,4.91126 2.26366,8.25401 -0.688,3.10434 -1.84512,5.56438 -4.66537,9.91859 -0.84686,1.30746 -1.42064,2.30507 -1.27507,2.21692 0.14556,-0.0882 1.25735,-0.81357 2.47063,-1.61204 7.9326,-5.22052 14.34414,-6.17373 18.119389,-2.69382 1.79579,1.6553 2.83589,4.45739 2.599323,7.00274 -0.13873,1.49276 -0.962933,4.3711 -1.624643,5.67379 -0.25903,0.50992 -0.39594,1.22133 -0.39594,2.05724 0,2.7884 -1.26068,6.61991 -2.669459,8.11321 -1.39478,1.47844 -3.59154,2.39087 -5.7562,2.39087 -1.28731,0 -3.41833,-0.67556 -4.58056,-1.45209 -1.97565,-1.32003 -4.33743,-3.94893 -6.44425,-7.17314 -0.72143,-1.10405 -1.4782,-2.144 -1.6817,-2.31101 -0.339261,-0.27841 -0.358251,-0.25999 -0.22848,0.22159 1.1422,4.23848 1.42581,10.45573 0.60689,13.30365 -0.742311,2.58147 -1.628661,4.13393 -2.360211,4.13393 -0.19743,0 -0.59616,-0.23719 -0.88606,-0.5271 z"
       id="path3913-6"
       inkscape:connector-curvature="0" />
  </g>
  <g
     inkscape:groupmode="layer"
     id="layer2"
     inkscape:label="Text"
     style="display:inline"
     transform="translate(84.075228,-277.66398)">
    <text
       xml:space="preserve"
       style="font-style:normal;font-variant:normal;font-weight:normal;font-stretch:normal;font-size:25.31646729px;line-height:1.25;font-family:'Russo One';letter-spacing:4.74683762px;word-spacing:0px;fill:#ffffff;fill-opacity:1;stroke:none;stroke-width:0.23734188;stroke-opacity:1"
       x="-104.04961"
       y="160.53433"
       id="text7412-5">IIGL</text>
    <text
       xml:space="preserve"
       style="font-style:normal;font-variant:normal;font-weight:normal;font-stretch:normal;font-size:100.85454559px;line-height:1.25;font-family:'Russo One';letter-spacing:18.91022682px;word-spacing:0px;display:inline;fill:#3d7915;fill-opacity:1;stroke:none;stroke-width:0.94551134;stroke-opacity:1"
       x="-4.784266"
       y="168.98866"
       id="text7412-5-4"><tspan
         style="font-size:50.79999924px;line-height:0;letter-spacing:0px"
         id="tspan5662"
         dy="-50">Irish Interfirms </tspan></text>
    <text
       xml:space="preserve"
       style="font-style:normal;font-variant:normal;font-weight:normal;font-stretch:normal;font-size:100.85454559px;line-height:1.25;font-family:'Russo One';letter-spacing:18.91022682px;word-spacing:0px;display:inline;fill:#3d7915;fill-opacity:1;stroke:none;stroke-width:0.94551134;stroke-opacity:1"
       x="-4.784266"
       y="168.98866"
       id="text5664"><tspan
         style="font-size:50.79999924px;line-height:0;letter-spacing:0px"
         id="tspan5666">Gaming League</tspan></text>
    <path
       style="display:inline;fill:#3d7915;fill-opacity:1;stroke-width:0.11835986"
       d="m 118.2023,414.66204 c -0.34545,-0.14612 -0.68899,-0.3266 -0.76342,-0.40104 -0.0744,-0.0744 -0.19126,-0.13545 -0.25962,-0.13558 -0.15269,0 -1.52179,-0.71086 -1.60377,-0.83233 -0.0326,-0.0482 -0.2456,-0.1725 -0.47344,-0.27615 -0.48847,-0.22223 -0.76529,-0.39346 -1.22133,-0.75543 -0.18453,-0.14648 -0.417,-0.26632 -0.51661,-0.26632 -0.0996,0 -0.44868,-0.21304 -0.77573,-0.47343 -0.32703,-0.2604 -0.66587,-0.47345 -0.75297,-0.47345 -0.0871,0 -0.46629,-0.2012 -0.84265,-0.44712 -0.90171,-0.58921 -1.10109,-0.71039 -1.45362,-0.88347 -0.16275,-0.0799 -0.3655,-0.23928 -0.45057,-0.35421 -0.0851,-0.11492 -0.22435,-0.20895 -0.30952,-0.20895 -0.0852,0 -0.29029,-0.10652 -0.45581,-0.23672 -0.16551,-0.1302 -0.38005,-0.23672 -0.47674,-0.23672 -0.0967,0 -0.2035,-0.0722 -0.23736,-0.16043 -0.0339,-0.0883 -0.35891,-0.32827 -0.72232,-0.53336 -0.36341,-0.20509 -0.75419,-0.44987 -0.86839,-0.54395 -0.24503,-0.20187 -1.13064,-0.83004 -2.0422,-1.44858 -0.35804,-0.24293 -0.69358,-0.5102 -0.74564,-0.59391 -0.052,-0.0837 -0.15571,-0.1522 -0.23035,-0.1522 -0.1831,0 -1.0574,-0.60021 -1.24997,-0.85812 -0.0851,-0.11391 -0.20162,-0.20713 -0.25901,-0.20713 -0.0574,0 -0.28073,-0.16327 -0.49632,-0.36283 -0.40813,-0.3778 -1.358849,-1.05748 -1.479159,-1.05748 -0.0381,0 -0.18596,-0.11984 -0.3286,-0.26631 -0.14263,-0.14647 -0.68136,-0.61098 -1.19717,-1.03225 -0.5158,-0.42128 -1.04769,-0.87401 -1.18197,-1.00606 -0.36813,-0.36208 -1.13495,-1.03424 -1.50402,-1.31839 -0.48693,-0.37489 -2.57215,-2.30889 -2.8573,-2.65006 -0.13601,-0.16275 -0.72839,-0.77527 -1.3164,-1.36114 -1.32443,-1.31963 -3.25102,-3.36247 -3.25102,-3.44718 0,-0.0346 -0.19974,-0.26214 -0.44385,-0.50553 -0.24412,-0.24339 -0.6569,-0.69907 -0.9173,-1.01262 -0.26038,-0.31355 -0.53695,-0.63598 -0.61458,-0.71653 -0.23508,-0.2439 -1.33835,-1.72341 -1.33835,-1.79476 0,-0.0366 -0.20355,-0.26017 -0.45233,-0.49675 -0.40322,-0.38348 -0.6345,-0.67689 -1.02717,-1.30314 -0.0651,-0.10381 -0.42462,-0.57518 -0.79893,-1.04746 -0.37431,-0.47229 -0.68056,-0.90869 -0.68056,-0.96978 0,-0.0611 -0.0682,-0.18146 -0.15142,-0.26748 -0.20519,-0.21195 -1.26891,-1.7486 -1.26891,-1.83307 0,-0.0371 -0.16163,-0.26093 -0.35919,-0.49736 -0.55206,-0.6607 -0.56236,-0.67563 -0.75833,-1.09833 -0.10117,-0.21824 -0.28907,-0.55658 -0.41757,-0.75188 -0.1285,-0.19529 -0.34316,-0.54149 -0.47702,-0.76934 -0.13387,-0.22784 -0.3351,-0.55279 -0.44719,-0.72211 -0.22129,-0.33428 -0.48021,-0.73979 -0.71033,-1.11247 -0.0804,-0.13019 -0.20472,-0.36987 -0.2763,-0.53261 -0.15432,-0.35087 -0.10036,-0.25276 -1.20432,-2.18966 -0.48233,-0.84627 -1.01914,-1.83162 -1.19289,-2.18966 -0.17376,-0.35804 -0.36504,-0.73087 -0.42508,-0.82852 -0.15161,-0.24657 -1.18845,-2.47496 -1.18845,-2.55423 0,-0.12834 -0.73816,-1.5917 -0.83223,-1.64984 -0.053,-0.0328 -0.13043,-0.2144 -0.17199,-0.40359 -0.0416,-0.18919 -0.1788,-0.46304 -0.305,-0.60855 -0.1262,-0.14551 -0.22945,-0.40794 -0.22945,-0.58318 0,-0.17525 -0.10653,-0.41503 -0.23672,-0.53286 -0.14248,-0.12894 -0.23672,-0.36454 -0.23672,-0.5918 0,-0.22725 -0.0942,-0.46286 -0.23673,-0.5918 -0.13019,-0.11782 -0.23671,-0.35391 -0.23671,-0.52463 0,-0.17072 -0.077,-0.42033 -0.17112,-0.55469 -0.0941,-0.13436 -0.23572,-0.50573 -0.31469,-0.82526 -0.079,-0.31954 -0.24166,-0.708 -0.36151,-0.86325 -0.11985,-0.15524 -0.21792,-0.42835 -0.21792,-0.60689 0,-0.17855 -0.0753,-0.38709 -0.16725,-0.46343 -0.092,-0.0763 -0.20314,-0.39976 -0.24701,-0.7187 -0.0439,-0.31894 -0.15241,-0.64019 -0.24121,-0.71389 -0.0888,-0.0737 -0.19736,-0.38263 -0.24125,-0.68652 -0.0439,-0.30389 -0.15057,-0.68568 -0.23707,-0.84843 -0.0865,-0.16274 -0.20962,-0.53558 -0.2736,-0.82852 -0.11293,-0.51707 -0.36248,-1.34565 -0.62384,-2.07129 -0.0703,-0.1953 -0.18052,-0.62139 -0.24486,-0.94688 -0.0644,-0.32549 -0.21414,-0.83148 -0.33289,-1.12442 -0.11875,-0.29294 -0.24731,-0.76274 -0.28569,-1.04398 -0.0384,-0.28125 -0.14212,-0.62746 -0.23052,-0.76934 -0.0884,-0.14189 -0.19385,-0.60016 -0.23433,-1.01838 -0.0414,-0.42783 -0.15417,-0.84942 -0.2578,-0.96394 -0.10132,-0.11195 -0.21035,-0.46218 -0.2423,-0.77828 -0.0319,-0.3161 -0.13308,-0.81441 -0.22474,-1.10736 -0.0916,-0.29294 -0.2015,-0.87882 -0.2441,-1.30196 -0.0426,-0.42313 -0.14634,-0.87963 -0.23053,-1.01444 -0.0842,-0.1348 -0.1917,-0.5609 -0.23891,-0.94687 -0.0472,-0.38598 -0.18539,-0.95675 -0.30707,-1.26837 -0.13435,-0.34411 -0.22123,-0.86534 -0.22123,-1.32741 0,-0.41846 -0.0819,-1.00218 -0.18209,-1.29717 -0.10015,-0.29499 -0.25513,-1.08247 -0.3444,-1.74994 -0.0893,-0.66749 -0.21593,-1.42665 -0.28147,-1.68704 -0.0655,-0.2604 -0.15708,-1.11258 -0.2034,-1.89376 -0.0463,-0.78118 -0.13582,-1.55347 -0.19886,-1.71622 -0.36176,-0.93371 -0.68592,-16.64906 -0.45654,-22.13329 0.0694,-1.66 0.16056,-6.79977 0.20252,-11.42173 0.0612,-6.7424 0.10818,-8.46672 0.23764,-8.72316 0.0888,-0.17579 0.16136,-0.4293 0.16136,-0.56337 0,-0.13406 0.11306,-0.33644 0.25123,-0.44972 0.13818,-0.11329 0.34862,-0.30641 0.46763,-0.42917 0.20595,-0.21245 0.52265,-0.22466 6.58404,-0.25388 4.09268,-0.0197 6.68482,-0.0798 7.25537,-0.16818 0.48823,-0.0756 2.13935,-0.18514 3.66916,-0.24338 1.52979,-0.0582 2.9945,-0.16709 3.25489,-0.24188 0.26039,-0.0748 1.08595,-0.20825 1.83458,-0.29658 0.74862,-0.0883 1.60082,-0.2111 1.89376,-0.27283 0.29294,-0.0617 1.06523,-0.14919 1.71621,-0.19437 0.65098,-0.0451 1.34339,-0.16001 1.53868,-0.2552 0.1953,-0.0952 0.76677,-0.22061 1.26995,-0.27869 0.50318,-0.0581 1.02735,-0.16583 1.16484,-0.23941 0.13748,-0.0736 0.75107,-0.18119 1.36354,-0.23913 0.61247,-0.058 1.26005,-0.17923 1.43908,-0.26951 0.17903,-0.0903 0.62227,-0.19753 0.98499,-0.23832 0.36271,-0.0408 0.81544,-0.14927 1.00606,-0.24106 0.1906,-0.0918 0.70278,-0.20285 1.13816,-0.24681 0.435389,-0.0439 0.850849,-0.15128 0.923249,-0.23852 0.0724,-0.0872 0.40859,-0.19561 0.74707,-0.24084 0.33849,-0.0452 0.69922,-0.1561 0.80163,-0.2464 0.10241,-0.0903 0.4486,-0.19795 0.76934,-0.23922 0.32073,-0.0413 0.74922,-0.17471 0.9522,-0.29651 0.20297,-0.1218 0.55123,-0.22146 0.7739,-0.22146 0.22267,0 0.61379,-0.10652 0.86916,-0.23672 0.25538,-0.13019 0.61793,-0.23672 0.80568,-0.23672 0.18776,0 0.48276,-0.0988 0.65555,-0.21946 0.17279,-0.1207 0.47396,-0.25569 0.66925,-0.29998 0.19529,-0.0443 0.51487,-0.15611 0.71016,-0.24849 0.19529,-0.0924 0.55761,-0.19999 0.80515,-0.23916 0.24754,-0.0391 0.47904,-0.14671 0.51445,-0.239 0.0354,-0.0923 0.25898,-0.20184 0.49682,-0.24348 0.23783,-0.0416 0.55185,-0.15056 0.69783,-0.24207 0.14598,-0.0915 0.50397,-0.1991 0.79555,-0.23907 0.37691,-0.0516 0.58323,-0.15367 0.71379,-0.35293 0.101,-0.15416 0.28284,-0.28027 0.4041,-0.28027 0.12126,0 0.37302,-0.0796 0.55948,-0.17682 0.18646,-0.0972 0.45886,-0.17713 0.60534,-0.17753 0.14647,-3.4e-4 0.36986,-0.10429 0.49642,-0.23085 0.12657,-0.12657 0.4176,-0.2653 0.64676,-0.30828 0.22916,-0.043 0.47616,-0.14988 0.5489,-0.23753 0.0727,-0.0876 0.36906,-0.19486 0.65849,-0.23826 0.3369,-0.0505 0.56913,-0.15907 0.64546,-0.30171 0.0803,-0.14993 0.24862,-0.22279 0.51488,-0.22279 0.2176,0 0.58684,-0.0799 0.82055,-0.17754 0.5306,-0.22169 1.17507,-0.22746 1.5924,-0.0143 0.17579,0.0898 0.50603,0.20226 0.73388,0.2499 0.22783,0.0476 0.50086,0.16285 0.6067,0.25603 0.10585,0.0932 0.39879,0.20099 0.65098,0.23956 0.25219,0.0386 0.53843,0.13689 0.63607,0.21849 0.0976,0.0816 0.35606,0.18634 0.57426,0.23276 0.2182,0.0464 0.49782,0.1855 0.62139,0.30907 0.12357,0.12357 0.32616,0.22467 0.4502,0.22467 0.12405,0 0.43031,0.10033 0.68058,0.22296 0.25026,0.12263 0.58818,0.28202 0.75093,0.35422 0.16274,0.0722 0.37579,0.18099 0.47344,0.24178 0.19022,0.11842 1.11075,0.43192 1.75446,0.59751 0.21632,0.0557 0.48613,0.18517 0.59957,0.28783 0.11343,0.10265 0.38916,0.2222 0.61273,0.26567 0.22357,0.0435 0.59212,0.17725 0.819,0.29731 0.22688,0.12005 0.53805,0.21827 0.69149,0.21827 0.15344,0 0.41441,0.10653 0.57993,0.23673 0.16711,0.13144 0.48016,0.23672 0.70395,0.23672 0.22166,0 0.61181,0.10652 0.86702,0.23671 0.2552,0.1302 0.61873,0.23672 0.80784,0.23672 0.18911,0 0.47085,0.0984 0.62611,0.21868 0.15524,0.12029 0.54217,0.25337 0.85984,0.29575 0.31767,0.0424 0.75004,0.18365 0.96085,0.31393 0.2108,0.13029 0.55274,0.23688 0.75985,0.23688 0.20712,0 0.53356,0.0812 0.72544,0.1804 0.19187,0.0992 0.73516,0.22945 1.20731,0.2894 0.47215,0.0599 1.05647,0.19182 1.2985,0.29304 0.24203,0.10122 0.62837,0.18404 0.85854,0.18404 0.23017,0 0.61723,0.10653 0.86015,0.23672 0.27564,0.14774 0.6678,0.23672 1.04323,0.23672 0.33086,0 0.99741,0.10527 1.48125,0.23393 0.48384,0.12867 1.13072,0.23519 1.43753,0.23672 0.30681,0.002 0.8128,0.10228 1.12443,0.22387 0.31335,0.12228 1.06916,0.25807 1.69102,0.30382 0.61843,0.0455 1.41736,0.15402 1.77539,0.24116 0.35804,0.0871 1.13924,0.19374 1.73598,0.23691 0.59673,0.0432 1.36903,0.1576 1.71622,0.25428 0.39573,0.1102 1.62486,0.21622 3.29434,0.28417 1.46471,0.0596 3.06257,0.16813 3.5508,0.24113 0.50871,0.0761 3.59112,0.16603 7.21996,0.21073 l 6.33225,0.078 0.5918,0.36291 c 0.66759,0.40939 0.65041,0.35619 0.89564,2.77363 0.19982,1.97003 0.21089,38.31624 0.0121,39.76891 -0.0846,0.61843 -0.21998,1.89672 -0.3008,2.84064 -0.0808,0.94392 -0.20397,1.82274 -0.27371,1.95294 -0.0697,0.13019 -0.1867,0.7529 -0.25989,1.38379 -0.0732,0.63089 -0.18464,1.28265 -0.24764,1.44835 -0.063,0.1657 -0.17194,0.76802 -0.24209,1.33848 -0.0701,0.57047 -0.20488,1.29987 -0.29942,1.6209 -0.0945,0.32103 -0.17423,0.80039 -0.17708,1.06524 -0.003,0.26485 -0.0876,0.6946 -0.18841,0.95499 -0.10076,0.26039 -0.23519,0.81667 -0.29873,1.23619 -0.0636,0.41951 -0.18749,0.93501 -0.27546,1.14555 -0.088,0.21054 -0.19724,0.69286 -0.24283,1.07183 -0.0456,0.37896 -0.15109,0.76891 -0.23441,0.86656 -0.0833,0.0976 -0.20498,0.55037 -0.27033,1.00606 -0.0653,0.45569 -0.2015,1.04157 -0.30258,1.30196 -0.10109,0.26039 -0.18612,0.68229 -0.18898,0.93756 -0.003,0.25526 -0.0846,0.55191 -0.18175,0.65921 -0.0971,0.10729 -0.22915,0.47244 -0.29344,0.81143 -0.0643,0.33899 -0.17831,0.73112 -0.25339,0.87139 -0.0751,0.14027 -0.20496,0.52499 -0.28863,0.85492 -0.0837,0.32994 -0.23409,0.81293 -0.33422,1.07332 -0.10013,0.2604 -0.1844,0.59515 -0.18725,0.74392 -0.003,0.14876 -0.0791,0.38843 -0.16945,0.53262 -0.0903,0.14417 -0.20143,0.47335 -0.24687,0.73149 -0.0455,0.25814 -0.15337,0.60619 -0.23985,0.77343 -0.0865,0.16724 -0.19616,0.51529 -0.24373,0.77343 -0.0476,0.25814 -0.18528,0.59637 -0.30604,0.75162 -0.12077,0.15525 -0.21957,0.41737 -0.21957,0.58248 0,0.16511 -0.0718,0.38429 -0.15957,0.48707 -0.15049,0.1762 -0.2963,0.54657 -0.73755,1.87348 -0.10284,0.30922 -0.26262,0.70359 -0.35508,0.87637 -0.0925,0.17279 -0.16812,0.39424 -0.16812,0.49211 0,0.0979 -0.14025,0.46249 -0.31167,0.81026 -0.29207,0.5925 -0.42948,0.89145 -1.025,2.23016 -0.13033,0.29294 -0.28268,0.61252 -0.33859,0.71017 -0.0559,0.0977 -0.1341,0.25743 -0.17379,0.35508 -0.41315,1.01668 -1.81655,3.79756 -2.02021,4.00309 -0.0852,0.086 -0.15498,0.26405 -0.15498,0.3956 0,0.13154 -0.10652,0.37461 -0.23672,0.54012 -0.13019,0.16552 -0.23672,0.37856 -0.23672,0.47344 0,0.0949 -0.10652,0.30792 -0.23671,0.47344 -0.1302,0.16552 -0.23672,0.39376 -0.23672,0.50721 0,0.11345 -0.0881,0.27936 -0.19588,0.3687 -0.10773,0.0893 -0.2683,0.32224 -0.35684,0.51753 -0.20265,0.447 -0.38236,0.73722 -0.71965,1.16215 -0.14647,0.18453 -0.26631,0.40306 -0.26631,0.48562 0,0.0826 -0.10653,0.24652 -0.23672,0.36434 -0.13019,0.11783 -0.23672,0.28351 -0.23672,0.36817 0,0.0847 -0.13414,0.35604 -0.29806,0.60304 -0.16394,0.24702 -0.34927,0.52901 -0.41184,0.62665 -0.0626,0.0977 -0.35454,0.54123 -0.64881,0.98574 -0.29428,0.4445 -0.53505,0.87566 -0.53505,0.95813 0,0.0825 -0.10728,0.24701 -0.23839,0.36567 -0.13111,0.11865 -0.42066,0.48642 -0.64345,0.81727 -1.03226,1.53298 -1.98309,2.87649 -2.22665,3.14627 -0.14695,0.16274 -0.42557,0.53558 -0.61916,0.82852 -0.19357,0.29294 -0.45934,0.64947 -0.59059,0.79229 -0.13125,0.14282 -0.33183,0.36034 -0.44575,0.48337 -0.11392,0.12303 -0.20713,0.2623 -0.20713,0.30947 0,0.0838 -1.86638,2.42658 -2.23864,2.81006 -0.10327,0.10639 -0.40081,0.44853 -0.6612,0.76032 -0.67807,0.81192 -2.19139,2.42153 -3.46204,3.6823 -0.60215,0.59748 -1.09483,1.11144 -1.09483,1.14214 0,0.1162 -1.03521,1.14587 -1.15205,1.14587 -0.0673,0 -0.30542,0.19974 -0.52916,0.44385 -0.49417,0.53922 -2.76768,2.63351 -2.85885,2.63351 -0.0359,0 -0.19162,0.11983 -0.34611,0.26631 -0.7167,0.67951 -1.7497,1.51768 -2.02516,1.64318 -0.16724,0.0762 -0.33533,0.23699 -0.37351,0.35732 -0.0382,0.1203 -0.14309,0.21875 -0.23312,0.21875 -0.09,0 -0.20627,0.0666 -0.25833,0.14795 -0.0521,0.0814 -0.36096,0.33035 -0.68645,0.55331 -0.32549,0.22294 -0.67786,0.48925 -0.78305,0.5918 -0.10518,0.10253 -0.31233,0.26633 -0.46032,0.36397 -0.14798,0.0977 -0.41581,0.29738 -0.59517,0.44385 -0.17936,0.14647 -0.38171,0.26631 -0.44967,0.26631 -0.068,0 -0.29995,0.16371 -0.51553,0.36379 -0.21559,0.2001 -0.5943,0.46882 -0.84159,0.59715 -0.2473,0.12835 -0.47935,0.31084 -0.5157,0.40555 -0.0363,0.0947 -0.11127,0.17219 -0.16651,0.17219 -0.11781,0 -0.91935,0.51207 -1.17619,0.75143 -0.0976,0.091 -0.29246,0.20086 -0.43292,0.24413 -0.14045,0.0433 -0.28525,0.15656 -0.32177,0.25173 -0.0365,0.0952 -0.1536,0.17303 -0.26016,0.17303 -0.10657,0 -0.35201,0.13315 -0.54542,0.2959 -0.19341,0.16275 -0.42746,0.2959 -0.52011,0.2959 -0.0926,0 -0.16846,0.056 -0.16846,0.1244 0,0.0684 -0.17734,0.1985 -0.39409,0.28907 -0.21675,0.0906 -0.46296,0.24762 -0.54711,0.34903 -0.0842,0.10141 -0.20031,0.18438 -0.25811,0.18438 -0.0578,0 -0.35753,0.1766 -0.66607,0.39245 -0.54727,0.38286 -2.61255,1.59999 -3.38459,1.99467 -0.21244,0.10859 -0.45618,0.28169 -0.54163,0.38467 -0.0855,0.10296 -0.22495,0.18721 -0.30997,0.18721 -0.085,0 -0.23053,0.0759 -0.32334,0.16874 -0.0928,0.0928 -0.34961,0.25153 -0.57067,0.3527 -0.40427,0.18504 -0.62386,0.31048 -1.17354,0.67036 -0.164,0.10737 -0.43031,0.23588 -0.5918,0.28554 -0.16148,0.0497 -0.36403,0.14676 -0.4501,0.21576 -0.20213,0.16204 -1.46434,0.67687 -1.61891,0.66032 -0.0651,-0.007 -0.401,-0.13223 -0.74644,-0.27837 z"
       id="path4734-0"
       inkscape:connector-curvature="0" />
    <path
       style="display:inline;fill:#ffffff;fill-opacity:1;stroke-width:0.21009138"
       d="m 117.083,345.84721 c -0.28991,-0.2899 -0.64476,-0.94736 -0.78858,-1.46102 -0.25743,-0.91945 -0.25014,-0.94716 0.47063,-1.78923 1.10215,-1.28761 1.64778,-3.19175 1.77718,-6.20199 0.11181,-2.60107 -0.33325,-6.92049 -0.82403,-7.99765 -0.34631,-0.76008 -0.6821,-0.51072 -0.74834,0.55573 -0.12243,1.9712 -0.71547,5.75149 -1.20503,7.68142 -1.06814,4.21072 -2.87192,6.84589 -5.56292,8.12697 -1.18403,0.56367 -1.59841,0.65022 -3.15138,0.65823 -1.53814,0.008 -1.95317,-0.0718 -2.96904,-0.57073 -2.12281,-1.0425 -3.61753,-2.63592 -5.144249,-5.48394 -0.46022,-0.85851 -1.12508,-1.62251 -2.19392,-2.52109 -2.62541,-2.20719 -3.92108,-4.62199 -4.13546,-7.70755 -0.18822,-2.70886 0.74801,-4.96265 2.72873,-6.56881 2.11553,-1.71549 4.54788,-2.44349 8.705729,-2.60561 2.62335,-0.1023 6.81783,0.15294 8.15314,0.49611 0.23111,0.0594 -0.14706,-0.23766 -0.84037,-0.6601 -7.66153,-4.66836 -11.07046,-9.08409 -10.772,-13.95343 0.27404,-4.47131 4.18414,-7.58115 9.53201,-7.58115 1.46301,0 1.91648,-0.0924 3.05471,-0.62217 4.15593,-1.93447 7.90998,-1.68639 10.42124,0.68866 2.23809,2.11669 3.0045,4.91127 2.26366,8.25402 -0.688,3.10434 -1.84512,5.56438 -4.66537,9.91859 -0.84686,1.30746 -1.42064,2.30507 -1.27507,2.21692 0.14556,-0.0882 1.25735,-0.81357 2.47063,-1.61204 7.9326,-5.22052 14.34414,-6.17373 18.11939,-2.69383 1.79579,1.6553 2.83589,4.45739 2.59932,7.00274 -0.13872,1.49277 -0.96293,4.37111 -1.62464,5.67379 -0.25903,0.50992 -0.39594,1.22134 -0.39594,2.05725 0,2.7884 -1.26068,6.61991 -2.66946,8.1132 -1.39478,1.47844 -3.59154,2.39088 -5.7562,2.39088 -1.28731,0 -3.41833,-0.67557 -4.58056,-1.4521 -1.97565,-1.32002 -4.33743,-3.94893 -6.44425,-7.17314 -0.72143,-1.10404 -1.4782,-2.14399 -1.6817,-2.311 -0.33926,-0.27841 -0.35825,-0.25999 -0.22848,0.22158 1.1422,4.23849 1.42581,10.45574 0.60689,13.30366 -0.74231,2.58147 -1.62866,4.13392 -2.36021,4.13392 -0.19743,0 -0.59616,-0.23719 -0.88606,-0.52709 z"
       id="path3913-6-0"
       inkscape:connector-curvature="0" />
    <text
       xml:space="preserve"
       style="font-style:normal;font-variant:normal;font-weight:normal;font-stretch:normal;font-size:25.31646729px;line-height:1.25;font-family:'Russo One';letter-spacing:4.74683762px;word-spacing:0px;display:inline;fill:#ffffff;fill-opacity:1;stroke:none;stroke-width:0.23734188;stroke-opacity:1"
       x="86.63298"
       y="375.2392"
       id="text7412-5-0">IIGL</text>
    <text
       xml:space="preserve"
       style="font-style:normal;font-variant:normal;font-weight:normal;font-stretch:normal;font-size:100.85454559px;line-height:1.25;font-family:'Russo One';letter-spacing:18.91022682px;word-spacing:0px;display:inline;fill:#3d7915;fill-opacity:1;stroke:none;stroke-width:0.94551134;stroke-opacity:1"
       x="118.36454"
       y="443.4411"
       id="text7412-5-4-8"><tspan
         style="font-size:25.31646729px;line-height:0;text-align:center;letter-spacing:0px;text-anchor:middle;stroke-width:0.94551134"
         id="tspan5662-0">Irish Interfirms Gaming League </tspan></text>
    <path
       style="display:inline;fill:#3d7915;fill-opacity:1;stroke-width:0.24352318"
       d="m 686.25508,740.95242 c -0.71076,-0.30063 -1.41758,-0.67196 -1.57072,-0.82513 -0.15308,-0.15307 -0.39352,-0.27868 -0.53416,-0.27895 -0.31416,0 -3.13108,-1.46258 -3.29973,-1.7125 -0.0671,-0.0992 -0.50532,-0.35492 -0.97409,-0.56817 -1.00504,-0.45724 -1.57458,-0.80954 -2.51287,-1.55429 -0.37966,-0.30138 -0.85797,-0.54794 -1.06292,-0.54794 -0.20492,0 -0.92314,-0.43833 -1.59606,-0.97408 -0.67284,-0.53577 -1.37,-0.97412 -1.54923,-0.97412 -0.1792,0 -0.95936,-0.41396 -1.73373,-0.91994 -1.85523,-1.21228 -2.26547,-1.46161 -2.99078,-1.81772 -0.33485,-0.16439 -0.75201,-0.49231 -0.92703,-0.72878 -0.1751,-0.23644 -0.4616,-0.42991 -0.63684,-0.42991 -0.17529,0 -0.59726,-0.21916 -0.93782,-0.48705 -0.34053,-0.26788 -0.78195,-0.48704 -0.98088,-0.48704 -0.19896,0 -0.41872,-0.14856 -0.48836,-0.33008 -0.0698,-0.18168 -0.73845,-0.67542 -1.48616,-1.09738 -0.74771,-0.42197 -1.55174,-0.9256 -1.7867,-1.11917 -0.50415,-0.41535 -2.32627,-1.7078 -4.20179,-2.98043 -0.73668,-0.49982 -1.42702,-1.04972 -1.53414,-1.22196 -0.10699,-0.17221 -0.32037,-0.31315 -0.47396,-0.31315 -0.37672,0 -2.17556,-1.23492 -2.57177,-1.76556 -0.17509,-0.23437 -0.41483,-0.42616 -0.53293,-0.42616 -0.1181,0 -0.57758,-0.33593 -1.02115,-0.74652 -0.83972,-0.77732 -2.79581,-2.17575 -3.04334,-2.17575 -0.0784,0 -0.38261,-0.24657 -0.67609,-0.54793 -0.29346,-0.30136 -1.40188,-1.25707 -2.46315,-2.12383 -1.0613,-0.86678 -2.15563,-1.79826 -2.43191,-2.06995 -0.75742,-0.74497 -2.33513,-2.12793 -3.09449,-2.71256 -1.00185,-0.77133 -5.29215,-4.7505 -5.87884,-5.45245 -0.27986,-0.33486 -1.49865,-1.5951 -2.70847,-2.80052 -2.72498,-2.71511 -6.68891,-6.91822 -6.68891,-7.09251 0,-0.0712 -0.41096,-0.53934 -0.91321,-1.04012 -0.50227,-0.50077 -1.35156,-1.43832 -1.88733,-2.08345 -0.53573,-0.64512 -1.10476,-1.30851 -1.26449,-1.47424 -0.48367,-0.50182 -2.75362,-3.54589 -2.75362,-3.69269 0,-0.0753 -0.41881,-0.53529 -0.93067,-1.02205 -0.82961,-0.789 -1.30547,-1.39269 -2.11338,-2.68119 -0.13394,-0.21358 -0.87365,-1.18341 -1.64378,-2.15512 -0.77014,-0.97173 -1.40024,-1.86962 -1.40024,-1.99531 0,-0.12571 -0.14032,-0.37335 -0.31155,-0.55034 -0.42217,-0.43608 -2.61076,-3.5977 -2.61076,-3.7715 0,-0.0763 -0.33255,-0.53686 -0.73902,-1.02331 -1.13585,-1.35938 -1.15704,-1.39009 -1.56025,-2.25979 -0.20815,-0.44903 -0.59476,-1.14515 -0.85915,-1.54698 -0.26438,-0.40181 -0.70604,-1.1141 -0.98145,-1.58288 -0.27544,-0.4688 -0.68947,-1.13736 -0.92009,-1.48573 -0.4553,-0.6878 -0.98802,-1.5221 -1.46149,-2.28888 -0.16542,-0.26789 -0.4212,-0.761 -0.56848,-1.09584 -0.31751,-0.72191 -0.20649,-0.52005 -2.47789,-4.50521 -0.99238,-1.74118 -2.09686,-3.7685 -2.45435,-4.50516 -0.3575,-0.73668 -0.75106,-1.50378 -0.87459,-1.70468 -0.31194,-0.50732 -2.44522,-5.09217 -2.44522,-5.25529 0,-0.26403 -1.51875,-3.27489 -1.71229,-3.39449 -0.10905,-0.0675 -0.26836,-0.44113 -0.35387,-0.83038 -0.0856,-0.38927 -0.36788,-0.95272 -0.62753,-1.25208 -0.25965,-0.29938 -0.47209,-0.83935 -0.47209,-1.1999 0,-0.36055 -0.21918,-0.85392 -0.48705,-1.09633 -0.29315,-0.26531 -0.48704,-0.75006 -0.48704,-1.21762 0,-0.46758 -0.19382,-0.95232 -0.48707,-1.21762 -0.26786,-0.24243 -0.48702,-0.72816 -0.48702,-1.07941 0,-0.35125 -0.15843,-0.86482 -0.35208,-1.14129 -0.19361,-0.27644 -0.48499,-1.04052 -0.64747,-1.69795 -0.16254,-0.65743 -0.49721,-1.45668 -0.7438,-1.7761 -0.24659,-0.31941 -0.44837,-0.88132 -0.44837,-1.24867 0,-0.36736 -0.15493,-0.79643 -0.34411,-0.95352 -0.18929,-0.15698 -0.41796,-0.8225 -0.50822,-1.47869 -0.0903,-0.65621 -0.31358,-1.31718 -0.49628,-1.46881 -0.18271,-0.15164 -0.40607,-0.78726 -0.49637,-1.4125 -0.0903,-0.62525 -0.3098,-1.4108 -0.48777,-1.74564 -0.17797,-0.33485 -0.43129,-1.10194 -0.56292,-1.70466 -0.23236,-1.06386 -0.7458,-2.76867 -1.28355,-4.26166 -0.14463,-0.40181 -0.37141,-1.27849 -0.50379,-1.94819 -0.1325,-0.66969 -0.44059,-1.71073 -0.68492,-2.31347 -0.24432,-0.6027 -0.50883,-1.5693 -0.5878,-2.14797 -0.079,-0.57865 -0.2924,-1.29097 -0.47428,-1.58288 -0.18189,-0.29194 -0.39885,-1.23482 -0.48213,-2.0953 -0.0852,-0.88025 -0.31721,-1.74766 -0.53042,-1.98329 -0.20847,-0.23033 -0.4328,-0.95092 -0.49853,-1.6013 -0.0656,-0.65038 -0.27382,-1.67565 -0.4624,-2.27836 -0.18847,-0.60273 -0.41458,-1.80816 -0.50223,-2.67877 -0.0876,-0.87057 -0.30109,-1.80981 -0.47432,-2.08719 -0.17324,-0.27735 -0.39441,-1.15403 -0.49155,-1.94818 -0.0971,-0.79413 -0.38143,-1.96848 -0.63179,-2.60963 -0.27642,-0.708 -0.45517,-1.78044 -0.45517,-2.73112 0,-0.86097 -0.16851,-2.06197 -0.37465,-2.6689 -0.20606,-0.60696 -0.52492,-2.22717 -0.70858,-3.60049 -0.18373,-1.37333 -0.44427,-2.93529 -0.57912,-3.47103 -0.13476,-0.53578 -0.32319,-2.28914 -0.41848,-3.89638 -0.0953,-1.60727 -0.27945,-3.19625 -0.40916,-3.53109 -0.74431,-1.92109 -1.41126,-34.25513 -0.93932,-45.53883 0.14279,-3.41542 0.33035,-13.99042 0.41668,-23.49999 0.12592,-13.87236 0.22258,-17.42012 0.48894,-17.94774 0.1827,-0.36168 0.332,-0.88327 0.332,-1.15912 0,-0.27583 0.23261,-0.69222 0.5169,-0.92529 0.2843,-0.2331 0.71725,-0.63044 0.96211,-0.88301 0.42374,-0.43711 1.07535,-0.46224 13.54655,-0.52235 8.42061,-0.0405 13.75391,-0.16419 14.9278,-0.34603 1.00453,-0.15555 4.40167,-0.38093 7.54923,-0.50075 3.14752,-0.11975 6.16113,-0.34379 6.69688,-0.49767 0.53574,-0.15389 2.23431,-0.42847 3.77461,-0.6102 1.54027,-0.18168 3.29366,-0.43434 3.89638,-0.56135 0.60271,-0.12695 2.19169,-0.30695 3.53104,-0.39991 1.3394,-0.0928 2.764,-0.32921 3.16583,-0.52507 0.40183,-0.19587 1.57762,-0.4539 2.6129,-0.5734 1.03528,-0.11954 2.11375,-0.34119 2.39662,-0.49258 0.28285,-0.15143 1.54531,-0.3728 2.80547,-0.49201 1.26015,-0.11933 2.59253,-0.36876 2.96086,-0.5545 0.36835,-0.1858 1.28033,-0.40642 2.02662,-0.49035 0.74629,-0.0839 1.67777,-0.30712 2.06997,-0.49597 0.39215,-0.18888 1.44596,-0.41737 2.34174,-0.50781 0.89581,-0.0903 1.75061,-0.31126 1.89957,-0.49075 0.14896,-0.17941 0.84064,-0.40247 1.53709,-0.49552 0.69643,-0.093 1.43863,-0.32118 1.64933,-0.50697 0.21071,-0.18579 0.92299,-0.40728 1.5829,-0.49219 0.6599,-0.085 1.54151,-0.35946 1.95914,-0.61006 0.41761,-0.2506 1.13414,-0.45565 1.59228,-0.45565 0.45814,0 1.26286,-0.21916 1.78828,-0.48705 0.52545,-0.26786 1.27138,-0.48705 1.65767,-0.48705 0.38632,0 0.99325,-0.20328 1.34879,-0.45153 0.35551,-0.24833 0.97514,-0.52607 1.37696,-0.6172 0.40181,-0.0911 1.05934,-0.3212 1.46115,-0.51127 0.4018,-0.19011 1.14727,-0.41147 1.65657,-0.49206 0.50932,-0.0807 0.98562,-0.30185 1.05848,-0.49174 0.0728,-0.1899 0.53285,-0.41528 1.0222,-0.50096 0.48933,-0.0856 1.13542,-0.30977 1.43575,-0.49805 0.30037,-0.18826 1.03693,-0.40965 1.63685,-0.49188 0.77548,-0.10617 1.19998,-0.31618 1.46861,-0.72615 0.2078,-0.31718 0.58193,-0.57665 0.83143,-0.57665 0.24948,0 0.76748,-0.16377 1.15112,-0.3638 0.38361,-0.19999 0.94409,-0.36445 1.24547,-0.36527 0.30136,-6.3e-4 0.76098,-0.21457 1.02138,-0.47497 0.26041,-0.26041 0.8592,-0.54585 1.33069,-0.63428 0.4715,-0.0885 0.97969,-0.30837 1.12935,-0.48872 0.14958,-0.18023 0.75934,-0.40091 1.35483,-0.49021 0.69317,-0.1039 1.17098,-0.32728 1.32802,-0.62076 0.16522,-0.30848 0.51154,-0.45839 1.05934,-0.45839 0.44773,0 1.20743,-0.16439 1.68829,-0.36528 1.0917,-0.45612 2.41766,-0.468 3.27631,-0.0294 0.36171,0.18476 1.04117,0.41614 1.50994,0.51416 0.46876,0.0979 1.03053,0.33507 1.24828,0.52678 0.21781,0.19176 0.82052,0.41353 1.3394,0.49289 0.51888,0.0794 1.10781,0.28165 1.30868,0.44954 0.20081,0.16789 0.73261,0.38339 1.18155,0.4789 0.44894,0.0955 1.02426,0.38166 1.27849,0.6359 0.25425,0.25425 0.67108,0.46226 0.92629,0.46226 0.25523,0 0.88535,0.20643 1.40028,0.45873 0.5149,0.25231 1.21017,0.58026 1.54502,0.72881 0.33484,0.14854 0.77318,0.37238 0.97409,0.49745 0.39138,0.24365 2.28535,0.88867 3.60977,1.22937 0.44508,0.1146 1.0002,0.38098 1.2336,0.5922 0.23337,0.2112 0.80069,0.45718 1.26069,0.54662 0.45999,0.0895 1.21827,0.36469 1.68508,0.6117 0.4668,0.247 1.10702,0.44909 1.42272,0.44909 0.3157,0 0.85264,0.21919 1.1932,0.48707 0.34382,0.27044 0.98792,0.48704 1.44836,0.48704 0.45606,0 1.25879,0.21917 1.78388,0.48703 0.52507,0.26788 1.273,0.48705 1.66211,0.48705 0.3891,0 0.96877,0.20246 1.28821,0.44993 0.31939,0.24749 1.1155,0.5213 1.76911,0.6085 0.6536,0.0872 1.54319,0.37786 1.97693,0.6459 0.43372,0.26807 1.13725,0.48738 1.56337,0.48738 0.42615,0 1.09779,0.16707 1.49256,0.37117 0.39479,0.2041 1.5126,0.47209 2.48404,0.59544 0.97144,0.12324 2.17367,0.39466 2.67164,0.60292 0.49797,0.20826 1.29286,0.37866 1.76641,0.37866 0.47359,0 1.26994,0.21918 1.76974,0.48705 0.56713,0.30397 1.37399,0.48704 2.14643,0.48704 0.68074,0 2.05217,0.21659 3.04764,0.48131 0.9955,0.26474 2.32644,0.48389 2.95769,0.48704 0.63126,0.004 1.67232,0.21045 2.3135,0.46061 0.64471,0.25159 2.19978,0.53098 3.47924,0.62511 1.27241,0.0936 2.91619,0.31689 3.65283,0.49618 0.73666,0.17921 2.34396,0.39861 3.57175,0.48744 1.22776,0.0889 2.81675,0.32426 3.53109,0.52317 0.8142,0.22674 3.34312,0.44487 6.77804,0.58468 3.01361,0.12262 6.30118,0.34592 7.3057,0.49612 1.04666,0.15657 7.38866,0.3416 14.85494,0.43357 l 13.02848,0.16048 1.21762,0.74668 c 1.37355,0.84232 1.33821,0.73286 1.84276,5.7067 0.41113,4.0533 0.4339,78.83494 0.0249,81.82378 -0.17406,1.27241 -0.4526,3.90247 -0.61889,5.84456 -0.16624,1.9421 -0.41966,3.75026 -0.56315,4.01814 -0.14341,0.26786 -0.38413,1.54908 -0.53472,2.84712 -0.1506,1.29804 -0.37989,2.63901 -0.50951,2.97994 -0.12962,0.34094 -0.35377,1.58018 -0.4981,2.75391 -0.14423,1.17371 -0.42153,2.67446 -0.61605,3.33498 -0.19443,0.66051 -0.35848,1.64678 -0.36434,2.19171 -0.006,0.54492 -0.18023,1.4291 -0.38765,1.96485 -0.20731,0.53576 -0.4839,1.6803 -0.61463,2.54345 -0.13085,0.86314 -0.38576,1.92377 -0.56675,2.35695 -0.18106,0.43319 -0.40582,1.42555 -0.49962,2.20525 -0.0938,0.77973 -0.31086,1.58204 -0.48229,1.78296 -0.1714,0.2008 -0.42175,1.13237 -0.5562,2.06994 -0.13436,0.93756 -0.41458,2.14302 -0.62256,2.67876 -0.20799,0.53575 -0.38293,1.4038 -0.38882,1.92901 -0.006,0.5252 -0.17406,1.13553 -0.37395,1.3563 -0.19978,0.22076 -0.47147,0.97205 -0.60375,1.66952 -0.13229,0.69747 -0.36686,1.50424 -0.52134,1.79287 -0.15452,0.2886 -0.4217,1.08016 -0.59385,1.75898 -0.17221,0.67883 -0.48164,1.67259 -0.68765,2.20834 -0.20602,0.53574 -0.3794,1.2245 -0.38526,1.53058 -0.006,0.30607 -0.16275,0.7992 -0.34864,1.09585 -0.1858,0.29665 -0.41445,0.97391 -0.50794,1.50505 -0.0936,0.53112 -0.31555,1.24721 -0.49348,1.5913 -0.17798,0.34411 -0.4036,1.06019 -0.50147,1.59131 -0.0979,0.53114 -0.38121,1.22705 -0.62967,1.54647 -0.24849,0.3194 -0.45177,0.85871 -0.45177,1.19844 0,0.33971 -0.14772,0.79067 -0.32831,1.00212 -0.30963,0.36255 -0.60963,1.12457 -1.51749,3.85467 -0.21159,0.63619 -0.54034,1.4476 -0.73057,1.80311 -0.19032,0.35552 -0.34591,0.81114 -0.34591,1.01251 0,0.20142 -0.28856,0.95155 -0.64125,1.66708 -0.60093,1.21905 -0.88365,1.83415 -2.10892,4.58853 -0.26815,0.60272 -0.58161,1.26025 -0.69664,1.46114 -0.11501,0.20102 -0.27591,0.52968 -0.35757,0.73056 -0.85005,2.09183 -3.73752,7.81342 -4.15655,8.23631 -0.17529,0.17694 -0.31886,0.54325 -0.31886,0.81392 0,0.27066 -0.21917,0.77075 -0.48705,1.11131 -0.26786,0.34053 -0.48705,0.77887 -0.48705,0.97409 0,0.19525 -0.21916,0.63354 -0.48702,0.97409 -0.26789,0.34056 -0.48705,0.81016 -0.48705,1.04358 0,0.2334 -0.18127,0.57477 -0.40302,0.75859 -0.22166,0.18374 -0.55202,0.66298 -0.73419,1.06479 -0.41695,0.9197 -0.7867,1.51684 -1.48067,2.39112 -0.30136,0.37965 -0.54793,0.82929 -0.54793,0.99916 0,0.16994 -0.21918,0.50719 -0.48704,0.74962 -0.26787,0.24243 -0.48705,0.5833 -0.48705,0.7575 0,0.17427 -0.27599,0.73253 -0.61326,1.24075 -0.3373,0.50822 -0.71861,1.0884 -0.84734,1.28932 -0.12881,0.20101 -0.72946,1.11355 -1.33492,2.02812 -0.60548,0.91455 -1.10085,1.80165 -1.10085,1.97133 0,0.16974 -0.22073,0.50822 -0.49049,0.75236 -0.26976,0.24412 -0.8655,1.0008 -1.32389,1.68152 -2.12385,3.15408 -4.08016,5.91832 -4.58129,6.47339 -0.30234,0.33483 -0.8756,1.10194 -1.27391,1.70466 -0.39826,0.60272 -0.94508,1.33627 -1.21513,1.63013 -0.27004,0.29385 -0.68273,0.74139 -0.91712,0.99452 -0.23438,0.25313 -0.42616,0.53968 -0.42616,0.63673 0,0.17242 -3.84005,4.99264 -4.60596,5.78164 -0.21248,0.2189 -0.82466,0.92285 -1.36041,1.56435 -1.39511,1.67051 -4.50874,4.98225 -7.12308,7.57626 -1.23891,1.2293 -2.25259,2.28677 -2.25259,2.34993 0,0.23908 -2.12993,2.35761 -2.37033,2.35761 -0.13846,0 -0.62839,0.41096 -1.08873,0.91321 -1.01675,1.10944 -5.69445,5.4184 -5.88203,5.4184 -0.0739,0 -0.39425,0.24655 -0.71212,0.54793 -1.47459,1.39808 -3.59997,3.12259 -4.1667,3.38081 -0.3441,0.15678 -0.68994,0.4876 -0.76849,0.73518 -0.0786,0.24751 -0.29441,0.45007 -0.47965,0.45007 -0.18516,0 -0.42439,0.13703 -0.5315,0.30441 -0.10719,0.16747 -0.74267,0.67969 -1.41236,1.13842 -0.66969,0.4587 -1.39469,1.00662 -1.61111,1.21762 -0.21641,0.21095 -0.64261,0.54796 -0.9471,0.74886 -0.30446,0.20101 -0.85552,0.61185 -1.22455,0.91321 -0.36903,0.30136 -0.78537,0.54793 -0.92519,0.54793 -0.13991,0 -0.61714,0.33683 -1.06069,0.74849 -0.44357,0.4117 -1.22277,0.96459 -1.73158,1.22863 -0.50879,0.26408 -0.98623,0.63954 -1.06102,0.83441 -0.0747,0.19484 -0.22894,0.35428 -0.3426,0.35428 -0.24238,0 -1.89156,1.05357 -2.41998,1.54605 -0.20081,0.18723 -0.60173,0.41327 -0.89072,0.50229 -0.28898,0.0891 -0.5869,0.32212 -0.66204,0.51793 -0.0751,0.19587 -0.31603,0.35601 -0.53528,0.35601 -0.21926,0 -0.72425,0.27395 -1.12218,0.60881 -0.39794,0.33485 -0.8795,0.6088 -1.07012,0.6088 -0.19053,0 -0.34661,0.11522 -0.34661,0.25596 0,0.14073 -0.36487,0.40841 -0.81083,0.59475 -0.44596,0.18641 -0.95253,0.50947 -1.12567,0.71812 -0.17324,0.20866 -0.41213,0.37937 -0.53106,0.37937 -0.11891,0 -0.73561,0.36335 -1.37042,0.80745 -1.126,0.78773 -5.37528,3.29195 -6.96373,4.104 -0.43709,0.22342 -0.93859,0.57957 -1.1144,0.79145 -0.17591,0.21184 -0.46283,0.38518 -0.63775,0.38518 -0.17489,0 -0.47432,0.15616 -0.66527,0.34718 -0.19093,0.19094 -0.71931,0.51751 -1.17414,0.72567 -0.83178,0.38072 -1.2836,0.63881 -2.41454,1.37925 -0.33742,0.22092 -0.88537,0.48532 -1.21761,0.5875 -0.33225,0.10226 -0.74899,0.30195 -0.92608,0.44392 -0.41588,0.3334 -3.01285,1.39265 -3.33088,1.35859 -0.13393,-0.0144 -0.82504,-0.27206 -1.53578,-0.57273 z"
       id="path4734-4"
       inkscape:connector-curvature="0" />
    <path
       style="display:inline;fill:#ffffff;fill-opacity:1;stroke-width:0.43225908"
       d="m 683.95214,599.36723 c -0.59648,-0.59647 -1.32658,-1.94918 -1.62249,-3.006 -0.52965,-1.89175 -0.51465,-1.94879 0.96831,-3.68133 2.26766,-2.64921 3.39028,-6.56696 3.65652,-12.76048 0.23005,-5.35163 -0.68566,-14.23877 -1.69542,-16.45501 -0.71253,-1.56385 -1.40341,-1.05078 -1.5397,1.1434 -0.2519,4.05571 -1.47207,11.83359 -2.47932,15.8044 -2.19768,8.66346 -5.90893,14.08527 -11.44561,16.72107 -2.43612,1.15974 -3.2887,1.33781 -6.48391,1.35432 -3.16469,0.0165 -4.01861,-0.14773 -6.10874,-1.17429 -4.36764,-2.14493 -7.443,-5.42336 -10.5842,-11.28311 -0.94689,-1.76636 -2.31483,-3.33828 -4.51397,-5.18709 -5.40173,-4.54125 -8.06756,-9.50966 -8.50864,-15.85814 -0.38727,-5.57343 1.53903,-10.21053 5.61432,-13.5152 4.35267,-3.52959 9.3572,-5.02743 17.9119,-5.36099 5.39749,-0.21046 14.02756,0.31467 16.77493,1.02073 0.4755,0.12222 -0.30257,-0.48896 -1.72905,-1.35814 -15.76345,-9.60506 -22.77726,-18.69032 -22.16318,-28.70892 0.56383,-9.19964 8.60879,-15.59805 19.61193,-15.59805 3.01012,0 3.94312,-0.19012 6.285,-1.28013 8.55076,-3.98011 16.27464,-3.46971 21.44151,1.41693 4.60483,4.35503 6.1817,10.10483 4.65744,16.98247 -1.41555,6.38712 -3.7963,11.4486 -9.59891,20.40731 -1.7424,2.69008 -2.92294,4.74264 -2.62343,4.56127 0.29949,-0.18147 2.58697,-1.6739 5.08327,-3.31674 16.32117,-10.74112 29.5128,-12.70233 37.2803,-5.54248 3.69481,3.40574 5.83479,9.17099 5.34806,14.408 -0.28544,3.07132 -1.98121,8.99346 -3.34267,11.67372 -0.53295,1.04915 -0.81464,2.51286 -0.81464,4.23273 0,5.73708 -2.59382,13.62034 -5.49236,16.69278 -2.86973,3.04186 -7.38953,4.91917 -11.84327,4.91917 -2.64862,0 -7.03315,-1.38996 -9.42442,-2.98765 -4.06486,-2.71594 -8.92418,-8.12485 -13.25892,-14.7586 -1.48433,-2.27156 -3.04138,-4.41124 -3.46007,-4.75486 -0.69802,-0.57283 -0.73709,-0.53492 -0.47009,0.45592 2.35005,8.72059 2.93357,21.51246 1.24866,27.372 -1.52729,5.31133 -3.35093,8.50549 -4.85609,8.50549 -0.4062,0 -1.22659,-0.48802 -1.82305,-1.0845 z"
       id="path3913-6-1"
       inkscape:connector-curvature="0" />
    <text
       xml:space="preserve"
       style="font-style:normal;font-variant:normal;font-weight:normal;font-stretch:normal;font-size:52.08815384px;line-height:1.25;font-family:'Russo One';letter-spacing:9.76652908px;word-spacing:0px;display:inline;fill:#ffffff;fill-opacity:1;stroke:none;stroke-width:0.48832646;stroke-opacity:1"
       x="621.30182"
       y="659.84064"
       id="text7412-5-05">IIGL</text>
    <text
       xml:space="preserve"
       style="font-style:normal;font-variant:normal;font-weight:normal;font-stretch:normal;font-size:100.85454559px;line-height:1.25;font-family:'Russo One';letter-spacing:18.91022682px;word-spacing:0px;display:inline;fill:#3d7915;fill-opacity:1;stroke:none;stroke-width:0.94551134;stroke-opacity:1"
       x="480.82053"
       y="859.17603"
       id="text7412-5-4-0"><tspan
         style="font-size:50.79999924px;line-height:0;letter-spacing:0px;stroke-width:0.94551134"
         id="tspan5662-6"
         dy="-50">Irish Interfirms </tspan></text>
    <text
       xml:space="preserve"
       style="font-style:normal;font-variant:normal;font-weight:normal;font-stretch:normal;font-size:100.85454559px;line-height:1.25;font-family:'Russo One';letter-spacing:18.91022682px;word-spacing:0px;display:inline;fill:#3d7915;fill-opacity:1;stroke:none;stroke-width:0.94551134;stroke-opacity:1"
       x="480.82053"
       y="859.17603"
       id="text5664-4"><tspan
         style="font-size:50.79999924px;line-height:0;letter-spacing:0px;stroke-width:0.94551134"
         id="tspan5666-6">Gaming League</tspan></text>
  </g>
</svg>
