<?xml version="1.0" encoding="UTF-8" standalone="no"?>
<!-- Created with Inkscape (http://www.inkscape.org/) -->

<svg
   xmlns:dc="http://purl.org/dc/elements/1.1/"
   xmlns:cc="http://creativecommons.org/ns#"
   xmlns:rdf="http://www.w3.org/1999/02/22-rdf-syntax-ns#"
   xmlns:svg="http://www.w3.org/2000/svg"
   xmlns="http://www.w3.org/2000/svg"
   xmlns:sodipodi="http://sodipodi.sourceforge.net/DTD/sodipodi-0.dtd"
   xmlns:inkscape="http://www.inkscape.org/namespaces/inkscape"
   width="113.52046mm"
   height="137.27679mm"
   viewBox="0 0 113.52047 137.2768"
   version="1.1"
   id="svg8"
   inkscape:version="0.92.1 r15371"
   sodipodi:docname="logo.svg"
   inkscape:export-filename="/home/edarder/git/iigl/src/assets/img/favicon.png"
   inkscape:export-xdpi="51.909611"
   inkscape:export-ydpi="51.909611">
  <defs
     id="defs9013">
    <style
       id="style9008"
       type="text/css">
      @import url('https://fonts.googleapis.com/css?family=Russo+One');
    </style>
  </defs>
  <sodipodi:namedview
     id="base"
     pagecolor="#ffffff"
     bordercolor="#666666"
     borderopacity="1.0"
     inkscape:pageopacity="0.0"
     inkscape:pageshadow="2"
     inkscape:zoom="1.2824642"
     inkscape:cx="91.48471"
     inkscape:cy="199.74063"
     inkscape:document-units="mm"
     inkscape:current-layer="layer2"
     showgrid="true"
     inkscape:window-width="3440"
     inkscape:window-height="1377"
     inkscape:window-x="-8"
     inkscape:window-y="-8"
     inkscape:window-maximized="1"
     inkscape:snap-grids="false"
     inkscape:snap-to-guides="true"
     showguides="false">
    <inkscape:grid
       type="xygrid"
       id="grid7424"
       originx="-63.225232"
       originy="-15.458517" />
  </sodipodi:namedview>
  <metadata
     id="metadata5">
    <rdf:RDF>
      <cc:Work
         rdf:about="">
        <dc:format>image/svg+xml</dc:format>
        <dc:type
           rdf:resource="http://purl.org/dc/dcmitype/StillImage" />
        <dc:title />
      </cc:Work>
    </rdf:RDF>
  </metadata>
  <g
     inkscape:groupmode="layer"
     id="layer5"
     inkscape:label="Shield"
     style="display:inline"
     transform="translate(-18.571295,0.87344841)">
    <path
       transform="translate(0.27130361,0.44353993)"
       style="display:inline;fill:#3d7915;fill-opacity:1;stroke-width:0.11835986"
       d="m 74.393523,135.68106 c -0.34545,-0.14612 -0.68899,-0.3266 -0.76342,-0.40104 -0.0744,-0.0744 -0.19126,-0.13545 -0.25962,-0.13558 -0.15269,0 -1.52179,-0.71086 -1.60377,-0.83233 -0.0326,-0.0482 -0.2456,-0.1725 -0.47344,-0.27615 -0.48847,-0.22223 -0.76529,-0.39346 -1.22133,-0.75543 -0.18453,-0.14648 -0.417,-0.26632 -0.51661,-0.26632 -0.0996,0 -0.44868,-0.21304 -0.77573,-0.47343 -0.32703,-0.2604 -0.66587,-0.47345 -0.75297,-0.47345 -0.0871,0 -0.46629,-0.2012 -0.84265,-0.44712 -0.90171,-0.58921 -1.10109,-0.71039 -1.45362,-0.88347 -0.16275,-0.0799 -0.3655,-0.23928 -0.45057,-0.35421 -0.0851,-0.11492 -0.22435,-0.20895 -0.30952,-0.20895 -0.0852,0 -0.29029,-0.10652 -0.45581,-0.23672 -0.16551,-0.1302 -0.38005,-0.23672 -0.47674,-0.23672 -0.0967,0 -0.2035,-0.0722 -0.23736,-0.16043 -0.0339,-0.0883 -0.35891,-0.32827 -0.72232,-0.53336 -0.36341,-0.20509 -0.75419,-0.44987 -0.86839,-0.54395 -0.24503,-0.20187 -1.13064,-0.83004 -2.0422,-1.44858 -0.35804,-0.24293 -0.69358,-0.5102 -0.74564,-0.59391 -0.052,-0.0837 -0.15571,-0.1522 -0.23035,-0.1522 -0.1831,0 -1.0574,-0.60021 -1.24997,-0.85812 -0.0851,-0.11391 -0.20162,-0.20713 -0.25901,-0.20713 -0.0574,0 -0.28073,-0.16327 -0.49632,-0.36283 -0.40813,-0.3778 -1.35885,-1.05748 -1.47916,-1.05748 -0.0381,0 -0.18596,-0.11984 -0.3286,-0.26631 -0.14263,-0.14647 -0.68136,-0.61098 -1.19717,-1.03225 -0.51581,-0.42128 -1.0477,-0.87401 -1.18198,-1.00606 -0.36813,-0.36208 -1.13495,-1.03424 -1.50402,-1.31839 -0.48693,-0.37489 -2.57215,-2.30889 -2.8573,-2.65006 -0.13601,-0.16275 -0.72839,-0.77527 -1.3164,-1.36114 -1.32443,-1.31963 -3.25102,-3.36247 -3.25102,-3.44718 0,-0.0346 -0.19974,-0.26214 -0.44385,-0.50553 -0.24412,-0.24339 -0.6569,-0.69907 -0.9173,-1.01262 -0.26038,-0.31355 -0.53695,-0.63598 -0.61458,-0.71653 -0.23508,-0.2439 -1.33835,-1.72341 -1.33835,-1.79476 0,-0.0366 -0.20355,-0.26017 -0.45233,-0.49675 -0.40322,-0.38348 -0.6345,-0.67689 -1.02717,-1.30314 -0.0651,-0.10381 -0.42462,-0.57518 -0.79893,-1.04746 -0.37431,-0.47229 -0.68056,-0.90869 -0.68056,-0.96978 0,-0.0611 -0.0682,-0.18146 -0.15142,-0.26748 -0.20519,-0.21195 -1.26891,-1.7486 -1.26891,-1.83307 0,-0.0371 -0.16163,-0.26093 -0.35919,-0.49736 -0.55206,-0.6607 -0.56236,-0.67563 -0.75833,-1.09833 -0.10117,-0.21824 -0.28907,-0.55658 -0.41757,-0.75188 -0.1285,-0.19529 -0.34316,-0.541494 -0.47702,-0.769338 -0.13387,-0.227844 -0.3351,-0.552788 -0.44719,-0.72211 -0.22129,-0.334282 -0.48021,-0.739791 -0.71033,-1.112466 -0.0804,-0.130198 -0.20472,-0.369873 -0.2763,-0.532615 -0.15432,-0.350869 -0.10036,-0.252755 -1.20432,-2.189663 -0.48233,-0.846268 -1.01914,-1.831615 -1.19289,-2.189657 -0.17376,-0.358042 -0.36504,-0.730875 -0.42508,-0.828521 -0.15161,-0.246571 -1.18845,-2.474957 -1.18845,-2.554233 0,-0.128335 -0.73816,-1.591697 -0.83223,-1.649831 -0.053,-0.03277 -0.13043,-0.214401 -0.17199,-0.403594 -0.0416,-0.189194 -0.1788,-0.463045 -0.305,-0.608547 -0.1262,-0.145512 -0.22945,-0.407946 -0.22945,-0.583189 0,-0.175243 -0.10653,-0.415027 -0.23672,-0.532854 -0.14248,-0.128943 -0.23672,-0.364543 -0.23672,-0.5918 0,-0.227253 -0.0942,-0.462857 -0.23673,-0.591799 -0.13019,-0.117824 -0.23671,-0.353908 -0.23671,-0.524628 0,-0.17072 -0.077,-0.420331 -0.17112,-0.554696 -0.0941,-0.134361 -0.23572,-0.505731 -0.31469,-0.825263 -0.079,-0.319534 -0.24166,-0.707992 -0.36151,-0.863242 -0.11985,-0.155246 -0.21792,-0.428351 -0.21792,-0.606894 0,-0.178545 -0.0753,-0.38709 -0.16725,-0.463434 -0.092,-0.07634 -0.20314,-0.399759 -0.24701,-0.718696 -0.0439,-0.318941 -0.15241,-0.640187 -0.24121,-0.713884 -0.0888,-0.0737 -0.19736,-0.382631 -0.24125,-0.686524 -0.0439,-0.30389 -0.15057,-0.685685 -0.23707,-0.84843 -0.0865,-0.162745 -0.20962,-0.535579 -0.2736,-0.828517 -0.11293,-0.517076 -0.36248,-1.345658 -0.62384,-2.071299 -0.0703,-0.195295 -0.18052,-0.62139 -0.24486,-0.946879 -0.0644,-0.32549 -0.21414,-0.831478 -0.33289,-1.124419 -0.11875,-0.29294 -0.24731,-0.762732 -0.28569,-1.043981 -0.0384,-0.281249 -0.14212,-0.627452 -0.23052,-0.769339 -0.0884,-0.141888 -0.19385,-0.600157 -0.23433,-1.018377 -0.0414,-0.427828 -0.15417,-0.849421 -0.2578,-0.963941 -0.10132,-0.111949 -0.210351,-0.462174 -0.242301,-0.778279 -0.0319,-0.316105 -0.13308,-0.814415 -0.22474,-1.107356 -0.0916,-0.292941 -0.2015,-0.878822 -0.2441,-1.301958 -0.0426,-0.423137 -0.14634,-0.879635 -0.23053,-1.014443 -0.0842,-0.134806 -0.1917,-0.560902 -0.23891,-0.946878 -0.0472,-0.385976 -0.18539,-0.956742 -0.30707,-1.268367 -0.13435,-0.344109 -0.22123,-0.865341 -0.22123,-1.327411 0,-0.418452 -0.0819,-1.002178 -0.18209,-1.297169 -0.10015,-0.294992 -0.25513,-1.082466 -0.344391,-1.749944 -0.0893,-0.667479 -0.21593,-1.426645 -0.28147,-1.687037 -0.0655,-0.260392 -0.15708,-1.112582 -0.2034,-1.893757 -0.0463,-0.781175 -0.13582,-1.553474 -0.19886,-1.716218 -0.36176,-0.933713 -0.68592,-16.64906 -0.45654,-22.133292 0.0694,-1.659998 0.16056,-6.799774 0.20252,-11.421726 0.0612,-6.742404 0.10818,-8.466726 0.23764,-8.72316 0.0888,-0.17579 0.16136,-0.429303 0.16136,-0.563369 0,-0.1340673 0.11306,-0.3364463 0.25123,-0.4497273 0.13818,-0.113287 0.348611,-0.306408 0.467621,-0.429164 0.20595,-0.212447 0.52265,-0.224659 6.584041,-0.253881 4.09268,-0.01974 6.68482,-0.07982 7.25537,-0.168183 0.48823,-0.07562 2.13935,-0.185134 3.66916,-0.24338 1.52979,-0.05823 2.9945,-0.167091 3.25489,-0.241879 0.26039,-0.07479 1.08595,-0.208249 1.83458,-0.296578 0.74862,-0.08833 1.60082,-0.211105 1.89376,-0.272831 0.29294,-0.06172 1.06523,-0.149187 1.71621,-0.194365 0.65098,-0.04514 1.34339,-0.160018 1.53868,-0.255204 0.1953,-0.09519 0.76677,-0.220606 1.26995,-0.278694 0.50318,-0.0581 1.02735,-0.165828 1.16484,-0.239405 0.13748,-0.07358 0.75107,-0.181192 1.36354,-0.239135 0.61247,-0.05797 1.26005,-0.179225 1.43908,-0.269508 0.17903,-0.09028 0.62227,-0.197531 0.98499,-0.23832 0.36272,-0.04079 0.81545,-0.149272 1.00607,-0.241063 0.1906,-0.09178 0.70278,-0.202847 1.13816,-0.246801 0.43539,-0.04395 0.85085,-0.151286 0.92325,-0.238523 0.0724,-0.08724 0.40859,-0.195615 0.74707,-0.240839 0.33849,-0.0452 0.69922,-0.156103 0.80163,-0.246406 0.10241,-0.0903 0.4486,-0.197945 0.76934,-0.239221 0.32073,-0.04126 0.74922,-0.174705 0.9522,-0.296506 0.20297,-0.121802 0.55123,-0.221462 0.7739,-0.221462 0.22267,0 0.61379,-0.106522 0.86916,-0.23672 0.25538,-0.130191 0.61793,-0.236714 0.80568,-0.236714 0.18776,0 0.48276,-0.09876 0.65555,-0.219461 0.17279,-0.120703 0.47396,-0.255697 0.66925,-0.299986 0.19529,-0.04428 0.51487,-0.15611 0.71016,-0.248486 0.19529,-0.09237 0.55761,-0.199991 0.80515,-0.239161 0.24754,-0.03915 0.47904,-0.146714 0.51445,-0.238997 0.0354,-0.09228 0.25898,-0.201847 0.49682,-0.243478 0.23783,-0.04159 0.55185,-0.150563 0.69783,-0.242077 0.14598,-0.09152 0.50397,-0.199096 0.79555,-0.239063 0.37691,-0.05165 0.58323,-0.153675 0.71379,-0.352935 0.101,-0.154155 0.28284,-0.28027297 0.4041,-0.28027297 0.12126,0 0.37302,-0.07957 0.55948,-0.176817 0.18646,-0.09724 0.45886,-0.177132 0.60534,-0.177534 0.14647,-3.35e-4 0.36986,-0.104285 0.49642,-0.230844 0.12657,-0.126572 0.4176,-0.265297 0.64676,-0.308284 0.22916,-0.04297 0.47616,-0.149878 0.5489,-0.237523 0.0727,-0.08765 0.36906,-0.194865 0.65849,-0.238267 0.3369,-0.05053 0.56913,-0.15907 0.64546,-0.301704 0.0803,-0.149931 0.24862,-0.22279 0.51488,-0.22279 0.2176,0 0.58684,-0.07989 0.82055,-0.17754103 0.5306,-0.221691 1.17507,-0.227462 1.5924,-0.01428 0.17579,0.08981 0.50603,0.20226103 0.73388,0.24989303 0.22783,0.04764 0.50086,0.162854 0.6067,0.256033 0.10585,0.09318 0.39879,0.200991 0.65098,0.239563 0.25219,0.03856 0.53843,0.136889 0.63607,0.218487 0.0976,0.08159 0.35606,0.186338 0.57426,0.232759 0.2182,0.04639 0.49782,0.185502 0.62139,0.309074 0.12357,0.123565 0.32616,0.224666 0.4502,0.224666 0.12405,0 0.43031,0.100331 0.68058,0.222961 0.25026,0.122631 0.58818,0.28202397 0.75093,0.35421897 0.16274,0.0722 0.37579,0.180995 0.47344,0.24178 0.19022,0.118426 1.11075,0.431922 1.75446,0.597513 0.21632,0.05567 0.48613,0.185166 0.59957,0.287827 0.11343,0.102654 0.38916,0.222205 0.61273,0.265672 0.22357,0.04349 0.59212,0.177251 0.819,0.297308 0.22688,0.120052 0.53805,0.218277 0.69149,0.218277 0.15344,0 0.41441,0.106523 0.57993,0.236721 0.16711,0.131447 0.48016,0.23672 0.70395,0.23672 0.22166,0 0.61181,0.106523 0.86702,0.236714 0.2552,0.130197 0.61873,0.23672 0.80784,0.23672 0.18911,0 0.47085,0.09841 0.62611,0.218685 0.15524,0.120281 0.54217,0.253361 0.85984,0.295742 0.31767,0.04237 0.75004,0.183654 0.96085,0.313937 0.2108,0.130283 0.55274,0.236878 0.75985,0.236878 0.20712,0 0.53356,0.08118 0.72544,0.180402 0.19187,0.09922 0.73516,0.22945 1.20731,0.289393 0.47215,0.05994 1.05647,0.191819 1.2985,0.293039 0.24203,0.101226 0.62837,0.184041 0.85854,0.184041 0.23017,0 0.61723,0.106529 0.86015,0.236727 0.27564,0.147733 0.6678,0.236714 1.04323,0.236714 0.330853,0 0.99741,0.105272 1.481247,0.233937 0.48384,0.128664 1.13072,0.235187 1.43753,0.23672 0.30681,0.002 0.8128,0.102272 1.12443,0.22387 0.31335,0.122275 1.06916,0.258066 1.69102,0.303816 0.61843,0.04547 1.41736,0.154017 1.77539,0.241155 0.35804,0.08713 1.13924,0.193747 1.73598,0.236918 0.59673,0.04316 1.36903,0.157596 1.71622,0.254276 0.39573,0.110201 1.62486,0.216224 3.29434,0.284175 1.46471,0.05961 3.06257,0.168124 3.5508,0.241122 0.50871,0.07606 3.59112,0.166032 7.21996,0.210736 l 6.33225,0.07801 0.5918,0.362911 c 0.66759,0.409385 0.65041,0.356186 0.89564,2.7736283 0.19982,1.970024 0.21089,38.316238 0.0121,39.768909 -0.0846,0.61843 -0.21998,1.896716 -0.3008,2.840636 -0.0808,0.94392 -0.20397,1.822741 -0.27371,1.952938 -0.0697,0.130196 -0.1867,0.752902 -0.25989,1.383792 -0.0732,0.630891 -0.18464,1.282647 -0.24764,1.448348 -0.063,0.165702 -0.17194,0.76802 -0.24209,1.338484 -0.0701,0.570465 -0.20488,1.299871 -0.29942,1.620901 -0.0945,0.321031 -0.17423,0.800388 -0.17708,1.065238 -0.003,0.264852 -0.0876,0.694595 -0.18841,0.954987 -0.10076,0.260392 -0.23519,0.816679 -0.29873,1.236193 -0.0636,0.419514 -0.18749,0.935012 -0.27546,1.14555 -0.088,0.210539 -0.19724,0.69286 -0.24283,1.071825 -0.0456,0.378964 -0.15109,0.76892 -0.23441,0.866566 -0.0833,0.09765 -0.20498,0.550374 -0.27033,1.006059 -0.0653,0.455686 -0.2015,1.041567 -0.30258,1.301958 -0.10109,0.260392 -0.18612,0.682294 -0.18898,0.93756 -0.003,0.255265 -0.0846,0.551909 -0.18175,0.659207 -0.0971,0.107299 -0.22915,0.472444 -0.29344,0.811434 -0.0643,0.338991 -0.17831,0.731117 -0.25339,0.871391 -0.0751,0.140274 -0.20496,0.52499 -0.28863,0.854924 -0.0837,0.329933 -0.23409,0.812927 -0.33422,1.07332 -0.10013,0.260391 -0.1844,0.595151 -0.18725,0.743912 -0.003,0.148761 -0.0791,0.388438 -0.16945,0.532619 -0.0903,0.144178 -0.20143,0.473352 -0.24687,0.731495 -0.0455,0.25814 -0.15337,0.606187 -0.23985,0.773428 -0.0865,0.167244 -0.19616,0.515287 -0.24373,0.77343 -0.0476,0.258143 -0.18528,0.596372 -0.30604,0.751622 -0.12077,0.155246 -0.21957,0.417366 -0.21957,0.58248 0,0.165113 -0.0718,0.384294 -0.15957,0.487067 -0.15049,0.176202 -0.2963,0.546576 -0.73755,1.873488 -0.10284,0.309214 -0.26262,0.703581 -0.35508,0.876367 -0.0925,0.172791 -0.16812,0.39424 -0.16812,0.492111 0,0.09787 -0.14025,0.462484 -0.31167,0.810256 -0.29207,0.5925 -0.42948,0.891455 -1.025,2.230166 -0.13033,0.292939 -0.28268,0.612515 -0.33859,0.710161 -0.0559,0.09765 -0.1341,0.257434 -0.17379,0.355081 -0.41315,1.016688 -1.81655,3.79756 -2.02021,4.003098 -0.0852,0.08602 -0.15498,0.264041 -0.15498,0.395594 0,0.131546 -0.10652,0.374609 -0.23672,0.540122 -0.13019,0.165518 -0.23672,0.378564 -0.23672,0.47344 0,0.09488 -0.10652,0.307922 -0.23671,0.473441 -0.1302,0.165519 -0.23672,0.393758 -0.23672,0.507209 0,0.113445 -0.0881,0.279359 -0.19588,0.368701 -0.10773,0.08934 -0.2683,0.322234 -0.35684,0.517527 -0.20265,0.446996 -0.38236,0.737224 -0.71965,1.162151 -0.14647,0.184528 -0.26631,0.403062 -0.26631,0.48562 0,0.08257 -0.10653,0.246518 -0.23672,0.364345 -0.13019,0.117828 -0.23672,0.283504 -0.23672,0.368168 0,0.08466 -0.13414,0.356035 -0.29806,0.60304 -0.16394,0.247011 -0.34927,0.529002 -0.41184,0.626648 -0.0626,0.09765 -0.35454,0.541228 -0.64881,0.985738 -0.29428,0.4445 -0.53505,0.87566 -0.53505,0.95813 0,0.0825 -0.10728,0.24701 -0.23839,0.36567 -0.13111,0.11865 -0.42066,0.48642 -0.64345,0.81727 -1.03226,1.53298 -1.98309,2.87649 -2.22665,3.14627 -0.14695,0.16274 -0.42557,0.53558 -0.61916,0.82852 -0.19357,0.29294 -0.45934,0.64947 -0.59059,0.79229 -0.13125,0.14282 -0.33183,0.36034 -0.44575,0.48337 -0.11392,0.12303 -0.20713,0.2623 -0.20713,0.30947 0,0.0838 -1.86638,2.42658 -2.23864,2.81006 -0.10327,0.10639 -0.40081,0.44853 -0.6612,0.76032 -0.67807,0.81192 -2.19139,2.42153 -3.46204,3.6823 -0.60215,0.59748 -1.09483,1.11144 -1.09483,1.14214 0,0.1162 -1.03521,1.14587 -1.15205,1.14587 -0.0673,0 -0.30542,0.19974 -0.52916,0.44385 -0.49417,0.53922 -2.767677,2.63351 -2.858847,2.63351 -0.0359,0 -0.19162,0.11983 -0.34611,0.26631 -0.7167,0.67951 -1.7497,1.51768 -2.02516,1.64318 -0.16724,0.0762 -0.33533,0.23699 -0.37351,0.35732 -0.0382,0.1203 -0.14309,0.21875 -0.23312,0.21875 -0.09,0 -0.20627,0.0666 -0.25833,0.14795 -0.0521,0.0814 -0.36096,0.33035 -0.68645,0.55331 -0.32549,0.22294 -0.67786,0.48925 -0.78305,0.5918 -0.10518,0.10253 -0.31233,0.26633 -0.46032,0.36397 -0.14798,0.0977 -0.41581,0.29738 -0.59517,0.44385 -0.17936,0.14647 -0.38171,0.26631 -0.44967,0.26631 -0.068,0 -0.29995,0.16371 -0.51553,0.36379 -0.21559,0.2001 -0.5943,0.46882 -0.84159,0.59715 -0.2473,0.12835 -0.47935,0.31084 -0.5157,0.40555 -0.0363,0.0947 -0.11127,0.17219 -0.16651,0.17219 -0.11781,0 -0.91935,0.51207 -1.17619,0.75143 -0.0976,0.091 -0.29246,0.20086 -0.43292,0.24413 -0.14045,0.0433 -0.28525,0.15656 -0.32177,0.25173 -0.0365,0.0952 -0.1536,0.17303 -0.26016,0.17303 -0.10657,0 -0.35201,0.13315 -0.54542,0.2959 -0.19341,0.16275 -0.42746,0.2959 -0.52011,0.2959 -0.0926,0 -0.16846,0.056 -0.16846,0.1244 0,0.0684 -0.17734,0.1985 -0.39409,0.28907 -0.21675,0.0906 -0.46296,0.24762 -0.54711,0.34903 -0.0842,0.10141 -0.20031,0.18438 -0.25811,0.18438 -0.0578,0 -0.35753,0.1766 -0.66607,0.39245 -0.54727,0.38286 -2.61255,1.59999 -3.38459,1.99467 -0.21244,0.10859 -0.45618,0.28169 -0.54163,0.38467 -0.0855,0.10296 -0.22495,0.18721 -0.30997,0.18721 -0.085,0 -0.23053,0.0759 -0.32334,0.16874 -0.0928,0.0928 -0.34961,0.25153 -0.57067,0.3527 -0.40427,0.18504 -0.62386,0.31048 -1.17354,0.67036 -0.164,0.10737 -0.43031,0.23588 -0.5918,0.28554 -0.16148,0.0497 -0.36403,0.14676 -0.4501,0.21576 -0.20213,0.16204 -1.46434,0.67687 -1.61891,0.66032 -0.0651,-0.007 -0.401,-0.13223 -0.74644,-0.27837 z"
       id="path4734"
       inkscape:connector-curvature="0" />
  </g>
  <g
     inkscape:groupmode="layer"
     id="layer4"
     inkscape:label="Shamrock"
     transform="translate(-64.53101,-77.813351)"
     style="display:inline">
    <path
       transform="translate(46.231019,79.130339)"
       style="display:inline;fill:#ffffff;fill-opacity:1;stroke-width:0.21009138"
       d="m 73.274223,66.866227 c -0.28991,-0.289899 -0.64476,-0.947357 -0.78858,-1.461012 -0.25743,-0.919452 -0.25014,-0.947168 0.47063,-1.789236 1.10215,-1.287606 1.64778,-3.191751 1.77718,-6.201992 0.11181,-2.601063 -0.33325,-6.920489 -0.82403,-7.99765 -0.34631,-0.760076 -0.6821,-0.510713 -0.74834,0.555729 -0.12243,1.971201 -0.71547,5.751493 -1.20503,7.681426 -1.06814,4.210717 -2.87192,6.845885 -5.56292,8.126969 -1.18403,0.563667 -1.59841,0.650217 -3.15138,0.658232 -1.53814,0.0079 -1.95317,-0.07184 -2.96904,-0.570736 -2.12281,-1.042501 -3.61753,-2.635921 -5.14425,-5.48394 -0.46022,-0.858509 -1.12508,-1.622508 -2.19393,-2.521092 -2.62541,-2.207189 -3.92108,-4.621988 -4.13546,-7.707548 -0.18822,-2.70886 0.74801,-4.962644 2.72873,-6.568807 2.11553,-1.71549 4.54789,-2.44349 8.70574,-2.605612 2.62335,-0.102295 6.81783,0.152938 8.15314,0.496109 0.23111,0.05938 -0.14706,-0.237655 -0.84037,-0.660096 -7.66153,-4.668362 -11.07046,-9.084087 -10.772,-13.953434 0.27404,-4.471311 4.18414,-7.581144 9.53201,-7.581144 1.46301,0 1.91648,-0.09236 3.05471,-0.622175 4.15593,-1.934465 7.90998,-1.686387 10.42124,0.688664 2.23809,2.116684 3.0045,4.911266 2.26366,8.254016 -0.688,3.104342 -1.84512,5.564382 -4.66537,9.918593 -0.84686,1.30746 -1.42064,2.30507 -1.27507,2.21692 0.14556,-0.08816 1.25735,-0.813573 2.47063,-1.612042 7.9326,-5.220522 14.34414,-6.173731 18.11939,-2.693825 1.79579,1.655302 2.83589,4.457388 2.599323,7.002738 -0.13873,1.492768 -0.962933,4.371105 -1.624643,5.67379 -0.25903,0.509922 -0.39594,1.221334 -0.39594,2.057245 0,2.7884 -1.26068,6.61991 -2.66946,8.113208 -1.39478,1.478437 -3.59154,2.390873 -5.7562,2.390873 -1.28731,0 -3.41833,-0.675562 -4.58056,-1.452096 -1.97565,-1.320022 -4.33743,-3.948927 -6.44425,-7.173138 -0.72143,-1.104045 -1.4782,-2.143997 -1.6817,-2.311003 -0.33926,-0.278414 -0.35825,-0.25999 -0.22848,0.221581 1.1422,4.238485 1.42581,10.455736 0.60689,13.303655 -0.74231,2.58147 -1.62866,4.133927 -2.36021,4.133927 -0.19743,0 -0.59616,-0.23719 -0.88606,-0.527097 z"
       id="path3913-6"
       inkscape:connector-curvature="0" />
  </g>
  <g
     inkscape:groupmode="layer"
     id="layer2"
     inkscape:label="Text"
     style="display:inline"
     transform="translate(-64.53101,-77.813351)">
    <text
       xml:space="preserve"
       style="font-style:normal;font-variant:normal;font-weight:normal;font-stretch:normal;font-size:25.31646729px;line-height:1.25;font-family:'Russo One';letter-spacing:4.74683762px;word-spacing:0px;fill:#ffffff;fill-opacity:1;stroke:none;stroke-width:0.23734188;stroke-opacity:1"
       x="89.055191"
       y="175.38855"
       id="text7412-5">IIGL</text>
  </g>
</svg>
