<?xml version="1.0" encoding="UTF-8" standalone="no"?>
<!-- Created with Inkscape (http://www.inkscape.org/) -->

<svg
   xmlns:dc="http://purl.org/dc/elements/1.1/"
   xmlns:cc="http://creativecommons.org/ns#"
   xmlns:rdf="http://www.w3.org/1999/02/22-rdf-syntax-ns#"
   xmlns:svg="http://www.w3.org/2000/svg"
   xmlns="http://www.w3.org/2000/svg"
   xmlns:sodipodi="http://sodipodi.sourceforge.net/DTD/sodipodi-0.dtd"
   xmlns:inkscape="http://www.inkscape.org/namespaces/inkscape"
   width="490.01227mm"
   height="57.239624mm"
   viewBox="0 0 490.01229 57.239626"
   version="1.1"
   id="svg927"
   inkscape:version="0.92.2 (unknown)"
   sodipodi:docname="hoodie_back.svg">
  <defs
     id="defs921" />
  <sodipodi:namedview
     id="base"
     pagecolor="#ffffff"
     bordercolor="#666666"
     borderopacity="1.0"
     inkscape:pageopacity="0.0"
     inkscape:pageshadow="2"
     inkscape:zoom="0.24748737"
     inkscape:cx="542.30581"
     inkscape:cy="557.5961"
     inkscape:document-units="mm"
     inkscape:current-layer="text969-3"
     showgrid="true"
     units="mm"
     inkscape:pagecheckerboard="true"
     inkscape:snap-page="true"
     inkscape:snap-center="true"
     inkscape:snap-object-midpoints="true"
     inkscape:snap-midpoints="true"
     inkscape:snap-smooth-nodes="true"
     inkscape:snap-intersection-paths="true"
     inkscape:object-paths="true"
     inkscape:snap-bbox="true"
     inkscape:snap-text-baseline="true"
     inkscape:window-width="1859"
     inkscape:window-height="1176"
     inkscape:window-x="1981"
     inkscape:window-y="24"
     inkscape:window-maximized="1">
    <inkscape:grid
       type="xygrid"
       id="grid1511"
       units="mm"
       spacingx="1"
       spacingy="1"
       originx="-130.00395"
       originy="-202.76047" />
  </sodipodi:namedview>
  <metadata
     id="metadata924">
    <rdf:RDF>
      <cc:Work
         rdf:about="">
        <dc:format>image/svg+xml</dc:format>
        <dc:type
           rdf:resource="http://purl.org/dc/dcmitype/StillImage" />
        <dc:title />
      </cc:Work>
    </rdf:RDF>
  </metadata>
  <g
     inkscape:label="Layer 1"
     inkscape:groupmode="layer"
     id="layer1"
     transform="translate(-64.868325,-153.365)">
    <g
       aria-label="Irish Interfirms Gaming League"
       style="font-style:normal;font-weight:normal;font-size:6.38710356px;line-height:1.25;font-family:sans-serif;letter-spacing:0px;word-spacing:0px;display:inline;fill:#ffffff;fill-opacity:1;stroke:none;stroke-width:0.15967761"
       id="text969">
      <path
         d="M 75.905241,175.13225 H 64.868325 v -4.29214 h 2.759229 v -12.8764 h -2.759229 v -4.29213 h 11.036916 v 4.29213 h -2.759229 v 12.8764 h 2.759229 z"
         style="font-style:normal;font-variant:normal;font-weight:normal;font-stretch:normal;font-size:30.65810204px;font-family:sans-serif, 'Russo One';-inkscape-font-specification:'sans-serif, Russo One';fill:#ffffff;fill-opacity:1;stroke-width:0.15967761"
         id="path2159" />
      <path
         d="m 87.706215,163.32888 q -1.93146,0 -3.985553,0.91974 v 10.88363 h -5.365168 v -16.2488 H 83.1075 l 0.306581,1.99278 q 2.636597,-2.29936 5.518458,-2.29936 h 1.379615 v 4.75201 z"
         style="font-style:normal;font-variant:normal;font-weight:normal;font-stretch:normal;font-size:30.65810204px;font-family:sans-serif, 'Russo One';-inkscape-font-specification:'sans-serif, Russo One';fill:#ffffff;fill-opacity:1;stroke-width:0.15967761"
         id="path2161" />
      <path
         d="m 99.231745,159.49662 v 15.63563 H 93.866577 V 163.63546 H 91.56722 v -4.13884 z M 93.866577,153.365 h 5.365168 v 4.29213 h -5.365168 z"
         style="font-style:normal;font-variant:normal;font-weight:normal;font-stretch:normal;font-size:30.65810204px;font-family:sans-serif, 'Russo One';-inkscape-font-specification:'sans-serif, Russo One';fill:#ffffff;fill-opacity:1;stroke-width:0.15967761"
         id="path2163" />
      <path
         d="m 101.69397,170.84011 q 6.2236,0.45988 9.8106,0.45988 0.45987,0 0.76645,-0.30659 0.30658,-0.30658 0.30658,-0.76645 v -1.07303 h -6.59149 q -2.08475,0 -3.34173,-1.25698 -1.25699,-1.25699 -1.25699,-3.34174 v -1.07303 q 0,-2.08475 1.25699,-3.34173 1.25698,-1.25699 3.34173,-1.25699 h 10.42375 v 3.98556 h -8.58427 q -0.45987,0 -0.76645,0.30658 -0.30658,0.30658 -0.30658,0.76645 0,0.45987 0.30658,0.76645 0.30658,0.30658 0.76645,0.30658 h 5.51846 q 2.08475,0 3.34174,1.25699 1.25698,1.25698 1.25698,3.34173 v 1.22632 q 0,2.08475 -1.25698,3.34174 -1.25699,1.25698 -3.34174,1.25698 -5.42648,0 -11.65008,-0.61316 z"
         style="font-style:normal;font-variant:normal;font-weight:normal;font-stretch:normal;font-size:30.65810204px;font-family:sans-serif, 'Russo One';-inkscape-font-specification:'sans-serif, Russo One';fill:#ffffff;fill-opacity:1;stroke-width:0.15967761"
         id="path2165" />
      <path
         d="m 125.4564,159.19003 q 2.97383,-0.61316 5.21187,-0.61316 h 1.37962 q 2.08475,0 3.34173,1.25699 1.25698,1.25698 1.25698,3.34173 v 11.95666 h -5.36516 v -11.3435 q 0,-0.45987 -0.30659,-0.76645 -0.30658,-0.30658 -0.76645,-0.30658 h -1.07303 q -1.16501,0 -2.14607,0.12263 -0.9504,0.12263 -1.5329,0.18395 v 12.10995 h -5.36517 v -21.46067 h 5.36517 z"
         style="font-style:normal;font-variant:normal;font-weight:normal;font-stretch:normal;font-size:30.65810204px;font-family:sans-serif, 'Russo One';-inkscape-font-specification:'sans-serif, Russo One';fill:#ffffff;fill-opacity:1;stroke-width:0.15967761"
         id="path2167" />
      <path
         d="M 159.07731,175.13225 H 148.0404 v -4.29214 h 2.75923 v -12.8764 h -2.75923 v -4.29213 h 11.03691 v 4.29213 h -2.75922 v 12.8764 h 2.75922 z"
         style="font-style:normal;font-variant:normal;font-weight:normal;font-stretch:normal;font-size:30.65810204px;font-family:sans-serif, 'Russo One';-inkscape-font-specification:'sans-serif, Russo One';fill:#ffffff;fill-opacity:1;stroke-width:0.15967761"
         id="path2169" />
      <path
         d="m 170.57171,163.0223 q -1.62488,0 -3.67897,0.61316 v 11.49679 h -5.36517 v -16.2488 h 4.752 l 0.30659,1.53291 q 1.44093,-0.9504 2.94317,-1.37962 1.53291,-0.45987 2.57528,-0.45987 h 1.37962 q 2.08475,0 3.34173,1.25699 1.25698,1.25698 1.25698,3.34173 v 11.95666 h -5.36516 v -11.03692 q 0,-0.45987 -0.30659,-0.76645 -0.30658,-0.30658 -0.76645,-0.30658 z"
         style="font-style:normal;font-variant:normal;font-weight:normal;font-stretch:normal;font-size:30.65810204px;font-family:sans-serif, 'Russo One';-inkscape-font-specification:'sans-serif, Russo One';fill:#ffffff;fill-opacity:1;stroke-width:0.15967761"
         id="path2171" />
      <path
         d="m 192.21202,175.13225 q -2.97383,0.30658 -5.82504,0.30658 -2.08475,0 -3.34173,-1.25698 -1.25698,-1.25699 -1.25698,-3.34174 v -7.81781 h -1.83949 v -4.13885 h 1.83949 l 0.61316,-3.67897 h 4.75201 v 3.67897 h 3.83226 v 4.13885 h -3.83226 v 7.05136 q 0,0.45987 0.30658,0.76645 0.30658,0.30658 0.76645,0.30658 h 3.98555 z"
         style="font-style:normal;font-variant:normal;font-weight:normal;font-stretch:normal;font-size:30.65810204px;font-family:sans-serif, 'Russo One';-inkscape-font-specification:'sans-serif, Russo One';fill:#ffffff;fill-opacity:1;stroke-width:0.15967761"
         id="path2173" />
      <path
         d="m 200.32684,162.40914 q -1.22633,0 -1.22633,1.22632 v 1.6862 h 5.21188 v -1.6862 q 0,-1.22632 -1.22632,-1.22632 z m 8.73756,12.41653 q -5.91702,0.61316 -10.73034,0.61316 -2.08475,0 -3.34173,-1.25698 -1.25698,-1.25699 -1.25698,-3.34174 v -7.35794 q 0,-2.29936 1.28764,-3.587 1.31829,-1.3183 3.61765,-1.3183 h 6.13162 q 2.29936,0 3.587,1.3183 1.3183,1.28764 1.3183,3.587 v 5.67175 h -10.57705 v 1.22632 q 0,0.45987 0.30658,0.76645 0.30659,0.30659 0.76646,0.30659 3.03515,0 8.89085,-0.45988 z"
         style="font-style:normal;font-variant:normal;font-weight:normal;font-stretch:normal;font-size:30.65810204px;font-family:sans-serif, 'Russo One';-inkscape-font-specification:'sans-serif, Russo One';fill:#ffffff;fill-opacity:1;stroke-width:0.15967761"
         id="path2175" />
      <path
         d="m 221.77554,163.32888 q -1.93146,0 -3.98556,0.91974 v 10.88363 h -5.36516 v -16.2488 h 4.752 l 0.30658,1.99278 q 2.6366,-2.29936 5.51846,-2.29936 h 1.37962 v 4.75201 z"
         style="font-style:normal;font-variant:normal;font-weight:normal;font-stretch:normal;font-size:30.65810204px;font-family:sans-serif, 'Russo One';-inkscape-font-specification:'sans-serif, Russo One';fill:#ffffff;fill-opacity:1;stroke-width:0.15967761"
         id="path2177" />
      <path
         d="m 239.73927,157.81042 q -0.88909,-0.0613 -2.36067,-0.18395 -1.47159,-0.12263 -2.54463,-0.12263 -1.07303,0 -1.37961,0.30658 -0.30658,0.30658 -0.30658,0.76645 v 1.53291 h 5.05858 v 4.13884 h -5.05858 v 10.88363 h -5.36517 v -10.88363 h -2.14607 v -4.13884 h 2.14607 v -2.14607 q 0,-2.08475 1.25698,-3.34173 1.25698,-1.25698 3.34173,-1.25698 1.87015,0 3.9549,0.12263 2.08475,0.12263 3.40305,0.18395 z"
         style="font-style:normal;font-variant:normal;font-weight:normal;font-stretch:normal;font-size:30.65810204px;font-family:sans-serif, 'Russo One';-inkscape-font-specification:'sans-serif, Russo One';fill:#ffffff;fill-opacity:1;stroke-width:0.15967761"
         id="path2179" />
      <path
         d="m 247.07325,159.49662 v 15.63563 h -5.36516 v -11.49679 h -2.29936 v -4.13884 z m -5.36516,-6.13162 h 5.36516 v 4.29213 h -5.36516 z"
         style="font-style:normal;font-variant:normal;font-weight:normal;font-stretch:normal;font-size:30.65810204px;font-family:sans-serif, 'Russo One';-inkscape-font-specification:'sans-serif, Russo One';fill:#ffffff;fill-opacity:1;stroke-width:0.15967761"
         id="path2181" />
      <path
         d="m 259.49937,163.32888 q -1.93146,0 -3.98556,0.91974 v 10.88363 h -5.36516 v -16.2488 h 4.752 l 0.30658,1.99278 q 2.6366,-2.29936 5.51846,-2.29936 h 1.37962 v 4.75201 z"
         style="font-style:normal;font-variant:normal;font-weight:normal;font-stretch:normal;font-size:30.65810204px;font-family:sans-serif, 'Russo One';-inkscape-font-specification:'sans-serif, Russo One';fill:#ffffff;fill-opacity:1;stroke-width:0.15967761"
         id="path2183" />
      <path
         d="m 275.16374,158.57687 q 2.48331,0 3.83227,1.83949 1.41027,-0.9504 3.03515,-1.37962 1.65554,-0.45987 2.94318,-0.45987 h 0.30658 q 2.08475,0 3.34173,1.25699 1.25698,1.25698 1.25698,3.34173 v 11.95666 h -5.36517 v -11.03692 q 0,-0.45987 -0.30658,-0.76645 -0.30658,-0.30658 -0.76645,-0.30658 h -0.15329 q -1.37961,0 -3.52568,0.61316 v 11.49679 h -5.36517 v -11.03692 q 0,-0.45987 -0.30658,-0.76645 -0.30658,-0.30658 -0.76645,-0.30658 h -0.15329 q -1.37962,0 -3.52569,0.61316 v 11.49679 h -5.36516 v -16.2488 h 4.752 l 0.30658,1.53291 q 1.44093,-0.9504 2.94318,-1.37962 1.53291,-0.45987 2.57528,-0.45987 z"
         style="font-style:normal;font-variant:normal;font-weight:normal;font-stretch:normal;font-size:30.65810204px;font-family:sans-serif, 'Russo One';-inkscape-font-specification:'sans-serif, Russo One';fill:#ffffff;fill-opacity:1;stroke-width:0.15967761"
         id="path2185" />
      <path
         d="m 292.04964,170.84011 q 6.2236,0.45988 9.8106,0.45988 0.45987,0 0.76645,-0.30659 0.30658,-0.30658 0.30658,-0.76645 v -1.07303 h -6.59149 q -2.08475,0 -3.34173,-1.25698 -1.25699,-1.25699 -1.25699,-3.34174 v -1.07303 q 0,-2.08475 1.25699,-3.34173 1.25698,-1.25699 3.34173,-1.25699 h 10.42375 v 3.98556 h -8.58426 q -0.45988,0 -0.76646,0.30658 -0.30658,0.30658 -0.30658,0.76645 0,0.45987 0.30658,0.76645 0.30658,0.30658 0.76646,0.30658 h 5.51845 q 2.08475,0 3.34174,1.25699 1.25698,1.25698 1.25698,3.34173 v 1.22632 q 0,2.08475 -1.25698,3.34174 -1.25699,1.25698 -3.34174,1.25698 -5.42648,0 -11.65008,-0.61316 z"
         style="font-style:normal;font-variant:normal;font-weight:normal;font-stretch:normal;font-size:30.65810204px;font-family:sans-serif, 'Russo One';-inkscape-font-specification:'sans-serif, Russo One';fill:#ffffff;fill-opacity:1;stroke-width:0.15967761"
         id="path2187" />
      <path
         d="m 338.36973,174.67238 q -7.174,0.76645 -13.18299,0.76645 -3.00449,0 -4.41476,-1.41027 -1.41028,-1.41028 -1.41028,-4.41477 v -9.81059 q 0,-3.2191 1.44093,-4.66003 1.47159,-1.47159 4.69069,-1.47159 h 11.03692 v 4.29213 h -9.81059 q -1.83949,0 -1.83949,1.83949 v 9.81059 q 0,0.70514 0.39856,1.13435 0.42921,0.39855 1.13435,0.39855 3.52568,0 6.4382,-0.15329 v -4.44542 h -3.98555 v -3.67897 h 9.50401 z"
         style="font-style:normal;font-variant:normal;font-weight:normal;font-stretch:normal;font-size:30.65810204px;font-family:sans-serif, 'Russo One';-inkscape-font-specification:'sans-serif, Russo One';fill:#ffffff;fill-opacity:1;stroke-width:0.15967761"
         id="path2189" />
      <path
         d="m 347.54322,171.14669 q 1.62488,0 3.67898,-0.61316 v -1.83948 h -4.44543 q -0.45987,0 -0.76645,0.30658 -0.30658,0.30658 -0.30658,0.76645 v 0.30658 q 0,0.45987 0.30658,0.76645 0.30658,0.30658 0.76645,0.30658 z m -5.67175,-11.95666 q 5.61044,-0.61316 10.11718,-0.61316 2.08475,0 3.34173,1.25699 1.25698,1.25698 1.25698,3.34173 v 11.95666 h -4.752 l -0.30658,-1.53291 q -1.44093,0.9504 -2.97384,1.41028 -1.50225,0.42921 -2.54462,0.42921 h -1.07304 q -2.08475,0 -3.34173,-1.25698 -1.25698,-1.25699 -1.25698,-3.34174 v -1.37961 q 0,-2.08475 1.25698,-3.34173 1.25698,-1.25699 3.34173,-1.25699 h 6.28492 v -1.22632 q 0,-0.45987 -0.30659,-0.76645 -0.30658,-0.30658 -0.76645,-0.30658 -1.99277,0 -4.41476,0.18394 -2.39134,0.18395 -3.86293,0.27593 z"
         style="font-style:normal;font-variant:normal;font-weight:normal;font-stretch:normal;font-size:30.65810204px;font-family:sans-serif, 'Russo One';-inkscape-font-specification:'sans-serif, Russo One';fill:#ffffff;fill-opacity:1;stroke-width:0.15967761"
         id="path2191" />
      <path
         d="m 370.25177,158.57687 q 2.48331,0 3.83226,1.83949 1.41028,-0.9504 3.03516,-1.37962 1.65553,-0.45987 2.94317,-0.45987 h 0.30658 q 2.08476,0 3.34174,1.25699 1.25698,1.25698 1.25698,3.34173 v 11.95666 h -5.36517 v -11.03692 q 0,-0.45987 -0.30658,-0.76645 -0.30658,-0.30658 -0.76645,-0.30658 h -0.15329 q -1.37962,0 -3.52568,0.61316 v 11.49679 h -5.36517 v -11.03692 q 0,-0.45987 -0.30658,-0.76645 -0.30658,-0.30658 -0.76646,-0.30658 h -0.15329 q -1.37961,0 -3.52568,0.61316 v 11.49679 h -5.36517 v -16.2488 h 4.75201 l 0.30658,1.53291 q 1.44093,-0.9504 2.94318,-1.37962 1.5329,-0.45987 2.57528,-0.45987 z"
         style="font-style:normal;font-variant:normal;font-weight:normal;font-stretch:normal;font-size:30.65810204px;font-family:sans-serif, 'Russo One';-inkscape-font-specification:'sans-serif, Russo One';fill:#ffffff;fill-opacity:1;stroke-width:0.15967761"
         id="path2193" />
      <path
         d="m 394.49562,159.49662 v 15.63563 h -5.36517 v -11.49679 h -2.29936 v -4.13884 z m -5.36517,-6.13162 h 5.36517 v 4.29213 h -5.36517 z"
         style="font-style:normal;font-variant:normal;font-weight:normal;font-stretch:normal;font-size:30.65810204px;font-family:sans-serif, 'Russo One';-inkscape-font-specification:'sans-serif, Russo One';fill:#ffffff;fill-opacity:1;stroke-width:0.15967761"
         id="path2195" />
      <path
         d="m 406.61513,163.0223 q -1.62487,0 -3.67897,0.61316 v 11.49679 h -5.36517 v -16.2488 h 4.75201 l 0.30658,1.53291 q 1.44093,-0.9504 2.94318,-1.37962 1.5329,-0.45987 2.57528,-0.45987 h 1.37961 q 2.08476,0 3.34174,1.25699 1.25698,1.25698 1.25698,3.34173 v 11.95666 h -5.36517 v -11.03692 q 0,-0.45987 -0.30658,-0.76645 -0.30658,-0.30658 -0.76645,-0.30658 z"
         style="font-style:normal;font-variant:normal;font-weight:normal;font-stretch:normal;font-size:30.65810204px;font-family:sans-serif, 'Russo One';-inkscape-font-specification:'sans-serif, Russo One';fill:#ffffff;fill-opacity:1;stroke-width:0.15967761"
         id="path2197" />
      <path
         d="m 427.48901,173.90592 q -2.97383,0.61317 -5.21187,0.61317 h -1.07304 q -2.08475,0 -3.34173,-1.25699 -1.25698,-1.25698 -1.25698,-3.34173 v -6.13162 q 0,-2.29936 1.28764,-3.587 1.3183,-1.3183 3.61765,-1.3183 h 11.3435 v 17.16854 q 0,2.08475 -1.25698,3.34173 -1.25698,1.25699 -3.34173,1.25699 -4.81333,0 -10.73034,-0.61317 v -3.98555 q 5.8557,0.45987 8.89085,0.45987 0.45987,0 0.76645,-0.30658 0.30658,-0.30658 0.30658,-0.76645 z m -3.67897,-3.52568 q 1.93146,0 3.67897,-0.30658 v -7.05136 h -4.29213 q -1.22633,0 -1.22633,1.22632 v 5.05859 q 0,0.45987 0.30659,0.76645 0.30658,0.30658 0.76645,0.30658 z"
         style="font-style:normal;font-variant:normal;font-weight:normal;font-stretch:normal;font-size:30.65810204px;font-family:sans-serif, 'Russo One';-inkscape-font-specification:'sans-serif, Russo One';fill:#ffffff;fill-opacity:1;stroke-width:0.15967761"
         id="path2199" />
      <path
         d="m 450.94004,170.84011 h 11.19021 v 4.29214 h -16.70867 v -21.46067 h 5.51846 z"
         style="font-style:normal;font-variant:normal;font-weight:normal;font-stretch:normal;font-size:30.65810204px;font-family:sans-serif, 'Russo One';-inkscape-font-specification:'sans-serif, Russo One';fill:#ffffff;fill-opacity:1;stroke-width:0.15967761"
         id="path2201" />
      <path
         d="m 470.26185,162.40914 q -1.22632,0 -1.22632,1.22632 v 1.6862 h 5.21187 v -1.6862 q 0,-1.22632 -1.22632,-1.22632 z m 8.73756,12.41653 q -5.91701,0.61316 -10.73034,0.61316 -2.08475,0 -3.34173,-1.25698 -1.25698,-1.25699 -1.25698,-3.34174 v -7.35794 q 0,-2.29936 1.28764,-3.587 1.3183,-1.3183 3.61765,-1.3183 h 6.13163 q 2.29935,0 3.58699,1.3183 1.3183,1.28764 1.3183,3.587 v 5.67175 h -10.57704 v 1.22632 q 0,0.45987 0.30658,0.76645 0.30658,0.30659 0.76645,0.30659 3.03515,0 8.89085,-0.45988 z"
         style="font-style:normal;font-variant:normal;font-weight:normal;font-stretch:normal;font-size:30.65810204px;font-family:sans-serif, 'Russo One';-inkscape-font-specification:'sans-serif, Russo One';fill:#ffffff;fill-opacity:1;stroke-width:0.15967761"
         id="path2203" />
      <path
         d="m 488.79801,171.14669 q 1.62488,0 3.67898,-0.61316 v -1.83948 h -4.44543 q -0.45987,0 -0.76645,0.30658 -0.30658,0.30658 -0.30658,0.76645 v 0.30658 q 0,0.45987 0.30658,0.76645 0.30658,0.30658 0.76645,0.30658 z m -5.67174,-11.95666 q 5.61043,-0.61316 10.11717,-0.61316 2.08475,0 3.34173,1.25699 1.25698,1.25698 1.25698,3.34173 v 11.95666 h -4.752 l -0.30658,-1.53291 q -1.44093,0.9504 -2.97384,1.41028 -1.50224,0.42921 -2.54462,0.42921 h -1.07303 q -2.08475,0 -3.34174,-1.25698 -1.25698,-1.25699 -1.25698,-3.34174 v -1.37961 q 0,-2.08475 1.25698,-3.34173 1.25699,-1.25699 3.34174,-1.25699 h 6.28491 v -1.22632 q 0,-0.45987 -0.30658,-0.76645 -0.30659,-0.30658 -0.76646,-0.30658 -1.99277,0 -4.41476,0.18394 -2.39134,0.18395 -3.86292,0.27593 z"
         style="font-style:normal;font-variant:normal;font-weight:normal;font-stretch:normal;font-size:30.65810204px;font-family:sans-serif, 'Russo One';-inkscape-font-specification:'sans-serif, Russo One';fill:#ffffff;fill-opacity:1;stroke-width:0.15967761"
         id="path2205" />
      <path
         d="m 511.19998,173.90592 q -2.97383,0.61317 -5.21188,0.61317 h -1.07303 q -2.08475,0 -3.34173,-1.25699 -1.25699,-1.25698 -1.25699,-3.34173 v -6.13162 q 0,-2.29936 1.28765,-3.587 1.31829,-1.3183 3.61765,-1.3183 h 11.3435 v 17.16854 q 0,2.08475 -1.25698,3.34173 -1.25699,1.25699 -3.34174,1.25699 -4.81332,0 -10.73033,-0.61317 v -3.98555 q 5.8557,0.45987 8.89085,0.45987 0.45987,0 0.76645,-0.30658 0.30658,-0.30658 0.30658,-0.76645 z m -3.67897,-3.52568 q 1.93146,0 3.67897,-0.30658 v -7.05136 h -4.29213 q -1.22633,0 -1.22633,1.22632 v 5.05859 q 0,0.45987 0.30658,0.76645 0.30658,0.30658 0.76646,0.30658 z"
         style="font-style:normal;font-variant:normal;font-weight:normal;font-stretch:normal;font-size:30.65810204px;font-family:sans-serif, 'Russo One';-inkscape-font-specification:'sans-serif, Russo One';fill:#ffffff;fill-opacity:1;stroke-width:0.15967761"
         id="path2207" />
      <path
         d="m 527.11586,170.9934 q 1.62488,0 3.67897,-0.61316 V 158.88345 H 536.16 v 16.2488 h -4.75201 l -0.30658,-1.53291 q -1.44093,0.9504 -2.97383,1.41028 -1.50225,0.42921 -2.54462,0.42921 h -1.37962 q -2.08475,0 -3.34173,-1.25698 -1.25698,-1.25699 -1.25698,-3.34174 v -11.95666 h 5.36516 v 11.03692 q 0,0.45987 0.30658,0.76645 0.30659,0.30658 0.76646,0.30658 z"
         style="font-style:normal;font-variant:normal;font-weight:normal;font-stretch:normal;font-size:30.65810204px;font-family:sans-serif, 'Russo One';-inkscape-font-specification:'sans-serif, Russo One';fill:#ffffff;fill-opacity:1;stroke-width:0.15967761"
         id="path2209" />
      <path
         d="m 545.52989,162.40914 q -1.22633,0 -1.22633,1.22632 v 1.6862 h 5.21188 v -1.6862 q 0,-1.22632 -1.22632,-1.22632 z m 8.73756,12.41653 q -5.91702,0.61316 -10.73034,0.61316 -2.08475,0 -3.34173,-1.25698 -1.25699,-1.25699 -1.25699,-3.34174 v -7.35794 q 0,-2.29936 1.28764,-3.587 1.3183,-1.3183 3.61766,-1.3183 h 6.13162 q 2.29936,0 3.587,1.3183 1.3183,1.28764 1.3183,3.587 v 5.67175 h -10.57705 v 1.22632 q 0,0.45987 0.30658,0.76645 0.30658,0.30659 0.76646,0.30659 3.03515,0 8.89085,-0.45988 z"
         style="font-style:normal;font-variant:normal;font-weight:normal;font-stretch:normal;font-size:30.65810204px;font-family:sans-serif, 'Russo One';-inkscape-font-specification:'sans-serif, Russo One';fill:#ffffff;fill-opacity:1;stroke-width:0.15967761"
         id="path2211" />
    </g>
    <g
       aria-label="www.irishinterfirmsgaming.ie"
       style="font-style:normal;font-weight:normal;font-size:4.89781618px;line-height:1.25;font-family:sans-serif;letter-spacing:0px;word-spacing:0px;display:inline;fill:#3d7915;fill-opacity:1;stroke:none;stroke-width:0.1224454"
       id="text969-3">
      <path
         d="m 114.46008,193.02497 h 4.1444 l 2.50332,9.76297 2.67022,-9.76297 h 3.97751 l 2.78147,9.76297 2.39207,-9.76297 h 3.94969 l -4.39472,13.46234 h -4.11659 l -2.67022,-9.09543 -2.61458,9.09543 h -4.11658 z"
         style="font-style:normal;font-variant:normal;font-weight:bold;font-stretch:normal;font-size:23.50952148px;font-family:Play;-inkscape-font-specification:'Play Bold';fill:#3d7915;fill-opacity:1;stroke-width:0.14486843"
         id="path2104"
         inkscape:connector-curvature="0" />
      <path
         d="m 137.33119,193.02497 h 4.1444 l 2.50332,9.76297 2.67022,-9.76297 h 3.9775 l 2.78148,9.76297 2.39207,-9.76297 h 3.94969 l -4.39473,13.46234 h -4.11658 l -2.67022,-9.09543 -2.61458,9.09543 h -4.11659 z"
         style="font-style:normal;font-variant:normal;font-weight:bold;font-stretch:normal;font-size:23.50952148px;font-family:Play;-inkscape-font-specification:'Play Bold';fill:#3d7915;fill-opacity:1;stroke-width:0.14486843"
         id="path2106"
         inkscape:connector-curvature="0" />
      <path
         d="m 160.2023,193.02497 h 4.14439 l 2.50333,9.76297 2.67022,-9.76297 h 3.9775 l 2.78147,9.76297 2.39207,-9.76297 h 3.94969 l -4.39472,13.46234 h -4.11658 l -2.67021,-9.09543 -2.6146,9.09543 h -4.11658 z"
         style="font-style:normal;font-variant:normal;font-weight:bold;font-stretch:normal;font-size:23.50952148px;font-family:Play;-inkscape-font-specification:'Play Bold';fill:#3d7915;fill-opacity:1;stroke-width:0.14486843"
         id="path2108"
         inkscape:connector-curvature="0" />
      <path
         d="m 184.24162,202.64887 h 4.33911 v 3.83844 h -4.33911 z"
         style="font-style:normal;font-variant:normal;font-weight:bold;font-stretch:normal;font-size:23.50952148px;font-family:Play;-inkscape-font-specification:'Play Bold';fill:#3d7915;fill-opacity:1;stroke-width:0.14486843"
         id="path2110"
         inkscape:connector-curvature="0" />
      <path
         d="m 191.85895,188.15739 h 4.06095 v 3.28213 h -4.06095 z m 0,4.86758 h 4.06095 v 13.46234 h -4.06095 z"
         style="font-style:normal;font-variant:normal;font-weight:bold;font-stretch:normal;font-size:23.50952148px;font-family:Play;-inkscape-font-specification:'Play Bold';fill:#3d7915;fill-opacity:1;stroke-width:0.14486843"
         id="path2112"
         inkscape:connector-curvature="0" />
      <path
         d="m 199.57059,193.02497 h 3.86625 v 2.36426 q 0,-0.63974 0.52848,-1.25167 0.52848,-0.61192 1.33511,-1.00133 0.83444,-0.38941 1.64107,-0.38941 h 1.44637 v 3.36558 h -1.39074 q -1.72452,0 -2.55895,0.52849 -0.80664,0.52848 -0.80664,1.75232 v 8.0941 h -4.06095 z"
         style="font-style:normal;font-variant:normal;font-weight:bold;font-stretch:normal;font-size:23.50952148px;font-family:Play;-inkscape-font-specification:'Play Bold';fill:#3d7915;fill-opacity:1;stroke-width:0.14486843"
         id="path2114"
         inkscape:connector-curvature="0" />
      <path
         d="m 210.70997,188.15739 h 4.06095 v 3.28213 h -4.06095 z m 0,4.86758 h 4.06095 v 13.46234 h -4.06095 z"
         style="font-style:normal;font-variant:normal;font-weight:bold;font-stretch:normal;font-size:23.50952148px;font-family:Play;-inkscape-font-specification:'Play Bold';fill:#3d7915;fill-opacity:1;stroke-width:0.14486843"
         id="path2116"
         inkscape:connector-curvature="0" />
      <path
         d="m 223.45606,206.76545 q -2.16954,0 -5.3126,-0.41722 v -2.69803 q 3.86624,0.58411 5.36824,0.58411 1.27948,0 1.8914,-0.25033 0.61193,-0.25034 0.61193,-0.91789 v -0.83444 q 0,-0.69537 -0.38941,-0.97351 -0.38941,-0.30597 -1.52982,-0.30597 h -1.75232 q -2.14174,0 -3.30996,-0.83444 -1.16821,-0.86226 -1.16821,-2.50333 v -1.64106 q 0,-1.75233 1.66888,-2.47552 1.66888,-0.751 5.03448,-0.751 1.33509,0 4.78412,0.25034 v 2.58676 q -4.33909,-0.33377 -4.89539,-0.33377 -1.64106,0 -2.14174,0.22252 -0.44503,0.25033 -0.44503,0.91788 v 0.72319 q 0,0.36159 0.3616,0.63974 0.36158,0.25033 1.05695,0.25033 h 1.78015 q 4.95102,0 4.95102,3.22651 v 1.6967 q 0,0.97351 -0.36159,1.6967 -0.3616,0.72319 -0.94571,1.1404 -0.55629,0.38941 -1.44636,0.61193 -0.86226,0.22251 -1.80796,0.30596 -0.86225,0.0834 -2.00267,0.0834 z"
         style="font-style:normal;font-variant:normal;font-weight:bold;font-stretch:normal;font-size:23.50952148px;font-family:Play;-inkscape-font-specification:'Play Bold';fill:#3d7915;fill-opacity:1;stroke-width:0.14486843"
         id="path2118"
         inkscape:connector-curvature="0" />
      <path
         d="m 233.03522,187.01698 h 4.06095 v 7.64906 q 0.3894,-1.91922 4.25565,-1.91922 2.58677,0 3.61592,0.94571 1.05695,0.91788 1.05695,2.92055 v 9.87423 h -4.06095 v -9.40139 q 0,-0.77881 -0.16688,-1.1404 -0.13908,-0.38941 -0.58411,-0.52848 -0.44504,-0.16689 -1.41856,-0.16689 -1.19603,0 -1.75233,0.13908 -0.55629,0.13906 -0.751,0.52847 -0.19469,0.36159 -0.19469,1.16822 v 9.40139 h -4.06095 z"
         style="font-style:normal;font-variant:normal;font-weight:bold;font-stretch:normal;font-size:23.50952148px;font-family:Play;-inkscape-font-specification:'Play Bold';fill:#3d7915;fill-opacity:1;stroke-width:0.14486843"
         id="path2120"
         inkscape:connector-curvature="0" />
      <path
         d="m 249.7158,188.15739 h 4.06095 v 3.28213 h -4.06095 z m 0,4.86758 h 4.06095 v 13.46234 h -4.06095 z"
         style="font-style:normal;font-variant:normal;font-weight:bold;font-stretch:normal;font-size:23.50952148px;font-family:Play;-inkscape-font-specification:'Play Bold';fill:#3d7915;fill-opacity:1;stroke-width:0.14486843"
         id="path2122"
         inkscape:connector-curvature="0" />
      <path
         d="m 257.42743,193.02497 h 4.00533 v 1.64107 q 0.47284,-1.91922 4.31129,-1.91922 2.58676,0 3.61592,0.94571 1.05695,0.91788 1.05695,2.92055 v 9.87423 h -4.06095 v -9.34576 q 0,-0.77881 -0.16689,-1.16821 -0.13908,-0.38942 -0.61193,-0.5563 -0.44503,-0.16689 -1.39074,-0.16689 -1.19602,0 -1.75233,0.16689 -0.55629,0.13907 -0.75099,0.52848 -0.1947,0.3894 -0.1947,1.19603 v 9.34576 h -4.06096 z"
         style="font-style:normal;font-variant:normal;font-weight:bold;font-stretch:normal;font-size:23.50952148px;font-family:Play;-inkscape-font-specification:'Play Bold';fill:#3d7915;fill-opacity:1;stroke-width:0.14486843"
         id="path2124"
         inkscape:connector-curvature="0" />
      <path
         d="m 280.72793,206.76545 q -1.02915,0 -1.72451,-0.0834 -0.69537,-0.0834 -1.39074,-0.33377 -0.77882,-0.25034 -1.27948,-0.69537 -0.47285,-0.44503 -0.77881,-1.22385 -0.33378,-0.80663 -0.33378,-1.86359 v -7.03713 h -2.72584 v -2.50332 h 2.72584 v -3.89408 h 4.06095 v 3.89408 h 3.69937 v 2.50332 h -3.69937 v 6.34177 q 0,0.97351 0.16689,1.47417 0.16689,0.47285 0.63974,0.69538 0.47285,0.19469 1.44636,0.19469 0.38942,0 1.44638,-0.13906 v 2.53113 q -1.3073,0.13908 -2.253,0.13908 z"
         style="font-style:normal;font-variant:normal;font-weight:bold;font-stretch:normal;font-size:23.50952148px;font-family:Play;-inkscape-font-specification:'Play Bold';fill:#3d7915;fill-opacity:1;stroke-width:0.14486843"
         id="path2126"
         inkscape:connector-curvature="0" />
      <path
         d="m 292.0555,206.76545 q -7.1484,0 -7.1484,-4.36691 v -4.83977 q 0,-2.53114 1.61326,-3.67155 1.64106,-1.1404 5.03447,-1.1404 3.19869,0 4.67288,1.11259 1.50199,1.08477 1.50199,3.69936 v 3.28214 h -8.73383 v 1.22385 q 0,1.16822 0.83445,1.66888 0.83443,0.50067 3.00398,0.50067 2.00267,0 4.506,-0.58411 v 2.58677 q -2.47552,0.52848 -5.2848,0.52848 z m 1.80796,-8.23317 v -1.94702 q 0,-0.66756 -0.5563,-1.00134 -0.52849,-0.33377 -1.80796,-0.33377 -1.47419,0 -1.97485,0.33377 -0.52848,0.3616 -0.52848,1.00134 v 1.94702 z"
         style="font-style:normal;font-variant:normal;font-weight:bold;font-stretch:normal;font-size:23.50952148px;font-family:Play;-inkscape-font-specification:'Play Bold';fill:#3d7915;fill-opacity:1;stroke-width:0.14486843"
         id="path2128"
         inkscape:connector-curvature="0" />
      <path
         d="m 300.83365,193.02497 h 3.86624 v 2.36426 q 0,-0.63974 0.52848,-1.25167 0.52848,-0.61192 1.33511,-1.00133 0.83444,-0.38941 1.64107,-0.38941 h 1.44637 v 3.36558 h -1.39074 q -1.72451,0 -2.55896,0.52849 -0.80662,0.52848 -0.80662,1.75232 v 8.0941 h -4.06095 z"
         style="font-style:normal;font-variant:normal;font-weight:bold;font-stretch:normal;font-size:23.50952148px;font-family:Play;-inkscape-font-specification:'Play Bold';fill:#3d7915;fill-opacity:1;stroke-width:0.14486843"
         id="path2130"
         inkscape:connector-curvature="0" />
      <path
         d="m 312.89092,195.52829 h -2.53115 v -2.50332 h 2.53115 v -2.03048 q 0,-1.64107 0.52847,-2.55895 0.5563,-0.94571 1.66889,-1.3073 1.1404,-0.3894 3.03181,-0.3894 0.94569,0 2.39207,0.13907 v 2.50333 q -1.19604,-0.13908 -1.75233,-0.13908 -1.02916,0 -1.41856,0.33378 -0.3894,0.30596 -0.3894,1.19604 v 2.25299 h 3.42121 v 2.50332 h -3.42121 v 10.95902 h -4.06095 z m 8.92852,-8.51131 h 4.06095 v 3.28214 h -4.06095 z m 0,6.00799 h 4.06095 v 13.46234 h -4.06095 z"
         style="font-style:normal;font-variant:normal;font-weight:bold;font-stretch:normal;font-size:23.50952148px;font-family:Play;-inkscape-font-specification:'Play Bold';fill:#3d7915;fill-opacity:1;stroke-width:0.14486843"
         id="path2132"
         inkscape:connector-curvature="0" />
      <path
         d="m 329.57193,193.02497 h 3.86625 v 2.36426 q 0,-0.63974 0.52848,-1.25167 0.52848,-0.61192 1.3351,-1.00133 0.83445,-0.38941 1.64108,-0.38941 h 1.44636 v 3.36558 h -1.39074 q -1.72451,0 -2.55895,0.52849 -0.80663,0.52848 -0.80663,1.75232 v 8.0941 h -4.06095 z"
         style="font-style:normal;font-variant:normal;font-weight:bold;font-stretch:normal;font-size:23.50952148px;font-family:Play;-inkscape-font-specification:'Play Bold';fill:#3d7915;fill-opacity:1;stroke-width:0.14486843"
         id="path2134"
         inkscape:connector-curvature="0" />
      <path
         d="m 340.60003,193.02497 h 4.06095 v 1.64107 q 0.38942,-1.91922 3.97752,-1.91922 1.89139,0 2.86492,0.50066 0.97351,0.47286 1.30728,1.50201 0.33379,-1.05696 1.27948,-1.52982 0.97353,-0.47285 2.92055,-0.47285 1.75233,0 2.69804,0.41722 0.9457,0.38941 1.30728,1.22385 0.38942,0.83444 0.38942,2.22519 v 9.87423 h -4.06095 v -9.31794 q 0,-0.89008 -0.11122,-1.25167 -0.11121,-0.38941 -0.50066,-0.52847 -0.3616,-0.13908 -1.27948,-0.13908 -1.14041,0 -1.64107,0.13908 -0.47286,0.13906 -0.63974,0.52847 -0.13908,0.36159 -0.13908,1.25167 v 9.31794 h -4.06095 v -9.31794 q 0,-0.89008 -0.11121,-1.25167 -0.11122,-0.38941 -0.50067,-0.52847 -0.36158,-0.13908 -1.27948,-0.13908 -1.1404,0 -1.64107,0.13908 -0.47284,0.13906 -0.63974,0.52847 -0.13907,0.36159 -0.13907,1.25167 v 9.31794 h -4.06096 z"
         style="font-style:normal;font-variant:normal;font-weight:bold;font-stretch:normal;font-size:23.50952148px;font-family:Play;-inkscape-font-specification:'Play Bold';fill:#3d7915;fill-opacity:1;stroke-width:0.14486843"
         id="path2136"
         inkscape:connector-curvature="0" />
      <path
         d="m 370.02675,206.76545 q -2.16956,0 -5.31262,-0.41722 v -2.69803 q 3.86625,0.58411 5.36825,0.58411 1.27947,0 1.89139,-0.25033 0.61193,-0.25034 0.61193,-0.91789 v -0.83444 q 0,-0.69537 -0.3894,-0.97351 -0.38941,-0.30597 -1.52981,-0.30597 h -1.75233 q -2.14174,0 -3.30996,-0.83444 -1.16822,-0.86226 -1.16822,-2.50333 v -1.64106 q 0,-1.75233 1.66889,-2.47552 1.66889,-0.751 5.03447,-0.751 1.33511,0 4.78414,0.25034 v 2.58676 q -4.33911,-0.33377 -4.8954,-0.33377 -1.64107,0 -2.14174,0.22252 -0.44504,0.25033 -0.44504,0.91788 v 0.72319 q 0,0.36159 0.3616,0.63974 0.36159,0.25033 1.05696,0.25033 H 371.64 q 4.95102,0 4.95102,3.22651 v 1.6967 q 0,0.97351 -0.36159,1.6967 -0.36158,0.72319 -0.94569,1.1404 -0.5563,0.38941 -1.44638,0.61193 -0.86225,0.22251 -1.80796,0.30596 -0.86225,0.0834 -2.00265,0.0834 z"
         style="font-style:normal;font-variant:normal;font-weight:bold;font-stretch:normal;font-size:23.50952148px;font-family:Play;-inkscape-font-specification:'Play Bold';fill:#3d7915;fill-opacity:1;stroke-width:0.14486843"
         id="path2138"
         inkscape:connector-curvature="0" />
      <path
         d="m 385.05757,212.60655 q -3.28214,0 -4.86757,-0.19471 V 209.686 q 2.61458,0.36159 4.86757,0.36159 2.0583,0 2.94836,-0.66755 0.89008,-0.66755 0.89008,-2.22519 v -2.16954 q -0.50066,0.72318 -0.97351,1.11259 -0.47286,0.36159 -1.25167,0.50066 -0.751,0.16689 -2.08611,0.16689 -1.97484,0 -3.14306,-0.36159 -1.16822,-0.38941 -1.6967,-1.25166 -0.52848,-0.89008 -0.52848,-2.4477 v -5.25699 q 0,-1.86359 0.47285,-2.86492 0.50067,-1.00132 1.66889,-1.41855 1.19603,-0.41722 3.42121,-0.41722 1.44636,0 2.22518,0.16689 0.751,0.16689 1.1404,0.50066 0.38941,0.33378 0.89008,1.14041 v -1.52981 h 3.92187 v 14.18551 q 0,2.86492 -1.97485,4.11659 -1.94702,1.27948 -5.92454,1.27948 z m 0.97352,-8.37224 q 1.19604,0 1.78015,-0.16688 0.61192,-0.1669 0.83443,-0.52848 0.25034,-0.38942 0.25034,-1.08478 v -5.42388 q 0,-0.751 -0.22252,-1.11259 -0.22251,-0.38941 -0.86225,-0.52847 -0.63974,-0.13908 -2.00267,-0.13908 -1.11259,0 -1.64107,0.16689 -0.52848,0.16688 -0.72318,0.58411 -0.16688,0.3894 -0.16688,1.16822 v 5.14573 q 0,0.86225 0.16688,1.25166 0.1947,0.36159 0.751,0.52848 0.55629,0.13907 1.83577,0.13907 z"
         style="font-style:normal;font-variant:normal;font-weight:bold;font-stretch:normal;font-size:23.50952148px;font-family:Play;-inkscape-font-specification:'Play Bold';fill:#3d7915;fill-opacity:1;stroke-width:0.14486843"
         id="path2140"
         inkscape:connector-curvature="0" />
      <path
         d="m 400.31179,206.76545 q -1.89141,0 -2.8371,-0.33377 -0.9179,-0.3616 -1.3073,-1.25167 -0.36159,-0.91789 -0.36159,-2.72584 0,-1.61326 0.38941,-2.53114 0.41721,-0.9179 1.30729,-1.3073 0.91788,-0.41722 2.50333,-0.41722 h 4.56162 v -0.91789 q 0,-0.86225 -0.25034,-1.27947 -0.22251,-0.41723 -0.86225,-0.58411 -0.61192,-0.16689 -1.86359,-0.16689 -1.72451,0 -4.72851,0.33377 v -2.55895 q 2.19736,-0.27815 5.14573,-0.27815 2.58677,0 3.9775,0.38941 1.41856,0.38941 2.03049,1.3351 0.61192,0.94571 0.61192,2.75366 v 9.26232 h -3.9775 v -1.22385 q -0.47287,0.80662 -1.27949,1.1404 -0.80663,0.36159 -3.05962,0.36159 z m 1.58544,-2.53114 q 1.22385,0 1.75233,-0.0834 0.38941,-0.0556 0.52847,-0.1669 0.1669,-0.11121 0.27816,-0.3616 0.11121,-0.19469 0.11121,-0.58411 v -2.61458 h -2.78147 q -0.94571,0 -1.33511,0.13908 -0.38942,0.11121 -0.52848,0.50066 -0.13908,0.36159 -0.13908,1.3073 0,0.91788 0.13908,1.27947 0.13906,0.3616 0.52848,0.47286 0.41722,0.11121 1.44636,0.11121 z"
         style="font-style:normal;font-variant:normal;font-weight:bold;font-stretch:normal;font-size:23.50952148px;font-family:Play;-inkscape-font-specification:'Play Bold';fill:#3d7915;fill-opacity:1;stroke-width:0.14486843"
         id="path2142"
         inkscape:connector-curvature="0" />
      <path
         d="m 412.20129,193.02497 h 4.06095 v 1.64107 q 0.38941,-1.91922 3.97751,-1.91922 1.89139,0 2.86492,0.50066 0.97351,0.47286 1.30729,1.50201 0.33378,-1.05696 1.27947,-1.52982 0.97353,-0.47285 2.92055,-0.47285 1.75233,0 2.69804,0.41722 0.9457,0.38941 1.30728,1.22385 0.38942,0.83444 0.38942,2.22519 v 9.87423 h -4.06095 v -9.31794 q 0,-0.89008 -0.11122,-1.25167 -0.11121,-0.38941 -0.50066,-0.52847 -0.3616,-0.13908 -1.27948,-0.13908 -1.14041,0 -1.64107,0.13908 -0.47285,0.13906 -0.63974,0.52847 -0.13908,0.36159 -0.13908,1.25167 v 9.31794 h -4.06095 v -9.31794 q 0,-0.89008 -0.11121,-1.25167 -0.11122,-0.38941 -0.50067,-0.52847 -0.36159,-0.13908 -1.27948,-0.13908 -1.1404,0 -1.64107,0.13908 -0.47284,0.13906 -0.63974,0.52847 -0.13906,0.36159 -0.13906,1.25167 v 9.31794 h -4.06095 z"
         style="font-style:normal;font-variant:normal;font-weight:bold;font-stretch:normal;font-size:23.50952148px;font-family:Play;-inkscape-font-specification:'Play Bold';fill:#3d7915;fill-opacity:1;stroke-width:0.14486843"
         id="path2144"
         inkscape:connector-curvature="0" />
      <path
         d="m 436.70477,188.15739 h 4.06095 v 3.28213 h -4.06095 z m 0,4.86758 h 4.06095 v 13.46234 h -4.06095 z"
         style="font-style:normal;font-variant:normal;font-weight:bold;font-stretch:normal;font-size:23.50952148px;font-family:Play;-inkscape-font-specification:'Play Bold';fill:#3d7915;fill-opacity:1;stroke-width:0.14486843"
         id="path2146"
         inkscape:connector-curvature="0" />
      <path
         d="m 444.41641,193.02497 h 4.00533 v 1.64107 q 0.47285,-1.91922 4.31129,-1.91922 2.58676,0 3.61592,0.94571 1.05695,0.91788 1.05695,2.92055 v 9.87423 h -4.06095 v -9.34576 q 0,-0.77881 -0.16689,-1.16821 -0.13908,-0.38942 -0.61192,-0.5563 -0.44504,-0.16689 -1.39075,-0.16689 -1.19602,0 -1.75233,0.16689 -0.55629,0.13907 -0.75099,0.52848 -0.1947,0.3894 -0.1947,1.19603 v 9.34576 h -4.06096 z"
         style="font-style:normal;font-variant:normal;font-weight:bold;font-stretch:normal;font-size:23.50952148px;font-family:Play;-inkscape-font-specification:'Play Bold';fill:#3d7915;fill-opacity:1;stroke-width:0.14486843"
         id="path2148"
         inkscape:connector-curvature="0" />
      <path
         d="m 466.43745,212.60655 q -3.28215,0 -4.86759,-0.19471 V 209.686 q 2.61459,0.36159 4.86759,0.36159 2.05828,0 2.94836,-0.66755 0.89007,-0.66755 0.89007,-2.22519 v -2.16954 q -0.50067,0.72318 -0.97352,1.11259 -0.47285,0.36159 -1.25166,0.50066 -0.751,0.16689 -2.0861,0.16689 -1.97485,0 -3.14307,-0.36159 -1.16822,-0.38941 -1.6967,-1.25166 -0.52848,-0.89008 -0.52848,-2.4477 v -5.25699 q 0,-1.86359 0.47285,-2.86492 0.50066,-1.00132 1.66888,-1.41855 1.19603,-0.41722 3.42121,-0.41722 1.44637,0 2.22518,0.16689 0.751,0.16689 1.1404,0.50066 0.38942,0.33378 0.89008,1.14041 v -1.52981 h 3.92188 v 14.18551 q 0,2.86492 -1.97485,4.11659 -1.94703,1.27948 -5.92453,1.27948 z m 0.97351,-8.37224 q 1.19603,0 1.78014,-0.16688 0.61193,-0.1669 0.83445,-0.52848 0.25033,-0.38942 0.25033,-1.08478 v -5.42388 q 0,-0.751 -0.22253,-1.11259 -0.22251,-0.38941 -0.86225,-0.52847 -0.63974,-0.13908 -2.00266,-0.13908 -1.11259,0 -1.64107,0.16689 -0.52848,0.16688 -0.72319,0.58411 -0.16688,0.3894 -0.16688,1.16822 v 5.14573 q 0,0.86225 0.16688,1.25166 0.19471,0.36159 0.751,0.52848 0.5563,0.13907 1.83578,0.13907 z"
         style="font-style:normal;font-variant:normal;font-weight:bold;font-stretch:normal;font-size:23.50952148px;font-family:Play;-inkscape-font-specification:'Play Bold';fill:#3d7915;fill-opacity:1;stroke-width:0.14486843"
         id="path2150"
         inkscape:connector-curvature="0" />
      <path
         d="m 477.49161,202.64887 h 4.3391 v 3.83844 h -4.3391 z"
         style="font-style:normal;font-variant:normal;font-weight:bold;font-stretch:normal;font-size:23.50952148px;font-family:Play;-inkscape-font-specification:'Play Bold';fill:#3d7915;fill-opacity:1;stroke-width:0.14486843"
         id="path2152"
         inkscape:connector-curvature="0" />
      <path
         d="m 485.10895,188.15739 h 4.06095 v 3.28213 h -4.06095 z m 0,4.86758 h 4.06095 v 13.46234 h -4.06095 z"
         style="font-style:normal;font-variant:normal;font-weight:bold;font-stretch:normal;font-size:23.50952148px;font-family:Play;-inkscape-font-specification:'Play Bold';fill:#3d7915;fill-opacity:1;stroke-width:0.14486843"
         id="path2154"
         inkscape:connector-curvature="0" />
      <path
         d="m 499.57957,206.76545 q -7.14838,0 -7.14838,-4.36691 v -4.83977 q 0,-2.53114 1.61325,-3.67155 1.64107,-1.1404 5.03447,-1.1404 3.1987,0 4.67288,1.11259 1.502,1.08477 1.502,3.69936 v 3.28214 h -8.73383 v 1.22385 q 0,1.16822 0.83443,1.66888 0.83445,0.50067 3.004,0.50067 2.00267,0 4.50599,-0.58411 v 2.58677 q -2.47551,0.52848 -5.28481,0.52848 z m 1.80796,-8.23317 v -1.94702 q 0,-0.66756 -0.55629,-1.00134 -0.52848,-0.33377 -1.80796,-0.33377 -1.47418,0 -1.97484,0.33377 -0.52848,0.3616 -0.52848,1.00134 v 1.94702 z"
         style="font-style:normal;font-variant:normal;font-weight:bold;font-stretch:normal;font-size:23.50952148px;font-family:Play;-inkscape-font-specification:'Play Bold';fill:#3d7915;fill-opacity:1;stroke-width:0.14486843"
         id="path2156"
         inkscape:connector-curvature="0" />
    </g>
  </g>
</svg>
