<?xml version="1.0" encoding="UTF-8" standalone="no"?>
<!-- Created with Inkscape (http://www.inkscape.org/) -->

<svg
   xmlns:dc="http://purl.org/dc/elements/1.1/"
   xmlns:cc="http://creativecommons.org/ns#"
   xmlns:rdf="http://www.w3.org/1999/02/22-rdf-syntax-ns#"
   xmlns:svg="http://www.w3.org/2000/svg"
   xmlns="http://www.w3.org/2000/svg"
   xmlns:sodipodi="http://sodipodi.sourceforge.net/DTD/sodipodi-0.dtd"
   xmlns:inkscape="http://www.inkscape.org/namespaces/inkscape"
   width="70mm"
   height="100mm"
   viewBox="0 0 70.000007 100.00001"
   version="1.1"
   id="svg2239"
   inkscape:version="0.92.2 (unknown)"
   sodipodi:docname="hoodie_front.svg">
  <defs
     id="defs2233" />
  <sodipodi:namedview
     id="base"
     pagecolor="#000000"
     bordercolor="#666666"
     borderopacity="1.0"
     inkscape:pageopacity="0"
     inkscape:pageshadow="2"
     inkscape:zoom="1.979899"
     inkscape:cx="121.30903"
     inkscape:cy="188.06999"
     inkscape:document-units="mm"
     inkscape:current-layer="layer1"
     showgrid="true"
     units="mm"
     guidetolerance="10000"
     inkscape:window-width="1859"
     inkscape:window-height="1176"
     inkscape:window-x="1981"
     inkscape:window-y="24"
     inkscape:window-maximized="1"
     inkscape:snap-others="false"
     inkscape:object-nodes="false"
     inkscape:snap-nodes="false"
     inkscape:snap-grids="true"
     inkscape:snap-to-guides="false">
    <inkscape:grid
       type="xygrid"
       id="grid2784"
       units="mm"
       spacingx="1.0000001"
       spacingy="1.0000001" />
  </sodipodi:namedview>
  <metadata
     id="metadata2236">
    <rdf:RDF>
      <cc:Work
         rdf:about="">
        <dc:format>image/svg+xml</dc:format>
        <dc:type
           rdf:resource="http://purl.org/dc/dcmitype/StillImage" />
        <dc:title></dc:title>
      </cc:Work>
    </rdf:RDF>
  </metadata>
  <g
     inkscape:label="Layer 1"
     inkscape:groupmode="layer"
     id="layer1"
     transform="translate(0,-196.99997)">
    <path
       style="display:inline;fill:#3d7915;fill-opacity:1;stroke-width:0.04299968"
       d="m 31.308432,249.6288 c -9.456289,-5.93775 -15.5517,-16.2707 -16.523563,-27.36962 -0.233693,-2.87149 -0.341145,-5.78265 -0.238104,-8.66438 0.117937,-2.57482 -0.01604,-4.71864 0.159914,-7.31854 0.05709,-0.23984 0.09714,-0.46428 0.319781,-0.52395 0.103878,-0.0278 0.189862,-0.0817 2.391959,-0.0922 2.517553,0.0358 4.876717,-0.2906 7.129313,-0.51488 3.506592,-0.36366 6.738561,-1.73855 9.871143,-2.99356 0.157709,-0.0632 0.316934,-0.0945 0.485158,-0.14535 0.199937,-0.0606 0.426899,-0.0827 0.578513,-0.005 0.167909,0.0539 0.327146,0.12305 0.487026,0.18369 3.156001,1.28476 5.834661,2.24494 8.861686,2.76609 3.695986,0.66637 6.776478,0.71476 10.33229,0.75343 0.564236,0.005 0.502318,0.76481 0.540381,1.13945 0.07258,0.71569 0.303155,9.64114 0.0043,14.44781 -0.742151,11.94114 -5.886347,20.87383 -15.300385,27.45733 -1.716563,1.20045 -3.571385,2.38972 -5.239267,3.06764 -1.376393,-0.61845 -2.761832,-1.49498 -3.860246,-2.18762 z"
       id="path4734"
       inkscape:connector-curvature="0"
       sodipodi:nodetypes="ccccsccsscccscsscc" />
    <path
       style="display:inline;fill:#ffffff;fill-opacity:1;stroke-width:0.07632539"
       d="m 34.725145,226.71558 c -0.105256,-0.10526 -0.23432,-0.34416 -0.286475,-0.53077 -0.09348,-0.33406 -0.09097,-0.34413 0.171167,-0.65003 0.400425,-0.46779 0.598635,-1.15955 0.645649,-2.25316 0.0406,-0.94495 -0.121045,-2.51419 -0.299381,-2.90552 -0.125806,-0.27615 -0.247853,-0.18545 -0.271862,0.20174 -0.04436,0.71614 -0.259907,2.08951 -0.437765,2.79067 -0.38807,1.52972 -1.04339,2.48705 -2.020994,2.95248 -0.430172,0.20475 -0.580711,0.23608 -1.144887,0.23909 -0.55881,0.005 -0.709602,-0.0261 -1.078675,-0.20726 -0.771177,-0.37874 -1.314224,-0.95763 -1.868849,-1.9923 -0.167157,-0.31188 -0.408745,-0.58946 -0.797065,-0.9159 -0.953769,-0.80188 -1.424517,-1.67916 -1.502407,-2.80012 -0.06842,-0.98412 0.271787,-1.80291 0.991363,-2.38643 0.768571,-0.62324 1.652222,-0.88771 3.162748,-0.94663 0.953045,-0.0371 2.476904,0.0556 2.961987,0.18019 0.08395,0.02 -0.05338,-0.0862 -0.305268,-0.23983 -2.783427,-1.69598 -4.021867,-3.30024 -3.91345,-5.06924 0.09949,-1.62441 1.520097,-2.75421 3.462953,-2.75421 0.531519,0 0.696242,-0.0336 1.109774,-0.22605 1.509825,-0.70276 2.873644,-0.61264 3.78599,0.25011 0.813079,0.76897 1.091532,1.78425 0.822376,2.99868 -0.249858,1.12777 -0.670304,2.02149 -1.694925,3.60337 -0.307649,0.47498 -0.516078,0.83741 -0.463227,0.80541 0.05288,-0.0318 0.456812,-0.29557 0.897587,-0.58565 2.881887,-1.89662 5.211181,-2.24291 6.582719,-0.97866 0.652388,0.60136 1.030258,1.61934 0.944324,2.54404 -0.05037,0.54235 -0.349852,1.58802 -0.590237,2.06127 -0.09398,0.1852 -0.14385,0.44373 -0.14385,0.74742 0,1.01299 -0.45799,2.40495 -0.969811,2.94747 -0.506708,0.53711 -1.304775,0.86859 -2.091189,0.86859 -0.467689,0 -1.241873,-0.24535 -1.664101,-0.52753 -0.717722,-0.47955 -1.575782,-1.43464 -2.341173,-2.606 -0.262088,-0.40107 -0.537032,-0.77889 -0.610962,-0.83956 -0.1233,-0.10125 -0.130317,-0.0942 -0.0832,0.0807 0.41496,1.53985 0.517985,3.79857 0.220536,4.83319 -0.269681,0.93783 -0.59169,1.50186 -0.857487,1.50186 -0.07167,0 -0.216527,-0.0862 -0.321881,-0.19172 z"
       id="path3913-6"
       inkscape:connector-curvature="0" />
    <text
       xml:space="preserve"
       style="font-style:normal;font-variant:normal;font-weight:normal;font-stretch:normal;font-size:9.1973772px;line-height:1.25;font-family:'Russo One';letter-spacing:1.72450829px;word-spacing:0px;display:inline;fill:#ffffff;fill-opacity:1;stroke:none;stroke-width:0.08622541;stroke-opacity:1"
       x="23.662783"
       y="237.39339"
       id="text7412-5">IIGL</text>
    <path
       sodipodi:type="inkscape:offset"
       inkscape:radius="0.23894145"
       inkscape:original="M 28.220703 256.34375 C 28.17837 256.34375 28.138793 256.37866 28.103516 256.44922 C 28.075293 256.51977 28.055127 256.60164 28.041016 256.69336 C 28.026905 256.78508 28.016821 256.86965 28.009766 256.94727 C 28.00271 257.02488 27.998047 257.06987 27.998047 257.08398 C 27.998047 257.33093 28.00542 257.53965 28.019531 257.70898 C 28.033642 257.87832 28.051099 258.03001 28.072266 258.16406 C 28.093432 258.29812 28.110889 258.42227 28.125 258.53516 C 28.146167 258.64099 28.163623 258.76048 28.177734 258.89453 C 28.227123 259.52953 28.286866 260.06917 28.357422 260.51367 C 28.427977 260.95817 28.474927 261.2763 28.496094 261.4668 C 28.503149 261.55146 28.520606 261.67095 28.548828 261.82617 C 28.57705 261.97434 28.616627 262.12136 28.666016 262.26953 C 28.72246 262.41064 28.792286 262.53945 28.876953 262.65234 C 28.968675 262.75818 29.078078 262.81055 29.205078 262.81055 C 29.226245 262.81055 29.268531 262.73606 29.332031 262.58789 C 29.402587 262.43267 29.472413 262.26623 29.542969 262.08984 C 29.62058 261.9064 29.692359 261.74192 29.755859 261.59375 C 29.819359 261.43853 29.861646 261.35938 29.882812 261.35938 C 29.896924 261.35937 29.909717 261.3842 29.923828 261.43359 C 29.944995 261.53237 29.969825 261.63906 29.998047 261.75195 C 30.033325 261.85779 30.080274 261.95711 30.136719 262.04883 C 30.200219 262.14055 30.277418 262.21775 30.369141 262.28125 C 30.460863 262.33769 30.580349 262.36523 30.728516 262.36523 C 30.799071 262.36523 30.870851 262.33769 30.941406 262.28125 C 31.019017 262.21775 31.088844 262.14792 31.152344 262.07031 C 31.215844 261.9927 31.265503 261.91821 31.300781 261.84766 C 31.343115 261.7771 31.363281 261.73481 31.363281 261.7207 C 31.363281 261.71365 31.345825 261.69153 31.310547 261.65625 C 31.275269 261.62803 31.240356 261.60786 31.205078 261.59375 C 31.1698 261.57258 31.14497 261.56055 31.130859 261.56055 C 31.046193 261.5676 30.979076 261.60989 30.929688 261.6875 C 30.880299 261.75806 30.842675 261.79492 30.814453 261.79492 C 30.758009 261.79492 30.700976 261.74797 30.644531 261.65625 C 30.588087 261.56453 30.538427 261.45512 30.496094 261.32812 C 30.45376 261.19407 30.414184 261.05984 30.378906 260.92578 C 30.350684 260.78467 30.330517 260.67256 30.316406 260.58789 C 30.302295 260.52439 30.294922 260.47202 30.294922 260.42969 C 30.294922 260.3803 30.260009 260.34072 30.189453 260.3125 C 30.133009 260.29839 30.086059 260.28093 30.050781 260.25977 C 30.015503 260.2386 29.970507 260.22852 29.914062 260.22852 C 29.864674 260.22852 29.804931 260.29834 29.734375 260.43945 C 29.670875 260.57351 29.601049 260.73257 29.523438 260.91602 C 29.452882 261.09946 29.381102 261.27869 29.310547 261.45508 C 29.247047 261.63147 29.194677 261.76299 29.152344 261.84766 C 29.131177 261.82649 29.11372 261.79429 29.099609 261.75195 C 29.085498 261.70962 29.070752 261.66462 29.056641 261.61523 C 29.049585 261.56585 29.039502 261.52356 29.025391 261.48828 C 29.018335 261.44595 29.013672 261.41374 29.013672 261.39258 C 29.006616 261.34319 28.993823 261.26133 28.972656 261.14844 C 28.958545 261.02849 28.941089 260.89426 28.919922 260.74609 L 28.855469 260.28125 C 28.841358 260.11897 28.823901 259.96999 28.802734 259.83594 C 28.788623 259.69483 28.773877 259.57805 28.759766 259.48633 C 28.745655 259.39461 28.740234 259.3469 28.740234 259.33984 C 28.726123 259.24107 28.706714 259.11225 28.685547 258.95703 C 28.66438 258.79475 28.641503 258.63027 28.613281 258.46094 C 28.585059 258.2916 28.560229 258.12517 28.539062 257.96289 C 28.524951 257.80061 28.517578 257.66638 28.517578 257.56055 C 28.517578 257.48294 28.524951 257.39836 28.539062 257.30664 C 28.553174 257.21492 28.558594 257.1156 28.558594 257.00977 C 28.558594 256.98154 28.553174 256.93384 28.539062 256.86328 C 28.524951 256.79273 28.500122 256.71824 28.464844 256.64062 C 28.436622 256.56301 28.399755 256.4959 28.357422 256.43945 C 28.315089 256.37595 28.270092 256.34375 28.220703 256.34375 z M 55.960938 256.34375 C 55.918604 256.34375 55.879028 256.37866 55.84375 256.44922 C 55.815528 256.51977 55.795361 256.60164 55.78125 256.69336 C 55.767139 256.78508 55.755102 256.86965 55.748047 256.94727 C 55.740991 257.02488 55.738281 257.06987 55.738281 257.08398 C 55.738281 257.33093 55.745655 257.53965 55.759766 257.70898 C 55.773877 257.87832 55.791333 258.03001 55.8125 258.16406 C 55.833667 258.29812 55.851123 258.42227 55.865234 258.53516 C 55.886401 258.64099 55.903858 258.76048 55.917969 258.89453 C 55.967358 259.52953 56.027101 260.06917 56.097656 260.51367 C 56.168212 260.95817 56.215161 261.2763 56.236328 261.4668 C 56.243384 261.55146 56.26084 261.67095 56.289062 261.82617 C 56.317285 261.97434 56.354908 262.12136 56.404297 262.26953 C 56.460741 262.41064 56.532521 262.53945 56.617188 262.65234 C 56.70891 262.75818 56.818313 262.81055 56.945312 262.81055 C 56.966479 262.81055 57.008766 262.73606 57.072266 262.58789 C 57.142821 262.43267 57.212648 262.26623 57.283203 262.08984 C 57.360814 261.9064 57.432594 261.74192 57.496094 261.59375 C 57.559594 261.43853 57.60188 261.35938 57.623047 261.35938 C 57.637158 261.35937 57.649951 261.3842 57.664062 261.43359 C 57.685229 261.53237 57.710059 261.63906 57.738281 261.75195 C 57.773559 261.85779 57.820509 261.95711 57.876953 262.04883 C 57.940453 262.14055 58.017653 262.21775 58.109375 262.28125 C 58.201097 262.33769 58.320583 262.36523 58.46875 262.36523 C 58.539306 262.36523 58.609132 262.33769 58.679688 262.28125 C 58.757299 262.21775 58.829078 262.14792 58.892578 262.07031 C 58.956078 261.9927 59.005738 261.91821 59.041016 261.84766 C 59.083349 261.7771 59.103516 261.73481 59.103516 261.7207 C 59.103516 261.71365 59.086059 261.69153 59.050781 261.65625 C 59.015503 261.62803 58.98059 261.60786 58.945312 261.59375 C 58.910035 261.57258 58.885205 261.56055 58.871094 261.56055 C 58.786427 261.5676 58.719311 261.60989 58.669922 261.6875 C 58.620533 261.75806 58.580957 261.79492 58.552734 261.79492 C 58.49629 261.79492 58.44121 261.74797 58.384766 261.65625 C 58.328321 261.56453 58.278661 261.45512 58.236328 261.32812 C 58.193995 261.19407 58.154418 261.05984 58.119141 260.92578 C 58.090918 260.78467 58.070752 260.67256 58.056641 260.58789 C 58.04253 260.52439 58.035156 260.47202 58.035156 260.42969 C 58.035156 260.3803 58.000243 260.34072 57.929688 260.3125 C 57.873243 260.29839 57.826293 260.28093 57.791016 260.25977 C 57.755738 260.2386 57.710741 260.22852 57.654297 260.22852 C 57.604908 260.22852 57.545165 260.29834 57.474609 260.43945 C 57.411109 260.57351 57.33933 260.73257 57.261719 260.91602 C 57.191163 261.09946 57.121337 261.27869 57.050781 261.45508 C 56.987281 261.63147 56.934911 261.76299 56.892578 261.84766 C 56.871411 261.82649 56.853955 261.79429 56.839844 261.75195 C 56.825733 261.70962 56.810986 261.66462 56.796875 261.61523 C 56.789819 261.56585 56.779736 261.52356 56.765625 261.48828 C 56.758569 261.44595 56.753906 261.41374 56.753906 261.39258 C 56.746851 261.34319 56.734057 261.26133 56.712891 261.14844 C 56.69878 261.02849 56.67937 260.89426 56.658203 260.74609 L 56.595703 260.28125 C 56.581592 260.11897 56.564135 259.96999 56.542969 259.83594 C 56.528858 259.69483 56.514111 259.57805 56.5 259.48633 C 56.485889 259.39461 56.478516 259.3469 56.478516 259.33984 C 56.464405 259.24107 56.446948 259.11225 56.425781 258.95703 C 56.404615 258.79475 56.379785 258.63027 56.351562 258.46094 C 56.32334 258.2916 56.29851 258.12517 56.277344 257.96289 C 56.263233 257.80061 56.257812 257.66638 56.257812 257.56055 C 56.257813 257.48294 56.263233 257.39836 56.277344 257.30664 C 56.291455 257.21492 56.298828 257.1156 56.298828 257.00977 C 56.298828 256.98154 56.291455 256.93384 56.277344 256.86328 C 56.263233 256.79273 56.238403 256.71824 56.203125 256.64062 C 56.174903 256.56301 56.13999 256.4959 56.097656 256.43945 C 56.055323 256.37595 56.010326 256.34375 55.960938 256.34375 z M 43.666016 257.13672 C 43.553127 257.13672 43.475927 257.18638 43.433594 257.28516 C 43.398316 257.38393 43.380859 257.47588 43.380859 257.56055 C 43.380859 257.62405 43.383569 257.68379 43.390625 257.74023 C 43.397681 257.78962 43.402344 257.83657 43.402344 257.87891 C 43.367066 258.25285 43.320116 258.61868 43.263672 258.97852 C 43.207227 259.33835 43.140111 259.65918 43.0625 259.94141 C 42.991944 260.22363 42.914745 260.45447 42.830078 260.63086 C 42.745411 260.80019 42.658128 260.88477 42.566406 260.88477 C 42.467628 260.88477 42.360936 260.82502 42.248047 260.70508 C 42.142214 260.58513 42.030101 260.43344 41.910156 260.25 C 41.797267 260.06656 41.680491 259.86792 41.560547 259.65625 C 41.440602 259.44458 41.323826 259.2479 41.210938 259.06445 C 41.105104 258.88101 41.005785 258.72932 40.914062 258.60938 C 40.82234 258.48943 40.742431 258.42969 40.671875 258.42969 C 40.587208 258.42969 40.515429 258.45723 40.458984 258.51367 C 40.409595 258.56306 40.384766 258.63755 40.384766 258.73633 L 40.384766 259.38086 C 40.349488 259.41614 40.321948 259.46851 40.300781 259.53906 C 40.28667 259.60962 40.279297 259.73843 40.279297 259.92188 C 40.279297 260.03476 40.296753 260.18645 40.332031 260.37695 C 40.367309 260.5604 40.409595 260.75708 40.458984 260.96875 C 40.515429 261.18042 40.575172 261.39651 40.638672 261.61523 C 40.702172 261.8269 40.766578 262.02088 40.830078 262.19727 C 40.893578 262.37365 40.953321 262.51797 41.009766 262.63086 C 41.06621 262.73669 41.11316 262.78906 41.148438 262.78906 C 41.211937 262.78906 41.279054 262.76694 41.349609 262.72461 C 41.420165 262.68228 41.455078 262.61711 41.455078 262.52539 C 41.455078 262.46189 41.447705 262.41494 41.433594 262.38672 C 41.426538 262.35144 41.411792 262.31924 41.390625 262.29102 C 41.376514 262.26279 41.359057 262.23796 41.337891 262.2168 C 41.32378 262.18857 41.309033 262.15095 41.294922 262.10156 C 41.153811 261.61473 41.049071 261.15229 40.978516 260.71484 C 40.915016 260.2774 40.868066 259.90419 40.839844 259.59375 C 40.903344 259.72075 40.999953 259.88523 41.126953 260.08984 C 41.261009 260.2874 41.405325 260.48604 41.560547 260.68359 C 41.722825 260.87409 41.88926 261.03858 42.058594 261.17969 C 42.227927 261.3208 42.379616 261.39258 42.513672 261.39258 C 42.704172 261.39258 42.858571 261.32817 42.978516 261.20117 C 43.105516 261.06712 43.207545 260.90534 43.285156 260.71484 C 43.362767 260.52434 43.4198 260.32299 43.455078 260.11133 C 43.497411 259.89261 43.524951 259.70134 43.539062 259.53906 C 43.623729 260.30812 43.733132 261.01419 43.867188 261.65625 C 44.001243 262.29831 44.132766 262.85269 44.259766 263.31836 C 44.393821 263.78403 44.516017 264.14444 44.628906 264.39844 C 44.741795 264.65949 44.820948 264.78906 44.863281 264.78906 C 44.870337 264.78906 44.893214 264.78635 44.935547 264.7793 C 44.97788 264.77224 45.020167 264.75749 45.0625 264.73633 C 45.111889 264.71516 45.156128 264.68762 45.191406 264.65234 C 45.226684 264.62412 45.244141 264.58455 45.244141 264.53516 C 45.244141 264.49988 45.236767 264.4603 45.222656 264.41797 C 45.215601 264.37564 45.205517 264.33801 45.191406 264.30273 C 45.177295 264.26746 45.162549 264.22788 45.148438 264.18555 C 45.04966 263.95271 44.95034 263.68425 44.851562 263.38086 C 44.75984 263.07041 44.665184 262.74416 44.566406 262.39844 C 44.474684 262.05272 44.385448 261.69968 44.300781 261.33984 C 44.22317 260.97295 44.153344 260.61992 44.089844 260.28125 C 44.033399 259.93553 43.988403 259.61003 43.953125 259.30664 C 43.917847 258.9962 43.898437 258.72502 43.898438 258.49219 C 43.898438 258.22408 43.903101 258.02739 43.910156 257.90039 C 43.924267 257.76634 43.931641 257.66973 43.931641 257.61328 C 43.931641 257.578 43.926977 257.53572 43.919922 257.48633 C 43.919922 257.42988 43.912549 257.37751 43.898438 257.32812 C 43.884326 257.27168 43.856786 257.22668 43.814453 257.19141 C 43.779175 257.15613 43.729516 257.13672 43.666016 257.13672 z M 16.382812 257.28516 C 16.305201 257.28516 16.255542 257.33482 16.234375 257.43359 C 16.213208 257.53237 16.203125 257.61423 16.203125 257.67773 C 16.252514 258.27746 16.29751 258.78218 16.339844 259.19141 C 16.389233 259.59357 16.431519 259.92178 16.466797 260.17578 C 16.50913 260.42978 16.541333 260.61638 16.5625 260.73633 C 16.590722 260.85627 16.605469 260.93076 16.605469 260.95898 C 16.605469 260.9731 16.615552 261.04292 16.636719 261.16992 L 16.742188 261.64648 C 16.784521 261.82993 16.834181 262.03128 16.890625 262.25 C 16.947069 262.46167 17.006813 262.65835 17.070312 262.8418 C 17.133812 263.02524 17.198219 263.17693 17.261719 263.29688 C 17.332274 263.41682 17.399391 263.47656 17.462891 263.47656 C 17.519335 263.47656 17.567042 263.46377 17.609375 263.43555 C 17.651708 263.40732 17.673828 263.36504 17.673828 263.30859 L 17.25 261.55078 C 17.193556 261.31089 17.143896 261.09209 17.101562 260.89453 C 17.066285 260.69698 17.036035 260.51037 17.007812 260.33398 C 16.986646 260.15054 16.961816 259.96665 16.933594 259.7832 C 16.912427 259.59976 16.887597 259.3957 16.859375 259.16992 C 16.838208 259.00764 16.820752 258.82104 16.806641 258.60938 C 16.79253 258.39065 16.7677 258.18193 16.732422 257.98438 C 16.7042 257.78682 16.661913 257.62038 16.605469 257.48633 C 16.55608 257.35227 16.48159 257.28516 16.382812 257.28516 z M 52.908203 257.45508 C 52.858814 257.45508 52.813818 257.47991 52.771484 257.5293 C 52.736207 257.57163 52.71875 257.63875 52.71875 257.73047 C 52.71875 257.74458 52.731543 257.8439 52.759766 258.02734 C 52.795043 258.21079 52.83191 258.41018 52.867188 258.62891 C 52.909521 258.88291 52.961891 259.17349 53.025391 259.49805 L 52.845703 259.58203 C 52.732814 259.63848 52.588498 259.71026 52.412109 259.79492 C 52.242776 259.87959 52.058884 259.97424 51.861328 260.08008 C 51.656717 260.18591 51.470115 260.28794 51.300781 260.38672 C 51.131645 260.48143 50.995516 260.56865 50.884766 260.65039 C 50.84187 260.61103 50.797897 260.55664 50.757812 260.55664 C 50.701368 260.55664 50.651708 260.59893 50.609375 260.68359 C 50.574097 260.76826 50.556641 260.86021 50.556641 260.95898 C 50.556641 260.96604 50.566724 261.00366 50.587891 261.07422 C 50.609057 261.14477 50.633887 261.22664 50.662109 261.31836 C 50.697387 261.41008 50.7323 261.50474 50.767578 261.60352 C 50.802856 261.70229 50.830396 261.78687 50.851562 261.85742 C 50.865674 261.89976 50.887793 261.97695 50.916016 262.08984 C 50.944238 262.19568 50.979151 262.30974 51.021484 262.42969 C 51.063818 262.54963 51.113477 262.65437 51.169922 262.74609 C 51.226366 262.83782 51.290773 262.88477 51.361328 262.88477 C 51.396606 262.88477 51.448976 262.86731 51.519531 262.83203 C 51.597142 262.79675 51.634766 262.75447 51.634766 262.70508 C 51.634766 262.68391 51.621972 262.6168 51.59375 262.50391 C 51.572583 262.38396 51.54038 262.24507 51.498047 262.08984 C 51.455714 261.92757 51.406054 261.75842 51.349609 261.58203 C 51.293165 261.39859 51.230712 261.2341 51.160156 261.08594 C 51.158614 261.08217 51.157796 261.07991 51.15625 261.07617 C 51.169697 261.06923 51.168402 261.07256 51.183594 261.06445 C 51.282372 261.00095 51.401858 260.92646 51.542969 260.8418 C 51.68408 260.75007 51.835769 260.65542 51.998047 260.55664 C 52.160325 260.45081 52.316677 260.3542 52.464844 260.26953 C 52.61301 260.17781 52.74258 260.10527 52.855469 260.04883 C 52.975413 259.98533 53.059986 259.95312 53.109375 259.95312 C 53.116431 259.95312 53.133887 260.00278 53.162109 260.10156 C 53.225609 260.3344 53.282642 260.54854 53.332031 260.74609 C 53.374365 260.91543 53.416651 261.08186 53.458984 261.24414 C 53.501318 261.40642 53.528858 261.5259 53.542969 261.60352 C 53.585302 261.85752 53.607422 262.05149 53.607422 262.18555 C 53.607422 262.22082 53.604712 262.25303 53.597656 262.28125 L 53.597656 262.34375 C 53.597656 262.36492 53.603076 262.39712 53.617188 262.43945 C 53.631299 262.48179 53.653418 262.52874 53.681641 262.57812 C 53.709863 262.62046 53.742066 262.65808 53.777344 262.69336 C 53.812622 262.72864 53.850245 262.74609 53.892578 262.74609 C 53.970189 262.74609 54.027222 262.69101 54.0625 262.57812 C 54.097778 262.46524 54.115234 262.35583 54.115234 262.25 C 54.115234 262.24294 54.107861 262.19599 54.09375 262.11133 C 54.079639 262.01961 54.062182 261.91758 54.041016 261.80469 C 54.026905 261.6918 54.009448 261.57969 53.988281 261.4668 C 53.967115 261.35391 53.949658 261.26196 53.935547 261.19141 C 53.907325 261.07146 53.872411 260.93257 53.830078 260.77734 C 53.787745 260.62212 53.745458 260.4751 53.703125 260.33398 C 53.667847 260.18582 53.635644 260.05896 53.607422 259.95312 C 53.5792 259.84729 53.564453 259.78289 53.564453 259.76172 C 53.564453 259.74055 53.628859 259.70293 53.755859 259.64648 L 54.199219 259.42383 C 54.368552 259.33916 54.537698 259.24722 54.707031 259.14844 C 54.876365 259.0426 55.007887 258.93591 55.099609 258.83008 C 55.085498 258.80891 55.070752 258.78408 55.056641 258.75586 C 55.049585 258.72764 55.024755 258.71484 54.982422 258.71484 C 54.961255 258.71484 54.881345 258.74705 54.740234 258.81055 C 54.606179 258.86699 54.45449 258.93411 54.285156 259.01172 C 54.115823 259.08933 53.952097 259.16187 53.796875 259.23242 C 53.641653 259.29592 53.534203 259.3355 53.470703 259.34961 C 53.407203 259.16616 53.340087 258.92524 53.269531 258.62891 C 53.206031 258.33257 53.134252 257.99428 53.056641 257.61328 C 53.035474 257.50745 52.985814 257.45508 52.908203 257.45508 z M 22.363281 258.43945 C 22.250392 258.43945 22.158446 258.48445 22.087891 258.57617 C 22.017335 258.66084 21.982422 258.75278 21.982422 258.85156 C 21.982422 258.91506 21.999878 258.96939 22.035156 259.01172 C 22.070434 259.047 22.108057 259.07454 22.150391 259.0957 C 22.19978 259.11687 22.246729 259.13162 22.289062 259.13867 L 22.40625 259.13867 C 22.448583 259.13867 22.503663 259.11926 22.574219 259.08398 C 22.644774 259.04871 22.711891 259.01108 22.775391 258.96875 C 22.845946 258.91936 22.905689 258.87241 22.955078 258.83008 C 23.004467 258.78774 23.029297 258.7602 23.029297 258.74609 C 23.029297 258.70376 22.997094 258.66418 22.933594 258.62891 C 22.877149 258.59363 22.811986 258.56338 22.734375 258.53516 C 22.656764 258.50693 22.577611 258.48481 22.5 258.4707 C 22.429444 258.44954 22.384448 258.43945 22.363281 258.43945 z M 50.619141 258.43945 C 50.506252 258.43945 50.414306 258.48445 50.34375 258.57617 C 50.273194 258.66084 50.238281 258.75278 50.238281 258.85156 C 50.238281 258.91506 50.255738 258.96939 50.291016 259.01172 C 50.326293 259.047 50.36587 259.07454 50.408203 259.0957 C 50.457592 259.11687 50.502589 259.13162 50.544922 259.13867 L 50.662109 259.13867 C 50.704443 259.13867 50.761476 259.11926 50.832031 259.08398 C 50.902587 259.04871 50.969703 259.01108 51.033203 258.96875 C 51.103759 258.91936 51.163502 258.87241 51.212891 258.83008 C 51.26228 258.78774 51.287109 258.7602 51.287109 258.74609 C 51.287109 258.70376 51.254906 258.66418 51.191406 258.62891 C 51.134962 258.59363 51.067845 258.56338 50.990234 258.53516 C 50.912623 258.50693 50.835424 258.48481 50.757812 258.4707 C 50.687257 258.44954 50.640307 258.43945 50.619141 258.43945 z M 12.726562 258.54492 C 12.606618 258.54492 12.475095 258.62949 12.333984 258.79883 C 12.199929 258.96816 12.062986 259.18697 11.921875 259.45508 C 11.780764 259.71613 11.643821 260.00477 11.509766 260.32227 C 11.37571 260.63977 11.258934 260.94314 11.160156 261.23242 C 11.061378 261.5217 10.979516 261.78008 10.916016 262.00586 C 10.852516 262.23164 10.820313 262.38333 10.820312 262.46094 C 10.820312 263.25116 11.205554 263.64648 11.974609 263.64648 C 12.228609 263.64648 12.472245 263.61157 12.705078 263.54102 C 12.937911 263.47046 13.159427 263.37385 13.371094 263.25391 C 13.589816 263.13396 13.798538 263.00168 13.996094 262.85352 C 14.200705 262.69829 14.399344 262.53457 14.589844 262.36523 C 14.667455 262.29468 14.752028 262.21477 14.84375 262.12305 C 14.935472 262.02427 15.020045 261.92029 15.097656 261.81445 C 15.175267 261.70862 15.23772 261.60388 15.287109 261.49805 C 15.343554 261.39221 15.371094 261.29018 15.371094 261.19141 C 15.371094 261.14202 15.350927 261.07761 15.308594 261 C 15.26626 260.92239 15.216601 260.88477 15.160156 260.88477 C 15.131934 260.88477 15.099731 260.89019 15.064453 260.9043 C 15.036231 260.91841 15.008691 260.95061 14.980469 261 C 14.853469 261.26811 14.67695 261.5292 14.451172 261.7832 C 14.225394 262.03015 13.979049 262.24895 13.710938 262.43945 C 13.442826 262.62995 13.159615 262.78631 12.863281 262.90625 C 12.574003 263.01914 12.300118 263.07422 12.039062 263.07422 C 11.975563 263.07422 11.901073 263.07151 11.816406 263.06445 C 11.738795 263.05034 11.661595 263.02551 11.583984 262.99023 C 11.513429 262.95496 11.449023 262.90259 11.392578 262.83203 C 11.343189 262.76148 11.318359 262.66487 11.318359 262.54492 C 11.318359 262.33326 11.360646 262.08691 11.445312 261.80469 C 11.529979 261.51541 11.624635 261.23957 11.730469 260.97852 C 11.836302 260.7104 11.935622 260.47881 12.027344 260.28125 C 12.126122 260.07664 12.190528 259.94978 12.21875 259.90039 C 12.261083 259.83689 12.30337 259.77715 12.345703 259.7207 L 12.451172 259.57227 C 12.48645 259.52288 12.51128 259.48796 12.525391 259.4668 C 12.624168 259.32569 12.718825 259.18679 12.810547 259.05273 C 12.902269 258.91162 12.951929 258.81968 12.958984 258.77734 C 12.958984 258.7209 12.938818 258.66853 12.896484 258.61914 C 12.861207 258.56975 12.804174 258.54492 12.726562 258.54492 z M 33.212891 259.59375 C 33.085891 259.59375 32.956321 259.64612 32.822266 259.75195 C 32.68821 259.85779 32.564061 260.0021 32.451172 260.18555 C 32.345339 260.36899 32.258056 260.58042 32.1875 260.82031 C 32.116944 261.0602 32.082031 261.31858 32.082031 261.59375 C 32.082031 261.88303 32.119655 262.13675 32.197266 262.35547 C 32.274877 262.56714 32.374196 262.74636 32.494141 262.89453 C 32.614085 263.03564 32.751028 263.14505 32.90625 263.22266 C 33.061472 263.29321 33.220535 263.32812 33.382812 263.32812 C 33.615646 263.32812 33.816995 263.3033 33.986328 263.25391 C 34.162717 263.20452 34.309743 263.14944 34.429688 263.08594 C 34.549632 263.02244 34.646241 262.95803 34.716797 262.89453 C 34.787352 262.83103 34.832349 262.78603 34.853516 262.75781 C 34.917016 262.67315 34.949219 262.60874 34.949219 262.56641 C 34.949219 262.53818 34.946509 262.51802 34.939453 262.50391 C 34.932398 262.48274 34.912988 262.46062 34.884766 262.43945 C 34.863599 262.41829 34.843432 262.4082 34.822266 262.4082 C 34.801099 262.4082 34.748729 262.43303 34.664062 262.48242 C 34.586451 262.52476 34.489842 262.57441 34.376953 262.63086 C 34.27112 262.68025 34.156297 262.72991 34.029297 262.7793 C 33.909352 262.82163 33.795286 262.8418 33.689453 262.8418 C 33.541286 262.8418 33.39697 262.81426 33.255859 262.75781 C 33.114748 262.70137 32.990599 262.62417 32.884766 262.52539 C 32.778932 262.41956 32.691649 262.29074 32.621094 262.14258 C 32.557594 261.99441 32.525391 261.82993 32.525391 261.64648 C 32.525391 261.42776 32.552931 261.22641 32.609375 261.04297 C 32.665819 260.85247 32.737599 260.6907 32.822266 260.55664 C 32.906932 260.41553 32.994215 260.30613 33.085938 260.22852 C 33.17766 260.14385 33.259523 260.10156 33.330078 260.10156 C 33.4853 260.10156 33.579957 260.1291 33.615234 260.18555 C 33.650512 260.24199 33.667969 260.2769 33.667969 260.29102 C 33.667969 260.4039 33.622972 260.49314 33.53125 260.55664 C 33.446583 260.62014 33.351927 260.67522 33.246094 260.72461 C 33.14026 260.76694 33.040941 260.8166 32.949219 260.87305 C 32.864552 260.92949 32.822266 261.00669 32.822266 261.10547 C 32.822266 261.16191 32.837012 261.21157 32.865234 261.25391 C 32.900512 261.28918 32.938135 261.30664 32.980469 261.30664 C 33.05808 261.30664 33.164773 261.2791 33.298828 261.22266 C 33.432884 261.15916 33.567116 261.08196 33.701172 260.99023 C 33.835227 260.89146 33.94734 260.78476 34.039062 260.67188 C 34.13784 260.55899 34.1875 260.44958 34.1875 260.34375 C 34.1875 260.25203 34.15996 260.16474 34.103516 260.08008 C 34.047071 259.98836 33.967918 259.90649 33.869141 259.83594 C 33.777418 259.76538 33.672679 259.70835 33.552734 259.66602 C 33.439845 259.61663 33.32578 259.59375 33.212891 259.59375 z M 25.392578 259.81445 C 25.364356 259.81445 25.314696 259.83657 25.244141 259.87891 C 25.180641 259.92124 25.110814 259.97827 25.033203 260.04883 C 24.955592 260.11233 24.873729 260.18486 24.789062 260.26953 C 24.711451 260.34714 24.648998 260.4263 24.599609 260.50391 C 24.48672 260.66618 24.372655 260.88499 24.259766 261.16016 C 24.146877 261.43532 24.091797 261.74141 24.091797 262.08008 C 24.091797 262.28469 24.122047 262.45655 24.185547 262.59766 C 24.256102 262.73877 24.345339 262.86021 24.451172 262.95898 C 24.557005 263.05071 24.669118 263.11782 24.789062 263.16016 C 24.916062 263.20249 25.040212 263.22266 25.160156 263.22266 C 25.357712 263.22266 25.561771 263.17029 25.773438 263.06445 C 25.99216 262.95156 26.186135 262.82741 26.355469 262.69336 C 26.531858 262.5593 26.676174 262.43244 26.789062 262.3125 C 26.909007 262.1855 26.976123 262.11101 26.990234 262.08984 C 27.011401 262.04045 27.033521 261.98071 27.054688 261.91016 C 27.075854 261.83255 27.085938 261.75806 27.085938 261.6875 C 27.085937 261.56756 27.048314 261.50781 26.970703 261.50781 C 26.92837 261.50781 26.861253 261.56756 26.769531 261.6875 C 26.677809 261.80744 26.55637 261.94168 26.408203 262.08984 C 26.260036 262.23801 26.080807 262.37224 25.869141 262.49219 C 25.66453 262.61213 25.428267 262.67188 25.160156 262.67188 C 25.01199 262.67187 24.867674 262.61951 24.726562 262.51367 C 24.592507 262.40078 24.525391 262.25376 24.525391 262.07031 C 24.525391 261.88687 24.563014 261.67348 24.640625 261.43359 C 24.725292 261.18665 24.854104 260.94768 25.023438 260.71484 C 25.108104 260.5949 25.188014 260.50024 25.265625 260.42969 C 25.343236 260.35208 25.410352 260.29233 25.466797 260.25 C 25.523241 260.20061 25.565528 260.15637 25.59375 260.12109 C 25.629028 260.07876 25.646484 260.03105 25.646484 259.97461 C 25.646484 259.93933 25.618944 259.90247 25.5625 259.86719 C 25.513111 259.83191 25.456078 259.81445 25.392578 259.81445 z M 46.880859 259.84766 C 46.676248 259.84766 46.495066 259.94502 46.339844 260.14258 C 46.191677 260.34013 46.069481 260.56631 45.970703 260.82031 C 45.871925 261.07431 45.797436 261.32066 45.748047 261.56055 C 45.698658 261.79338 45.673828 261.95244 45.673828 262.03711 C 45.673828 262.05122 45.681201 262.11096 45.695312 262.2168 C 45.709424 262.32263 45.734253 262.4367 45.769531 262.55664 C 45.804809 262.66953 45.849806 262.77427 45.90625 262.87305 C 45.96975 262.96477 46.04695 263.01172 46.138672 263.01172 C 46.230394 263.01172 46.31963 262.97681 46.404297 262.90625 C 46.488964 262.82864 46.566163 262.7394 46.636719 262.64062 C 46.707274 262.53479 46.771681 262.43276 46.828125 262.33398 C 46.891625 262.23521 46.943995 262.16538 46.986328 262.12305 C 47.035717 262.27121 47.112917 262.40545 47.21875 262.52539 C 47.324583 262.63828 47.444069 262.73565 47.578125 262.82031 C 47.712181 262.89792 47.851076 262.95767 47.992188 263 C 48.133299 263.04233 48.267531 263.06445 48.394531 263.06445 C 48.676753 263.06445 48.947929 263.00471 49.208984 262.88477 C 49.47004 262.75777 49.698929 262.60608 49.896484 262.42969 C 50.09404 262.2533 50.248439 262.07212 50.361328 261.88867 C 50.481273 261.69817 50.542969 261.54106 50.542969 261.41406 C 50.542969 261.32234 50.496019 261.27539 50.404297 261.27539 C 50.347852 261.27539 50.278026 261.34251 50.193359 261.47656 C 50.108693 261.60356 49.991917 261.74788 49.84375 261.91016 C 49.702639 262.06538 49.52341 262.20969 49.304688 262.34375 C 49.093021 262.47075 48.831929 262.53516 48.521484 262.53516 C 48.27454 262.53516 48.075901 262.49287 47.927734 262.4082 C 47.779568 262.31648 47.662792 262.20437 47.578125 262.07031 C 47.493458 261.9292 47.438378 261.77014 47.410156 261.59375 C 47.381934 261.41736 47.367188 261.23618 47.367188 261.05273 C 47.367188 261.01746 47.369898 260.98254 47.376953 260.94727 C 47.384009 260.90493 47.388672 260.85994 47.388672 260.81055 C 47.388672 260.73294 47.378589 260.6759 47.357422 260.64062 C 47.343311 260.60535 47.318481 260.58052 47.283203 260.56641 C 47.254981 260.54524 47.218115 260.53049 47.175781 260.52344 C 47.140503 260.50933 47.10559 260.48916 47.070312 260.46094 L 47.070312 260.14258 C 47.070313 260.07908 47.057519 260.01662 47.029297 259.95312 C 47.00813 259.88257 46.95847 259.84766 46.880859 259.84766 z M 20.392578 260.06836 C 20.251467 260.06836 20.159521 260.09048 20.117188 260.13281 C 20.074854 260.16809 20.054688 260.20767 20.054688 260.25 C 20.054688 260.30644 20.064771 260.34407 20.085938 260.36523 C 20.107104 260.37935 20.117188 260.41155 20.117188 260.46094 C 20.117188 260.47505 20.114477 260.49988 20.107422 260.53516 C 20.107422 260.57043 20.104712 260.60806 20.097656 260.65039 L 20.076172 260.77734 L 20.076172 260.8418 C 20.076172 260.88413 20.064135 260.97608 20.042969 261.11719 C 20.021802 261.25124 19.991552 261.39556 19.949219 261.55078 C 19.906885 261.69895 19.849852 261.83318 19.779297 261.95312 C 19.715797 262.06601 19.638597 262.12305 19.546875 262.12305 C 19.497486 262.12305 19.440453 262.05864 19.376953 261.93164 C 19.313453 261.79759 19.25371 261.6459 19.197266 261.47656 C 19.140821 261.30723 19.091161 261.14079 19.048828 260.97852 C 19.01355 260.81624 18.996094 260.70412 18.996094 260.64062 C 18.996094 260.56301 18.978637 260.49319 18.943359 260.42969 C 18.908082 260.35913 18.840965 260.32227 18.742188 260.32227 C 18.713965 260.32227 18.671679 260.34168 18.615234 260.37695 C 18.565845 260.40518 18.541016 260.4428 18.541016 260.49219 C 18.541016 260.57685 18.561182 260.73863 18.603516 260.97852 C 18.652905 261.21135 18.720021 261.45498 18.804688 261.70898 C 18.89641 261.96298 19.010476 262.18916 19.144531 262.38672 C 19.278587 262.58427 19.437649 262.68359 19.621094 262.68359 C 19.691649 262.68359 19.758766 262.6541 19.822266 262.59766 C 19.892821 262.54121 19.955274 262.47876 20.011719 262.4082 C 20.075219 262.33059 20.127589 262.26077 20.169922 262.19727 C 20.212255 262.13377 20.244458 262.09148 20.265625 262.07031 C 20.279736 262.08442 20.311939 262.11196 20.361328 262.1543 C 20.410717 262.19663 20.46775 262.24163 20.53125 262.29102 C 20.601806 262.3404 20.671632 262.38269 20.742188 262.41797 C 20.819799 262.45325 20.889625 262.4707 20.953125 262.4707 C 21.009569 262.4707 21.094142 262.45054 21.207031 262.4082 C 21.326976 262.36587 21.443752 262.31621 21.556641 262.25977 C 21.66953 262.19627 21.768849 262.12915 21.853516 262.05859 C 21.938182 261.98804 21.980469 261.92092 21.980469 261.85742 C 21.980469 261.81509 21.952929 261.78018 21.896484 261.75195 C 21.847095 261.72373 21.790062 261.70898 21.726562 261.70898 C 21.677174 261.70898 21.624804 261.72373 21.568359 261.75195 C 21.511915 261.77312 21.447509 261.80066 21.376953 261.83594 C 21.313453 261.86416 21.243627 261.89365 21.166016 261.92188 C 21.09546 261.94304 21.01826 261.95312 20.933594 261.95312 C 20.884205 261.95312 20.837255 261.9283 20.794922 261.87891 C 20.752589 261.82246 20.714965 261.76272 20.679688 261.69922 C 20.651465 261.62866 20.626635 261.56155 20.605469 261.49805 C 20.584302 261.43455 20.572266 261.39226 20.572266 261.37109 C 20.572266 261.34993 20.576929 261.29018 20.583984 261.19141 C 20.59104 261.09263 20.59375 260.9906 20.59375 260.88477 C 20.600806 260.77188 20.608179 260.66789 20.615234 260.57617 C 20.62229 260.48445 20.625 260.43674 20.625 260.42969 C 20.625 260.41558 20.62229 260.39075 20.615234 260.35547 C 20.615234 260.31314 20.607861 260.27085 20.59375 260.22852 C 20.579639 260.18618 20.554809 260.14932 20.519531 260.12109 C 20.491309 260.08582 20.449023 260.06836 20.392578 260.06836 z M 22.5 260.55664 C 22.443556 260.55664 22.393896 260.59893 22.351562 260.68359 C 22.316285 260.76826 22.298828 260.86021 22.298828 260.95898 C 22.298828 260.96604 22.310865 261.00366 22.332031 261.07422 C 22.353198 261.14477 22.378028 261.22664 22.40625 261.31836 C 22.441528 261.41008 22.476441 261.50474 22.511719 261.60352 C 22.546997 261.70229 22.574536 261.78687 22.595703 261.85742 C 22.609814 261.89976 22.631934 261.97695 22.660156 262.08984 C 22.688378 262.19568 22.723292 262.30974 22.765625 262.42969 C 22.807958 262.54963 22.857618 262.65437 22.914062 262.74609 C 22.970507 262.83782 23.03296 262.88477 23.103516 262.88477 C 23.138793 262.88477 23.191163 262.86731 23.261719 262.83203 C 23.33933 262.79675 23.378906 262.75447 23.378906 262.70508 C 23.378906 262.68391 23.36416 262.6168 23.335938 262.50391 C 23.314771 262.38396 23.284521 262.24507 23.242188 262.08984 C 23.199854 261.92757 23.150194 261.75842 23.09375 261.58203 C 23.037306 261.39859 22.972899 261.2341 22.902344 261.08594 C 22.838844 260.93072 22.771727 260.80386 22.701172 260.70508 C 22.630616 260.6063 22.5635 260.55664 22.5 260.55664 z M 46.785156 260.55664 C 46.785156 260.57075 46.79253 260.58355 46.806641 260.59766 C 46.820752 260.60471 46.828125 260.61946 46.828125 260.64062 C 46.828125 260.6759 46.820752 260.70344 46.806641 260.72461 C 46.79253 260.74578 46.785156 260.77061 46.785156 260.79883 C 46.785156 260.81999 46.79253 260.84482 46.806641 260.87305 C 46.820752 260.89421 46.828125 260.91904 46.828125 260.94727 C 46.828125 261.17304 46.773802 261.40193 46.667969 261.63477 C 46.569191 261.8676 46.459788 262.10852 46.339844 262.35547 C 46.304566 262.32019 46.274316 262.2457 46.246094 262.13281 C 46.217872 262.01992 46.203125 261.93806 46.203125 261.88867 C 46.203125 261.79695 46.220582 261.68213 46.255859 261.54102 C 46.291137 261.39285 46.336134 261.24658 46.392578 261.10547 C 46.456078 260.96436 46.520484 260.84216 46.583984 260.73633 C 46.65454 260.63049 46.721656 260.57075 46.785156 260.55664 z "
       style="font-style:normal;font-weight:normal;font-size:10.58333302px;line-height:1.25;font-family:sans-serif;letter-spacing:0px;word-spacing:0px;fill:#3d7915;fill-opacity:1;stroke:none;stroke-width:0.26458332"
       id="text2809"
       d="m 28.220703,256.10547 c 0.908742,-0.71893 -4.047308,2.60925 -0.330078,0.23633 -0.04823,0.074 -0.197989,0.7431 -0.08594,0.31445 -0.02194,0.14173 -0.05297,0.57093 -0.04492,0.42773 0,0.25171 0.0066,0.46588 0.02148,0.64454 0.01449,0.17382 0.03235,0.33116 0.05469,0.47265 0.02078,0.13161 0.03896,0.25307 0.05273,0.36328 a 0.23896534,0.23896534 0 0 0 0.002,0.0176 c 0.01934,0.0967 0.03532,0.20954 0.04883,0.33789 0.0496,0.63553 0.110004,1.17955 0.181641,1.63086 0.07036,0.44328 0.11661,0.76238 0.136718,0.94336 v -0.008 c 0.0082,0.0986 0.02766,0.22342 0.05664,0.38281 a 0.23896534,0.23896534 0 0 0 0,0.002 c 0.03047,0.15997 0.07273,0.31779 0.125,0.47461 a 0.23896534,0.23896534 0 0 0 0.0039,0.0117 c 0.06306,0.15765 0.14301,0.30526 0.242188,0.4375 a 0.23896534,0.23896534 0 0 0 0.01172,0.0137 c 0.127758,0.14743 0.315125,0.24024 0.507812,0.24024 6.62e-4,0 0.03551,-7.5e-4 0.05078,-0.004 0.01527,-0.003 0.02909,-0.009 0.04102,-0.0137 0.02385,-0.009 0.04078,-0.0195 0.05469,-0.0293 0.02782,-0.0196 0.04223,-0.0362 0.05469,-0.0508 0.02492,-0.0292 0.0399,-0.0522 0.05469,-0.0781 0.02872,-0.0504 0.05556,-0.11041 0.08789,-0.18555 l 0.002,-0.006 c 0.07096,-0.1564 0.142991,-0.32348 0.212891,-0.49805 l 0.002,-0.006 c 0.02932,-0.0693 0.05247,-0.12524 0.08008,-0.18945 0.02863,0.0625 0.05251,0.12805 0.08789,0.18555 a 0.23896534,0.23896534 0 0 0 0.0059,0.0117 c 0.07937,0.11464 0.178316,0.21359 0.292969,0.29297 a 0.23896534,0.23896534 0 0 0 0.01172,0.006 c 0.141057,0.0868 0.306599,0.11914 0.484375,0.11914 0.132733,0 0.258649,-0.0526 0.361328,-0.13477 a 0.23896534,0.23896534 0 0 0 0.002,-0.002 c 0.08969,-0.0734 0.172712,-0.15641 0.246094,-0.2461 0.07229,-0.0884 0.130477,-0.17502 0.175781,-0.26562 0.01868,-0.0317 0.03583,-0.0613 0.04883,-0.0879 0.01526,-0.0312 0.03906,-0.0256 0.03906,-0.14649 0,-4.4e-4 -0.0057,-0.058 -0.0059,-0.0586 -1.36e-4,-5.6e-4 -0.008,-0.026 -0.01172,-0.0352 -0.0074,-0.0182 -0.01389,-0.0278 -0.01953,-0.0371 -0.01128,-0.0186 -0.02058,-0.0303 -0.0293,-0.041 -0.01744,-0.0215 -0.03333,-0.0411 -0.05469,-0.0625 a 0.23896534,0.23896534 0 0 0 -0.02148,-0.0176 c -0.04464,-0.0357 -0.09339,-0.0618 -0.142578,-0.084 -0.03706,-0.026 -0.04453,-0.0625 -0.185547,-0.0625 a 0.23896534,0.23896534 0 0 0 -0.01953,0 c -0.111533,0.009 -0.196837,0.094 -0.279297,0.17187 -0.03777,-0.0667 -0.07516,-0.14235 -0.107422,-0.23828 l -0.002,-0.004 c -0.03947,-0.12517 -0.07656,-0.24937 -0.109375,-0.37304 v -0.002 c -0.02749,-0.13758 -0.04696,-0.2466 -0.06055,-0.32812 a 0.23896534,0.23896534 0 0 0 -0.0039,-0.0137 c -0.0119,-0.0536 -0.01563,-0.0909 -0.01563,-0.10547 0,-0.081 -0.03472,-0.16936 -0.08594,-0.22657 -0.05122,-0.0572 -0.111498,-0.0899 -0.169922,-0.11328 a 0.23896534,0.23896534 0 0 0 -0.0293,-0.01 c -0.0417,-0.0104 -0.06941,-0.0225 -0.07422,-0.0254 -0.08345,-0.0501 -0.174874,-0.0645 -0.259766,-0.0645 -0.137291,0 -0.212604,0.0768 -0.263671,0.13672 -0.05107,0.0599 -0.08861,0.1245 -0.128907,0.20508 a 0.23896534,0.23896534 0 0 0 -0.0039,0.006 c -0.06579,0.1389 -0.136506,0.29921 -0.214844,0.48438 a 0.23896534,0.23896534 0 0 0 -0.002,0.008 c -0.03145,0.0818 -0.06382,0.16158 -0.0957,0.24219 -0.01336,-0.11049 -0.02996,-0.22732 -0.04883,-0.35938 l -0.0625,-0.45312 -0.002,-0.0117 c -0.01386,-0.15684 -0.02999,-0.30161 -0.05078,-0.43555 l -0.002,-0.0137 c -0.01396,-0.13733 -0.02859,-0.25615 -0.04297,-0.34961 -0.0068,-0.0443 -0.01088,-0.076 -0.01367,-0.0977 -0.0014,-0.0108 -0.0035,-0.0192 -0.0039,-0.0234 a 0.23896534,0.23896534 0 0 0 -0.002,-0.0215 c -0.01426,-0.0998 -0.03389,-0.2285 -0.05469,-0.38086 v -0.002 c -0.02128,-0.16305 -0.04347,-0.32919 -0.07227,-0.50195 -0.02723,-0.16338 -0.05176,-0.32421 -0.07227,-0.48047 -0.01375,-0.15811 -0.02148,-0.28613 -0.02148,-0.38086 0,-0.0625 0.0069,-0.13454 0.01953,-0.2168 0.01666,-0.10826 0.02148,-0.22 0.02148,-0.33398 0,-0.0588 -0.0076,-0.11403 -0.02344,-0.19336 -0.01783,-0.0892 -0.04994,-0.17853 -0.08984,-0.26758 -0.03436,-0.0914 -0.07829,-0.17271 -0.13086,-0.24414 -0.06543,-0.0966 -0.180492,-0.19922 -0.332031,-0.19922 z m 27.740235,0 c 0.908747,-0.71893 -4.04734,2.60926 -0.330079,0.23633 -0.04823,0.074 -0.197971,0.74305 -0.08594,0.31445 -0.02207,0.14168 -0.04866,0.57129 -0.04492,0.42773 0,0.25171 0.0066,0.46588 0.02148,0.64454 0.01449,0.17382 0.03235,0.33116 0.05469,0.47265 0.02078,0.1316 0.03896,0.25306 0.05273,0.36328 a 0.23896534,0.23896534 0 0 0 0.002,0.0176 c 0.01934,0.0967 0.03532,0.20954 0.04883,0.33789 0.0496,0.63553 0.110004,1.17955 0.18164,1.63086 0.07036,0.44328 0.11661,0.76238 0.136719,0.94336 v -0.008 c 0.0082,0.0986 0.02766,0.22342 0.05664,0.38281 a 0.23896534,0.23896534 0 0 0 0,0.002 c 0.03009,0.15798 0.07017,0.31599 0.123046,0.47461 a 0.23896534,0.23896534 0 0 0 0.0039,0.0117 c 0.06377,0.15941 0.146021,0.30668 0.24414,0.4375 a 0.23896534,0.23896534 0 0 0 0.01172,0.0137 c 0.127759,0.14743 0.315126,0.24024 0.507812,0.24024 6.62e-4,0 0.03551,-7.5e-4 0.05078,-0.004 0.01527,-0.003 0.02909,-0.009 0.04102,-0.0137 0.02385,-0.009 0.04078,-0.0195 0.05469,-0.0293 0.02782,-0.0196 0.04223,-0.0362 0.05469,-0.0508 0.02492,-0.0292 0.0399,-0.0522 0.05469,-0.0781 0.02872,-0.0504 0.05556,-0.11041 0.08789,-0.18555 l 0.002,-0.006 c 0.07096,-0.1564 0.142991,-0.32347 0.21289,-0.49805 l 0.002,-0.006 c 0.02933,-0.0693 0.05247,-0.12524 0.08008,-0.18945 0.02863,0.0625 0.05251,0.12806 0.08789,0.18555 a 0.23896534,0.23896534 0 0 0 0.0059,0.0117 c 0.07937,0.11464 0.178318,0.21359 0.292968,0.29297 a 0.23896534,0.23896534 0 0 0 0.01172,0.006 c 0.141057,0.0868 0.3066,0.11914 0.484375,0.11914 0.132733,0 0.258377,-0.054 0.359375,-0.13477 a 0.23896534,0.23896534 0 0 0 0.002,-0.002 c 0.08817,-0.0721 0.173146,-0.15455 0.248047,-0.2461 0.07229,-0.0884 0.130477,-0.17502 0.175781,-0.26562 0.01868,-0.0317 0.03583,-0.0613 0.04883,-0.0879 0.01526,-0.0312 0.03906,-0.0256 0.03906,-0.14649 0,-4.4e-4 -0.0057,-0.058 -0.0059,-0.0586 -1.37e-4,-5.6e-4 -0.008,-0.026 -0.01172,-0.0352 -0.0074,-0.0182 -0.01389,-0.0278 -0.01953,-0.0371 -0.01129,-0.0186 -0.02058,-0.0303 -0.0293,-0.041 -0.01744,-0.0215 -0.03333,-0.0411 -0.05469,-0.0625 a 0.23896534,0.23896534 0 0 0 -0.02148,-0.0176 c -0.04464,-0.0357 -0.09338,-0.0618 -0.142578,-0.084 -0.03706,-0.026 -0.04453,-0.0625 -0.185547,-0.0625 a 0.23896534,0.23896534 0 0 0 -0.01953,0 c -0.111533,0.009 -0.196837,0.094 -0.279296,0.17187 -0.03777,-0.0667 -0.07516,-0.14235 -0.107422,-0.23828 l -0.002,-0.004 c -0.03947,-0.12517 -0.07656,-0.24937 -0.109375,-0.37304 v -0.002 c -0.02749,-0.13758 -0.04696,-0.2466 -0.06055,-0.32812 a 0.23896534,0.23896534 0 0 0 -0.0039,-0.0137 c -0.0119,-0.0536 -0.01562,-0.0909 -0.01562,-0.10547 0,-0.081 -0.03472,-0.16936 -0.08594,-0.22657 -0.05122,-0.0572 -0.111498,-0.0899 -0.169922,-0.11328 a 0.23896534,0.23896534 0 0 0 -0.0293,-0.01 c -0.0417,-0.0104 -0.06942,-0.0225 -0.07422,-0.0254 -0.08345,-0.0501 -0.174874,-0.0645 -0.259765,-0.0645 -0.13729,0 -0.212604,0.0768 -0.263672,0.13672 -0.05107,0.0599 -0.08861,0.1245 -0.128906,0.20508 a 0.23896534,0.23896534 0 0 0 -0.0039,0.006 c -0.06498,0.13719 -0.137898,0.29788 -0.216796,0.48438 a 0.23896534,0.23896534 0 0 0 -0.002,0.008 c -0.03173,0.0825 -0.06419,0.16142 -0.0957,0.24219 -0.01384,-0.11145 -0.03034,-0.22804 -0.04883,-0.35743 v -0.002 l -0.06055,-0.45312 -0.002,-0.01 c -0.01389,-0.15762 -0.0299,-0.30297 -0.05078,-0.4375 l -0.002,-0.0137 c -0.01396,-0.13733 -0.02859,-0.25616 -0.04297,-0.34961 -0.0071,-0.0459 -0.0122,-0.0805 -0.01563,-0.10352 -0.0017,-0.0115 -0.0033,-0.019 -0.0039,-0.0234 a 0.23896534,0.23896534 0 0 0 -0.002,-0.0156 c -0.01383,-0.0968 -0.0317,-0.22657 -0.05273,-0.38086 v -0.002 c -0.02153,-0.1649 -0.04572,-0.33094 -0.07422,-0.50195 -0.02723,-0.16338 -0.05176,-0.32421 -0.07227,-0.48047 -0.01358,-0.15622 -0.01953,-0.28319 -0.01953,-0.38086 10e-7,-0.0665 0.0054,-0.13781 0.01758,-0.2168 0.01615,-0.10498 0.02344,-0.21706 0.02344,-0.33398 0,-0.0698 -0.01036,-0.11819 -0.02539,-0.19336 -0.01783,-0.0892 -0.04994,-0.17853 -0.08984,-0.26758 -0.03312,-0.0885 -0.07464,-0.17022 -0.128906,-0.24414 -0.06543,-0.0966 -0.180491,-0.19922 -0.332031,-0.19922 z m -12.294922,0.79297 c -0.182963,0 -0.37883,0.12416 -0.451172,0.29297 a 0.23896534,0.23896534 0 0 0 -0.0059,0.0137 c -0.04268,0.11949 -0.06641,0.23795 -0.06641,0.35547 0,0.0703 0.003,0.13942 0.01172,0.20898 a 0.23896534,0.23896534 0 0 0 0,0.004 c 0.0055,0.0382 0.0072,0.0693 0.0078,0.0937 -0.03468,0.36522 -0.07953,0.72206 -0.134765,1.07422 -0.05532,0.35266 -0.120639,0.66595 -0.195313,0.9375 a 0.23896534,0.23896534 0 0 0 -0.002,0.004 c -0.06804,0.27218 -0.14085,0.49038 -0.214844,0.64453 -0.02872,0.0564 -0.05263,0.0856 -0.06836,0.10352 -0.01332,-0.004 -0.04967,-0.0135 -0.119141,-0.084 l -0.002,-0.004 c -0.0021,-0.002 -0.0018,3.1e-4 -0.0039,-0.002 -0.09272,-0.10577 -0.196495,-0.24508 -0.308594,-0.41602 l -0.002,-0.004 c -5.92e-4,-9e-4 -0.0014,-0.001 -0.002,-0.002 -0.110024,-0.17896 -0.224264,-0.37266 -0.341797,-0.58008 -0.120214,-0.21214 -0.236393,-0.40962 -0.349609,-0.59375 l -0.0039,-0.006 c -0.108198,-0.18703 -0.211559,-0.34517 -0.310546,-0.47461 -0.109145,-0.14273 -0.22621,-0.27343 -0.431641,-0.27343 -0.136481,0 -0.282228,0.0518 -0.382813,0.15234 -0.106015,0.10602 -0.142578,0.25376 -0.142578,0.39258 v 0.59961 c -0.02444,0.045 -0.05957,0.086 -0.07422,0.13476 a 0.23896534,0.23896534 0 0 0 -0.0059,0.0215 c -0.02194,0.1097 -0.02539,0.23983 -0.02539,0.42969 0,0.13751 0.0198,0.29909 0.05664,0.49804 a 0.23896534,0.23896534 0 0 0 0,0.002 c 0.03598,0.18712 0.07893,0.38738 0.128906,0.60156 a 0.23896534,0.23896534 0 0 0 0.002,0.008 c 0.05683,0.21311 0.11758,0.42974 0.18164,0.65039 a 0.23896534,0.23896534 0 0 0 0,0.002 c 0.06473,0.21578 0.130343,0.41328 0.195313,0.59375 0.06561,0.18224 0.128692,0.33551 0.191406,0.46094 a 0.23896534,0.23896534 0 0 0 0.002,0.006 c 0.03347,0.0627 0.06587,0.11471 0.109375,0.16406 0.04351,0.0494 0.10436,0.11914 0.240235,0.11914 0.118989,0 0.227829,-0.0398 0.324218,-0.0976 0.133513,-0.0801 0.220703,-0.25194 0.220703,-0.4043 0,-0.0749 -0.0075,-0.14289 -0.04297,-0.22461 -0.01491,-0.0497 -0.03354,-0.0974 -0.0625,-0.13867 -0.01031,-0.0184 -0.02437,-0.0353 -0.03711,-0.0527 -0.0059,-0.0118 -0.01456,-0.0363 -0.02539,-0.0742 -0.13846,-0.47768 -0.241699,-0.9291 -0.310547,-1.35547 v -0.002 c -0.0043,-0.0299 -0.0056,-0.0469 -0.0098,-0.0762 0.05703,0.0768 0.107731,0.15381 0.167969,0.23047 a 0.23896534,0.23896534 0 0 0 0.0059,0.006 c 0.170547,0.20021 0.347008,0.37511 0.527344,0.52539 0.192631,0.16053 0.388072,0.26758 0.607422,0.26758 0.244359,0 0.476135,-0.0935 0.638672,-0.26563 0.144925,-0.15297 0.257139,-0.33779 0.34375,-0.54492 0.0475,0.29035 0.08055,0.61576 0.136718,0.88477 0.134822,0.64573 0.267837,1.20407 0.396485,1.67578 a 0.23896534,0.23896534 0 0 0 0,0.004 c 0.135667,0.47126 0.259891,0.83914 0.380859,1.11132 0.05843,0.13501 0.109191,0.23704 0.158203,0.31836 0.02463,0.0409 0.04781,0.0766 0.08203,0.11328 0.03422,0.0367 0.08042,0.0996 0.21289,0.0996 0.06824,0 0.06502,-0.004 0.111328,-0.0117 0.06509,-0.0109 0.125683,-0.0338 0.181641,-0.0605 l 0.0039,-0.002 c 0.06301,-0.0274 0.125155,-0.0673 0.181641,-0.11914 0.08731,-0.0728 0.140625,-0.19506 0.140625,-0.29882 0,-0.0672 -0.01353,-0.12954 -0.0332,-0.18946 -0.0092,-0.0444 -0.0182,-0.0885 -0.03516,-0.13086 -0.01253,-0.0313 -0.02661,-0.0681 -0.03906,-0.10546 a 0.23896534,0.23896534 0 0 0 -0.0059,-0.0176 c -0.09478,-0.22341 -0.19275,-0.48401 -0.289063,-0.7793 v -0.002 c -5.03e-4,-0.002 -0.0014,-0.002 -0.002,-0.004 -0.09097,-0.30798 -0.183237,-0.63157 -0.28125,-0.97461 v 0.006 c -0.09072,-0.34193 -0.17807,-0.69165 -0.261719,-1.04687 l -0.002,-0.006 c -0.07623,-0.36061 -0.144485,-0.70961 -0.207031,-1.04297 -0.05586,-0.34211 -0.09992,-0.66318 -0.134766,-0.96289 -0.03462,-0.3047 -0.05469,-0.56756 -0.05469,-0.78711 0,-0.25997 0.0053,-0.44667 0.01172,-0.56641 v -0.0117 c 0.01347,-0.12936 0.02148,-0.2264 0.02148,-0.30078 0,-0.0447 -0.0062,-0.085 -0.01172,-0.12695 0,-0.0745 -0.0084,-0.14787 -0.02734,-0.2168 -2.14e-4,-8.6e-4 -0.0017,-0.001 -0.002,-0.002 -0.02405,-0.0939 -0.08147,-0.18429 -0.15625,-0.25 -0.08314,-0.0776 -0.198505,-0.11914 -0.30664,-0.11914 z m -27.283204,0.14844 c -0.08977,-10e-6 -0.19478,0.0385 -0.263671,0.10742 -0.06889,0.0689 -0.102254,0.14971 -0.119141,0.22851 -0.02358,0.11003 -0.03516,0.20613 -0.03516,0.29492 a 0.23896534,0.23896534 0 0 0 0,0.0195 c 0.04946,0.60063 0.0941,1.10753 0.136718,1.51953 a 0.23896534,0.23896534 0 0 0 0.002,0.004 c 0.04948,0.40293 0.0914,0.73227 0.126953,0.98828 a 0.23896534,0.23896534 0 0 0 0,0.006 c 0.04244,0.25467 0.07633,0.44163 0.09766,0.5625 a 0.23896534,0.23896534 0 0 0 0.002,0.0137 c 0.02742,0.11653 0.03711,0.22299 0.03711,0.16796 0,0.0639 0.0042,0.0601 0.0098,0.0977 0.0055,0.0376 0.0127,0.0879 0.02344,0.15234 a 0.23896534,0.23896534 0 0 0 0.0039,0.0117 l 0.105469,0.47657 a 0.23896534,0.23896534 0 0 0 0,0.004 c 0.04293,0.18602 0.09355,0.38914 0.15039,0.60938 a 0.23896534,0.23896534 0 0 0 0,0.002 c 0.05776,0.21662 0.117981,0.41786 0.183594,0.60742 0.06652,0.19216 0.135817,0.35376 0.207031,0.48828 a 0.23896534,0.23896534 0 0 0 0.0059,0.01 c 0.04328,0.0736 0.08688,0.13647 0.148437,0.19141 0.06156,0.0549 0.151132,0.10546 0.257813,0.10546 0.09254,0 0.19575,-0.0244 0.279297,-0.0801 0.101988,-0.068 0.169921,-0.20731 0.169921,-0.32618 a 0.23896534,0.23896534 0 0 0 -0.0059,-0.0566 l -0.423828,-1.75586 v -0.002 c -0.05598,-0.23797 -0.104718,-0.45548 -0.146484,-0.65039 v 0.008 c -0.03424,-0.19173 -0.06211,-0.37167 -0.08984,-0.54492 l -0.002,-0.01 c -0.02089,-0.17998 -0.04472,-0.3612 -0.07227,-0.54102 l -0.002,-0.01 c -0.02107,-0.18221 -0.04639,-0.38284 -0.07422,-0.60547 a 0.23896534,0.23896534 0 0 0 0,-0.002 c -0.02031,-0.15569 -0.03692,-0.33701 -0.05078,-0.54492 -0.01442,-0.22353 -0.04008,-0.43828 -0.07617,-0.64258 l -0.002,-0.006 c -0.02996,-0.20692 -0.07324,-0.38791 -0.138672,-0.54492 -0.03358,-0.0899 -0.08108,-0.17432 -0.15625,-0.24219 -0.07631,-0.0689 -0.185561,-0.11132 -0.289063,-0.11132 z m 36.525391,0.16992 c -0.129759,-0.0319 -0.558282,0.2857 -0.320312,0.16015 -0.08999,0.10798 -0.107422,0.23148 -0.107422,0.35352 0,0.0396 0.002,0.038 0.0039,0.0547 0.0019,0.0166 0.0043,0.0367 0.0078,0.0625 0.007,0.0516 0.01698,0.12403 0.03125,0.21679 a 0.23896534,0.23896534 0 0 0 0.002,0.008 c 0.03504,0.18223 0.07072,0.37831 0.105468,0.59375 a 0.23896534,0.23896534 0 0 0 0,0.002 c 0.03377,0.2026 0.08011,0.4446 0.126953,0.69141 l -0.01367,0.006 a 0.23896534,0.23896534 0 0 0 -0.0059,0.004 c -0.1125,0.0563 -0.254962,0.12708 -0.429687,0.21094 a 0.23896534,0.23896534 0 0 0 -0.0039,0.002 c -0.171151,0.0856 -0.356948,0.18013 -0.556641,0.28711 -0.205997,0.10662 -0.39605,0.21003 -0.568359,0.31055 -0.118082,0.0663 -0.204936,0.12793 -0.296876,0.18945 -0.03547,-0.0224 -0.05191,-0.0508 -0.125,-0.0508 -0.0879,0 -0.175431,0.0375 -0.234374,0.0879 -0.05894,0.0504 -0.09619,0.1084 -0.126954,0.16992 a 0.23896534,0.23896534 0 0 0 -0.0078,0.0156 c -0.04814,0.11553 -0.07031,0.24026 -0.07031,0.36718 0,8.9e-4 0.0025,0.0367 0.0039,0.0449 0.0014,0.008 0.0027,0.014 0.0039,0.0195 0.0025,0.011 0.0047,0.0198 0.0078,0.0312 8.34e-4,0.003 0.003,0.008 0.0039,0.0117 -0.07593,0.02 -0.150132,0.0446 -0.19336,0.0859 -0.05806,0.0555 -0.103788,0.12039 -0.152343,0.19727 l 0.002,-0.006 c -0.07476,0.11214 -0.183417,0.2499 -0.326172,0.40625 a 0.23896534,0.23896534 0 0 0 -0.002,0 c -0.122414,0.13465 -0.28247,0.26464 -0.484375,0.38867 -0.167897,0.10074 -0.382761,0.15821 -0.660157,0.15821 -0.218795,0 -0.374524,-0.04 -0.472656,-0.0957 h -0.002 c -0.116632,-0.0733 -0.201281,-0.15661 -0.263672,-0.2539 -0.06743,-0.11239 -0.112619,-0.24 -0.136719,-0.39063 -0.02624,-0.16401 -0.04102,-0.33326 -0.04102,-0.50391 0,-0.023 0.0024,-0.0415 0.0059,-0.0586 a 0.23896534,0.23896534 0 0 0 0.002,-0.008 c 0.0088,-0.0526 0.01367,-0.11135 0.01367,-0.17578 0,-0.0904 -0.0097,-0.17577 -0.05859,-0.26953 -0.03583,-0.0775 -0.106203,-0.14704 -0.183593,-0.1836 -0.02452,-0.0146 -0.05042,-0.0217 -0.07617,-0.0312 v -0.18359 c 10e-7,-0.0885 -0.02153,-0.17947 -0.05664,-0.26563 -0.02334,-0.0716 -0.06652,-0.14752 -0.136719,-0.19726 -0.07305,-0.0518 -0.159743,-0.0703 -0.234375,-0.0703 -0.280408,0 -0.541049,0.14616 -0.728515,0.38476 a 0.23896534,0.23896534 0 0 0 -0.0039,0.006 c -0.162858,0.21714 -0.294853,0.46299 -0.400391,0.73438 -0.102986,0.26482 -0.181933,0.52262 -0.234375,0.77734 -0.0506,0.23854 -0.07813,0.39401 -0.07813,0.52539 0,0.0487 0.002,0.0521 0.0059,0.084 0.0038,0.0319 0.01046,0.0736 0.01758,0.12696 0.01599,0.11993 0.04375,0.24678 0.08203,0.37695 a 0.23896534,0.23896534 0 0 0 0,0.002 c 0.03998,0.12794 0.0928,0.25078 0.158203,0.36524 a 0.23896534,0.23896534 0 0 0 0.0098,0.0176 c 0.09337,0.13486 0.256427,0.24023 0.429688,0.24023 0.15235,0 0.299647,-0.0616 0.417969,-0.16016 a 0.23896534,0.23896534 0 0 0 0.0098,-0.008 c 0.09859,-0.0904 0.186717,-0.19226 0.265625,-0.30273 a 0.23896534,0.23896534 0 0 0 0.0039,-0.006 c 0.04832,-0.0725 0.08976,-0.14226 0.132812,-0.21289 0.02785,0.0388 0.03832,0.0868 0.07031,0.12304 a 0.23896534,0.23896534 0 0 0 0.0059,0.006 c 0.120319,0.12835 0.256456,0.23744 0.40625,0.33203 a 0.23896534,0.23896534 0 0 0 0.0078,0.006 c 0.14997,0.0868 0.305792,0.15346 0.464844,0.20118 0.159112,0.0477 0.315958,0.0742 0.470703,0.0742 0.315941,0 0.623317,-0.0676 0.914063,-0.20117 a 0.23896534,0.23896534 0 0 0 0.0059,-0.002 c 0.278954,-0.13571 0.52505,-0.30006 0.740235,-0.49219 0.211653,-0.18898 0.382791,-0.38575 0.509765,-0.5918 v -0.002 c 0.02746,-0.0437 0.02374,-0.0828 0.04687,-0.125 0.0033,0.0108 0.0087,0.027 0.01172,0.0371 a 0.23896534,0.23896534 0 0 0 0.002,0.008 c 0.01025,0.0308 0.03128,0.10559 0.05859,0.21485 a 0.23896534,0.23896534 0 0 0 0.002,0.004 c 0.02985,0.11195 0.0669,0.23153 0.111328,0.35743 0.04732,0.13407 0.103707,0.25373 0.169922,0.36132 0.07989,0.12984 0.217976,0.25196 0.394531,0.25196 0.112345,0 0.178926,-0.0347 0.261719,-0.0762 0.05696,-0.0262 0.110742,-0.0586 0.160156,-0.11329 0.0505,-0.0559 0.08984,-0.14314 0.08984,-0.22851 0,-0.0587 -0.0058,-0.0743 -0.01367,-0.11328 -0.0078,-0.039 -0.01845,-0.0875 -0.0332,-0.14649 l 0.002,0.0176 c -0.02279,-0.12915 -0.05612,-0.27395 -0.09961,-0.43359 v -0.002 c -0.04336,-0.16607 -0.09328,-0.33704 -0.150391,-0.51562 v -0.002 c -0.03696,-0.11996 -0.08368,-0.22279 -0.126953,-0.33008 0.06869,-0.043 0.130321,-0.0821 0.214844,-0.13281 a 0.23896534,0.23896534 0 0 0 0.0078,-0.004 c 0.138479,-0.09 0.288358,-0.18333 0.449219,-0.28125 a 0.23896534,0.23896534 0 0 0 0.0059,-0.006 c 0.159189,-0.10382 0.312022,-0.19755 0.455078,-0.2793 a 0.23896534,0.23896534 0 0 0 0.0059,-0.004 c 0.141074,-0.0873 0.263104,-0.15675 0.367187,-0.20899 0.05168,0.19095 0.101399,0.3763 0.142578,0.54102 0.04248,0.16992 0.08631,0.33671 0.128907,0.5 0.04099,0.15713 0.06588,0.27124 0.07813,0.33789 0.04131,0.24785 0.0625,0.43519 0.0625,0.54297 0,0.023 -0.0037,0.0364 -0.0039,0.0371 a 0.23896534,0.23896534 0 0 0 -0.0059,0.0586 v 0.0625 c 0,0.062 0.01145,0.11247 0.03125,0.17187 0.02104,0.0631 0.05007,0.12231 0.08398,0.18165 a 0.23896534,0.23896534 0 0 0 0.0078,0.0137 c 0.03852,0.0578 0.08108,0.10842 0.125,0.15234 0.06748,0.0675 0.177161,0.1211 0.285156,0.1211 0.09533,0 0.199869,-0.0428 0.267578,-0.10938 0.06771,-0.0665 0.105586,-0.14569 0.13086,-0.22656 0.0417,-0.13342 0.0625,-0.26634 0.0625,-0.39844 0,-0.0433 -6.75e-4,-0.0355 -0.002,-0.0449 -0.0013,-0.009 -0.0039,-0.0188 -0.0059,-0.0312 -0.0038,-0.0244 -0.0087,-0.058 -0.01563,-0.0996 v -0.002 c -0.0138,-0.0896 -0.03269,-0.1891 -0.05273,-0.29688 l -0.002,-0.0156 c -0.01435,-0.11241 -0.03164,-0.22541 -0.05273,-0.33789 -0.02122,-0.11319 -0.03823,-0.20481 -0.05273,-0.27735 a 0.23896534,0.23896534 0 0 0 -0.002,-0.008 c -0.02887,-0.12269 -0.06434,-0.26392 -0.107422,-0.42188 -0.04288,-0.15723 -0.08603,-0.30629 -0.128906,-0.44922 -0.03427,-0.14335 -0.06596,-0.27078 -0.09375,-0.375 -0.0018,-0.007 -0.0022,-0.009 -0.0039,-0.0156 0.0088,-0.004 0.0097,-0.005 0.01953,-0.01 a 0.23896534,0.23896534 0 0 0 0.0098,-0.006 l 0.44336,-0.22266 c 0.174289,-0.0872 0.34807,-0.18009 0.521484,-0.28125 a 0.23896534,0.23896534 0 0 0 0.0059,-0.004 c 0.183379,-0.11462 0.331605,-0.23403 0.445313,-0.36523 a 0.23896534,0.23896534 0 0 0 0.01953,-0.28906 c -0.0089,-0.0134 -0.01989,-0.03 -0.0293,-0.0488 l 0.01953,0.0488 c -0.01746,-0.0699 -0.0785,-0.14683 -0.142578,-0.18165 -0.06408,-0.0348 -0.118813,-0.0391 -0.164062,-0.0391 -0.06589,0 -0.07796,0.009 -0.09961,0.0156 -0.02165,0.007 -0.04117,0.0161 -0.06445,0.0254 -0.04656,0.0185 -0.10362,0.0417 -0.175781,0.0742 -0.13582,0.0573 -0.288076,0.12569 -0.457031,0.20312 -0.167566,0.0768 -0.331607,0.1495 -0.488281,0.2207 -0.03314,0.0134 -0.03612,0.0126 -0.06445,0.0234 -0.04185,-0.14077 -0.08306,-0.2687 -0.128906,-0.46094 l -0.002,-0.004 c -0.06323,-0.29511 -0.133872,-0.62949 -0.210937,-1.00781 -0.01615,-0.0807 -0.04562,-0.16441 -0.113282,-0.23633 -0.06766,-0.0719 -0.176981,-0.11328 -0.269531,-0.11328 z m -30.544922,0.98437 c -0.1749,0 -0.351977,0.0873 -0.460937,0.22656 -0.0985,0.11972 -0.158203,0.27023 -0.158203,0.42383 0,0.10729 0.03259,0.22271 0.107421,0.3125 a 0.23896534,0.23896534 0 0 0 0.01367,0.0176 c 0.05138,0.0514 0.111878,0.094 0.177735,0.12695 a 0.23896534,0.23896534 0 0 0 0.01367,0.006 c 0.06285,0.0269 0.125993,0.0493 0.193359,0.0605 a 0.23896534,0.23896534 0 0 0 0.03906,0.002 h 0.117188 c 0.115371,0 0.191699,-0.0382 0.275391,-0.0801 0.07715,-0.0386 0.152786,-0.0797 0.226562,-0.12891 a 0.23896534,0.23896534 0 0 0 0.0039,-0.004 c 0.07692,-0.0538 0.143824,-0.10486 0.199219,-0.15234 0.02911,-0.025 0.05285,-0.0477 0.07813,-0.0762 0.02528,-0.0285 0.07813,-0.0422 0.07813,-0.18946 0,-0.16351 -0.118893,-0.2707 -0.21875,-0.32617 -0.07146,-0.0434 -0.147949,-0.0787 -0.232422,-0.10937 -0.0808,-0.0294 -0.164043,-0.0516 -0.248047,-0.0684 l -0.01367,-0.002 c -0.06696,-0.021 -0.100709,-0.0391 -0.191407,-0.0391 z m 28.25586,0 c -0.1749,0 -0.351977,0.0873 -0.460938,0.22656 C 50.059705,258.54745 50,258.69796 50,258.85156 c 0,0.10729 0.03259,0.22271 0.107422,0.3125 a 0.23896534,0.23896534 0 0 0 0.01367,0.0176 c 0.0545,0.0545 0.116463,0.0953 0.179687,0.12695 a 0.23896534,0.23896534 0 0 0 0.01367,0.006 c 0.06075,0.026 0.122866,0.0491 0.191406,0.0605 a 0.23896534,0.23896534 0 0 0 0.03906,0.002 h 0.117187 c 0.11537,0 0.192075,-0.0374 0.277344,-0.0801 0.07715,-0.0386 0.152787,-0.0797 0.226563,-0.12891 a 0.23896534,0.23896534 0 0 0 0.0039,-0.004 c 0.07692,-0.0538 0.143824,-0.10486 0.199219,-0.15234 0.02911,-0.025 0.05285,-0.0477 0.07813,-0.0762 0.02528,-0.0285 0.07813,-0.0422 0.07813,-0.18946 0,-0.16287 -0.117185,-0.27052 -0.216797,-0.32617 h -0.002 c -0.07339,-0.0445 -0.151026,-0.0791 -0.234375,-0.10937 -0.07964,-0.029 -0.161857,-0.0514 -0.246094,-0.0684 l -0.01367,-0.002 c -0.06808,-0.0212 -0.102601,-0.0391 -0.193359,-0.0391 z m -37.892579,0.10547 c -0.232259,0 -0.413363,0.14447 -0.576171,0.33984 a 0.23896534,0.23896534 0 0 0 -0.0039,0.004 c -0.147079,0.18578 -0.289716,0.41628 -0.435546,0.69336 -0.145116,0.26859 -0.285569,0.56193 -0.421876,0.88477 -0.135929,0.32193 -0.254589,0.63034 -0.355468,0.92578 -0.09979,0.29225 -0.18292,0.55554 -0.248047,0.78711 -0.06535,0.23236 -0.103514,0.37582 -0.103516,0.51953 0,0.43394 0.107511,0.80202 0.355469,1.05664 0.247958,0.25461 0.611641,0.36719 1.037109,0.36719 0.275894,0 0.542659,-0.0376 0.798829,-0.11524 0.249685,-0.0757 0.48756,-0.17916 0.71289,-0.30664 l 0.002,-0.002 c 0.226613,-0.12441 0.443544,-0.26089 0.650391,-0.41602 a 0.23896534,0.23896534 0 0 0 0.002,-0.002 c 0.209737,-0.15912 0.412434,-0.32667 0.607422,-0.5 a 0.23896534,0.23896534 0 0 0 0.002,0 c 0.08013,-0.0728 0.169088,-0.15542 0.263672,-0.25 a 0.23896534,0.23896534 0 0 0 0.0059,-0.008 c 0.09878,-0.10638 0.189055,-0.21767 0.271485,-0.33008 0.08321,-0.11347 0.151448,-0.22669 0.207031,-0.34375 6.19e-4,-0.001 -6.15e-4,-0.003 0,-0.004 0.07012,-0.13261 0.111328,-0.27407 0.111328,-0.41601 0,-0.11444 -0.03813,-0.20825 -0.0918,-0.30664 -0.06441,-0.11808 -0.194809,-0.23829 -0.357422,-0.23829 -0.05881,0 -0.121352,0.0103 -0.183594,0.0352 a 0.23896534,0.23896534 0 0 0 -0.01953,0.01 c -0.102663,0.0513 -0.144346,0.12076 -0.183593,0.18945 a 0.23896534,0.23896534 0 0 0 -0.0098,0.0176 c -0.115449,0.24372 -0.276976,0.48436 -0.488281,0.72265 -0.214801,0.23495 -0.4491,0.44256 -0.703125,0.62305 -0.253672,0.18024 -0.520362,0.3287 -0.798828,0.44141 -0.264476,0.10268 -0.508202,0.15039 -0.734376,0.15039 -0.05289,0 -0.117835,-0.004 -0.189453,-0.01 -0.05157,-0.0102 -0.104229,-0.0258 -0.160156,-0.0508 -0.03504,-0.0179 -0.06928,-0.0449 -0.103515,-0.0859 -0.01218,-0.0189 -0.0293,-0.061 -0.0293,-0.14453 0,-0.17983 0.03723,-0.40534 0.117187,-0.67187 a 0.23896534,0.23896534 0 0 0 0,-0.002 c 0.08268,-0.2825 0.174891,-0.55002 0.277344,-0.80273 a 0.23896534,0.23896534 0 0 0 0.002,-0.002 c 0.103981,-0.26343 0.199884,-0.48944 0.289063,-0.68164 l 0.002,-0.002 c 0.09314,-0.19283 0.152623,-0.31152 0.173828,-0.34961 0.001,-0.002 0.0029,-0.002 0.0039,-0.004 0.0389,-0.0582 0.07666,-0.11459 0.115234,-0.16602 a 0.23896534,0.23896534 0 0 0 0.0039,-0.004 l 0.105468,-0.14844 c 0.034,-0.0476 0.05592,-0.0802 0.07422,-0.10742 l 0.0039,-0.004 c 0.09872,-0.14111 0.192638,-0.27974 0.283203,-0.41211 a 0.23896534,0.23896534 0 0 0 0.0039,-0.004 c 0.04805,-0.0739 0.08547,-0.1362 0.115234,-0.1914 0.02977,-0.0552 0.0545,-0.0926 0.06836,-0.17578 a 0.23896534,0.23896534 0 0 0 0.002,-0.0391 c 0,-0.10834 -0.04634,-0.21759 -0.113282,-0.30078 -0.08506,-0.11256 -0.231623,-0.16992 -0.357422,-0.16992 z m 20.486329,1.04883 c -0.192687,0 -0.376326,0.0805 -0.539063,0.20898 -0.160651,0.12684 -0.301225,0.29369 -0.425781,0.4961 a 0.23896534,0.23896534 0 0 0 -0.0039,0.006 c -0.117131,0.20302 -0.210273,0.43094 -0.285157,0.68554 -0.07764,0.26398 -0.115234,0.54642 -0.115234,0.8418 0,0.31 0.03996,0.59113 0.128906,0.8418 a 0.23896534,0.23896534 0 0 0 0,0.002 c 0.08529,0.2326 0.197293,0.43615 0.335938,0.60742 a 0.23896534,0.23896534 0 0 0 0.0039,0.004 c 0.138596,0.16305 0.301044,0.29408 0.486328,0.38672 a 0.23896534,0.23896534 0 0 0 0.0078,0.004 c 0.18417,0.0837 0.379626,0.12696 0.576171,0.12696 0.249815,0 0.472368,-0.0264 0.669922,-0.084 0.186465,-0.0523 0.34815,-0.11136 0.488282,-0.18554 0.132104,-0.0699 0.244485,-0.14231 0.335937,-0.22461 0.07473,-0.0673 0.12243,-0.11117 0.167969,-0.17188 0.07514,-0.10018 0.142578,-0.17047 0.142578,-0.33398 0,-0.039 -0.005,-0.0902 -0.03125,-0.15235 -0.03022,-0.0762 -0.07458,-0.11761 -0.117188,-0.15039 -0.04932,-0.0455 -0.125446,-0.0937 -0.216796,-0.0937 -0.104014,0 -0.118987,0.0235 -0.15625,0.041 -0.03726,0.0175 -0.07725,0.0377 -0.123047,0.0645 -0.07276,0.0396 -0.164066,0.0879 -0.273438,0.14258 -0.09808,0.0456 -0.203203,0.091 -0.320312,0.13672 -7.09e-4,2.5e-4 -0.0012,-2.5e-4 -0.002,0 -0.0015,5.7e-4 -0.0024,0.001 -0.0039,0.002 -0.09485,0.0327 -0.180179,0.0469 -0.253906,0.0469 -0.118559,0 -0.231871,-0.0228 -0.345703,-0.0684 -0.113326,-0.0453 -0.207341,-0.10486 -0.289062,-0.17969 -0.08279,-0.0828 -0.156441,-0.1868 -0.216797,-0.3125 -0.04837,-0.11489 -0.07422,-0.24332 -0.07422,-0.39649 0,-0.0684 0.01953,-0.12021 0.02539,-0.18359 0.06069,0.0372 0.118366,0.082 0.191407,0.082 0.134136,0 0.259933,-0.0383 0.410156,-0.10156 a 0.23896534,0.23896534 0 0 0 0.0098,-0.004 c 0.145999,-0.0692 0.291705,-0.15352 0.435547,-0.25195 a 0.23896534,0.23896534 0 0 0 0.0078,-0.006 c 0.147425,-0.10862 0.272263,-0.22738 0.376953,-0.35547 0.121377,-0.13983 0.205078,-0.30333 0.205078,-0.48242 0,-0.13747 -0.04464,-0.27388 -0.121093,-0.39063 -0.07434,-0.12001 -0.174934,-0.22351 -0.292969,-0.30859 -0.109016,-0.0833 -0.233643,-0.14977 -0.371094,-0.19922 -0.139852,-0.06 -0.285185,-0.0898 -0.427734,-0.0898 z m -7.820313,0.2207 c -0.115394,-0.0208 -0.368673,0.15504 -0.28125,0.10352 -0.07865,0.0524 -0.155305,0.11597 -0.238281,0.1914 -0.08032,0.0661 -0.166234,0.14084 -0.253906,0.22852 -0.08725,0.0873 -0.156823,0.17762 -0.214844,0.26758 -2.79e-4,4e-4 2.78e-4,0.002 0,0.002 -0.126994,0.18281 -0.248033,0.41549 -0.365235,0.70117 -0.126148,0.30748 -0.185546,0.64519 -0.185546,1.00977 0,0.22816 0.03164,0.43381 0.113281,0.61523 a 0.23896534,0.23896534 0 0 0 0.0059,0.01 c 0.08207,0.16414 0.188131,0.30802 0.316406,0.42773 a 0.23896534,0.23896534 0 0 0 0.0059,0.006 c 0.125358,0.10866 0.263457,0.19293 0.414062,0.2461 a 0.23896534,0.23896534 0 0 0 0.0039,0.002 c 0.149715,0.0499 0.300534,0.0742 0.447265,0.0742 0.239783,0 0.482293,-0.0644 0.720703,-0.1836 a 0.23896534,0.23896534 0 0 0 0.002,0 c 0.229643,-0.11852 0.435311,-0.25092 0.617188,-0.39453 l 0.0039,-0.002 c 0.18254,-0.13898 0.334928,-0.27249 0.458985,-0.4043 0.06071,-0.0643 0.10896,-0.1149 0.144531,-0.15429 0.03557,-0.0394 0.04974,-0.0512 0.08203,-0.0996 a 0.23896534,0.23896534 0 0 0 0.01953,-0.0391 c 0.02491,-0.0581 0.05055,-0.1262 0.07422,-0.20507 a 0.23896534,0.23896534 0 0 0 0.002,-0.006 c 0.02631,-0.0965 0.03906,-0.19183 0.03906,-0.28516 -1e-6,-0.0849 -0.0061,-0.17232 -0.06445,-0.26367 -0.05832,-0.0914 -0.18894,-0.1543 -0.289063,-0.1543 -0.133583,0 -0.187992,0.0589 -0.240234,0.10547 -0.05224,0.0466 -0.09908,0.10087 -0.150391,0.16797 -0.08216,0.10744 -0.198498,0.23366 -0.341797,0.37695 -0.131062,0.13107 -0.290849,0.25446 -0.486328,0.36524 a 0.23896534,0.23896534 0 0 0 -0.0039,0 c -0.165249,0.0969 -0.355279,0.14843 -0.587891,0.14843 -0.08878,0 -0.177341,-0.032 -0.28125,-0.10742 -0.08294,-0.071 -0.115234,-0.1326 -0.115234,-0.25586 0,-0.14975 0.03273,-0.33858 0.103516,-0.55859 0.07589,-0.22135 0.192113,-0.43969 0.349609,-0.65625 a 0.23896534,0.23896534 0 0 0 0.002,-0.002 c 0.07797,-0.11047 0.147732,-0.19219 0.207031,-0.2461 a 0.23896534,0.23896534 0 0 0 0.0098,-0.008 c 0.07227,-0.0723 0.130992,-0.12608 0.173828,-0.1582 a 0.23896534,0.23896534 0 0 0 0.01563,-0.0117 c 0.06354,-0.0556 0.112723,-0.10727 0.152344,-0.15625 0.06699,-0.0804 0.107422,-0.19312 0.107422,-0.29883 0,-0.15521 -0.09899,-0.24779 -0.1875,-0.30469 -0.08922,-0.0625 -0.198819,-0.0937 -0.304688,-0.0937 z m -5,0.25391 c -0.160075,0 -0.298785,0.004 -0.429687,0.125 -0.07919,0.0681 -0.146485,0.17886 -0.146485,0.29492 0,0.0733 0.02571,0.16258 0.08789,0.24609 -0.0014,-0.009 -0.02539,-0.0409 -0.02539,-0.0351 0,-0.0165 -7.23e-4,0.002 -0.0059,0.0273 a 0.23896534,0.23896534 0 0 0 -0.0039,0.0469 c 0,0.023 -0.0029,0.0467 -0.0078,0.0762 l -0.02148,0.12695 a 0.23896534,0.23896534 0 0 0 -0.002,0.0391 v 0.0645 c 0,-0.003 -0.01037,0.10104 -0.03125,0.24023 -0.01962,0.12388 -0.04861,0.25774 -0.08789,0.40235 -0.03454,0.1209 -0.08087,0.22641 -0.134766,0.32226 -0.05505,-0.11867 -0.109136,-0.25318 -0.160156,-0.40625 -0.05374,-0.16123 -0.100295,-0.319 -0.140625,-0.47266 -0.0339,-0.15594 -0.04883,-0.26739 -0.04883,-0.28711 0,-0.11136 -0.02694,-0.22234 -0.08008,-0.32031 -0.07537,-0.14773 -0.254769,-0.23633 -0.412109,-0.23633 -0.133342,0 -0.180995,0.0442 -0.246094,0.0859 -4.41e-4,2.5e-4 4.4e-4,0.002 0,0.002 -0.09837,0.057 -0.19336,0.19142 -0.19336,0.32031 0,0.1226 0.02313,0.28213 0.06641,0.52734 a 0.23896534,0.23896534 0 0 0 0,0.008 c 0.05149,0.24272 0.121801,0.49627 0.208984,0.75782 a 0.23896534,0.23896534 0 0 0 0.002,0.006 c 0.09783,0.2709 0.220916,0.5149 0.367188,0.73046 0.162473,0.23943 0.404138,0.4004 0.673828,0.4004 0.137135,0 0.264278,-0.062 0.359375,-0.14649 0.07899,-0.0644 0.152915,-0.13725 0.216797,-0.2168 l 0.002,-0.002 c 0.04119,-0.0504 0.07173,-0.0944 0.105469,-0.14062 0.02678,0.0213 0.05142,0.0422 0.08008,0.0645 a 0.23896534,0.23896534 0 0 0 0.0098,0.006 c 0.07872,0.0551 0.157765,0.10329 0.240235,0.14453 a 0.23896534,0.23896534 0 0 0 0.0078,0.004 c 0.09974,0.0453 0.203272,0.0742 0.310547,0.0742 0.112092,0 0.209701,-0.0297 0.333984,-0.0762 0.129354,-0.0457 0.255256,-0.0993 0.376953,-0.16015 a 0.23896534,0.23896534 0 0 0 0.0098,-0.004 c 0.123402,-0.0694 0.234015,-0.14488 0.332031,-0.22656 0.111865,-0.0932 0.212891,-0.21519 0.212891,-0.38477 0,-0.14385 -0.112774,-0.26349 -0.210938,-0.31445 -0.08542,-0.0471 -0.18346,-0.0723 -0.28125,-0.0723 -0.09696,0 -0.186092,0.0286 -0.265624,0.0684 -0.05863,0.0228 -0.122007,0.0493 -0.191407,0.084 l 0.0098,-0.006 c -0.05805,0.0258 -0.120265,0.0514 -0.1875,0.0762 -0.03399,0.01 -0.07751,0.0152 -0.123047,0.0176 -0.02501,-0.0353 -0.04904,-0.0724 -0.07227,-0.11328 -0.02431,-0.0615 -0.04647,-0.12184 -0.06445,-0.17578 -0.0197,-0.0591 -0.02148,-0.12018 -0.02148,-0.0508 0,0.014 0.0046,-0.0627 0.01172,-0.16211 0.0072,-0.10099 0.0095,-0.20418 0.0098,-0.30859 0.007,-0.11166 0.01451,-0.216 0.02148,-0.30664 0.0036,-0.0467 0.0062,-0.0818 0.0078,-0.10742 0.0016,-0.0256 0.002,-0.0225 0.002,-0.0566 0,-0.0447 -0.0047,-0.0762 -0.01367,-0.1211 l 0.0039,0.0469 c 0,-0.0701 -0.01189,-0.13919 -0.0332,-0.20313 -0.02362,-0.0709 -0.07413,-0.13341 -0.130859,-0.1875 -0.07809,-0.0855 -0.197046,-0.13476 -0.296875,-0.13476 z M 22.5,260.31836 c -0.0879,0 -0.175431,0.0375 -0.234375,0.0879 -0.05894,0.0504 -0.09619,0.1084 -0.126953,0.16992 a 0.23896534,0.23896534 0 0 0 -0.0078,0.0156 c -0.04813,0.11552 -0.07031,0.24026 -0.07031,0.36718 0,8.9e-4 0.0021,0.042 0.0039,0.0508 0.0018,0.009 0.0045,0.0141 0.0059,0.0195 0.0028,0.0108 0.0047,0.0206 0.0078,0.0312 0.0063,0.0213 0.01503,0.0475 0.02539,0.082 0.02133,0.0711 0.04583,0.15382 0.07422,0.24609 a 0.23896534,0.23896534 0 0 0 0.0059,0.0156 c 0.03447,0.0896 0.06877,0.182 0.103515,0.27929 0.03399,0.0952 0.0602,0.17593 0.08008,0.24219 a 0.23896534,0.23896534 0 0 0 0.002,0.008 c 0.01025,0.0308 0.03128,0.10559 0.05859,0.21485 a 0.23896534,0.23896534 0 0 0 0.002,0.004 c 0.02985,0.11195 0.0669,0.23153 0.111328,0.35743 0.04732,0.13407 0.103709,0.25373 0.169922,0.36132 0.0786,0.12774 0.216023,0.25196 0.392578,0.25196 0.112346,0 0.178925,-0.0347 0.261718,-0.0762 0.05628,-0.0259 0.110445,-0.0577 0.160157,-0.11133 0.05081,-0.0549 0.0918,-0.14196 0.0918,-0.23047 -10e-7,-0.0661 -0.0074,-0.0789 -0.01563,-0.11719 -0.0082,-0.0383 -0.01877,-0.0848 -0.0332,-0.14258 l 0.002,0.0176 c -0.02236,-0.12669 -0.0537,-0.27217 -0.09766,-0.43359 v -0.002 c -0.04337,-0.16607 -0.09328,-0.33704 -0.15039,-0.51562 v -0.002 c -0.05796,-0.18809 -0.126013,-0.35835 -0.199219,-0.51368 l -0.002,-0.004 c -0.06805,-0.16565 -0.140238,-0.30766 -0.22461,-0.42578 -0.0902,-0.12628 -0.208408,-0.24805 -0.396484,-0.24805 z m 10.830078,0.0215 c 0.03691,0 0.04895,0.005 0.07031,0.008 -0.0041,0.003 2.16e-4,0.008 -0.0059,0.0117 a 0.23896534,0.23896534 0 0 0 -0.0059,0.006 c -0.05948,0.0446 -0.131977,0.0848 -0.208984,0.12305 0.01984,-0.0214 0.04205,-0.0625 0.06055,-0.0781 a 0.23896534,0.23896534 0 0 0 0.0078,-0.006 c 0.06879,-0.0635 0.106956,-0.0645 0.08203,-0.0645 z"
       transform="matrix(0.8198384,0,0,0.8198384,6.2987945,46.939609)" />
  </g>
</svg>
