<?xml version="1.0" encoding="UTF-8" standalone="no"?>
<!-- Created with Inkscape (http://www.inkscape.org/) -->

<svg
   xmlns:dc="http://purl.org/dc/elements/1.1/"
   xmlns:cc="http://creativecommons.org/ns#"
   xmlns:rdf="http://www.w3.org/1999/02/22-rdf-syntax-ns#"
   xmlns:svg="http://www.w3.org/2000/svg"
   xmlns="http://www.w3.org/2000/svg"
   xmlns:sodipodi="http://sodipodi.sourceforge.net/DTD/sodipodi-0.dtd"
   xmlns:inkscape="http://www.inkscape.org/namespaces/inkscape"
   width="41.349747mm"
   height="59.092972mm"
   viewBox="0 0 41.349751 59.092978"
   version="1.1"
   id="svg2239"
   inkscape:version="0.92.2 (unknown)"
   sodipodi:docname="hoodie_front.svg">
  <defs
     id="defs2233" />
  <sodipodi:namedview
     id="base"
     pagecolor="#000000"
     bordercolor="#666666"
     borderopacity="1.0"
     inkscape:pageopacity="0"
     inkscape:pageshadow="2"
     inkscape:zoom="1.4142136"
     inkscape:cx="30.970764"
     inkscape:cy="80.014436"
     inkscape:document-units="mm"
     inkscape:current-layer="layer1"
     showgrid="true"
     units="mm"
     guidetolerance="10000"
     inkscape:window-width="1859"
     inkscape:window-height="1176"
     inkscape:window-x="1981"
     inkscape:window-y="24"
     inkscape:window-maximized="1"
     inkscape:snap-others="false"
     inkscape:object-nodes="false"
     inkscape:snap-nodes="false"
     inkscape:snap-grids="true"
     inkscape:snap-to-guides="false"
     inkscape:pagecheckerboard="true">
    <inkscape:grid
       type="xygrid"
       id="grid2784"
       units="mm"
       spacingx="1.0000001"
       spacingy="1.0000001"
       originx="-14.507602"
       originy="-35.95554" />
  </sodipodi:namedview>
  <metadata
     id="metadata2236">
    <rdf:RDF>
      <cc:Work
         rdf:about="">
        <dc:format>image/svg+xml</dc:format>
        <dc:type
           rdf:resource="http://purl.org/dc/dcmitype/StillImage" />
        <dc:title />
      </cc:Work>
    </rdf:RDF>
  </metadata>
  <g
     inkscape:label="Layer 1"
     inkscape:groupmode="layer"
     id="layer1"
     transform="translate(-14.507598,-201.95147)">
    <path
       style="display:inline;fill:#3d7915;fill-opacity:1;stroke-width:0.04299968"
       d="m 31.308432,249.6288 c -9.456289,-5.93775 -15.5517,-16.2707 -16.523563,-27.36962 -0.233693,-2.87149 -0.341145,-5.78265 -0.238104,-8.66438 0.117937,-2.57482 -0.01604,-4.71864 0.159914,-7.31854 0.05709,-0.23984 0.09714,-0.46428 0.319781,-0.52395 0.103878,-0.0278 0.189862,-0.0817 2.391959,-0.0922 2.517553,0.0358 4.876717,-0.2906 7.129313,-0.51488 3.506592,-0.36366 6.738561,-1.73855 9.871143,-2.99356 0.157709,-0.0632 0.316934,-0.0945 0.485158,-0.14535 0.199937,-0.0606 0.426899,-0.0827 0.578513,-0.005 0.167909,0.0539 0.327146,0.12305 0.487026,0.18369 3.156001,1.28476 5.834661,2.24494 8.861686,2.76609 3.695986,0.66637 6.776478,0.71476 10.33229,0.75343 0.564236,0.005 0.502318,0.76481 0.540381,1.13945 0.07258,0.71569 0.303155,9.64114 0.0043,14.44781 -0.742151,11.94114 -5.886347,20.87383 -15.300385,27.45733 -1.716563,1.20045 -3.571385,2.38972 -5.239267,3.06764 -1.376393,-0.61845 -2.761832,-1.49498 -3.860246,-2.18762 z"
       id="path4734"
       inkscape:connector-curvature="0"
       sodipodi:nodetypes="ccccsccsscccscsscc" />
    <path
       style="display:inline;fill:#ffffff;fill-opacity:1;stroke-width:0.07632539"
       d="m 34.725145,226.71558 c -0.105256,-0.10526 -0.23432,-0.34416 -0.286475,-0.53077 -0.09348,-0.33406 -0.09097,-0.34413 0.171167,-0.65003 0.400425,-0.46779 0.598635,-1.15955 0.645649,-2.25316 0.0406,-0.94495 -0.121045,-2.51419 -0.299381,-2.90552 -0.125806,-0.27615 -0.247853,-0.18545 -0.271862,0.20174 -0.04436,0.71614 -0.259907,2.08951 -0.437765,2.79067 -0.38807,1.52972 -1.04339,2.48705 -2.020994,2.95248 -0.430172,0.20475 -0.580711,0.23608 -1.144887,0.23909 -0.55881,0.005 -0.709602,-0.0261 -1.078675,-0.20726 -0.771177,-0.37874 -1.314224,-0.95763 -1.868849,-1.9923 -0.167157,-0.31188 -0.408745,-0.58946 -0.797065,-0.9159 -0.953769,-0.80188 -1.424517,-1.67916 -1.502407,-2.80012 -0.06842,-0.98412 0.271787,-1.80291 0.991363,-2.38643 0.768571,-0.62324 1.652222,-0.88771 3.162748,-0.94663 0.953045,-0.0371 2.476904,0.0556 2.961987,0.18019 0.08395,0.02 -0.05338,-0.0862 -0.305268,-0.23983 -2.783427,-1.69598 -4.021867,-3.30024 -3.91345,-5.06924 0.09949,-1.62441 1.520097,-2.75421 3.462953,-2.75421 0.531519,0 0.696242,-0.0336 1.109774,-0.22605 1.509825,-0.70276 2.873644,-0.61264 3.78599,0.25011 0.813079,0.76897 1.091532,1.78425 0.822376,2.99868 -0.249858,1.12777 -0.670304,2.02149 -1.694925,3.60337 -0.307649,0.47498 -0.516078,0.83741 -0.463227,0.80541 0.05288,-0.0318 0.456812,-0.29557 0.897587,-0.58565 2.881887,-1.89662 5.211181,-2.24291 6.582719,-0.97866 0.652388,0.60136 1.030258,1.61934 0.944324,2.54404 -0.05037,0.54235 -0.349852,1.58802 -0.590237,2.06127 -0.09398,0.1852 -0.14385,0.44373 -0.14385,0.74742 0,1.01299 -0.45799,2.40495 -0.969811,2.94747 -0.506708,0.53711 -1.304775,0.86859 -2.091189,0.86859 -0.467689,0 -1.241873,-0.24535 -1.664101,-0.52753 -0.717722,-0.47955 -1.575782,-1.43464 -2.341173,-2.606 -0.262088,-0.40107 -0.537032,-0.77889 -0.610962,-0.83956 -0.1233,-0.10125 -0.130317,-0.0942 -0.0832,0.0807 0.41496,1.53985 0.517985,3.79857 0.220536,4.83319 -0.269681,0.93783 -0.59169,1.50186 -0.857487,1.50186 -0.07167,0 -0.216527,-0.0862 -0.321881,-0.19172 z"
       id="path3913-6"
       inkscape:connector-curvature="0" />
    <g
       aria-label="IIGL"
       style="font-style:normal;font-variant:normal;font-weight:normal;font-stretch:normal;font-size:9.1973772px;line-height:1.25;font-family:'Russo One';letter-spacing:1.72450829px;word-spacing:0px;display:inline;fill:#ffffff;fill-opacity:1;stroke:none;stroke-width:0.08622541;stroke-opacity:1"
       id="text7412-5">
      <path
         d="m 27.24976,237.39339 h -3.311056 v -1.28764 h 0.827764 v -3.86289 h -0.827764 v -1.28764 h 3.311056 v 1.28764 h -0.827764 v 3.86289 h 0.827764 z"
         style="font-style:normal;font-variant:normal;font-weight:normal;font-stretch:normal;font-size:9.1973772px;line-height:1.25;font-family:'Russo One';letter-spacing:1.72450829px;word-spacing:0px;display:inline;fill:#ffffff;fill-opacity:1;stroke:none;stroke-width:0.08622541;stroke-opacity:1"
         id="path965"
         inkscape:connector-curvature="0" />
      <path
         d="m 32.836448,237.39339 h -3.311056 v -1.28764 h 0.827764 v -3.86289 h -0.827764 v -1.28764 h 3.311056 v 1.28764 h -0.827764 v 3.86289 h 0.827764 z"
         style="font-style:normal;font-variant:normal;font-weight:normal;font-stretch:normal;font-size:9.1973772px;line-height:1.25;font-family:'Russo One';letter-spacing:1.72450829px;word-spacing:0px;display:inline;fill:#ffffff;fill-opacity:1;stroke:none;stroke-width:0.08622541;stroke-opacity:1"
         id="path967"
         inkscape:connector-curvature="0" />
      <path
         d="m 40.906428,237.25543 q -2.152187,0.22993 -3.954872,0.22993 -0.901343,0 -1.324423,-0.42308 -0.423079,-0.42308 -0.423079,-1.32442 v -2.94316 q 0,-0.96573 0.432277,-1.398 0.441474,-0.44148 1.407198,-0.44148 h 3.311056 v 1.28764 h -2.943161 q -0.551842,0 -0.551842,0.55184 v 2.94316 q 0,0.21154 0.119566,0.3403 0.128763,0.11957 0.340303,0.11957 1.057698,0 1.931449,-0.046 v -1.33362 h -1.195659 v -1.10368 h 2.851187 z"
         style="font-style:normal;font-variant:normal;font-weight:normal;font-stretch:normal;font-size:9.1973772px;line-height:1.25;font-family:'Russo One';letter-spacing:1.72450829px;word-spacing:0px;display:inline;fill:#ffffff;fill-opacity:1;stroke:none;stroke-width:0.08622541;stroke-opacity:1"
         id="path969"
         inkscape:connector-curvature="0" />
      <path
         d="m 45.199016,236.10575 h 3.357043 v 1.28764 h -5.012571 v -6.43817 h 1.655528 z"
         style="font-style:normal;font-variant:normal;font-weight:normal;font-stretch:normal;font-size:9.1973772px;line-height:1.25;font-family:'Russo One';letter-spacing:1.72450829px;word-spacing:0px;display:inline;fill:#ffffff;fill-opacity:1;stroke:none;stroke-width:0.08622541;stroke-opacity:1"
         id="path971"
         inkscape:connector-curvature="0" />
    </g>
    <path
       style="font-style:normal;font-weight:normal;font-size:10.58333302px;line-height:1.25;font-family:sans-serif;letter-spacing:0px;word-spacing:0px;fill:#3d7915;fill-opacity:1;stroke:none;stroke-width:0.21691556"
       d="m 29.484818,253.72969 c -0.110846,0.005 -0.213472,0.11166 -0.27061,0.19375 -0.05714,0.0821 -0.06227,0.17851 -0.07046,0.2578 -0.01206,0.11691 -0.03159,0.20388 -0.03683,0.35067 -0.0052,0.14679 0.0054,0.38194 0.01761,0.52842 0.01188,0.1425 0.02652,0.27149 0.04484,0.38749 0.01704,0.1079 0.03194,0.20748 0.04323,0.29783 3.68e-4,0.005 9.01e-4,0.01 0.0016,0.0144 0.01586,0.0793 0.02896,0.17179 0.04003,0.27702 0.04066,0.52103 0.09019,0.96704 0.148916,1.33704 0.05768,0.36342 0.0956,0.62503 0.112087,0.7734 v -0.007 c 0.0067,0.0808 0.02268,0.18317 0.04644,0.31385 -3e-6,5.5e-4 -3e-6,8.2e-4 0,0.002 0.02498,0.13115 0.05963,0.26053 0.102479,0.3891 9.84e-4,0.003 0.0021,0.007 0.0032,0.01 0.0517,0.12925 0.117245,0.25027 0.198555,0.35868 0.003,0.004 0.0062,0.007 0.0096,0.0112 0.104741,0.12087 0.258352,0.19696 0.416324,0.19696 5.43e-4,0 0.02911,-6.1e-4 0.04163,-0.003 0.01252,-0.002 0.02385,-0.007 0.03363,-0.0112 0.01955,-0.007 0.03343,-0.016 0.04484,-0.024 0.02281,-0.0161 0.03462,-0.0297 0.04484,-0.0417 0.02043,-0.0239 0.03271,-0.0428 0.04484,-0.064 0.02355,-0.0413 0.04555,-0.0905 0.07206,-0.15212 l 0.0016,-0.005 c 0.05818,-0.12822 0.11723,-0.2652 0.174537,-0.40832 l 0.0016,-0.005 c 0.02404,-0.0568 0.04302,-0.10267 0.06565,-0.15532 0.02347,0.0512 0.04305,0.10498 0.07206,0.15212 0.0016,0.003 0.0031,0.007 0.0048,0.01 0.06507,0.094 0.14619,0.17511 0.240187,0.24018 0.0032,0.002 0.0064,0.003 0.0096,0.005 0.115644,0.0712 0.251362,0.0977 0.39711,0.0977 0.108819,0 0.21205,-0.0431 0.29623,-0.11049 5.5e-4,-5.4e-4 0.0011,-8.2e-4 0.0016,-0.002 0.07353,-0.0602 0.141596,-0.12823 0.201757,-0.20176 0.05927,-0.0725 0.10697,-0.14349 0.144112,-0.21777 0.01532,-0.026 0.02938,-0.0503 0.04003,-0.0721 0.01251,-0.0256 0.03202,-0.021 0.03202,-0.1201 0,-3.6e-4 -0.0047,-0.0476 -0.0048,-0.048 -1.12e-4,-4.6e-4 -0.0066,-0.0213 -0.0096,-0.0289 -0.0061,-0.0149 -0.01139,-0.0228 -0.01601,-0.0304 -0.0092,-0.0152 -0.01687,-0.0248 -0.02402,-0.0336 -0.0143,-0.0176 -0.02733,-0.0337 -0.04484,-0.0512 -0.0056,-0.005 -0.01146,-0.01 -0.01761,-0.0144 -0.0366,-0.0293 -0.07656,-0.0507 -0.116891,-0.0689 -0.03038,-0.0213 -0.03651,-0.0512 -0.152118,-0.0512 -0.0053,-2.2e-4 -0.01067,-2.2e-4 -0.01601,0 -0.09144,0.007 -0.161374,0.0771 -0.228978,0.14091 -0.03097,-0.0547 -0.06162,-0.1167 -0.08807,-0.19535 l -0.0016,-0.003 c -0.03236,-0.10262 -0.06277,-0.20444 -0.08967,-0.30583 v -0.002 c -0.02254,-0.1128 -0.0385,-0.20217 -0.04964,-0.26901 -9.84e-4,-0.004 -0.0021,-0.007 -0.0032,-0.0112 -0.0098,-0.0439 -0.01281,-0.0745 -0.01281,-0.0865 0,-0.0664 -0.02847,-0.13885 -0.07046,-0.18575 -0.04199,-0.0469 -0.09141,-0.0737 -0.139308,-0.0929 -0.0078,-0.003 -0.01585,-0.006 -0.02402,-0.008 -0.03419,-0.009 -0.05691,-0.0184 -0.06085,-0.0208 -0.06842,-0.0411 -0.143368,-0.0529 -0.212966,-0.0529 -0.112557,0 -0.174301,0.063 -0.216168,0.11209 -0.04187,0.0491 -0.07265,0.10207 -0.105683,0.16813 l -0.0032,0.005 c -0.05394,0.11387 -0.111913,0.2453 -0.176137,0.39711 -5.85e-4,0.002 -0.0011,0.004 -0.0016,0.007 -0.02578,0.0671 -0.05232,0.13247 -0.07846,0.19856 -0.01095,-0.0906 -0.02456,-0.18637 -0.04003,-0.29464 l -0.05124,-0.37148 -0.0016,-0.01 c -0.01136,-0.12859 -0.02459,-0.24728 -0.04163,-0.35708 l -0.0016,-0.0112 c -0.01145,-0.11259 -0.02344,-0.21 -0.03523,-0.28662 -0.0056,-0.0363 -0.0089,-0.0623 -0.01121,-0.0801 -0.0011,-0.009 -0.0029,-0.0157 -0.0032,-0.0192 -2.8e-4,-0.006 -8.2e-4,-0.0118 -0.0016,-0.0176 -0.01169,-0.0818 -0.02778,-0.18733 -0.04484,-0.31224 v -0.002 c -0.01745,-0.13368 -0.03564,-0.26989 -0.05925,-0.41152 -0.02232,-0.13395 -0.04244,-0.2658 -0.05925,-0.39391 -0.01127,-0.12962 -0.01761,-0.23458 -0.01761,-0.31224 0,-0.0512 0.0057,-0.1103 0.01601,-0.17774 0.01366,-0.0888 0.01761,-0.18037 0.01761,-0.27381 0,-0.0482 -0.0062,-0.0935 -0.01922,-0.15853 -0.01462,-0.0731 -0.04094,-0.14636 -0.07365,-0.21937 -0.02817,-0.0749 -0.06419,-0.14159 -0.107284,-0.20015 -0.07821,-0.11524 -0.166556,-0.1671 -0.27217,-0.16274 z m 22.74251,0 c -0.108216,0.004 -0.213473,0.11167 -0.270611,0.19375 -0.05714,0.0821 -0.05138,0.15627 -0.07046,0.2578 -0.01908,0.10153 -0.03989,0.46836 -0.03683,0.35067 0,0.20636 0.0054,0.38194 0.01761,0.52842 0.01188,0.1425 0.02652,0.27149 0.04484,0.38749 0.01704,0.10789 0.03194,0.20747 0.04323,0.29783 3.68e-4,0.005 9.02e-4,0.01 0.0016,0.0144 0.01586,0.0793 0.02896,0.17179 0.04003,0.27702 0.04066,0.52103 0.09019,0.96704 0.148916,1.33704 0.05768,0.36342 0.0956,0.62503 0.112087,0.7734 v -0.007 c 0.0067,0.0808 0.02268,0.18317 0.04644,0.31385 -3e-6,5.5e-4 -3e-6,8.2e-4 0,0.002 0.02467,0.12951 0.05753,0.25906 0.100878,0.3891 9.83e-4,0.003 0.002,0.007 0.0032,0.01 0.05228,0.13069 0.119714,0.25143 0.200155,0.35868 0.003,0.004 0.0062,0.007 0.0096,0.0112 0.104741,0.12087 0.258352,0.19696 0.416324,0.19696 5.42e-4,0 0.02911,-6.1e-4 0.04163,-0.003 0.01252,-0.002 0.02385,-0.007 0.03363,-0.0112 0.01955,-0.007 0.03343,-0.016 0.04484,-0.024 0.02281,-0.0161 0.03462,-0.0297 0.04484,-0.0417 0.02043,-0.0239 0.03271,-0.0428 0.04484,-0.064 0.02354,-0.0413 0.04555,-0.0905 0.07205,-0.15212 l 0.0016,-0.005 c 0.05818,-0.12822 0.117229,-0.26519 0.174535,-0.40832 l 0.0016,-0.005 c 0.02405,-0.0568 0.04302,-0.10267 0.06565,-0.15532 0.02347,0.0512 0.04305,0.10499 0.07206,0.15212 0.0016,0.003 0.0031,0.007 0.0048,0.01 0.06507,0.094 0.146192,0.17511 0.240187,0.24018 0.0032,0.002 0.0064,0.003 0.0096,0.005 0.115644,0.0712 0.251363,0.0977 0.397109,0.0977 0.10882,0 0.211828,-0.0443 0.29463,-0.11049 5.5e-4,-5.4e-4 0.0011,-8.2e-4 0.0016,-0.002 0.07229,-0.0591 0.141952,-0.12671 0.203359,-0.20176 0.05927,-0.0725 0.10697,-0.14349 0.144112,-0.21777 0.01532,-0.026 0.02938,-0.0503 0.04003,-0.0721 0.01251,-0.0256 0.03202,-0.021 0.03202,-0.1201 0,-3.6e-4 -0.0047,-0.0476 -0.0048,-0.048 -1.12e-4,-4.6e-4 -0.0066,-0.0213 -0.0096,-0.0289 -0.0061,-0.0149 -0.01139,-0.0228 -0.01601,-0.0304 -0.0093,-0.0152 -0.01687,-0.0248 -0.02402,-0.0336 -0.0143,-0.0176 -0.02733,-0.0337 -0.04484,-0.0512 -0.0056,-0.005 -0.01147,-0.01 -0.01761,-0.0144 -0.0366,-0.0293 -0.07656,-0.0507 -0.116891,-0.0689 -0.03038,-0.0213 -0.03651,-0.0512 -0.152118,-0.0512 -0.0053,-2.2e-4 -0.01067,-2.2e-4 -0.01601,0 -0.09144,0.007 -0.161374,0.0771 -0.228977,0.14091 -0.03097,-0.0547 -0.06162,-0.1167 -0.08807,-0.19535 l -0.0016,-0.003 c -0.03236,-0.10262 -0.06277,-0.20444 -0.08967,-0.30583 v -0.002 c -0.02254,-0.1128 -0.0385,-0.20217 -0.04964,-0.26901 -9.84e-4,-0.004 -0.002,-0.007 -0.0032,-0.0112 -0.0098,-0.0439 -0.01281,-0.0745 -0.01281,-0.0865 0,-0.0664 -0.02846,-0.13885 -0.07046,-0.18575 -0.04199,-0.0469 -0.09141,-0.0737 -0.139308,-0.0929 -0.0078,-0.003 -0.01585,-0.006 -0.02402,-0.008 -0.03419,-0.009 -0.05691,-0.0184 -0.06085,-0.0208 -0.06842,-0.0411 -0.143369,-0.0529 -0.212965,-0.0529 -0.112556,0 -0.174301,0.063 -0.216169,0.11209 -0.04187,0.0491 -0.07265,0.10207 -0.105682,0.16813 l -0.0032,0.005 c -0.05327,0.11247 -0.113054,0.24421 -0.177738,0.39711 -5.85e-4,0.002 -0.0011,0.004 -0.0016,0.007 -0.02601,0.0676 -0.05262,0.13234 -0.07846,0.19856 -0.01135,-0.0914 -0.02487,-0.18696 -0.04003,-0.29304 v -0.002 l -0.04964,-0.37148 -0.0016,-0.008 c -0.01139,-0.12922 -0.02451,-0.24839 -0.04163,-0.35868 l -0.0016,-0.0112 c -0.01145,-0.11259 -0.02344,-0.21001 -0.03523,-0.28663 -0.0058,-0.0376 -0.01,-0.066 -0.01281,-0.0849 -0.0014,-0.009 -0.0027,-0.0156 -0.0032,-0.0192 -4.06e-4,-0.004 -9.84e-4,-0.009 -0.0016,-0.0128 -0.01134,-0.0794 -0.02599,-0.18575 -0.04323,-0.31224 v -0.002 c -0.01765,-0.13519 -0.03748,-0.27132 -0.06085,-0.41152 -0.02232,-0.13395 -0.04243,-0.2658 -0.05925,-0.39391 -0.01113,-0.12807 -0.01601,-0.23217 -0.01601,-0.31224 10e-7,-0.0545 0.0044,-0.11298 0.01441,-0.17774 0.01324,-0.0861 0.01922,-0.17796 0.01922,-0.27381 0,-0.0572 -0.0085,-0.0969 -0.02082,-0.15853 -0.01462,-0.0731 -0.04094,-0.14636 -0.07365,-0.21937 -0.02715,-0.0726 -0.06119,-0.13955 -0.105682,-0.20015 -0.0756,-0.0738 -0.16397,-0.16706 -0.272186,-0.16256 z m -10.079849,0.65011 c -0.15,0 -0.31058,0.10179 -0.369888,0.24018 -0.0017,0.004 -0.0034,0.007 -0.0048,0.0112 -0.03499,0.098 -0.05445,0.19509 -0.05445,0.29143 0,0.0576 0.0025,0.1143 0.0096,0.17133 -9e-6,8.2e-4 -9e-6,0.002 0,0.003 0.0045,0.0313 0.0059,0.0568 0.0064,0.0768 -0.02843,0.29942 -0.0652,0.59197 -0.110485,0.88069 -0.04535,0.28912 -0.09891,0.54597 -0.160125,0.7686 -5.57e-4,8.2e-4 -0.0011,0.002 -0.0016,0.003 -0.05578,0.22314 -0.115474,0.40203 -0.176137,0.52841 -0.02355,0.0462 -0.04315,0.0702 -0.05604,0.0849 -0.01092,-0.003 -0.04072,-0.0111 -0.09768,-0.0689 l -0.0016,-0.003 c -0.0017,-0.002 -0.0015,2.5e-4 -0.0032,-0.002 -0.07601,-0.0867 -0.161094,-0.20093 -0.252997,-0.34107 l -0.0016,-0.003 c -4.85e-4,-7.4e-4 -0.0011,-8.2e-4 -0.0016,-0.002 -0.0902,-0.14672 -0.183861,-0.30552 -0.280219,-0.47557 -0.09856,-0.17392 -0.193804,-0.33582 -0.286623,-0.48678 l -0.0032,-0.005 c -0.08871,-0.15333 -0.173444,-0.28298 -0.254597,-0.3891 -0.08948,-0.11702 -0.185456,-0.22417 -0.353876,-0.22417 -0.111893,0 -0.231382,0.0425 -0.313845,0.12489 -0.08691,0.0869 -0.116891,0.20805 -0.116891,0.32186 v 0.49158 c -0.02004,0.0369 -0.04884,0.0705 -0.06085,0.11048 -0.0019,0.006 -0.0035,0.0117 -0.0048,0.0176 -0.01799,0.0899 -0.02082,0.19662 -0.02082,0.35227 0,0.11274 0.01623,0.24521 0.04644,0.40832 -2e-6,5.5e-4 -2e-6,8.2e-4 0,0.002 0.0295,0.1534 0.06471,0.31759 0.105683,0.49318 5.09e-4,0.002 0.0011,0.004 0.0016,0.007 0.04659,0.17471 0.0964,0.35231 0.148916,0.53321 -3e-6,5.5e-4 -3e-6,8.2e-4 0,0.002 0.05307,0.17691 0.10686,0.33882 0.160125,0.48678 0.05379,0.14941 0.105506,0.27506 0.156922,0.3779 5.24e-4,0.002 0.0011,0.003 0.0016,0.005 0.02744,0.0514 0.054,0.094 0.08967,0.1345 0.03567,0.0405 0.08556,0.0977 0.196954,0.0977 0.09755,0 0.186783,-0.0326 0.265807,-0.08 0.109459,-0.0657 0.18094,-0.20655 0.18094,-0.33146 0,-0.0614 -0.0061,-0.11715 -0.03523,-0.18415 -0.01222,-0.0407 -0.0275,-0.0799 -0.05124,-0.11368 -0.0085,-0.0151 -0.01998,-0.0289 -0.03042,-0.0432 -0.0048,-0.01 -0.01194,-0.0298 -0.02082,-0.0608 -0.113515,-0.39162 -0.198154,-0.76171 -0.254598,-1.11127 v -0.002 c -0.0035,-0.0245 -0.0046,-0.0384 -0.008,-0.0625 0.04676,0.063 0.08832,0.1261 0.137708,0.18895 0.0016,0.002 0.0032,0.003 0.0048,0.005 0.139821,0.16414 0.28449,0.30753 0.432337,0.43073 0.157926,0.13161 0.318156,0.21938 0.497988,0.21938 0.200334,0 0.390353,-0.0767 0.523607,-0.21778 0.118815,-0.12541 0.210813,-0.27693 0.28182,-0.44674 0.03894,0.23804 0.06604,0.50482 0.112086,0.72536 0.110533,0.5294 0.219584,0.98715 0.325054,1.37387 -9e-6,8.2e-4 -9e-6,0.002 0,0.003 0.111225,0.38636 0.213069,0.68796 0.312243,0.9111 0.0479,0.11069 0.08952,0.19434 0.129701,0.26101 0.02019,0.0335 0.0392,0.0628 0.06725,0.0929 0.02806,0.0301 0.06593,0.0817 0.174536,0.0817 0.05595,0 0.05331,-0.003 0.09127,-0.01 0.05336,-0.009 0.103039,-0.0277 0.148916,-0.0496 l 0.0032,-0.002 c 0.05166,-0.0225 0.102607,-0.0552 0.148916,-0.0977 0.07158,-0.0597 0.11529,-0.15992 0.11529,-0.24499 0,-0.0551 -0.01109,-0.1062 -0.02722,-0.15532 -0.0075,-0.0364 -0.01492,-0.0726 -0.02883,-0.10729 -0.01027,-0.0257 -0.02182,-0.0558 -0.03202,-0.0865 -0.0014,-0.005 -0.003,-0.01 -0.0048,-0.0144 -0.0777,-0.18316 -0.158024,-0.39681 -0.236985,-0.6389 v -0.002 c -4.12e-4,-0.002 -0.0011,-0.002 -0.0016,-0.003 -0.07458,-0.25249 -0.150225,-0.51778 -0.23058,-0.79902 v 0.005 c -0.07438,-0.28033 -0.145989,-0.56704 -0.214567,-0.85826 l -0.0016,-0.005 c -0.0625,-0.29564 -0.118454,-0.58177 -0.169732,-0.85507 -0.0458,-0.28047 -0.08192,-0.5437 -0.110486,-0.78941 -0.02838,-0.24981 -0.04484,-0.46531 -0.04484,-0.64531 0,-0.21313 0.0043,-0.36619 0.0096,-0.46436 v -0.01 c 0.01104,-0.10606 0.01761,-0.18561 0.01761,-0.24659 0,-0.0367 -0.0051,-0.0697 -0.0096,-0.10408 0,-0.0611 -0.0069,-0.12123 -0.02242,-0.17774 -1.75e-4,-7.1e-4 -0.0014,-8.2e-4 -0.0016,-0.002 -0.01972,-0.077 -0.06679,-0.15109 -0.1281,-0.20496 -0.06816,-0.0636 -0.162742,-0.0977 -0.251395,-0.0977 z m -22.367818,0.12169 c -0.0736,-1e-5 -0.159689,0.0316 -0.216168,0.0881 -0.05648,0.0565 -0.08383,0.12274 -0.09768,0.18734 -0.01933,0.0902 -0.02883,0.16899 -0.02883,0.24179 -2.17e-4,0.006 -2.17e-4,0.0106 0,0.016 0.04055,0.49242 0.07715,0.908 0.112087,1.24577 5.36e-4,8.2e-4 0.0011,0.002 0.0016,0.003 0.04057,0.33034 0.07493,0.60035 0.104081,0.81023 -2e-5,0.002 -2e-5,0.003 0,0.005 0.03479,0.20879 0.06258,0.36207 0.08007,0.46116 4.38e-4,0.004 9.84e-4,0.007 0.0016,0.0112 0.02248,0.0955 0.03042,0.18282 0.03042,0.1377 0,0.0524 0.0034,0.0493 0.008,0.0801 0.0045,0.0308 0.01041,0.0721 0.01922,0.12489 9.84e-4,0.003 0.002,0.007 0.0032,0.01 l 0.08647,0.39071 c -9e-6,8.2e-4 -9e-6,0.002 0,0.003 0.0352,0.1525 0.0767,0.31903 0.123295,0.49959 -2e-6,5.5e-4 -2e-6,8.2e-4 0,0.002 0.04735,0.17759 0.09673,0.34258 0.150518,0.49799 0.05454,0.15754 0.111348,0.29002 0.169732,0.40031 0.0016,0.002 0.0032,0.006 0.0048,0.008 0.03548,0.0603 0.07123,0.11189 0.121694,0.15693 0.05047,0.045 0.123904,0.0865 0.211365,0.0865 0.07587,0 0.160484,-0.02 0.228979,-0.0657 0.08361,-0.0557 0.139307,-0.16996 0.139307,-0.26741 2.42e-4,-0.0156 -0.0014,-0.0312 -0.0048,-0.0464 l -0.34747,-1.43952 v -0.002 c -0.0459,-0.1951 -0.08585,-0.37342 -0.120093,-0.53321 v 0.007 c -0.02807,-0.15719 -0.05092,-0.30471 -0.07365,-0.44675 l -0.0016,-0.008 c -0.01713,-0.14755 -0.03666,-0.29612 -0.05925,-0.44355 l -0.0016,-0.008 c -0.01727,-0.14938 -0.03803,-0.31386 -0.06085,-0.49638 2e-6,-5.5e-4 2e-6,-8.2e-4 0,-0.002 -0.01665,-0.12764 -0.03027,-0.2763 -0.04163,-0.44675 -0.01182,-0.18326 -0.03286,-0.35932 -0.06245,-0.52681 l -0.0016,-0.005 c -0.02456,-0.16964 -0.06004,-0.31802 -0.113689,-0.44675 -0.02753,-0.0737 -0.06647,-0.14291 -0.1281,-0.19855 -0.06256,-0.0565 -0.15213,-0.0913 -0.236985,-0.0913 z m 29.944918,0.13931 c -0.106382,-0.0261 -0.457701,0.23423 -0.262604,0.1313 -0.07378,0.0885 -0.08807,0.18977 -0.08807,0.28983 0,0.0325 0.0016,0.0312 0.0032,0.0448 0.0016,0.0136 0.0035,0.0301 0.0064,0.0512 0.0057,0.0423 0.01392,0.10168 0.02562,0.17773 5.09e-4,0.002 0.0011,0.004 0.0016,0.007 0.02873,0.1494 0.05798,0.31015 0.08647,0.48678 -2e-6,5.5e-4 -2e-6,8.2e-4 0,0.002 0.02769,0.1661 0.06568,0.3645 0.104081,0.56684 l -0.01121,0.005 c -0.0016,8.2e-4 -0.0033,0.002 -0.0048,0.003 -0.09223,0.0462 -0.209028,0.10419 -0.352274,0.17294 -0.0011,5.3e-4 -0.0021,8.2e-4 -0.0032,0.002 -0.140316,0.0702 -0.29264,0.14768 -0.456356,0.23538 -0.168884,0.0874 -0.324697,0.17219 -0.465962,0.2546 -0.09681,0.0544 -0.168015,0.10489 -0.243391,0.15532 -0.02908,-0.0184 -0.04256,-0.0417 -0.10248,-0.0417 -0.07206,0 -0.143825,0.0308 -0.192148,0.0721 -0.04832,0.0413 -0.07886,0.0889 -0.104082,0.13931 -0.0023,0.004 -0.0044,0.008 -0.0064,0.0128 -0.03947,0.0947 -0.05764,0.19697 -0.05764,0.30102 0,7.3e-4 0.0021,0.0301 0.0032,0.0368 0.0011,0.007 0.0022,0.0115 0.0032,0.016 0.002,0.009 0.0039,0.0162 0.0064,0.0256 6.84e-4,0.002 0.0025,0.007 0.0032,0.01 -0.06225,0.0164 -0.123084,0.0366 -0.158524,0.0704 -0.0476,0.0455 -0.08509,0.0987 -0.124896,0.16173 l 0.0016,-0.005 c -0.06129,0.0919 -0.150372,0.20487 -0.267408,0.33306 h -0.0016 c -0.100359,0.11039 -0.23158,0.21696 -0.397109,0.31864 -0.137648,0.0826 -0.313802,0.12971 -0.541222,0.12971 -0.179377,0 -0.307049,-0.0328 -0.387502,-0.0785 h -0.0016 c -0.09562,-0.0601 -0.165018,-0.12839 -0.216169,-0.20816 -0.05528,-0.0921 -0.09233,-0.19676 -0.112087,-0.32025 -0.02151,-0.13446 -0.03363,-0.27322 -0.03363,-0.41312 0,-0.0189 0.002,-0.034 0.0048,-0.048 5.85e-4,-0.002 0.0011,-0.004 0.0016,-0.007 0.0072,-0.0431 0.01121,-0.0913 0.01121,-0.14411 0,-0.0741 -0.008,-0.1441 -0.04803,-0.22097 -0.02937,-0.0635 -0.08707,-0.12055 -0.150517,-0.15052 -0.0201,-0.012 -0.04134,-0.0178 -0.06245,-0.0256 v -0.15051 c 10e-7,-0.0726 -0.01765,-0.14714 -0.04644,-0.21778 -0.01913,-0.0587 -0.05453,-0.12094 -0.112087,-0.16172 -0.05989,-0.0425 -0.130964,-0.0576 -0.19215,-0.0576 -0.229889,0 -0.443573,0.11982 -0.597264,0.31544 l -0.0032,0.005 c -0.133517,0.17802 -0.241732,0.37957 -0.328256,0.60207 -0.08443,0.21711 -0.149155,0.42846 -0.192149,0.63729 -0.04148,0.19557 -0.06405,0.32303 -0.06405,0.43074 0,0.0399 0.0016,0.0427 0.0048,0.0689 0.0031,0.0262 0.0086,0.0603 0.01441,0.10409 0.01311,0.0983 0.03587,0.20232 0.06725,0.30904 -3e-6,5.5e-4 -3e-6,8.2e-4 0,0.002 0.03278,0.10489 0.07608,0.2056 0.129701,0.29944 0.0025,0.005 0.0052,0.01 0.008,0.0144 0.07655,0.11056 0.210229,0.19695 0.352275,0.19695 0.124902,0 0.245662,-0.0505 0.342667,-0.13131 0.0027,-0.002 0.0054,-0.004 0.008,-0.007 0.08083,-0.0741 0.153078,-0.15762 0.21777,-0.24819 l 0.0032,-0.005 c 0.03961,-0.0594 0.07359,-0.11663 0.108885,-0.17453 0.02283,0.0318 0.03142,0.0712 0.05764,0.10087 0.0016,0.002 0.0032,0.003 0.0048,0.005 0.09864,0.10523 0.210252,0.19466 0.333059,0.27221 l 0.0064,0.005 c 0.122951,0.0712 0.2507,0.12581 0.381097,0.16493 0.130446,0.0391 0.259034,0.0608 0.3859,0.0608 0.259021,0 0.511019,-0.0554 0.749384,-0.16493 0.0016,-5.3e-4 0.0032,-8.2e-4 0.0048,-0.002 0.228697,-0.11126 0.430456,-0.246 0.606873,-0.40352 0.173521,-0.15493 0.313827,-0.31625 0.417925,-0.48518 v -0.002 c 0.02251,-0.0358 0.01946,-0.0679 0.03843,-0.10248 0.0027,0.009 0.0071,0.0221 0.0096,0.0304 5.09e-4,0.002 0.0011,0.004 0.0016,0.007 0.0084,0.0252 0.02564,0.0866 0.04803,0.17614 5.37e-4,8.2e-4 0.0011,0.002 0.0016,0.003 0.02447,0.0918 0.05485,0.18982 0.09127,0.29303 0.0388,0.10992 0.08502,0.20802 0.139309,0.29623 0.0655,0.10645 0.178705,0.20657 0.323451,0.20657 0.0921,0 0.146691,-0.0284 0.214568,-0.0625 0.0467,-0.0215 0.09079,-0.048 0.131302,-0.0929 0.0414,-0.0458 0.07365,-0.11735 0.07365,-0.18734 0,-0.0481 -0.0048,-0.0609 -0.01121,-0.0929 -0.0064,-0.032 -0.01513,-0.0717 -0.02722,-0.1201 l 0.0016,0.0144 c -0.01868,-0.10588 -0.04601,-0.22459 -0.08166,-0.35547 v -0.002 c -0.03555,-0.13615 -0.07648,-0.27632 -0.123297,-0.42273 v -0.002 c -0.0303,-0.0983 -0.0686,-0.18265 -0.104081,-0.27061 0.05631,-0.0353 0.106842,-0.0673 0.176138,-0.10888 0.0021,-8.2e-4 0.0043,-0.002 0.0064,-0.003 0.113531,-0.0738 0.236407,-0.1503 0.368287,-0.23058 0.0016,-0.002 0.0033,-0.003 0.0048,-0.005 0.13051,-0.0851 0.255808,-0.16196 0.373091,-0.22898 0.0016,-8.2e-4 0.0033,-0.002 0.0048,-0.003 0.115658,-0.0716 0.215703,-0.12851 0.301034,-0.17134 0.04237,0.15655 0.08313,0.30851 0.116891,0.44355 0.03483,0.13931 0.07076,0.27605 0.105683,0.40992 0.03361,0.12882 0.05401,0.22237 0.06405,0.27702 0.03387,0.20319 0.05124,0.35678 0.05124,0.44514 0,0.0189 -0.003,0.0299 -0.0032,0.0304 -0.0036,0.0157 -0.0052,0.0319 -0.0048,0.048 v 0.0512 c 0,0.0508 0.0094,0.0922 0.02562,0.14091 0.01725,0.0517 0.04105,0.10027 0.06885,0.14892 0.002,0.004 0.0041,0.007 0.0064,0.0112 0.03158,0.0474 0.06647,0.0889 0.10248,0.1249 0.05532,0.0553 0.145243,0.0993 0.233782,0.0993 0.07816,0 0.16386,-0.0351 0.21937,-0.0897 0.05551,-0.0545 0.08656,-0.11945 0.107284,-0.18575 0.03419,-0.10938 0.05124,-0.21835 0.05124,-0.32665 0,-0.0355 -5.53e-4,-0.0291 -0.0016,-0.0368 -0.0011,-0.007 -0.0032,-0.0154 -0.0048,-0.0256 -0.0031,-0.02 -0.0071,-0.0476 -0.01281,-0.0817 v -0.002 c -0.01131,-0.0735 -0.0268,-0.15503 -0.04323,-0.24339 l -0.0016,-0.0128 c -0.01176,-0.0922 -0.02594,-0.1848 -0.04323,-0.27702 -0.0174,-0.0928 -0.03134,-0.16791 -0.04323,-0.22738 -5.1e-4,-0.002 -0.0011,-0.004 -0.0016,-0.007 -0.02367,-0.10058 -0.05275,-0.21637 -0.08807,-0.34587 -0.03515,-0.1289 -0.07053,-0.25111 -0.105682,-0.36829 -0.0281,-0.11752 -0.05408,-0.22199 -0.07686,-0.30744 -0.0015,-0.006 -0.0018,-0.007 -0.0032,-0.0128 0.0072,-0.003 0.008,-0.004 0.01601,-0.008 0.0027,-0.002 0.0054,-0.003 0.008,-0.005 l 0.363483,-0.18255 c 0.142889,-0.0715 0.285361,-0.14764 0.427533,-0.23058 0.0016,-8.2e-4 0.0033,-0.002 0.0048,-0.003 0.150341,-0.094 0.271862,-0.19187 0.365085,-0.29943 0.05808,-0.0664 0.06463,-0.16339 0.01601,-0.23698 -0.0073,-0.011 -0.01631,-0.0246 -0.02402,-0.04 l 0.01601,0.04 c -0.01431,-0.0573 -0.06436,-0.12038 -0.116891,-0.14892 -0.05254,-0.0285 -0.09741,-0.0321 -0.134504,-0.0321 -0.05402,0 -0.06392,0.007 -0.08166,0.0128 -0.01775,0.006 -0.03375,0.0132 -0.05284,0.0208 -0.03817,0.0152 -0.08495,0.0342 -0.144112,0.0608 -0.11135,0.047 -0.236175,0.10304 -0.374691,0.16652 -0.137377,0.063 -0.271864,0.12257 -0.400312,0.18094 -0.02717,0.011 -0.02961,0.0103 -0.05284,0.0192 -0.03431,-0.11541 -0.0681,-0.22029 -0.105682,-0.37789 l -0.0016,-0.003 c -0.05184,-0.24194 -0.109754,-0.51608 -0.172934,-0.82624 -0.01324,-0.0662 -0.0374,-0.13479 -0.09287,-0.19376 -0.05547,-0.0589 -0.145096,-0.0929 -0.220972,-0.0929 z m -25.0419,0.80702 c -0.14339,0 -0.288565,0.0716 -0.377894,0.18575 -0.08075,0.0982 -0.129701,0.22154 -0.129701,0.34747 0,0.088 0.02672,0.18258 0.08807,0.2562 0.0035,0.005 0.0072,0.01 0.01121,0.0144 0.04212,0.0421 0.09172,0.0771 0.145714,0.10407 0.0037,0.002 0.0075,0.003 0.01121,0.005 0.05153,0.0221 0.103294,0.0404 0.158523,0.0496 0.01061,0.002 0.02132,0.002 0.03202,0.002 h 0.09607 c 0.09459,0 0.157163,-0.0313 0.225777,-0.0657 0.06325,-0.0316 0.125259,-0.0653 0.185744,-0.10568 0.0011,-8.2e-4 0.0021,-0.002 0.0032,-0.003 0.06306,-0.0441 0.117913,-0.086 0.163327,-0.12489 0.02387,-0.0205 0.04333,-0.0391 0.06405,-0.0625 0.02073,-0.0234 0.06405,-0.0346 0.06405,-0.15532 0,-0.13405 -0.09747,-0.22193 -0.179339,-0.26741 -0.05859,-0.0356 -0.121294,-0.0645 -0.190549,-0.0897 -0.06624,-0.0241 -0.134488,-0.0423 -0.203358,-0.0561 l -0.01121,-0.002 c -0.0549,-0.0172 -0.08256,-0.0321 -0.156923,-0.0321 z m 23.165239,0 c -0.14339,0 -0.288565,0.0716 -0.377895,0.18575 -0.08075,0.0982 -0.129701,0.22154 -0.129701,0.34747 0,0.088 0.02672,0.18258 0.08807,0.2562 0.0035,0.005 0.0072,0.01 0.01121,0.0144 0.04468,0.0447 0.09548,0.0781 0.147314,0.10407 0.0037,0.002 0.0075,0.003 0.01121,0.005 0.0498,0.0213 0.10073,0.0403 0.156922,0.0496 0.01061,0.002 0.02132,0.002 0.03202,0.002 h 0.09607 c 0.09458,0 0.15747,-0.0307 0.227377,-0.0657 0.06325,-0.0316 0.125261,-0.0653 0.185745,-0.10568 0.0011,-8.2e-4 0.0021,-0.002 0.0032,-0.003 0.06306,-0.0441 0.117913,-0.086 0.163328,-0.12489 0.02386,-0.0205 0.04333,-0.0391 0.06405,-0.0625 0.02072,-0.0234 0.06405,-0.0346 0.06405,-0.15532 0,-0.13353 -0.09607,-0.22179 -0.177739,-0.26741 h -0.0016 c -0.06017,-0.0365 -0.123817,-0.0648 -0.19215,-0.0897 -0.06529,-0.0238 -0.132697,-0.0421 -0.201757,-0.0561 l -0.01121,-0.002 c -0.05582,-0.0174 -0.08412,-0.0321 -0.158524,-0.0321 z m -31.065792,0.0865 c -0.190414,0 -0.33889,0.11844 -0.472367,0.27862 -0.0011,8.2e-4 -0.0021,0.002 -0.0032,0.003 -0.120581,0.15231 -0.23752,0.34129 -0.357077,0.56845 -0.118972,0.2202 -0.234121,0.46069 -0.345871,0.72537 -0.111439,0.26393 -0.208721,0.51677 -0.291426,0.75899 -0.08181,0.23959 -0.149965,0.45545 -0.203358,0.6453 -0.05358,0.1905 -0.08486,0.30811 -0.08487,0.42593 0,0.35576 0.08814,0.65753 0.291427,0.86627 0.203286,0.20874 0.501447,0.30104 0.850262,0.30104 0.226189,0 0.444893,-0.0308 0.654911,-0.0945 0.204701,-0.0621 0.39972,-0.14688 0.584454,-0.25139 l 0.0016,-0.002 c 0.185786,-0.102 0.363635,-0.21389 0.533216,-0.34107 5.5e-4,-5.4e-4 0.0011,-8.2e-4 0.0016,-0.002 0.171951,-0.13045 0.33813,-0.26782 0.497988,-0.40992 h 0.0016 c 0.06569,-0.0597 0.138625,-0.12742 0.216168,-0.20496 0.0016,-0.002 0.0033,-0.004 0.0048,-0.007 0.08098,-0.0872 0.154995,-0.17845 0.222574,-0.27061 0.06822,-0.093 0.124163,-0.18585 0.169732,-0.28182 5.08e-4,-8.2e-4 -5.04e-4,-0.002 0,-0.003 0.05749,-0.10872 0.09127,-0.22469 0.09127,-0.34106 0,-0.0938 -0.03126,-0.17073 -0.07526,-0.2514 -0.05281,-0.0968 -0.159712,-0.19536 -0.293028,-0.19536 -0.04821,0 -0.09949,0.008 -0.150518,0.0289 -0.0055,0.002 -0.0108,0.005 -0.01601,0.008 -0.08417,0.0421 -0.118341,0.099 -0.150517,0.15532 -0.0029,0.005 -0.0056,0.01 -0.008,0.0144 -0.09465,0.19981 -0.227076,0.3971 -0.400312,0.59245 -0.176102,0.19263 -0.368189,0.36283 -0.576449,0.51081 -0.20797,0.14776 -0.426612,0.26948 -0.654909,0.36188 -0.216828,0.0842 -0.416644,0.1233 -0.60207,0.1233 -0.04336,0 -0.09661,-0.003 -0.155321,-0.008 -0.04228,-0.008 -0.08545,-0.0211 -0.131302,-0.0416 -0.02873,-0.0147 -0.0568,-0.0368 -0.08487,-0.0704 -0.01,-0.0155 -0.02402,-0.05 -0.02402,-0.1185 0,-0.14743 0.03052,-0.33231 0.09607,-0.55082 2e-6,-5.5e-4 2e-6,-8.2e-4 0,-0.002 0.06778,-0.2316 0.143382,-0.45093 0.227377,-0.65811 5.5e-4,-5.4e-4 0.0011,-8.2e-4 0.0016,-0.002 0.08525,-0.21597 0.163872,-0.40126 0.236984,-0.55883 l 0.0016,-0.002 c 0.07636,-0.15809 0.125126,-0.2554 0.142511,-0.28663 8.2e-4,-0.002 0.0024,-0.002 0.0032,-0.003 0.03189,-0.0477 0.06285,-0.0939 0.09447,-0.13611 0.0011,-8.2e-4 0.0021,-0.002 0.0032,-0.003 l 0.08647,-0.12169 c 0.02787,-0.039 0.04584,-0.0657 0.06085,-0.0881 l 0.0032,-0.003 c 0.08093,-0.11569 0.157932,-0.22934 0.23218,-0.33786 0.0011,-8.2e-4 0.0021,-0.002 0.0032,-0.003 0.03939,-0.0606 0.07007,-0.11166 0.09447,-0.15692 0.02441,-0.0453 0.04468,-0.0759 0.05604,-0.14411 0.0014,-0.0107 0.002,-0.0213 0.0016,-0.0321 0,-0.0888 -0.03799,-0.17838 -0.09287,-0.24659 -0.06974,-0.0923 -0.189894,-0.1393 -0.293029,-0.1393 z m 16.79548,0.85987 c -0.157973,0 -0.308527,0.066 -0.441945,0.17133 -0.131708,0.10399 -0.246956,0.24078 -0.349072,0.40672 l -0.0032,0.005 c -0.09603,0.16645 -0.17239,0.3533 -0.233783,0.56204 -0.06365,0.21642 -0.09447,0.44797 -0.09447,0.69014 0,0.25415 0.03276,0.48463 0.105682,0.69014 -2e-6,5.4e-4 -2e-6,8.2e-4 0,0.002 0.06992,0.1907 0.161749,0.35758 0.275415,0.49799 0.0011,8.2e-4 0.0021,0.002 0.0032,0.003 0.113627,0.13368 0.246808,0.2411 0.398711,0.31705 0.0021,8.2e-4 0.0043,0.002 0.0064,0.003 0.150989,0.0686 0.311232,0.10408 0.472367,0.10408 0.204808,0 0.387265,-0.0216 0.549227,-0.0689 0.152872,-0.0429 0.285427,-0.0913 0.400313,-0.15211 0.108304,-0.0573 0.200438,-0.11668 0.275414,-0.18415 0.06127,-0.0552 0.100373,-0.0911 0.137707,-0.14091 0.0616,-0.0821 0.116891,-0.13976 0.116891,-0.27381 0,-0.032 -0.0041,-0.0739 -0.02562,-0.1249 -0.02477,-0.0625 -0.06114,-0.0964 -0.09607,-0.1233 -0.04043,-0.0373 -0.102845,-0.0768 -0.177738,-0.0768 -0.08527,0 -0.09755,0.0193 -0.128099,0.0336 -0.03055,0.0143 -0.06333,0.0309 -0.100879,0.0529 -0.05965,0.0325 -0.134508,0.0721 -0.224175,0.1169 -0.08041,0.0374 -0.166594,0.0746 -0.262604,0.11208 -5.81e-4,2.1e-4 -9.84e-4,-2e-4 -0.0016,0 -0.0012,4.7e-4 -0.002,8.2e-4 -0.0032,0.002 -0.07776,0.0268 -0.147718,0.0385 -0.208162,0.0385 -0.0972,0 -0.190097,-0.0187 -0.283421,-0.0561 -0.09291,-0.0371 -0.169986,-0.086 -0.236984,-0.14732 -0.06787,-0.0679 -0.128256,-0.15314 -0.177738,-0.2562 -0.03966,-0.0942 -0.06085,-0.19948 -0.06085,-0.32506 0,-0.0561 0.01601,-0.0985 0.02082,-0.15051 0.04976,0.0305 0.09704,0.0672 0.156923,0.0672 0.10997,0 0.213103,-0.0314 0.336261,-0.0833 0.0027,-8.2e-4 0.0054,-0.002 0.008,-0.003 0.119695,-0.0567 0.239151,-0.12586 0.357078,-0.20655 l 0.0064,-0.005 c 0.120864,-0.089 0.223211,-0.18642 0.30904,-0.29143 0.09951,-0.11464 0.168131,-0.24868 0.168131,-0.39551 0,-0.1127 -0.0366,-0.22453 -0.09928,-0.32025 -0.06095,-0.0984 -0.143417,-0.18324 -0.240187,-0.25299 -0.08938,-0.0683 -0.191549,-0.12279 -0.304237,-0.16333 -0.114656,-0.0492 -0.233806,-0.0736 -0.350673,-0.0736 z m -6.411393,0.18094 c -0.09461,-0.017 -0.302253,0.12711 -0.23058,0.0849 -0.06448,0.043 -0.127325,0.0951 -0.195352,0.15692 -0.06585,0.0542 -0.136285,0.11546 -0.208162,0.18735 -0.07153,0.0716 -0.128569,0.14562 -0.176137,0.21937 -2.29e-4,3.3e-4 2.28e-4,0.002 0,0.002 -0.104115,0.14987 -0.203347,0.34063 -0.299434,0.57485 -0.103421,0.25208 -0.152117,0.52895 -0.152117,0.82784 0,0.18706 0.02594,0.35566 0.09287,0.50439 0.0016,0.002 0.0032,0.006 0.0048,0.008 0.06728,0.13457 0.154237,0.25253 0.259402,0.35067 0.0016,0.002 0.0032,0.003 0.0048,0.005 0.102773,0.0891 0.215992,0.15817 0.339463,0.20176 0.0011,5.6e-4 0.0021,8.2e-4 0.0032,0.002 0.122742,0.0409 0.246389,0.0608 0.366685,0.0608 0.196583,0 0.395402,-0.0528 0.59086,-0.15052 h 0.0016 c 0.18827,-0.0972 0.356884,-0.20571 0.505994,-0.32345 l 0.0032,-0.002 c 0.149654,-0.11394 0.274587,-0.2234 0.376294,-0.33146 0.04977,-0.0527 0.08933,-0.0942 0.118492,-0.12649 0.02916,-0.0323 0.04078,-0.042 0.06725,-0.0817 0.0063,-0.0102 0.01167,-0.0209 0.01601,-0.032 0.02042,-0.0476 0.04144,-0.10347 0.06085,-0.16813 5.68e-4,-0.002 0.0011,-0.003 0.0016,-0.005 0.02157,-0.0791 0.03202,-0.15727 0.03202,-0.23378 -1e-6,-0.0696 -0.005,-0.14128 -0.05284,-0.21617 -0.04781,-0.0749 -0.1549,-0.1265 -0.236985,-0.1265 -0.109516,0 -0.154123,0.0483 -0.196953,0.0865 -0.04283,0.0382 -0.08123,0.0827 -0.123296,0.13771 -0.06736,0.0881 -0.162737,0.19156 -0.280219,0.30903 -0.107449,0.10746 -0.238449,0.20862 -0.39871,0.29944 -0.0011,-1e-5 -0.0021,-1e-5 -0.0032,0 -0.135478,0.0794 -0.291272,0.12169 -0.481976,0.12169 -0.07278,0 -0.145391,-0.0262 -0.230579,-0.0881 -0.068,-0.0582 -0.09447,-0.10871 -0.09447,-0.20976 0,-0.12277 0.02683,-0.27758 0.08487,-0.45795 0.06222,-0.18148 0.157501,-0.36048 0.286623,-0.53802 5.5e-4,-5.4e-4 0.0011,-8.2e-4 0.0016,-0.002 0.06392,-0.0906 0.121117,-0.15757 0.169732,-0.20176 0.0027,-0.002 0.0054,-0.004 0.008,-0.007 0.05925,-0.0593 0.107392,-0.10337 0.142511,-0.1297 0.0044,-0.003 0.0087,-0.007 0.01281,-0.01 0.05209,-0.0456 0.09241,-0.0879 0.124897,-0.1281 0.05492,-0.0659 0.08807,-0.15833 0.08807,-0.245 0,-0.12724 -0.08116,-0.20314 -0.15372,-0.24979 -0.07315,-0.0512 -0.162999,-0.0768 -0.249795,-0.0768 z m -4.099192,0.20817 c -0.131236,0 -0.244956,0.003 -0.352274,0.10248 -0.06492,0.0558 -0.120094,0.14663 -0.120094,0.24178 0,0.0601 0.02108,0.13329 0.07206,0.20176 -0.0011,-0.007 -0.02082,-0.0335 -0.02082,-0.0288 0,-0.0135 -5.93e-4,0.002 -0.0048,0.0224 -0.0023,0.0127 -0.0034,0.0256 -0.0032,0.0385 0,0.0189 -0.0024,0.0383 -0.0064,0.0625 l -0.01761,0.10408 c -0.0014,0.0107 -0.002,0.0213 -0.0016,0.0321 v 0.0529 c 0,-0.002 -0.0085,0.0828 -0.02562,0.19695 -0.01609,0.10156 -0.03985,0.2113 -0.07206,0.32986 -0.02832,0.0991 -0.0663,0.18562 -0.110486,0.2642 -0.04513,-0.0973 -0.08947,-0.20757 -0.131302,-0.33306 -0.04406,-0.13218 -0.08223,-0.26153 -0.11529,-0.3875 -0.02779,-0.12785 -0.04003,-0.21922 -0.04003,-0.23539 0,-0.0913 -0.02209,-0.18228 -0.06565,-0.2626 -0.06179,-0.12111 -0.20887,-0.19375 -0.337863,-0.19375 -0.109319,0 -0.148387,0.0362 -0.201757,0.0704 -3.62e-4,2.1e-4 3.6e-4,0.002 0,0.002 -0.08065,0.0467 -0.158524,0.15694 -0.158524,0.2626 0,0.10052 0.01896,0.23131 0.05445,0.43234 -3.7e-5,0.002 -3.7e-5,0.004 0,0.007 0.04221,0.19899 0.09986,0.40686 0.171333,0.62129 5.25e-4,0.002 0.0011,0.003 0.0016,0.005 0.08021,0.22209 0.181115,0.42213 0.301035,0.59885 0.133201,0.1963 0.331328,0.32827 0.55243,0.32827 0.112428,0 0.216665,-0.0508 0.294629,-0.1201 0.06476,-0.0528 0.125366,-0.11252 0.177739,-0.17774 l 0.0016,-0.002 c 0.03377,-0.0413 0.05881,-0.0774 0.08647,-0.11529 0.02196,0.0175 0.04216,0.0346 0.06565,0.0529 0.0026,0.002 0.0053,0.003 0.008,0.005 0.06454,0.0452 0.129342,0.0847 0.196954,0.11849 0.0021,8.2e-4 0.0043,0.002 0.0064,0.003 0.08177,0.0371 0.16665,0.0608 0.254598,0.0608 0.0919,0 0.171921,-0.0243 0.273813,-0.0625 0.106049,-0.0375 0.209268,-0.0814 0.30904,-0.13129 0.0027,-8.2e-4 0.0054,-0.002 0.008,-0.003 0.101169,-0.0569 0.191854,-0.11878 0.272212,-0.18575 0.09171,-0.0764 0.174536,-0.17642 0.174536,-0.31545 0,-0.11793 -0.09246,-0.21601 -0.172935,-0.25779 -0.07003,-0.0386 -0.150408,-0.0593 -0.23058,-0.0593 -0.07949,0 -0.152565,0.0235 -0.217769,0.0561 -0.04807,0.0187 -0.100026,0.0404 -0.156922,0.0689 l 0.008,-0.005 c -0.04759,0.0211 -0.0986,0.0421 -0.15372,0.0625 -0.02787,0.008 -0.06355,0.0125 -0.100878,0.0144 -0.0205,-0.0289 -0.04021,-0.0594 -0.05925,-0.0929 -0.01993,-0.0504 -0.0381,-0.0999 -0.05284,-0.14412 -0.01615,-0.0485 -0.01761,-0.0985 -0.01761,-0.0416 0,0.0115 0.0038,-0.0514 0.0096,-0.13291 0.0059,-0.0828 0.0078,-0.16739 0.008,-0.25299 0.0057,-0.0915 0.0119,-0.17709 0.01761,-0.2514 0.003,-0.0383 0.0051,-0.0671 0.0064,-0.0881 0.0013,-0.021 0.0016,-0.0185 0.0016,-0.0464 0,-0.0366 -0.0039,-0.0625 -0.01121,-0.0993 l 0.0032,0.0385 c 0,-0.0575 -0.0097,-0.11411 -0.02722,-0.16653 -0.01936,-0.0581 -0.06077,-0.10938 -0.107283,-0.15372 -0.06402,-0.0701 -0.161546,-0.11048 -0.24339,-0.11048 z m 1.727745,0.40031 c -0.07206,0 -0.143825,0.0307 -0.192149,0.0721 -0.04832,0.0413 -0.07886,0.0889 -0.104081,0.13931 -0.0023,0.004 -0.0044,0.008 -0.0064,0.0128 -0.03946,0.0947 -0.05764,0.19697 -0.05764,0.30103 0,7.2e-4 0.0017,0.0344 0.0032,0.0416 0.0015,0.007 0.0037,0.0116 0.0048,0.016 0.0023,0.009 0.0039,0.0169 0.0064,0.0256 0.0052,0.0175 0.01232,0.0389 0.02082,0.0672 0.01749,0.0583 0.03757,0.1261 0.06085,0.20175 0.0015,0.004 0.0031,0.009 0.0048,0.0128 0.02826,0.0735 0.05638,0.14921 0.08487,0.22897 0.02787,0.0781 0.04935,0.14424 0.06565,0.19856 5.09e-4,0.002 0.0011,0.004 0.0016,0.007 0.0084,0.0252 0.02564,0.0866 0.04803,0.17614 5.36e-4,8.2e-4 0.0011,0.002 0.0016,0.003 0.02447,0.0918 0.05485,0.18982 0.09127,0.29303 0.0388,0.10992 0.08503,0.20802 0.139309,0.29623 0.06444,0.10472 0.177104,0.20656 0.32185,0.20656 0.09211,0 0.14669,-0.0284 0.214567,-0.0625 0.04614,-0.0212 0.09055,-0.0473 0.131303,-0.0913 0.04166,-0.045 0.07526,-0.11638 0.07526,-0.18895 -10e-7,-0.0542 -0.0061,-0.0647 -0.01281,-0.0961 -0.0067,-0.0314 -0.01539,-0.0695 -0.02722,-0.11689 l 0.0016,0.0144 c -0.01833,-0.10386 -0.04403,-0.22313 -0.08007,-0.35547 v -0.002 c -0.03556,-0.13615 -0.07647,-0.27632 -0.123295,-0.42273 v -0.002 c -0.04752,-0.1542 -0.10331,-0.29379 -0.163328,-0.42113 l -0.0016,-0.003 c -0.05579,-0.13581 -0.114973,-0.25223 -0.184144,-0.34907 -0.07395,-0.10353 -0.170861,-0.20336 -0.325053,-0.20336 z m 8.878914,0.0176 c 0.03026,0 0.04013,0.004 0.05764,0.007 -0.0034,0.002 1.77e-4,0.007 -0.0048,0.01 -0.0016,0.002 -0.0033,0.003 -0.0048,0.005 -0.04876,0.0366 -0.1082,0.0695 -0.171333,0.10088 0.01627,-0.0175 0.03447,-0.0512 0.04964,-0.064 l 0.0064,-0.005 c 0.0564,-0.0521 0.08769,-0.0529 0.06725,-0.0529 z"
       id="text2809"
       inkscape:connector-curvature="0"
       sodipodi:nodetypes="assccsccccccccccccsccssccccccccccscccccsccscccccccccccccsccccscccccccccccccccccccscscccaccscccccccccccccccsccssccccccccccscccccsccccccccccccccccsccccsccccccccccccccccccccccscccccccsccccccccccccccccccscscccsccccccccccscsccccccccccsccccccccsccccscccccccccccccsccscccccccccccccccccccccccccccccsccccccccccccccccccccccscsccccccccccccscccsccccccccccsccccsccsccccccsccccsccccccsccccccccccsccccccccccccsccsccccccccccccccccscsccsccccsccscccccccccccccccccccccccsccccccccccccccsccccccsccccssccccccccsccccccsccccssccccccccccccscccsccccccccccccscscccccccscccsccccccccccccccccccccccccccsccccccsccccsccsccccccscccscscccccsccccccccccccsccccccsccccccccccccscccccscsccccccccscccccscccccccccccscscsccscccccsccccccccsccccscsccccccssccccsccccccccccscscccccccccccscccccccccccccccccccccccc" />
  </g>
</svg>
